<svg width="750" height="500" viewBox="0 0 750 500" fill="none" xmlns="http://www.w3.org/2000/svg">
<g clip-path="url(#clip0_1340_182)">
<path d="M520.18 470.637H91.788C77.43 387.838 118.32 300.127 189.54 285.087C224.793 277.643 262.988 286.188 295.439 268.472C354.83 236.049 365.746 133.298 425.005 100.547C466.052 77.8608 517.433 99.4158 547.739 138.897C583.233 185.137 594.877 254.565 576.941 313.013C559.986 368.263 519.408 411.957 520.18 470.637Z" fill="#FBE7DE"/>
<path d="M392.873 470.22C391.058 457.308 392.288 444.052 395.754 431.483C408.871 383.924 472.55 339.527 515.172 384.902C529.866 361.718 544.327 343.851 563.954 324.662C583.666 305.389 606.667 287.925 633.651 282.275C660.635 276.625 692.156 285.572 706.318 309.226C717.057 327.162 716.123 350.202 708.857 369.804C701.591 389.406 688.707 406.333 676.004 422.936C665.231 437.016 654.459 451.096 643.686 465.176C641.617 467.88 641.661 470.271 638.958 472.34L392.873 470.22Z" fill="#EF9B00"/>
<mask id="mask0_1340_182" style="mask-type:luminance" maskUnits="userSpaceOnUse" x="252" y="3" width="507" height="470">
<path d="M758.831 3H252V472.582H758.831V3Z" fill="white"/>
</mask>
<g mask="url(#mask0_1340_182)">
<path d="M549.515 303.16L518.284 301.405C493.505 300.013 472.093 319.147 470.7 343.926L468.227 387.954C464.689 416.516 462.696 501.713 461.564 585.727H511.419C515.309 547.578 518.935 510.243 521.562 480.372L529.867 480.839C531.306 516.813 533.911 556.997 536.251 585.727H582.516C585.544 528.184 589.552 423.094 589.947 388.844L589.894 388.863L592.035 350.743C593.428 325.965 574.293 304.553 549.515 303.16Z" fill="#2C201B" stroke="#2C201B" stroke-width="1.6241" stroke-miterlimit="10" stroke-linecap="round" stroke-linejoin="round"/>
<path d="M500 201L378.285 163.365L328.388 81.4868C321.541 84.0518 314.564 86.2448 307.548 88.3178C307.488 89.5758 307.576 90.8488 307.826 92.1078L337.251 194.102C338.601 200.88 343.138 206.157 348.934 208.626L351.939 209.878L460.335 255.112C473.615 260.654 494.604 267.525 500.012 253.914C505.419 240.305 513.28 206.542 500 201Z" fill="#D9C6B9"/>
<path d="M338.012 51.211C334.883 49.679 326.405 64.497 326.405 64.497C326.405 64.497 320.752 31.221 316.242 31.587C316.06 31.602 315.9 31.672 315.749 31.765C315.368 32.845 314.965 33.916 314.537 34.975C313.843 42.01 317.1 57.544 317.1 57.544C317.1 57.544 315.661 52.315 313.619 46.595C312.841 50.608 311.41 54.444 309.553 58.124C309.833 58.851 310 59.268 310 59.268C310 59.268 309.827 58.866 309.523 58.185C306.817 63.533 303.226 68.557 299.488 73.338C303.578 83.23 307.712 92.278 307.712 92.278L326.598 86.027C326.598 86.027 343.292 53.797 338.012 51.211Z" fill="#DE6944"/>
<path d="M305.255 53.2871C303.028 52.1831 300.178 53.2161 298.603 55.1391C297.028 57.0621 296.511 59.6481 296.431 62.1321C296.253 67.6901 298.065 73.2911 301.466 77.6901C303.768 80.6681 307.441 83.2561 311.069 82.2511C314.135 81.4021 315.982 78.3231 317.217 75.3911C320.159 68.4031 324.174 54.3251 318.999 47.4491C314.555 41.5461 300.968 45.3961 305.255 53.2871Z" fill="#DE6944"/>
<path d="M582.864 585.728L588.024 458.085L530.325 484.049L533.902 585.728H582.864Z" fill="#2C201B" stroke="#2C201B" stroke-width="1.6241" stroke-miterlimit="10" stroke-linecap="round" stroke-linejoin="round"/>
<path d="M546.609 142.538C545.584 147.969 547.271 162.557 548.855 167.852C552.927 181.47 558.744 188.504 564.511 194.431C560.936 199.348 542.695 201.678 536.804 203.18C530.913 204.683 524.503 204.063 519.01 201.459C517.511 200.748 516.083 199.898 514.658 199.05C512.909 198.009 511.161 196.968 509.413 195.926C516.992 182.873 523.468 168.43 521.439 153.473C525.222 152.769 530.577 151.174 534.36 150.469C536.001 150.164 537.659 149.857 539.327 149.928C541.973 150.044 543.998 142.985 546.609 142.538Z" fill="#DE6944"/>
<path d="M455.211 306.234C456.386 327.795 459.454 349.157 464.234 370.375C465.061 373.534 465.9 376.686 466.709 379.848C468.139 385.433 468.133 390.497 472.289 394.558C482.386 404.424 498.66 404.016 511.881 403.851C537.86 403.526 563.681 401.181 589.445 398.164C590.338 398.06 591.036 397.973 591.49 397.917C591.505 397.917 591.52 397.914 591.535 397.911L591.696 397.89C591.944 397.86 592.075 397.839 592.075 397.833C592.657 389.569 593.861 380.084 595.434 369.954C596.664 362.024 598.121 353.701 599.68 345.258C600.086 343.048 600.501 340.833 600.922 338.615C600.928 338.585 600.934 338.555 600.94 338.525C604.372 320.354 606.959 301.984 611.75 284.097C615.91 268.568 629.428 249.358 626 233.001C620.073 204.727 570.293 191.846 547.633 192.505C535.002 192.872 522.445 194.27 509.849 195.177C495.733 196.194 479.352 194.623 468.417 205.396C460.246 213.446 459.697 224.358 458.212 235.147C456.479 247.745 455.378 260.431 454.912 273.14C454.505 284.227 454.613 295.256 455.211 306.234Z" fill="#D9C6B9"/>
<path d="M512.5 143.672C512.507 143.85 512.517 144.029 512.53 144.207C512.537 144.297 512.543 144.388 512.552 144.478C512.557 144.534 512.561 144.59 512.568 144.646C512.585 144.818 512.604 144.986 512.626 145.156C512.633 145.207 512.639 145.257 512.646 145.308C512.681 145.555 512.721 145.801 512.767 146.044C512.815 146.303 512.869 146.56 512.93 146.815C512.951 146.906 512.974 146.995 512.996 147.085C513.009 147.139 513.024 147.194 513.039 147.248C513.095 147.465 513.157 147.678 513.224 147.891C513.382 148.406 513.566 148.911 513.774 149.405C513.823 149.524 513.875 149.642 513.927 149.76C514.402 150.818 514.982 151.817 515.656 152.743C515.803 152.943 515.953 153.14 516.106 153.332C516.189 153.437 516.274 153.538 516.359 153.641C516.502 153.809 516.646 153.974 516.794 154.137C517.156 154.536 517.538 154.915 517.937 155.276C518.124 155.444 518.314 155.607 518.507 155.767C519.298 156.418 520.148 156.993 521.05 157.483C521.729 157.855 522.438 158.175 523.172 158.445C523.333 158.504 523.495 158.561 523.656 158.614C523.771 158.653 523.887 158.69 524.004 158.724C524.066 158.744 524.131 158.764 524.195 158.782C524.254 158.799 524.313 158.816 524.372 158.831C524.561 158.885 524.75 158.935 524.941 158.98C526.075 159.251 527.252 159.398 528.461 159.41C528.727 159.412 528.989 159.408 529.252 159.397C532.203 159.277 534.96 158.338 537.304 156.798C541.72 153.898 544.679 148.865 544.729 143.145L544.763 139.264L544.864 127.849L544.896 124.279L544.94 119.352C544.942 119.081 544.938 118.811 544.927 118.544C544.922 118.412 544.915 118.279 544.907 118.147C544.901 118.041 544.894 117.938 544.884 117.834C544.877 117.73 544.866 117.624 544.854 117.52C544.853 117.494 544.85 117.468 544.846 117.445C544.84 117.381 544.833 117.317 544.824 117.253C544.816 117.176 544.807 117.101 544.796 117.024C544.791 116.977 544.784 116.931 544.778 116.885C544.763 116.773 544.746 116.661 544.727 116.549C544.712 116.455 544.696 116.36 544.678 116.266C544.67 116.21 544.659 116.156 544.648 116.1C544.608 115.881 544.561 115.665 544.51 115.45C544.483 115.329 544.453 115.206 544.421 115.087C544.393 114.975 544.363 114.865 544.332 114.754C544.302 114.646 544.27 114.537 544.238 114.429C544.236 114.426 544.236 114.422 544.234 114.419C544.201 114.311 544.167 114.204 544.133 114.096C544.097 113.988 544.061 113.88 544.024 113.772C543.987 113.666 543.948 113.558 543.909 113.451C543.829 113.235 543.743 113.021 543.655 112.809C543.638 112.768 543.62 112.729 543.602 112.688C543.527 112.514 543.45 112.34 543.369 112.169C543.35 112.129 543.331 112.09 543.312 112.05C543.227 111.873 543.14 111.699 543.049 111.525C543.035 111.498 543.02 111.47 543.006 111.443C540.301 106.351 535.026 102.85 528.965 102.794C522.148 102.732 516.244 107.044 513.844 113.142C513.122 114.975 512.716 116.97 512.698 119.056L512.486 142.85C512.485 143.125 512.49 143.399 512.5 143.672Z" fill="#DE6944"/>
<path d="M522.588 138.082C527.864 137.726 532.793 140.031 537.48 142.276C538.48 142.962 539.593 143.453 540.757 143.747C542.035 144.195 543.352 144.424 544.645 144.42C544.201 149.605 541.388 154.117 537.304 156.799C534.96 158.339 532.202 159.278 529.252 159.398C528.99 159.409 528.727 159.413 528.461 159.411C527.252 159.399 526.075 159.252 524.941 158.981C524.75 158.936 524.561 158.886 524.372 158.832C524.313 158.817 524.254 158.8 524.195 158.783C524.131 158.765 524.067 158.745 524.004 158.725C523.887 158.691 523.772 158.654 523.656 158.615C523.494 158.562 523.332 158.506 523.172 158.446C522.438 158.176 521.729 157.856 521.05 157.484C520.148 156.994 519.298 156.418 518.506 155.768C518.313 155.608 518.123 155.445 517.936 155.277C517.537 154.916 517.155 154.537 516.793 154.138C516.644 153.975 516.5 153.81 516.358 153.642C516.273 153.539 516.189 153.438 516.105 153.333C515.952 153.141 515.802 152.944 515.655 152.744C514.981 151.818 514.401 150.819 513.926 149.761C513.874 149.644 513.822 149.525 513.773 149.407C513.565 148.913 513.381 148.408 513.223 147.893C513.156 147.68 513.094 147.467 513.038 147.25C513.023 147.196 513.009 147.142 512.995 147.087C512.973 146.998 512.95 146.909 512.929 146.817C512.868 146.562 512.814 146.305 512.766 146.046C512.72 145.803 512.68 145.557 512.645 145.31C512.638 145.259 512.632 145.209 512.625 145.158C512.603 144.988 512.584 144.82 512.567 144.648C512.56 144.592 512.556 144.536 512.551 144.48C512.543 144.39 512.536 144.298 512.529 144.209C512.516 144.031 512.506 143.852 512.498 143.674C512.487 143.401 512.483 143.127 512.485 142.852L512.487 142.673C515.419 140.258 518.711 138.343 522.588 138.082Z" fill="#2C201B"/>
<path d="M558.888 137.908C558.847 142.513 555.146 146.213 550.622 146.171C546.098 146.129 542.463 142.362 542.504 137.756C542.545 133.151 546.246 129.451 550.77 129.493C555.295 129.535 558.929 133.302 558.888 137.908Z" fill="#DE6944"/>
<path d="M515.069 109.038C517.104 106.107 520.106 103.905 523.427 102.603C526.41 101.434 529.709 100.97 532.854 101.578C535.999 102.185 538.968 103.916 540.811 106.536C540.684 106.152 540.771 105.932 540.977 105.794C542.127 107.204 543.174 108.689 544.213 110.186C544.277 110.315 544.339 110.445 544.403 110.573C544.701 111.779 544.941 113.007 545.171 114.244V131.31C545.171 131.396 545.402 131.464 545.402 131.55C544.06 133.621 542.59 135.568 541.486 137.775V126.468C539.965 124.605 538.906 122.367 538.429 120.01C538.421 119.969 538.421 119.924 538.419 119.88C534.524 121.369 529.987 119.447 526.175 117.688C522.391 119.947 516.52 121.32 512.664 119.184C512.193 115.648 513.034 111.968 515.069 109.038Z" fill="#2C201B"/>
<path d="M539.406 118.781C542.116 118.781 544.334 116.563 544.334 113.853V110.441C544.334 107.73 542.116 105.513 539.406 105.513C536.695 105.513 534.478 107.731 534.478 110.441V113.853C534.478 116.564 536.696 118.781 539.406 118.781Z" fill="#2C201B"/>
<path d="M537.879 106.129C539.247 104.728 541.655 104.732 543.287 105.814C544.919 106.897 545.838 108.821 546.141 110.756C546.444 112.691 546.208 114.665 545.971 116.609C545.499 120.492 545.026 124.375 544.553 128.258C543.971 120.329 541.458 113.227 537.879 106.129Z" fill="#2C201B"/>
<path d="M526.723 131.549C526.723 132.001 527.222 132.41 528.041 132.715C528.529 132.899 529.133 133.046 529.811 133.135C530.342 133.203 530.914 133.245 531.518 133.245C531.928 133.245 532.327 133.229 532.71 133.193C532.983 133.167 533.251 133.135 533.503 133.093C535.157 132.825 536.308 132.237 536.308 131.549C536.308 130.914 535.31 130.357 533.84 130.068C533.588 130.016 533.32 129.979 533.042 129.947C532.564 129.889 532.049 129.858 531.519 129.858C530.758 129.853 530.043 129.916 529.402 130.026C528.767 130.142 528.21 130.299 527.774 130.488C527.116 130.782 526.723 131.15 526.723 131.549Z" fill="white"/>
<path d="M527.615 131.265C527.599 131.795 527.757 132.294 528.041 132.715C528.529 132.899 529.133 133.046 529.811 133.135C530.342 133.203 530.914 133.245 531.518 133.245C531.928 133.245 532.327 133.229 532.71 133.193C533.193 132.747 533.493 132.143 533.519 131.465C533.535 130.908 533.361 130.383 533.041 129.947C532.563 129.889 532.048 129.858 531.518 129.858C530.757 129.853 530.042 129.916 529.401 130.026C528.766 130.142 528.209 130.299 527.773 130.488C527.684 130.734 527.626 130.992 527.615 131.265Z" fill="#2F1F1A"/>
<path d="M513.386 131.48C513.386 131.848 513.717 132.189 514.284 132.467C514.825 132.73 515.587 132.94 516.474 133.06C516.999 133.134 517.577 133.176 518.175 133.176C518.706 133.176 519.215 133.144 519.688 133.087C519.851 133.071 520.008 133.05 520.161 133.024C521.821 132.756 522.971 132.168 522.971 131.48C522.971 130.839 521.973 130.288 520.497 129.999C520.271 129.957 520.04 129.915 519.793 129.889C519.289 129.821 518.743 129.784 518.175 129.784C517.419 129.784 516.699 129.847 516.064 129.957C515.297 130.088 514.651 130.293 514.184 130.545C513.68 130.813 513.386 131.133 513.386 131.48Z" fill="white"/>
<path d="M514.042 131.296C514.026 131.711 514.116 132.105 514.284 132.467C514.825 132.73 515.587 132.94 516.474 133.06C516.999 133.134 517.577 133.176 518.175 133.176C518.706 133.176 519.215 133.144 519.688 133.087C520.056 132.646 520.276 132.105 520.297 131.506C520.318 130.913 520.129 130.351 519.793 129.888C519.289 129.82 518.743 129.783 518.175 129.783C517.419 129.783 516.699 129.846 516.064 129.956C515.297 130.087 514.651 130.292 514.184 130.544C514.1 130.781 514.048 131.033 514.042 131.296Z" fill="#2F1F1A"/>
<path d="M524.011 130.167L524.171 134.657L520.804 133.054L522.568 137.383" stroke="#452D20" stroke-width="0.481" stroke-miterlimit="10" stroke-linecap="round" stroke-linejoin="round"/>
<path d="M537.018 127.298C536.818 126.789 536.373 126.417 535.91 126.126C533.601 124.679 530.68 124.789 527.959 124.947" stroke="#2C201B" stroke-width="2.8263" stroke-miterlimit="10" stroke-linecap="round" stroke-linejoin="round"/>
<path d="M521.685 124.854C519.149 124.677 516.567 125.202 514.301 126.355" stroke="#2C201B" stroke-width="2.8263" stroke-miterlimit="10" stroke-linecap="round" stroke-linejoin="round"/>
<path d="M619.155 400.274L532.703 325.385C522.67 318.413 517.397 317.499 524.369 307.466C531.342 297.432 531.745 297.236 541.779 304.208L599.648 332.841C598.384 326.316 597.079 319.571 595.781 312.839C591.656 291.445 588.4 274.357 586.102 262.051C584.727 254.685 583.68 248.945 582.988 244.989C581.465 236.267 579.889 227.249 588.152 218.985C596.791 210.346 610.798 210.346 619.437 218.985C623.4 222.948 625.545 228.041 625.872 233.226C627.479 244.084 643.523 326.987 653.487 377.856C655.219 386.697 651.416 395.705 643.872 400.63C640.193 403.033 635.984 404.229 631.778 404.229C627.361 404.23 622.945 402.909 619.155 400.274ZM619.438 250.272C619.446 250.264 619.452 250.256 619.46 250.249C619.453 250.257 619.445 250.264 619.438 250.272ZM619.466 250.243C619.472 250.237 619.478 250.231 619.484 250.225C619.479 250.231 619.473 250.238 619.466 250.243ZM625.792 236.995C625.887 236.141 625.926 235.32 625.918 234.545C625.92 235.363 625.878 236.181 625.792 236.995Z" fill="#DE6944"/>
<path d="M542.858 128.387C537.71 132.899 535.651 140.621 537.868 147.098C540.516 146.459 542.503 146.18 544.724 144.603C544.386 138.223 544.646 131.371 545.262 125.011" fill="#2C201B"/>
<path d="M454.606 237.949C454.606 237.949 456.251 263.037 468.178 278.254L469.412 294.705" stroke="#2C201B" stroke-miterlimit="10" stroke-linecap="round" stroke-linejoin="round"/>
<path d="M523.509 116.86C520.419 119.3 516.185 119.959 512.302 119.305C508.419 118.65 504.834 116.805 501.533 114.66C496.716 111.53 492.294 107.641 489.254 102.767C486.215 97.893 484.649 91.958 485.685 86.308C486.721 80.658 490.59 75.429 495.989 73.468C501.388 71.507 508.125 73.327 511.254 78.143C513.416 81.471 513.715 85.623 514.274 89.552C514.833 93.481 515.906 97.688 519.02 100.149C521.149 101.831 523.905 102.428 526.487 103.263C529.069 104.098 531.751 105.388 532.977 107.808C534.203 110.229 533.002 113.91 530.303 114.194" fill="#2C201B"/>
<path d="M653.488 377.856C647.859 349.125 643.478 322.76 638 294C635.394 280.319 633.064 266.772 631 253C629.421 242.464 627.498 227.046 619.438 218.986C610.799 210.347 596.792 210.347 588.153 218.986C579.89 227.25 581.465 236.268 582.989 244.99C583.68 248.946 584.728 254.686 586.103 262.052C588.401 274.358 591.657 291.446 595.782 312.84C597.08 319.572 598.384 326.316 599.648 332.842L547.784 307.181C547.454 308.038 547.115 308.892 546.755 309.733C546.747 310.073 546.675 310.418 546.508 310.752C543.436 316.894 540.304 322.968 536.417 328.604L619.154 400.275C622.945 402.91 627.36 404.231 631.779 404.231C635.985 404.231 640.194 403.035 643.873 400.632C651.417 395.705 655.22 386.697 653.488 377.856Z" fill="#D9C6B9"/>
<path d="M619.438 250.272C619.446 250.264 619.452 250.256 619.46 250.249C619.453 250.257 619.445 250.264 619.438 250.272Z" fill="#9A91F2"/>
<path d="M619.466 250.243C619.472 250.237 619.478 250.231 619.484 250.225C619.479 250.231 619.473 250.238 619.466 250.243Z" fill="#9A91F2"/>
<path d="M481.492 301.817C481.467 305.598 485.047 309.696 487.139 312.231C490.796 316.662 496.064 319.868 501.673 321.133C511.22 323.286 521.35 320.743 529.95 316.071C533.788 313.986 535.324 307.919 536.82 303.816C535.923 300.062 532.761 297.737 529.226 296.186C525.692 294.635 521.773 294.239 517.923 293.956C515.851 293.804 513.762 293.675 511.703 293.402C509.401 293.097 507.902 295.824 509.41 297.59C510.795 299.212 512.564 300.365 514.803 300.622C515.839 300.741 516.908 300.724 517.887 301.084C518.865 301.444 519.76 302.318 519.725 303.36C519.695 304.273 518.983 305.018 518.28 305.585C516.209 307.254 513.633 308.248 510.973 308.253C503.104 308.269 499.404 301.353 493.888 297.217C492.849 296.438 491.632 295.727 490.339 295.846C489.046 295.966 487.827 297.298 488.286 298.513C488.047 298.231 488.149 299.021 488.357 298.715C488.399 298.649 485.575 298.179 485.321 298.167C483.797 298.097 482.384 298.416 481.801 300.036C481.592 300.616 481.496 301.212 481.492 301.817Z" fill="#DE6944"/>
<path d="M559.183 307.039C559.183 307.039 602.533 325.15 620.218 343.246" stroke="#2C201B" stroke-miterlimit="10" stroke-linecap="round" stroke-linejoin="round"/>
<path d="M586.103 262.052L602.367 329.247" stroke="#2C201B" stroke-miterlimit="10" stroke-linecap="round" stroke-linejoin="round"/>
</g>
<path d="M673.744 304.043C691.925 274.366 677.507 223.026 637.715 223.212C637.623 209.544 630.464 195.983 620.809 186.309C605.478 170.948 581.189 166.542 561.305 175.083" stroke="#EF9B00" stroke-miterlimit="10" stroke-linecap="round" stroke-linejoin="round"/>
<path d="M116.825 226.483L136.427 249.964C155.187 242.924 177.141 248.041 190.702 264.292L324.81 467.541H151.123L39.407 291.108C22.24 270.54 24.996 239.953 45.564 222.786L48.502 220.335C69.07 203.159 99.658 205.916 116.825 226.483Z" fill="#EF9B00"/>
<path d="M75.765 258.585L188.796 454.309" stroke="#2C201B" stroke-miterlimit="10" stroke-linecap="round" stroke-linejoin="round"/>
<path d="M90.55 314.602L171.039 453.578" stroke="#2C201B" stroke-miterlimit="10" stroke-linecap="round" stroke-linejoin="round"/>
<path d="M78.133 252.749C77.909 256.046 75.054 258.537 71.757 258.313C68.46 258.089 65.969 255.234 66.193 251.937C66.417 248.64 69.272 246.149 72.569 246.373C75.866 246.597 78.357 249.452 78.133 252.749Z" fill="#262222"/>
<path d="M90.81 310.779C90.666 312.891 88.838 314.486 86.727 314.343C84.615 314.2 83.02 312.371 83.163 310.26C83.307 308.148 85.135 306.553 87.246 306.696C89.358 306.839 90.954 308.667 90.81 310.779Z" stroke="#262222" stroke-width="1.5" stroke-miterlimit="10" stroke-linecap="round" stroke-linejoin="round"/>
<path d="M493.998 335.491L494.386 335.29L494.774 335.491L494.386 335.693L493.998 335.491Z" fill="#F4DBA8"/>
<path d="M494.774 335.491L494.386 335.693L493.998 335.491L494.386 335.29L494.774 335.491Z" fill="#D6D6F8"/>
<path d="M494.386 335.29L494.774 335.491L494.386 335.693L493.998 335.491L494.386 335.29Z" fill="#D6D6F8"/>
<path d="M315.136 213.88C315.136 213.88 309.385 213.279 307.561 217.765" stroke="#422E22" stroke-width="1.0753" stroke-miterlimit="10" stroke-linecap="round" stroke-linejoin="round"/>
<path d="M183.002 0.317871V148.722" stroke="#2C201B" stroke-width="1.6874" stroke-miterlimit="10" stroke-linecap="round" stroke-linejoin="round"/>
<path d="M191.338 111.682H174.001V161.148H191.338V111.682Z" fill="#2C201B"/>
<path d="M182.669 206.002C192.094 206.002 199.734 198.362 199.734 188.937C199.734 179.512 192.094 171.872 182.669 171.872C173.244 171.872 165.604 179.512 165.604 188.937C165.604 198.362 173.244 206.002 182.669 206.002Z" fill="#EF9B00"/>
<path d="M190.591 160.54H174.747V181.852H190.591V160.54Z" fill="#EF9B00"/>
<path d="M179.26 194.229C177.99 194.229 176.961 193.2 176.961 191.93V172.418C176.961 171.148 177.99 170.119 179.26 170.119C180.53 170.119 181.559 171.148 181.559 172.418V191.93C181.56 193.199 180.53 194.229 179.26 194.229Z" stroke="#2C201B" stroke-width="1.1837" stroke-miterlimit="10" stroke-linecap="round" stroke-linejoin="round"/>
<path d="M186.078 194.229C184.808 194.229 183.779 193.2 183.779 191.93V172.418C183.779 171.148 184.808 170.119 186.078 170.119C187.348 170.119 188.377 171.148 188.377 172.418V191.93C188.377 193.199 187.348 194.229 186.078 194.229Z" stroke="#2C201B" stroke-width="1.1837" stroke-miterlimit="10" stroke-linecap="round" stroke-linejoin="round"/>
<path d="M174.001 150.67C174.001 150.127 191.338 150.67 191.338 150.67" stroke="#4B39CF" stroke-width="1.1558" stroke-miterlimit="10" stroke-linecap="round" stroke-linejoin="round"/>
<path d="M183.779 156.038C191.498 163.083 204.004 175.021 213.146 180.084C222.288 185.147 233.027 188.044 243.277 186.004C250.838 184.5 257.39 180.716 262.033 175.306C265.893 170.808 268.433 165.187 269.133 158.816C269.133 158.816 65.936 158.816 65.926 158.816C65.796 158.816 69.257 147.403 69.699 146.374C71.51 142.158 73.841 138.132 76.798 134.612C104.395 101.75 157.1 126.524 176.356 155.911" stroke="#2C201B" stroke-width="1.6874" stroke-miterlimit="10" stroke-linecap="round" stroke-linejoin="round"/>
<path d="M103.283 119.591L174.001 158.142L128.385 121.536" stroke="#2C201B" stroke-width="1.6874" stroke-miterlimit="10" stroke-linecap="round" stroke-linejoin="round"/>
<path d="M76.798 134.611L174.001 158.142L88.176 127.184" stroke="#2C201B" stroke-width="1.6874" stroke-miterlimit="10" stroke-linecap="round" stroke-linejoin="round"/>
<path d="M69.7 146.373C71.562 142.486 175.86 158.815 175.86 158.815" stroke="#2C201B" stroke-width="1.6874" stroke-miterlimit="10" stroke-linecap="round" stroke-linejoin="round"/>
<path d="M235.728 186.654L183.779 156.038" stroke="#2C201B" stroke-width="1.6874" stroke-miterlimit="10" stroke-linecap="round" stroke-linejoin="round"/>
<path d="M251.545 183.271L187.349 158.142" stroke="#2C201B" stroke-width="1.6874" stroke-miterlimit="10" stroke-linecap="round" stroke-linejoin="round"/>
<path d="M193.171 158.816L262.033 175.306" stroke="#2C201B" stroke-width="1.6874" stroke-miterlimit="10" stroke-linecap="round" stroke-linejoin="round"/>
<path d="M267.058 167.061L199.734 158.816" stroke="#2C201B" stroke-width="1.6874" stroke-miterlimit="10" stroke-linecap="round" stroke-linejoin="round"/>
<path d="M145.577 195.403C147.975 193.323 148.234 189.693 146.154 187.295C144.074 184.897 140.444 184.638 138.046 186.718C135.648 188.798 135.389 192.428 137.469 194.826C139.548 197.224 143.179 197.482 145.577 195.403Z" fill="#EF9B00"/>
<path d="M169.995 230.634C153.426 225.632 141.123 208.992 141.196 191.685" stroke="#EF9B00" stroke-miterlimit="10" stroke-linecap="round" stroke-linejoin="round"/>
<path d="M699.596 429.547C701.676 427.149 705.306 426.89 707.704 428.97C710.102 431.05 710.361 434.68 708.281 437.078C706.201 439.476 702.571 439.735 700.173 437.655C697.774 435.576 697.516 431.945 699.596 429.547Z" fill="#2C201B"/>
<path d="M664.365 405.129C669.367 421.698 686.007 434.001 703.314 433.927" stroke="#2C201B" stroke-miterlimit="10" stroke-linecap="round" stroke-linejoin="round"/>
<path d="M700.237 147.485C697.839 145.405 697.58 141.775 699.66 139.377C701.74 136.979 705.37 136.72 707.768 138.8C710.166 140.88 710.425 144.51 708.345 146.908C706.266 149.307 702.636 149.565 700.237 147.485Z" fill="#EF9B00"/>
<path d="M675.819 182.716C692.388 177.714 704.691 161.074 704.618 143.767" stroke="#EF9B00" stroke-miterlimit="10" stroke-linecap="round" stroke-linejoin="round"/>
<path d="M501.933 197.188C513.23 215.275 548.079 201.351 561.306 192.692" stroke="#2C201B" stroke-miterlimit="10" stroke-linecap="round" stroke-linejoin="round"/>
<path d="M392.136 80.811C395.501 80.811 398.229 78.0831 398.229 74.718C398.229 71.3529 395.501 68.625 392.136 68.625C388.771 68.625 386.043 71.3529 386.043 74.718C386.043 78.0831 388.771 80.811 392.136 80.811Z" stroke="#2C201B" stroke-width="1.5" stroke-miterlimit="10" stroke-linecap="round" stroke-linejoin="round"/>
<path d="M421.17 87.8017C421.17 89.7437 419.595 91.3187 417.653 91.3187C415.711 91.3187 414.136 89.7437 414.136 87.8017C414.136 85.8597 415.711 84.2847 417.653 84.2847C419.595 84.2847 421.17 85.8587 421.17 87.8017Z" stroke="#2C201B" stroke-width="1.5" stroke-miterlimit="10" stroke-linecap="round" stroke-linejoin="round"/>
<path d="M273.918 127.327C275.358 127.327 276.525 126.16 276.525 124.72C276.525 123.28 275.358 122.113 273.918 122.113C272.478 122.113 271.311 123.28 271.311 124.72C271.311 126.16 272.478 127.327 273.918 127.327Z" stroke="#2C201B" stroke-width="1.5" stroke-miterlimit="10" stroke-linecap="round" stroke-linejoin="round"/>
<path d="M280.063 95.5807C283.182 95.5807 285.711 93.052 285.711 89.9327C285.711 86.8134 283.182 84.2847 280.063 84.2847C276.944 84.2847 274.415 86.8134 274.415 89.9327C274.415 93.052 276.944 95.5807 280.063 95.5807Z" stroke="#2C201B" stroke-width="1.5" stroke-miterlimit="10" stroke-linecap="round" stroke-linejoin="round"/>
<path d="M109.088 185.563C109.088 186.948 107.965 188.071 106.58 188.071C105.195 188.071 104.073 186.948 104.073 185.563C104.073 184.178 105.196 183.056 106.58 183.056C107.965 183.055 109.088 184.178 109.088 185.563Z" stroke="#2C201B" stroke-width="2.3913" stroke-miterlimit="10" stroke-linecap="round" stroke-linejoin="round"/>
<path d="M211.641 237.19C211.641 240.342 209.086 242.898 205.933 242.898C202.781 242.898 200.225 240.343 200.225 237.19C200.225 234.037 202.78 231.482 205.933 231.482C209.085 231.483 211.641 234.038 211.641 237.19Z" stroke="#2C201B" stroke-width="1.5" stroke-miterlimit="10" stroke-linecap="round" stroke-linejoin="round"/>
<path d="M224.283 214.462C224.283 216.286 222.804 217.765 220.98 217.765C219.156 217.765 217.677 216.286 217.677 214.462C217.677 212.638 219.156 211.159 220.98 211.159C222.804 211.159 224.283 212.638 224.283 214.462Z" stroke="#2C201B" stroke-width="1.5" stroke-miterlimit="10" stroke-linecap="round" stroke-linejoin="round"/>
<path d="M58.195 397.252C58.195 397.996 57.592 398.599 56.848 398.599C56.104 398.599 55.501 397.996 55.501 397.252C55.501 396.508 56.104 395.904 56.848 395.904C57.592 395.905 58.195 396.508 58.195 397.252Z" stroke="#2C201B" stroke-width="2.3913" stroke-miterlimit="10" stroke-linecap="round" stroke-linejoin="round"/>
<path d="M425.51 263.315C425.51 265.484 423.751 267.243 421.582 267.243C419.413 267.243 417.654 265.484 417.654 263.315C417.654 261.146 419.413 259.387 421.582 259.387C423.751 259.386 425.51 261.145 425.51 263.315Z" stroke="#2C201B" stroke-width="1.5" stroke-miterlimit="10" stroke-linecap="round" stroke-linejoin="round"/>
<path d="M412.324 430.16C412.324 432.474 410.448 434.351 408.133 434.351C405.819 434.351 403.942 432.475 403.942 430.16C403.942 427.845 405.818 425.969 408.133 425.969C410.448 425.969 412.324 427.846 412.324 430.16Z" stroke="#2C201B" stroke-width="1.5" stroke-miterlimit="10" stroke-linecap="round" stroke-linejoin="round"/>
<path d="M432.328 418.685C432.328 420.568 430.802 422.094 428.919 422.094C427.036 422.094 425.51 420.568 425.51 418.685C425.51 416.802 427.036 415.276 428.919 415.276C430.802 415.276 432.328 416.802 432.328 418.685Z" stroke="#2C201B" stroke-width="1.5" stroke-miterlimit="10" stroke-linecap="round" stroke-linejoin="round"/>
<path d="M634.601 152.864C634.601 156.836 631.381 160.055 627.41 160.055C623.438 160.055 620.219 156.835 620.219 152.864C620.219 148.892 623.439 145.673 627.41 145.673C631.381 145.673 634.601 148.893 634.601 152.864Z" stroke="#2C201B" stroke-width="1.5" stroke-miterlimit="10" stroke-linecap="round" stroke-linejoin="round"/>
<path d="M636.817 113.537C638.509 113.537 639.88 112.165 639.88 110.474C639.88 108.782 638.509 107.411 636.817 107.411C635.125 107.411 633.754 108.782 633.754 110.474C633.754 112.165 635.125 113.537 636.817 113.537Z" stroke="#2C201B" stroke-width="1.5" stroke-miterlimit="10" stroke-linecap="round" stroke-linejoin="round"/>
<path d="M406.991 150.703C426.769 147.992 444.618 135.499 455.443 118.725C466.267 101.951 470.329 81.2739 468.453 61.3989" stroke="#EF9B00" stroke-miterlimit="10" stroke-linecap="round" stroke-linejoin="round"/>
<path d="M468.804 65.0547C473.257 65.0547 476.866 61.4452 476.866 56.9927C476.866 52.5401 473.257 48.9307 468.804 48.9307C464.351 48.9307 460.742 52.5401 460.742 56.9927C460.742 61.4452 464.351 65.0547 468.804 65.0547Z" fill="#EF9B00"/>
<path d="M584.723 405.873C576.778 395.062 576.105 380.473 578.251 367.229C580.398 353.985 585.018 341.198 586.581 327.873C587.23 349.269 602.329 368.972 604.207 390.296C604.522 393.869 604.467 397.564 603.187 400.915C601.906 404.266 599.219 407.238 595.736 408.096C592.253 408.954 586.847 408.764 584.723 405.873Z" fill="#2C201B" stroke="#2C201B" stroke-width="1.6241" stroke-miterlimit="10" stroke-linecap="round" stroke-linejoin="round"/>
<path d="M569.132 403.196C563.602 394.213 560.754 383.879 557.974 373.703C555.104 363.199 552.234 352.696 549.365 342.192C561.807 357.049 574.25 371.906 586.692 386.764C592.302 393.463 604.899 409.396 594.983 417.75C585.919 425.384 573.297 409.962 569.132 403.196Z" fill="#8080D0"/>
<path d="M617.264 406.547C622.794 397.564 625.642 387.23 628.422 377.054C631.292 366.55 634.162 356.047 637.032 345.543C624.59 360.4 612.147 375.258 599.705 390.115C594.095 396.814 581.498 412.747 591.414 421.101C600.477 428.735 613.098 413.312 617.264 406.547Z" fill="#8080D0"/>
<path d="M605.92 472.582H578.262C571.27 472.582 565.603 466.914 565.603 459.923V415.277H618.579V459.923C618.579 466.914 612.912 472.582 605.92 472.582Z" fill="#BEBCEE"/>
<path d="M565.603 373.742L594.982 417.749L621.31 377.874" stroke="#2C201B" stroke-width="1.5" stroke-miterlimit="10" stroke-linecap="round" stroke-linejoin="round"/>
<path d="M565.603 429.69H618.579" stroke="#2C201B" stroke-width="1.5" stroke-miterlimit="10" stroke-linecap="round" stroke-linejoin="round"/>
<path d="M77.388 470.685C232.817 470.685 475.593 472.582 630.88 472.582" stroke="#2C201B" stroke-width="1.5" stroke-miterlimit="10" stroke-linecap="round" stroke-linejoin="round"/>
<path d="M306.226 176.574C290.567 171.832 270.767 178.712 264.24 193.214C256.614 210.159 266.616 231.805 254.967 246.726C247.552 256.225 233.764 259.441 221.031 260.492C208.299 261.543 194.98 261.219 183.442 266.24C171.903 271.261 163.058 284.107 168.571 294.628C150.584 306.703 140.028 333.078 148.471 351.937C156.914 370.796 180.312 383.049 202.425 380.191H390.38C408.195 380.191 424.795 367.131 432.52 352.489C440.245 337.847 439.886 320.041 432.341 305.321C427.402 295.685 418.053 286.653 406.392 286.483C410.359 277.04 400.567 267.943 391.384 262.275C382.202 256.607 370.97 254.653 360.332 251.804C349.706 248.958 338.721 244.606 332.808 236.068C322.078 220.576 332.235 198.889 319.219 184.609C315.658 180.701 311.146 178.064 306.226 176.574Z" fill="#2C201B" stroke="#2C201B" stroke-width="1.6241" stroke-miterlimit="10" stroke-linecap="round" stroke-linejoin="round"/>
<path d="M373.102 470.61C370.848 460.379 366.702 450.487 361.006 441.901C354.188 431.624 344.988 422.77 337.89 412.646C330.792 402.523 325.783 390.333 328.739 378.667L265.474 384.973C262.924 413.676 258.801 442.263 253.175 470.61H373.102Z" fill="#974F41"/>
<path d="M373.102 470.61C370.848 460.379 366.702 450.487 361.006 441.901C354.188 431.624 344.988 422.77 337.89 412.646C337.468 412.044 337.053 411.433 336.647 410.817C329.495 410.894 322.343 410.91 315.19 410.849C312.1 410.822 309.011 410.781 305.921 410.724H262.765C260.33 430.777 257.118 450.753 253.174 470.611H373.102V470.61Z" fill="#2C201B"/>
<path d="M315.136 263.293C306.1 258.356 299.284 243.308 302.122 231.482L284.645 237.189C284.88 244.238 282.352 249.718 278.47 255.607C276.446 258.676 272.35 261.395 268.816 262.406C273.921 269.243 282.758 272.663 291.289 272.879C299.819 273.096 309.691 269.863 315.136 263.293Z" fill="#974F41"/>
<path d="M289.739 238.25C280.94 238.25 273.74 231.05 273.74 222.251V199.055C273.74 190.256 280.939 183.056 289.739 183.056C298.538 183.056 305.738 190.256 305.738 199.055V222.251C305.738 231.05 298.539 238.25 289.739 238.25Z" fill="#974F41"/>
<path d="M319.105 216.878C319.105 220.894 315.85 224.149 311.834 224.149C307.818 224.149 304.563 220.894 304.563 216.878C304.563 212.862 307.818 209.607 311.834 209.607C315.85 209.607 319.105 212.862 319.105 216.878Z" fill="#974F41"/>
<path d="M280.317 212.173L283.658 210.998C284.13 210.832 284.38 210.31 284.214 209.839C284.048 209.367 283.526 209.117 283.055 209.283L279.714 210.458C279.242 210.624 278.992 211.146 279.158 211.617C279.324 212.089 279.846 212.339 280.317 212.173Z" fill="#2C201B"/>
<path d="M292.592 209.82L295.838 211.235C296.296 211.435 296.835 211.223 297.035 210.765C297.235 210.307 297.023 209.768 296.565 209.568L293.319 208.153C292.861 207.953 292.322 208.165 292.122 208.623C291.922 209.081 292.133 209.62 292.592 209.82Z" fill="#2C201B"/>
<path d="M287.43 217.483L287.572 221.447L284.599 220.031L286.156 223.855" stroke="#422E22" stroke-width="0.5376" stroke-miterlimit="10" stroke-linecap="round" stroke-linejoin="round"/>
<path d="M290.296 217.765C290.296 217.765 293.522 214.898 296.748 217.048" stroke="#422E22" stroke-width="1.0753" stroke-miterlimit="10" stroke-linecap="round" stroke-linejoin="round"/>
<path d="M278.468 217.765C278.468 217.765 281.694 214.898 284.92 217.048" stroke="#422E22" stroke-width="1.0753" stroke-miterlimit="10" stroke-linecap="round" stroke-linejoin="round"/>
<path d="M284.371 225.053L290.406 224.97C290.222 226.117 289.162 226.99 288.017 227.188C286.024 227.533 284.867 226.458 284.371 225.053Z" fill="#2C201B"/>
<path d="M259.915 435.932L250.508 442.927C250.508 442.927 250.645 443.107 250.901 443.431L183.556 413.783C176.287 410.585 172.947 401.993 176.088 394.598C176.128 394.504 176.167 394.414 176.207 394.319L176.949 392.686L206.342 328.069C210.381 340.7 217.346 355.156 228.649 363.986L211.64 394.373L199.542 385.358L206.148 406.451L211.64 394.373L259.587 430.098C259.896 430.327 260.184 430.575 260.449 430.849C260.003 430.962 259.552 431.079 259.106 431.191C259.265 432.797 259.5 434.394 259.915 435.932Z" fill="#974F41"/>
<path d="M199.542 385.358L211.641 394.373L206.148 406.451L199.542 385.358Z" fill="#974F41"/>
<path d="M262.491 438.73C262.332 439.288 262.115 439.832 261.833 440.354C261.669 440.66 261.488 440.952 261.281 441.24C261.047 441.564 260.795 441.865 260.525 442.14C258.254 444.483 254.794 445.14 251.856 443.849L250.902 443.431C250.646 443.107 250.509 442.927 250.509 442.927L259.916 435.932C259.501 434.394 259.266 432.797 259.107 431.191C259.553 431.079 260.004 430.962 260.45 430.849C261.374 431.762 262.032 432.878 262.407 434.079C262.889 435.573 262.924 437.197 262.491 438.73Z" fill="#974F41"/>
<path d="M260.68 445.319L263.884 455.439C264.911 458.685 268.361 460.485 271.55 459.439L280.792 456.407C283.98 455.361 285.748 451.849 284.721 448.603L281.517 438.482C280.489 435.236 277.04 433.436 273.851 434.483L264.609 437.516C261.42 438.561 259.652 442.073 260.68 445.319Z" fill="#974F41"/>
<path d="M268.023 459.364C267.855 459.369 267.678 459.351 267.488 459.315C262.919 458.42 252.995 446.09 250.9 443.432C250.644 443.108 250.507 442.928 250.507 442.928L259.914 435.933L262.406 434.08L263.749 433.081L264.478 437.561L265.477 443.696L268.023 459.364Z" fill="#974F41"/>
<path d="M251.069 442.665C251.254 445.912 252.443 449.093 254.423 451.646C257.674 455.835 262.7 458.072 267.06 461.039C267.647 461.439 268.23 461.858 268.712 462.383C269.375 463.105 269.823 463.999 270.301 464.859C271.464 466.951 272.854 468.912 274.436 470.695C275.126 471.472 275.903 472.247 276.899 472.51C277.895 472.773 279.144 472.312 279.415 471.302C279.633 470.491 279.181 469.666 278.756 468.945C276.759 465.554 274.98 462.03 273.435 458.403C275.1 459.337 277.019 460.404 278.274 461.858C279.768 463.589 280.907 465.627 282.503 467.26C284.593 469.398 287.353 470.725 290.157 471.697C290.812 471.924 291.537 472.133 292.18 471.873C292.823 471.613 293.205 470.662 292.698 470.182C294.34 470.695 296.311 471.13 297.33 469.721C298.566 468.012 296.873 465.776 295.525 464.158C290.544 458.173 289.353 449.669 284.509 443.568C280.768 438.855 275.23 436.05 269.783 433.608" fill="#974F41"/>
<path d="M267.091 431.685C273.759 433.639 281.206 434.445 286.278 439.265C287.413 440.343 288.381 441.588 289.419 442.763C291.652 445.291 294.211 447.503 296.886 449.54C297.843 450.269 298.913 451.158 298.929 452.374C291.598 451.588 286.511 444.516 279.633 441.817C274.347 439.743 268.091 440.297 263.4 437.064C261.366 435.662 259.866 433.678 258.385 431.719C257.267 430.241 254.308 427.635 254.12 425.97C258.48 427.867 262.443 430.323 267.091 431.685Z" fill="#974F41"/>
<path d="M423.032 371.608C422.976 371.524 422.92 371.445 422.863 371.361L421.832 369.919C421.832 369.919 396.104 335.748 395.94 335.865C387.294 342.005 375.127 351.002 369.45 355.417L387.965 378.036L398.229 367.051L395.594 388.698L387.965 378.036L347.288 421.571C347.025 421.851 346.788 422.143 346.577 422.459C347.037 422.484 347.503 422.513 347.963 422.538C348.101 424.122 348.164 425.711 348.037 427.278L358.589 432.289C358.589 432.289 358.487 432.489 358.294 432.85L419.198 391.57C425.772 387.116 427.485 378.177 423.032 371.608Z" fill="#974F41"/>
<path d="M398.229 367.05L387.965 378.036L395.594 388.697L398.229 367.05Z" fill="#974F41"/>
<path d="M346.013 430.467C346.272 430.977 346.585 431.463 346.96 431.915C347.177 432.18 347.409 432.429 347.667 432.669C347.957 432.939 348.261 433.183 348.577 433.398C351.245 435.242 354.774 435.231 357.432 433.432L358.295 432.849C358.488 432.488 358.59 432.288 358.59 432.288L348.038 427.277C348.165 425.711 348.102 424.121 347.964 422.537C347.504 422.511 347.038 422.483 346.578 422.458C345.836 423.514 345.392 424.717 345.242 425.949C345.042 427.486 345.305 429.064 346.013 430.467Z" fill="#974F41"/>
<path d="M349.007 436.505L347.709 446.898C347.292 450.231 344.225 452.618 340.891 452.201L331.229 450.994C327.896 450.578 325.509 447.51 325.926 444.176L327.224 433.783C327.64 430.45 330.708 428.063 334.042 428.48L343.704 429.687C347.037 430.103 349.424 433.172 349.007 436.505Z" fill="#974F41"/>
<path d="M344.351 451.469C344.517 451.442 344.688 451.392 344.869 451.321C349.206 449.601 356.719 435.814 358.295 432.849C358.488 432.488 358.59 432.288 358.59 432.288L348.038 427.277L345.242 425.949L343.735 425.234L343.839 429.706L343.982 435.83L344.351 451.469Z" fill="#974F41"/>
<path d="M357.989 432.14C358.402 435.317 357.816 438.618 356.333 441.458C353.9 446.119 349.359 449.224 345.608 452.91C345.103 453.407 344.606 453.921 344.227 454.52C343.706 455.343 343.429 456.291 343.116 457.213C342.354 459.455 341.345 461.612 340.114 463.634C339.577 464.515 338.953 465.411 338.02 465.851C337.087 466.291 335.772 466.079 335.319 465.153C334.955 464.409 335.249 463.526 335.536 462.749C336.881 459.094 337.986 455.352 338.842 451.553C337.374 452.768 335.679 454.16 334.709 455.801C333.555 457.756 332.807 459.94 331.534 461.819C329.868 464.279 327.393 466.079 324.808 467.543C324.204 467.885 323.529 468.223 322.848 468.091C322.167 467.96 321.616 467.11 322.027 466.552C320.503 467.355 318.641 468.144 317.379 466.972C315.848 465.55 317.105 463.069 318.136 461.251C321.944 454.528 321.557 446.076 325.208 439.266C328.028 434.006 332.969 430.256 337.887 426.875" fill="#974F41"/>
<path d="M340.188 424.508C333.978 427.645 326.789 429.817 322.677 435.429C321.757 436.685 321.031 438.07 320.224 439.401C318.488 442.265 316.373 444.884 314.112 447.355C313.303 448.239 312.412 449.299 312.62 450.48C319.697 448.349 323.41 440.554 329.691 436.657C334.518 433.662 340.783 433.029 344.811 429.023C346.558 427.286 347.671 425.086 348.771 422.913C349.601 421.273 352.037 418.199 351.917 416.553C347.97 419.205 344.516 422.322 340.188 424.508Z" fill="#974F41"/>
<path d="M351.129 307.226C351.727 298.92 352.54 290.329 348.271 282.919C348.171 282.746 348.067 282.578 347.961 282.41C333.321 258.959 295.066 256.64 270.996 261.444C265.982 262.445 261.042 263.823 256.238 265.588C241.91 270.848 231.342 283.364 228.812 298.447C225.658 317.25 239.159 327.633 241.202 344.655C243.217 361.441 241.574 379.05 244.763 395.645C247.031 407.451 257.278 416.427 269.445 416.427H326.742C340.518 416.427 351.79 405.155 351.79 391.379C351.79 391.379 351.79 350.207 351.79 350.19C351.79 337.937 350.574 325.705 350.802 313.45C350.84 311.41 350.978 309.327 351.129 307.226Z" fill="#F3A1A3"/>
<path d="M220.689 449.878L252.635 465.904C228.179 456.357 201.802 451.761 175.559 452.474" stroke="#BEBCEE" stroke-width="0.9401" stroke-miterlimit="10"/>
<path d="M342.506 334.46L379.193 378.172L337.887 426.873C337.887 426.873 332.381 435.445 349.007 436.505L423.322 396.093C428.021 392.639 431.013 387.337 431.541 381.529C432.011 376.364 430.492 371.215 427.295 367.132L356.939 282.979C356.939 282.979 328.913 282.017 342.506 334.46Z" fill="#974F41"/>
<path d="M155.168 391.442L239.051 277.239L241.202 344.655L211.641 394.373L155.168 391.442Z" fill="#974F41"/>
<path d="M269.133 207.99C271.023 209.018 273.357 208.641 275.412 208.003C283.695 205.434 290.65 198.897 293.727 190.789C295.428 199.985 301.479 205.61 310.665 207.365C310.088 204.256 310.343 200.992 310.168 197.836C309.69 189.217 304.024 181.309 296.43 177.204C293.961 175.869 291.198 174.88 288.398 175.087C285.828 175.277 283.423 176.464 281.327 177.964C273.332 183.684 266.694 198.466 269.133 207.99Z" fill="#2C201B"/>
<path d="M190.504 325.195C190.504 325.195 188.757 362.822 232.872 369.374L251.069 349.282C251.069 349.282 267.07 292.553 239.051 277.239L190.504 325.195Z" fill="#F3A1A3"/>
<path d="M323.829 264.316C323.829 264.316 350.251 270.661 373.102 290.753L414.136 340.109C414.136 340.109 395.791 372.431 366.527 373.741L337.013 339.672C337.013 339.672 307.406 291.096 323.829 264.316Z" fill="#F3A1A3"/>
<path d="M217.174 300.221C224.639 310.817 237.367 317.562 250.362 317.442C274.936 317.216 289.616 292.888 305.279 277.41C311.937 270.831 320.489 265.332 329.849 265.393" stroke="#2C201B" stroke-miterlimit="10" stroke-linecap="round" stroke-linejoin="round"/>
<path d="M374.544 291.515C346.835 288.684 319.375 306.606 306.971 331.545C294.567 356.484 291.976 387.783 307.416 416.427" stroke="#2C201B" stroke-miterlimit="10" stroke-linecap="round" stroke-linejoin="round"/>
<path d="M321.758 473.882H158.639C154.704 473.882 151.484 470.662 151.484 466.727V466.577C151.484 462.642 154.704 459.422 158.639 459.422H321.758C325.693 459.422 328.913 462.642 328.913 466.577V466.727C328.913 470.662 325.693 473.882 321.758 473.882Z" fill="#8080D0"/>
<path d="M154.645 467.751L135.405 401.785C133.367 394.796 138.522 387.783 145.697 387.783H250.347C254.689 387.783 258.604 390.441 260.265 394.516L283.351 451.168C286.3 458.404 281.005 466.345 273.296 466.242C236.795 465.757 151.862 464.925 154.645 467.751Z" fill="#BEBCEE"/>
<path d="M200.226 439.749C204.487 439.749 207.941 436.295 207.941 432.034C207.941 427.773 204.487 424.319 200.226 424.319C195.965 424.319 192.511 427.773 192.511 432.034C192.511 436.295 195.965 439.749 200.226 439.749Z" stroke="#2C201B" stroke-width="1.5513" stroke-miterlimit="10"/>
<path d="M250.346 387.783L280.792 456.406" stroke="#2C201B" stroke-width="1.5" stroke-miterlimit="10" stroke-linecap="round" stroke-linejoin="round"/>
<path d="M315.809 467.542H273.504" stroke="#2C201B" stroke-width="1.5" stroke-miterlimit="10" stroke-linecap="round" stroke-linejoin="round"/>
<path d="M676.694 358.305C676.694 360.78 674.688 362.786 672.213 362.786C669.738 362.786 667.732 360.78 667.732 358.305C667.732 355.83 669.738 353.824 672.213 353.824C674.688 353.824 676.694 355.83 676.694 358.305Z" stroke="#2C201B" stroke-width="1.5" stroke-miterlimit="10" stroke-linecap="round" stroke-linejoin="round"/>
<path d="M671.952 322.911C672.995 318.477 670.246 314.038 665.812 312.995C661.378 311.952 656.938 314.701 655.895 319.135C654.853 323.57 657.602 328.009 662.036 329.052C666.47 330.095 670.91 327.345 671.952 322.911Z" stroke="#2C201B" stroke-width="1.5" stroke-miterlimit="10" stroke-linecap="round" stroke-linejoin="round"/>
<path d="M645.372 185.463C645.372 186.98 644.142 188.21 642.625 188.21C641.108 188.21 639.878 186.98 639.878 185.463C639.878 183.946 641.108 182.716 642.625 182.716C644.143 182.716 645.372 183.946 645.372 185.463Z" fill="#2C201B"/>
<path d="M689.635 325.135C689.635 327.413 687.789 329.259 685.511 329.259C683.233 329.259 681.387 327.413 681.387 325.135C681.387 322.857 683.233 321.011 685.511 321.011C687.788 321.011 689.635 322.858 689.635 325.135Z" fill="#2C201B"/>
<path d="M436.476 275.537C438.766 275.537 440.623 273.68 440.623 271.39C440.623 269.099 438.766 267.243 436.476 267.243C434.186 267.243 432.329 269.099 432.329 271.39C432.329 273.68 434.186 275.537 436.476 275.537Z" fill="#2C201B"/>
<path d="M392.039 93.7931C392.039 95.9251 390.311 97.6531 388.179 97.6531C386.047 97.6531 384.319 95.9251 384.319 93.7931C384.319 91.6611 386.047 89.9331 388.179 89.9331C390.311 89.9331 392.039 91.6611 392.039 93.7931Z" fill="#2C201B"/>
<path d="M263.489 114.036C265.167 114.036 266.528 112.675 266.528 110.997C266.528 109.319 265.167 107.958 263.489 107.958C261.811 107.958 260.45 109.319 260.45 110.997C260.45 112.675 261.811 114.036 263.489 114.036Z" fill="#2C201B"/>
</g>
<defs>
<clipPath id="clip0_1340_182">
<rect width="750" height="500" fill="white"/>
</clipPath>
</defs>
</svg>
