<svg width="500" height="372" viewBox="0 0 500 372" fill="none" xmlns="http://www.w3.org/2000/svg">
<g clip-path="url(#clip0_1368_3533)">
<path d="M50.5572 244.94L49.2392 243.029L47.9442 244.94L46.2752 243.709L47.7252 241.997L45.6602 241.579L46.2752 239.537L48.2962 240.306L48.1862 238.242H50.2712L50.0522 240.35L52.2052 239.537L52.7762 241.579L50.6682 241.997L52.2052 243.709L50.5572 244.94Z" fill="white"/>
<path d="M369.184 242.694V283.77C369.184 286.752 366.766 289.17 363.784 289.17H138.784C135.802 289.17 133.384 286.752 133.384 283.77V133.47C133.384 130.488 135.802 128.07 138.784 128.07H363.784C366.766 128.07 369.184 130.488 369.184 133.47V181.494" stroke="white" stroke-width="2" stroke-miterlimit="10"/>
<path d="M361.084 136.075H141.484V258.57H361.084V136.075Z" fill="#18203E"/>
<path d="M232.847 289.17L221.066 345.597C220.552 347.218 220.289 348.935 220.289 350.665C220.289 350.681 220.289 350.698 220.289 350.714C220.297 353.298 222.164 355.343 224.356 355.343H278.21C280.402 355.343 282.269 353.298 282.277 350.714C282.277 350.698 282.277 350.681 282.277 350.665C282.277 348.935 282.014 347.218 281.5 345.597L269.72 289.17" stroke="white" stroke-width="2" stroke-miterlimit="10"/>
<path d="M133.384 272.615H369.184" stroke="white" stroke-width="2" stroke-miterlimit="10"/>
<path d="M376.185 92.4808C382.327 92.4808 387.306 87.5008 387.306 81.3588C387.306 75.2158 382.326 70.2368 376.184 70.2368C370.042 70.2368 365.062 75.2168 365.062 81.3588C365.062 87.5008 370.041 92.4808 376.184 92.4808C365.146 92.4808 356.197 101.43 356.197 112.469H396.172C396.172 101.43 387.223 92.4818 376.185 92.4808Z" stroke="white" stroke-width="2" stroke-miterlimit="10"/>
<path d="M84.2281 109.544L81.3801 106.914L97.7521 89.192C97.8641 89.059 113.941 70.406 137.68 51.094C159.667 33.208 192.939 11.059 226.591 7.11099C227.588 6.98699 249.702 5.20299 258.67 20.944L257.029 21.879C249.345 8.39098 227.275 10.932 227.053 10.959C164.295 18.32 101.275 91.034 100.646 91.768L84.2281 109.544Z" fill="#FFCA45"/>
<path d="M103.643 93.5999C110.996 93.4329 117.843 89.9309 123.253 85.1129C128.949 80.0389 133.372 73.4089 135.839 66.1879C137.172 62.2869 137.932 58.1969 137.866 54.0669C137.636 54.2269 137.406 54.3869 137.176 54.5469C147.571 58.0679 159.038 58.0079 169.435 54.5129C180.385 50.8319 189.661 43.2449 195.71 33.4299C199.175 27.8069 201.532 21.5129 202.549 14.9839C202.321 15.1019 202.093 15.2199 201.864 15.3379C207.673 19.0979 214.248 21.6739 221.099 22.7019C227.759 23.7009 234.63 23.2219 241.05 21.1619C244.744 19.9759 247.649 18.5909 250.884 16.4519C251.405 16.1069 251.467 14.9839 250.947 15.3279C245.32 19.0489 238.853 21.3589 232.138 22.0289C225.538 22.6869 218.812 21.7949 212.57 19.5679C208.952 18.2769 205.503 16.5499 202.279 14.4639C202.011 14.2909 201.638 14.5399 201.594 14.8179C199.817 26.2259 193.856 36.8899 185.134 44.4489C176.885 51.5979 166.311 55.6559 155.427 56.1529C149.396 56.4279 143.312 55.6109 137.591 53.6729C137.235 53.5519 136.895 53.7589 136.901 54.1529C137.017 61.4219 134.502 68.5959 130.706 74.7239C126.856 80.9399 121.411 86.4579 114.822 89.7369C111.313 91.4829 107.488 92.5469 103.56 92.6359C102.936 92.6489 103.021 93.6139 103.643 93.5999Z" fill="white"/>
<path d="M92.6391 91.272L99.5161 98.056L80.1741 120.617C78.3321 122.628 75.1991 122.74 73.2191 120.864C71.2781 119.026 71.1771 115.968 72.9931 114.006L92.6391 91.272Z" fill="white"/>
<path d="M108.593 96.9782C107.136 100.055 103.461 101.368 100.384 99.9122C97.3071 98.4552 95.9941 94.7802 97.4501 91.7032C98.9071 88.6262 102.582 87.3132 105.659 88.7692C108.737 90.2262 110.05 93.9012 108.593 96.9782Z" fill="#18203E"/>
<path d="M250.338 15.1601L252.116 16.3581L252.703 15.3801L250.396 14.5371L250.338 15.1601Z" fill="#FFCA45"/>
<path d="M251.284 15.3799V93.0019" stroke="white" stroke-miterlimit="10"/>
<path d="M259.888 112.931L256.242 114.213H259.273L259.888 112.931Z" fill="#18203E"/>
<path d="M243.164 112.986L251.7 95.1908L253.308 95.9618L254.096 94.3188L249.238 91.9888L248.45 93.6318L250.057 94.4028L241.521 112.198C241.144 112.984 240.628 113.658 240.021 114.213H242.72C242.825 113.798 242.972 113.387 243.164 112.986Z" fill="#18203E"/>
<path d="M229.59 106.475L229.746 106.151L234.346 108.358L231.098 99.1196L227.948 105.687C226.578 108.542 226.967 111.792 228.676 114.213H231.087C228.996 112.295 228.301 109.162 229.59 106.475Z" fill="#18203E"/>
<path d="M248.127 122.387C248.11 122.519 248.087 122.649 248.087 122.786C248.087 123.317 248.229 123.81 248.458 124.251C250.619 124.421 252.765 123.747 254.44 122.392C254.358 121.731 254.08 121.135 253.657 120.663C252.184 122.045 250.139 122.694 248.127 122.387Z" fill="#18203E"/>
<path d="M240.021 114.213H231.087C231.556 114.643 232.093 115.013 232.695 115.302C235.198 116.503 238.086 115.98 240.021 114.213Z" fill="white"/>
<path d="M329.184 114.213H259.274H256.243H242.72C241.956 117.205 243.38 120.428 246.269 121.813C246.872 122.103 247.499 122.29 248.128 122.386C248.327 120.811 249.656 119.589 251.284 119.589C252.231 119.589 253.073 120.009 253.658 120.663C254.081 121.135 254.359 121.731 254.441 122.392C254.457 122.522 254.481 122.651 254.481 122.786C254.481 124.552 253.05 125.983 251.284 125.983C250.05 125.983 248.991 125.276 248.458 124.252C247.451 124.173 246.443 123.919 245.479 123.457C242.515 122.035 240.767 119.095 240.701 116.013C238.256 117.891 234.87 118.368 231.905 116.946C230.566 116.303 229.476 115.349 228.674 114.214H173.382C171.182 114.214 169.382 116.014 169.382 118.214V202.914C169.382 205.114 171.182 206.914 173.382 206.914H329.182C331.382 206.914 333.182 205.114 333.182 202.914V118.214C333.184 116.013 331.384 114.213 329.184 114.213Z" fill="white"/>
<path d="M231.906 116.945C234.87 118.367 238.257 117.89 240.702 116.012C240.768 119.094 242.516 122.034 245.48 123.456C246.444 123.918 247.452 124.171 248.459 124.251C248.23 123.81 248.088 123.317 248.088 122.786C248.088 122.649 248.112 122.519 248.128 122.387C247.498 122.291 246.872 122.103 246.269 121.814C243.38 120.428 241.956 117.206 242.72 114.214H240.021C238.087 115.981 235.198 116.504 232.695 115.303C232.093 115.014 231.555 114.644 231.087 114.214H228.676C229.477 115.348 230.567 116.303 231.906 116.945Z" fill="#18203E"/>
<path d="M188.707 139.389V137.132H189.293V140.95H188.707V140.304H188.667C188.577 140.498 188.438 140.663 188.249 140.799C188.06 140.933 187.822 141 187.533 141C187.295 141 187.083 140.948 186.897 140.843C186.711 140.737 186.566 140.578 186.459 140.366C186.353 140.152 186.3 139.883 186.3 139.558V137.132H186.887V139.518C186.887 139.797 186.965 140.019 187.121 140.185C187.278 140.35 187.479 140.433 187.722 140.433C187.868 140.433 188.016 140.396 188.167 140.321C188.32 140.247 188.447 140.132 188.55 139.978C188.654 139.824 188.707 139.628 188.707 139.389ZM193.072 137.987L192.545 138.136C192.512 138.048 192.463 137.963 192.399 137.88C192.336 137.796 192.249 137.726 192.14 137.671C192.031 137.617 191.891 137.589 191.72 137.589C191.486 137.589 191.292 137.643 191.136 137.751C190.982 137.857 190.905 137.992 190.905 138.156C190.905 138.302 190.958 138.417 191.064 138.502C191.17 138.586 191.336 138.657 191.561 138.713L192.128 138.852C192.469 138.935 192.723 139.062 192.891 139.233C193.058 139.402 193.142 139.619 193.142 139.886C193.142 140.105 193.079 140.301 192.953 140.473C192.829 140.645 192.655 140.781 192.431 140.881C192.207 140.98 191.947 141.03 191.65 141.03C191.261 141.03 190.939 140.945 190.683 140.776C190.428 140.607 190.267 140.36 190.199 140.035L190.756 139.896C190.809 140.102 190.909 140.256 191.056 140.359C191.205 140.461 191.4 140.513 191.64 140.513C191.914 140.513 192.131 140.455 192.292 140.339C192.454 140.221 192.535 140.08 192.535 139.916C192.535 139.784 192.489 139.672 192.396 139.583C192.303 139.492 192.161 139.424 191.969 139.379L191.332 139.23C190.983 139.147 190.726 139.019 190.562 138.845C190.399 138.669 190.318 138.449 190.318 138.186C190.318 137.971 190.379 137.78 190.499 137.614C190.622 137.449 190.789 137.318 190.999 137.224C191.211 137.13 191.452 137.082 191.72 137.082C192.098 137.082 192.394 137.165 192.61 137.331C192.827 137.497 192.981 137.715 193.072 137.987ZM195.626 141.03C195.258 141.03 194.941 140.949 194.674 140.786C194.409 140.622 194.204 140.393 194.06 140.1C193.917 139.805 193.846 139.462 193.846 139.071C193.846 138.68 193.917 138.335 194.06 138.037C194.204 137.737 194.404 137.503 194.661 137.336C194.92 137.167 195.221 137.082 195.566 137.082C195.765 137.082 195.961 137.115 196.155 137.182C196.349 137.248 196.526 137.356 196.685 137.505C196.844 137.652 196.971 137.848 197.065 138.092C197.16 138.335 197.207 138.635 197.207 138.991V139.24H194.264V138.733H196.61C196.61 138.517 196.567 138.325 196.481 138.156C196.396 137.987 196.275 137.854 196.118 137.756C195.962 137.658 195.778 137.609 195.566 137.609C195.332 137.609 195.13 137.667 194.96 137.783C194.791 137.898 194.661 138.047 194.569 138.231C194.478 138.415 194.433 138.612 194.433 138.822V139.16C194.433 139.449 194.482 139.693 194.582 139.894C194.683 140.093 194.823 140.244 195.002 140.349C195.181 140.451 195.389 140.503 195.626 140.503C195.78 140.503 195.919 140.481 196.043 140.438C196.169 140.393 196.278 140.327 196.369 140.239C196.46 140.15 196.531 140.039 196.58 139.906L197.147 140.065C197.087 140.257 196.987 140.427 196.846 140.572C196.705 140.717 196.531 140.829 196.324 140.91C196.117 140.99 195.884 141.03 195.626 141.03ZM198.099 140.95V137.132H198.666V137.709H198.706C198.775 137.52 198.901 137.367 199.084 137.249C199.266 137.131 199.471 137.072 199.7 137.072C199.743 137.072 199.797 137.073 199.862 137.075C199.926 137.076 199.975 137.079 200.008 137.082V137.679C199.988 137.674 199.943 137.666 199.872 137.657C199.802 137.645 199.728 137.639 199.65 137.639C199.465 137.639 199.299 137.678 199.153 137.756C199.009 137.832 198.895 137.938 198.81 138.074C198.727 138.208 198.686 138.362 198.686 138.534V140.95H198.099ZM201.29 138.653V140.95H200.704V137.132H201.27V137.729H201.32C201.41 137.535 201.546 137.379 201.728 137.261C201.91 137.142 202.145 137.082 202.434 137.082C202.692 137.082 202.919 137.135 203.112 137.241C203.306 137.346 203.457 137.505 203.565 137.719C203.673 137.931 203.726 138.199 203.726 138.524V140.95H203.14V138.564C203.14 138.264 203.062 138.03 202.906 137.863C202.75 137.694 202.537 137.609 202.265 137.609C202.077 137.609 201.91 137.65 201.763 137.731C201.617 137.812 201.502 137.931 201.417 138.087C201.333 138.242 201.29 138.431 201.29 138.653ZM205.922 141.04C205.68 141.04 205.46 140.994 205.263 140.903C205.066 140.81 204.909 140.677 204.793 140.503C204.677 140.327 204.619 140.115 204.619 139.866C204.619 139.648 204.663 139.47 204.749 139.334C204.835 139.197 204.95 139.089 205.094 139.011C205.238 138.933 205.397 138.875 205.571 138.837C205.747 138.797 205.924 138.766 206.101 138.743C206.333 138.713 206.521 138.691 206.665 138.676C206.811 138.659 206.917 138.632 206.983 138.594C207.051 138.556 207.085 138.489 207.085 138.395V138.375C207.085 138.13 207.018 137.939 206.884 137.803C206.751 137.667 206.55 137.599 206.28 137.599C206 137.599 205.78 137.661 205.621 137.783C205.462 137.906 205.35 138.037 205.286 138.176L204.729 137.977C204.828 137.745 204.961 137.565 205.127 137.435C205.294 137.304 205.476 137.213 205.673 137.162C205.872 137.109 206.068 137.082 206.26 137.082C206.383 137.082 206.524 137.097 206.683 137.127C206.843 137.155 206.998 137.214 207.147 137.304C207.298 137.393 207.423 137.528 207.523 137.709C207.622 137.889 207.672 138.131 207.672 138.435V140.95H207.085V140.433H207.056C207.016 140.516 206.949 140.605 206.857 140.699C206.764 140.794 206.64 140.874 206.486 140.94C206.332 141.007 206.144 141.04 205.922 141.04ZM206.011 140.513C206.243 140.513 206.439 140.467 206.598 140.376C206.759 140.285 206.88 140.167 206.961 140.023C207.044 139.879 207.085 139.727 207.085 139.568V139.031C207.06 139.061 207.006 139.088 206.921 139.113C206.838 139.136 206.742 139.157 206.633 139.175C206.525 139.192 206.42 139.207 206.317 139.22C206.216 139.232 206.134 139.242 206.071 139.25C205.919 139.27 205.776 139.302 205.644 139.347C205.513 139.39 205.407 139.455 205.325 139.543C205.246 139.629 205.206 139.747 205.206 139.896C205.206 140.1 205.281 140.254 205.432 140.359C205.585 140.461 205.778 140.513 206.011 140.513ZM208.743 140.95V137.132H209.31V137.729H209.359C209.439 137.525 209.567 137.367 209.745 137.254C209.922 137.139 210.135 137.082 210.383 137.082C210.635 137.082 210.845 137.139 211.012 137.254C211.181 137.367 211.313 137.525 211.408 137.729H211.447C211.545 137.531 211.692 137.375 211.887 137.259C212.083 137.141 212.317 137.082 212.591 137.082C212.932 137.082 213.211 137.189 213.428 137.403C213.646 137.615 213.754 137.946 213.754 138.395V140.95H213.167V138.395C213.167 138.113 213.09 137.912 212.936 137.791C212.782 137.67 212.601 137.609 212.392 137.609C212.123 137.609 211.915 137.69 211.768 137.853C211.62 138.014 211.547 138.217 211.547 138.464V140.95H210.95V138.335C210.95 138.118 210.88 137.943 210.739 137.811C210.598 137.676 210.417 137.609 210.194 137.609C210.042 137.609 209.899 137.65 209.767 137.731C209.636 137.812 209.53 137.925 209.449 138.069C209.369 138.212 209.329 138.377 209.329 138.564V140.95H208.743ZM216.428 141.03C216.06 141.03 215.742 140.949 215.476 140.786C215.21 140.622 215.006 140.393 214.862 140.1C214.719 139.805 214.648 139.462 214.648 139.071C214.648 138.68 214.719 138.335 214.862 138.037C215.006 137.737 215.206 137.503 215.463 137.336C215.722 137.167 216.023 137.082 216.368 137.082C216.567 137.082 216.763 137.115 216.957 137.182C217.151 137.248 217.327 137.356 217.487 137.505C217.646 137.652 217.772 137.848 217.867 138.092C217.961 138.335 218.009 138.635 218.009 138.991V139.24H215.065V138.733H217.412C217.412 138.517 217.369 138.325 217.283 138.156C217.198 137.987 217.077 137.854 216.92 137.756C216.764 137.658 216.58 137.609 216.368 137.609C216.134 137.609 215.932 137.667 215.761 137.783C215.592 137.898 215.462 138.047 215.371 138.231C215.28 138.415 215.234 138.612 215.234 138.822V139.16C215.234 139.449 215.284 139.693 215.384 139.894C215.485 140.093 215.625 140.244 215.804 140.349C215.983 140.451 216.191 140.503 216.428 140.503C216.582 140.503 216.721 140.481 216.845 140.438C216.971 140.393 217.08 140.327 217.171 140.239C217.262 140.15 217.332 140.039 217.382 139.906L217.949 140.065C217.889 140.257 217.789 140.427 217.648 140.572C217.507 140.717 217.333 140.829 217.126 140.91C216.919 140.99 216.686 141.03 216.428 141.03Z" fill="white"/>
<path d="M239.044 134.154V143.154" stroke="white" stroke-miterlimit="10"/>
<path d="M186.3 164.702V159.452H186.867V160.058H186.937C186.98 159.992 187.039 159.908 187.116 159.805C187.194 159.7 187.305 159.608 187.449 159.526C187.595 159.444 187.792 159.402 188.04 159.402C188.362 159.402 188.645 159.482 188.891 159.643C189.136 159.804 189.327 160.032 189.465 160.327C189.602 160.622 189.671 160.97 189.671 161.371C189.671 161.775 189.602 162.126 189.465 162.422C189.327 162.717 189.137 162.946 188.893 163.108C188.649 163.269 188.369 163.35 188.05 163.35C187.805 163.35 187.609 163.309 187.461 163.228C187.314 163.145 187.2 163.051 187.121 162.947C187.041 162.841 186.98 162.753 186.937 162.683H186.887V164.702H186.3ZM186.877 161.361C186.877 161.649 186.919 161.904 187.004 162.124C187.088 162.343 187.212 162.514 187.374 162.639C187.537 162.761 187.735 162.823 187.971 162.823C188.216 162.823 188.421 162.758 188.585 162.629C188.751 162.498 188.875 162.322 188.958 162.102C189.042 161.88 189.084 161.633 189.084 161.361C189.084 161.092 189.043 160.851 188.96 160.635C188.879 160.418 188.755 160.246 188.59 160.121C188.426 159.993 188.219 159.929 187.971 159.929C187.732 159.929 187.532 159.99 187.369 160.111C187.207 160.23 187.084 160.397 187.001 160.613C186.918 160.826 186.877 161.076 186.877 161.361ZM191.69 163.36C191.448 163.36 191.228 163.314 191.031 163.223C190.834 163.13 190.677 162.997 190.561 162.823C190.445 162.647 190.387 162.435 190.387 162.186C190.387 161.967 190.43 161.79 190.516 161.654C190.602 161.517 190.718 161.409 190.862 161.331C191.006 161.253 191.165 161.195 191.339 161.157C191.515 161.117 191.691 161.086 191.869 161.063C192.101 161.033 192.289 161.01 192.433 160.996C192.579 160.979 192.685 160.952 192.751 160.913C192.819 160.875 192.853 160.809 192.853 160.715V160.695C192.853 160.449 192.786 160.259 192.652 160.123C192.519 159.987 192.318 159.919 192.048 159.919C191.767 159.919 191.548 159.98 191.389 160.103C191.23 160.226 191.118 160.357 191.053 160.496L190.496 160.297C190.596 160.065 190.728 159.884 190.894 159.755C191.061 159.624 191.244 159.533 191.441 159.482C191.64 159.429 191.835 159.402 192.028 159.402C192.15 159.402 192.291 159.417 192.45 159.447C192.611 159.475 192.766 159.534 192.915 159.623C193.066 159.713 193.191 159.848 193.29 160.029C193.39 160.209 193.44 160.451 193.44 160.754V163.27H192.853V162.753H192.823C192.783 162.836 192.717 162.924 192.624 163.019C192.531 163.113 192.408 163.194 192.254 163.26C192.1 163.326 191.912 163.36 191.69 163.36ZM191.779 162.833C192.011 162.833 192.207 162.787 192.366 162.696C192.526 162.605 192.647 162.487 192.729 162.343C192.811 162.199 192.853 162.047 192.853 161.888V161.351C192.828 161.381 192.773 161.408 192.689 161.433C192.606 161.456 192.51 161.477 192.401 161.495C192.293 161.512 192.188 161.527 192.085 161.54C191.984 161.552 191.902 161.561 191.839 161.57C191.686 161.59 191.544 161.622 191.411 161.667C191.28 161.71 191.174 161.775 191.093 161.863C191.013 161.949 190.974 162.067 190.974 162.216C190.974 162.42 191.049 162.574 191.2 162.678C191.352 162.781 191.545 162.833 191.779 162.833ZM197.215 160.307L196.688 160.456C196.655 160.368 196.606 160.283 196.541 160.2C196.478 160.116 196.392 160.046 196.283 159.991C196.173 159.937 196.033 159.909 195.863 159.909C195.629 159.909 195.434 159.963 195.278 160.071C195.124 160.177 195.047 160.312 195.047 160.476C195.047 160.622 195.1 160.737 195.206 160.822C195.312 160.906 195.478 160.976 195.704 161.033L196.27 161.172C196.612 161.255 196.866 161.382 197.033 161.552C197.201 161.721 197.284 161.939 197.284 162.206C197.284 162.425 197.221 162.62 197.096 162.793C196.971 162.965 196.797 163.101 196.574 163.2C196.35 163.3 196.09 163.35 195.793 163.35C195.404 163.35 195.081 163.265 194.826 163.096C194.571 162.927 194.409 162.68 194.341 162.355L194.898 162.216C194.951 162.422 195.051 162.576 195.199 162.678C195.348 162.781 195.543 162.833 195.783 162.833C196.056 162.833 196.274 162.775 196.434 162.659C196.597 162.541 196.678 162.4 196.678 162.236C196.678 162.103 196.632 161.992 196.539 161.903C196.446 161.812 196.303 161.744 196.111 161.699L195.475 161.55C195.125 161.467 194.868 161.339 194.704 161.165C194.542 160.989 194.461 160.769 194.461 160.506C194.461 160.29 194.521 160.1 194.642 159.934C194.765 159.768 194.931 159.638 195.142 159.544C195.354 159.449 195.594 159.402 195.863 159.402C196.24 159.402 196.537 159.485 196.753 159.651C196.97 159.816 197.124 160.035 197.215 160.307ZM200.872 160.307L200.345 160.456C200.312 160.368 200.263 160.283 200.198 160.2C200.135 160.116 200.049 160.046 199.94 159.991C199.831 159.937 199.691 159.909 199.52 159.909C199.286 159.909 199.091 159.963 198.936 160.071C198.782 160.177 198.704 160.312 198.704 160.476C198.704 160.622 198.758 160.737 198.864 160.822C198.97 160.906 199.135 160.976 199.361 161.033L199.927 161.172C200.269 161.255 200.523 161.382 200.691 161.552C200.858 161.721 200.942 161.939 200.942 162.206C200.942 162.425 200.879 162.62 200.753 162.793C200.628 162.965 200.454 163.101 200.231 163.2C200.007 163.3 199.747 163.35 199.45 163.35C199.061 163.35 198.738 163.265 198.483 163.096C198.228 162.927 198.066 162.68 197.999 162.355L198.555 162.216C198.608 162.422 198.709 162.576 198.856 162.678C199.005 162.781 199.2 162.833 199.44 162.833C199.714 162.833 199.931 162.775 200.092 162.659C200.254 162.541 200.335 162.4 200.335 162.236C200.335 162.103 200.289 161.992 200.196 161.903C200.103 161.812 199.961 161.744 199.768 161.699L199.132 161.55C198.782 161.467 198.526 161.339 198.361 161.165C198.199 160.989 198.118 160.769 198.118 160.506C198.118 160.29 198.178 160.1 198.299 159.934C198.422 159.768 198.588 159.638 198.799 159.544C199.011 159.449 199.251 159.402 199.52 159.402C199.898 159.402 200.194 159.485 200.41 159.651C200.627 159.816 200.781 160.035 200.872 160.307ZM202.69 163.27L201.526 159.452H202.143L202.968 162.375H203.008L203.823 159.452H204.45L205.255 162.365H205.295L206.12 159.452H206.737L205.573 163.27H204.997L204.161 160.337H204.102L203.267 163.27H202.69ZM208.934 163.35C208.589 163.35 208.286 163.268 208.026 163.103C207.768 162.939 207.566 162.71 207.42 162.415C207.276 162.12 207.203 161.775 207.203 161.381C207.203 160.983 207.276 160.636 207.42 160.339C207.566 160.043 207.768 159.812 208.026 159.648C208.286 159.484 208.589 159.402 208.934 159.402C209.278 159.402 209.58 159.484 209.838 159.648C210.099 159.812 210.301 160.043 210.445 160.339C210.591 160.636 210.664 160.983 210.664 161.381C210.664 161.775 210.591 162.12 210.445 162.415C210.301 162.71 210.099 162.939 209.838 163.103C209.58 163.268 209.278 163.35 208.934 163.35ZM208.934 162.823C209.195 162.823 209.411 162.755 209.58 162.621C209.749 162.487 209.874 162.311 209.955 162.092C210.036 161.873 210.077 161.636 210.077 161.381C210.077 161.126 210.036 160.888 209.955 160.667C209.874 160.447 209.749 160.269 209.58 160.133C209.411 159.997 209.195 159.929 208.934 159.929C208.672 159.929 208.456 159.997 208.287 160.133C208.118 160.269 207.993 160.447 207.912 160.667C207.831 160.888 207.79 161.126 207.79 161.381C207.79 161.636 207.831 161.873 207.912 162.092C207.993 162.311 208.118 162.487 208.287 162.621C208.456 162.755 208.672 162.823 208.934 162.823ZM211.559 163.27V159.452H212.126V160.029H212.166C212.235 159.84 212.361 159.686 212.544 159.569C212.726 159.451 212.931 159.392 213.16 159.392C213.203 159.392 213.257 159.393 213.322 159.395C213.386 159.396 213.435 159.399 213.468 159.402V159.999C213.448 159.994 213.403 159.986 213.332 159.976C213.262 159.965 213.188 159.959 213.11 159.959C212.925 159.959 212.759 159.998 212.613 160.076C212.469 160.152 212.355 160.258 212.27 160.394C212.187 160.528 212.146 160.681 212.146 160.854V163.27H211.559ZM215.489 163.35C215.171 163.35 214.89 163.269 214.647 163.108C214.403 162.946 214.212 162.717 214.075 162.422C213.937 162.126 213.868 161.775 213.868 161.371C213.868 160.97 213.937 160.622 214.075 160.327C214.212 160.032 214.404 159.804 214.649 159.643C214.894 159.482 215.178 159.402 215.499 159.402C215.748 159.402 215.944 159.444 216.088 159.526C216.234 159.608 216.345 159.7 216.421 159.805C216.499 159.908 216.56 159.992 216.603 160.058H216.653V158.179H217.239V163.27H216.672V162.683H216.603C216.56 162.753 216.498 162.841 216.419 162.947C216.339 163.051 216.226 163.145 216.078 163.228C215.931 163.309 215.734 163.35 215.489 163.35ZM215.569 162.823C215.804 162.823 216.003 162.761 216.165 162.639C216.328 162.514 216.451 162.343 216.536 162.124C216.62 161.904 216.662 161.649 216.662 161.361C216.662 161.076 216.621 160.826 216.538 160.613C216.455 160.397 216.333 160.23 216.17 160.111C216.008 159.99 215.807 159.929 215.569 159.929C215.32 159.929 215.113 159.993 214.947 160.121C214.783 160.246 214.66 160.418 214.577 160.635C214.496 160.851 214.455 161.092 214.455 161.361C214.455 161.633 214.497 161.88 214.579 162.102C214.664 162.322 214.788 162.498 214.952 162.629C215.118 162.758 215.323 162.823 215.569 162.823Z" fill="white"/>
<path d="M239.044 156.474V165.474" stroke="white" stroke-miterlimit="10"/>
<path d="M249.319 163.767L248.22 162.174L247.14 163.767L245.748 162.74L246.957 161.313L245.235 160.964L245.748 159.261L247.433 159.902L247.341 158.181H249.08L248.898 159.939L250.693 159.261L251.169 160.964L249.411 161.313L250.693 162.74L249.319 163.767Z" fill="#18203E"/>
<path d="M259.467 163.767L258.368 162.174L257.288 163.767L255.896 162.74L257.105 161.313L255.383 160.964L255.896 159.261L257.581 159.902L257.489 158.181H259.228L259.045 159.939L260.84 159.261L261.316 160.964L259.558 161.313L260.84 162.74L259.467 163.767Z" fill="#18203E"/>
<path d="M269.614 163.767L268.515 162.174L267.435 163.767L266.043 162.74L267.252 161.313L265.53 160.964L266.043 159.261L267.728 159.902L267.636 158.181H269.375L269.192 159.939L270.987 159.261L271.463 160.964L269.705 161.313L270.987 162.74L269.614 163.767Z" fill="#18203E"/>
<path d="M279.761 163.767L278.662 162.174L277.582 163.767L276.19 162.74L277.399 161.313L275.677 160.964L276.19 159.261L277.875 159.902L277.783 158.181H279.522L279.339 159.939L281.134 159.261L281.61 160.964L279.852 161.313L281.134 162.74L279.761 163.767Z" fill="#18203E"/>
<path d="M289.908 163.767L288.809 162.174L287.729 163.767L286.337 162.74L287.546 161.313L285.824 160.964L286.337 159.261L288.022 159.902L287.93 158.181H289.669L289.486 159.939L291.281 159.261L291.757 160.964L290 161.313L291.282 162.74L289.908 163.767Z" fill="#18203E"/>
<path d="M300.055 163.767L298.956 162.174L297.876 163.767L296.484 162.74L297.693 161.313L295.971 160.964L296.484 159.261L298.169 159.902L298.077 158.181H299.816L299.633 159.939L301.428 159.261L301.904 160.964L300.146 161.313L301.428 162.74L300.055 163.767Z" fill="#18203E"/>
<path d="M279.747 198.761H222.82C217.177 198.761 212.56 194.144 212.56 188.501C212.56 182.858 217.177 178.241 222.82 178.241H279.747C285.39 178.241 290.007 182.858 290.007 188.501C290.007 194.144 285.39 198.761 279.747 198.761Z" fill="#FFCA45"/>
<path d="M231.878 182.871V191.675H230.863V182.871H231.878ZM236.419 191.813C235.823 191.813 235.3 191.671 234.85 191.387C234.403 191.104 234.053 190.707 233.801 190.196C233.551 189.686 233.427 189.09 233.427 188.408C233.427 187.72 233.551 187.12 233.801 186.607C234.053 186.094 234.403 185.695 234.85 185.411C235.3 185.128 235.823 184.986 236.419 184.986C237.015 184.986 237.537 185.128 237.984 185.411C238.434 185.695 238.784 186.094 239.033 186.607C239.285 187.12 239.411 187.72 239.411 188.408C239.411 189.09 239.285 189.686 239.033 190.196C238.784 190.707 238.434 191.104 237.984 191.387C237.537 191.671 237.015 191.813 236.419 191.813ZM236.419 190.901C236.872 190.901 237.244 190.785 237.537 190.553C237.829 190.321 238.046 190.016 238.186 189.637C238.326 189.259 238.397 188.849 238.397 188.408C238.397 187.967 238.326 187.555 238.186 187.174C238.046 186.793 237.829 186.485 237.537 186.25C237.244 186.015 236.872 185.897 236.419 185.897C235.966 185.897 235.594 186.015 235.301 186.25C235.009 186.485 234.792 186.793 234.652 187.174C234.512 187.555 234.441 187.967 234.441 188.408C234.441 188.849 234.512 189.259 234.652 189.637C234.792 190.016 235.009 190.321 235.301 190.553C235.594 190.785 235.966 190.901 236.419 190.901ZM243.625 194.289C243.135 194.289 242.714 194.226 242.362 194.1C242.009 193.977 241.715 193.813 241.48 193.61C241.248 193.409 241.063 193.194 240.926 192.965L241.734 192.398C241.826 192.518 241.942 192.655 242.082 192.81C242.222 192.968 242.415 193.104 242.658 193.219C242.905 193.336 243.227 193.395 243.625 193.395C244.159 193.395 244.598 193.266 244.945 193.008C245.292 192.75 245.465 192.346 245.465 191.796V190.454H245.38C245.305 190.575 245.199 190.724 245.061 190.901C244.927 191.076 244.732 191.232 244.477 191.37C244.224 191.505 243.883 191.572 243.453 191.572C242.92 191.572 242.442 191.446 242.018 191.194C241.596 190.942 241.262 190.575 241.016 190.093C240.772 189.612 240.65 189.027 240.65 188.339C240.65 187.663 240.769 187.074 241.007 186.572C241.245 186.068 241.576 185.678 242 185.403C242.425 185.125 242.915 184.986 243.471 184.986C243.901 184.986 244.242 185.057 244.494 185.201C244.749 185.341 244.944 185.502 245.079 185.682C245.216 185.86 245.322 186.006 245.397 186.121H245.5V185.072H246.48V191.864C246.48 192.432 246.351 192.893 246.093 193.249C245.838 193.607 245.494 193.869 245.061 194.036C244.631 194.205 244.153 194.289 243.625 194.289ZM243.591 190.661C243.998 190.661 244.342 190.568 244.623 190.381C244.904 190.195 245.117 189.927 245.263 189.577C245.41 189.228 245.483 188.809 245.483 188.322C245.483 187.846 245.411 187.426 245.268 187.062C245.124 186.698 244.912 186.413 244.631 186.207C244.351 186 244.004 185.897 243.591 185.897C243.161 185.897 242.803 186.006 242.516 186.224C242.233 186.442 242.019 186.734 241.876 187.101C241.735 187.468 241.665 187.875 241.665 188.322C241.665 188.781 241.737 189.186 241.88 189.539C242.026 189.888 242.241 190.163 242.525 190.364C242.811 190.562 243.167 190.661 243.591 190.661ZM248.337 191.675V185.072H249.352V191.675H248.337ZM248.853 183.971C248.655 183.971 248.485 183.904 248.342 183.769C248.201 183.634 248.131 183.473 248.131 183.283C248.131 183.094 248.201 182.932 248.342 182.798C248.485 182.663 248.655 182.595 248.853 182.595C249.051 182.595 249.22 182.663 249.361 182.798C249.504 182.932 249.575 183.094 249.575 183.283C249.575 183.473 249.504 183.634 249.361 183.769C249.22 183.904 249.051 183.971 248.853 183.971ZM252.225 187.703V191.675H251.21V185.072H252.19V186.104H252.276C252.431 185.768 252.666 185.499 252.981 185.295C253.297 185.089 253.704 184.986 254.202 184.986C254.65 184.986 255.041 185.078 255.376 185.261C255.711 185.442 255.972 185.717 256.159 186.086C256.345 186.453 256.438 186.918 256.438 187.479V191.675H255.423V187.548C255.423 187.029 255.289 186.625 255.019 186.336C254.75 186.043 254.38 185.897 253.91 185.897C253.586 185.897 253.297 185.967 253.042 186.108C252.789 186.248 252.59 186.453 252.444 186.723C252.298 186.992 252.225 187.319 252.225 187.703Z" fill="white"/>
<path d="M331.419 261.324C315.323 255.682 303.783 242.415 298.048 222.955C293.852 208.723 294.225 196.213 294.242 195.687L294.389 191.288L298.739 190.597C310.465 188.735 321.503 182.3 329.024 172.942L333.184 167.765L337.344 172.942C344.865 182.299 355.903 188.734 367.629 190.597L371.977 191.288L372.126 195.688C372.144 196.213 372.517 208.721 368.32 222.956C362.584 242.416 351.044 255.683 334.949 261.326L333.183 261.945L331.419 261.324Z" fill="#18203E"/>
<path d="M333.184 170.16L336.175 173.882C343.926 183.526 355.305 190.159 367.394 192.079L370.52 192.576L370.627 195.739C370.644 196.255 371.007 208.537 366.882 222.532C361.288 241.509 350.074 254.434 334.453 259.91L333.183 260.355L331.914 259.91C316.293 254.434 305.079 241.509 299.485 222.532C295.359 208.537 295.722 196.255 295.74 195.739L295.847 192.576L298.973 192.079C311.063 190.159 322.441 183.526 330.192 173.882L333.184 170.16ZM333.184 165.371L330.846 168.281L327.855 172.003C320.565 181.074 309.867 187.312 298.504 189.116L295.378 189.613L292.933 190L292.849 192.473L292.742 195.636C292.724 196.172 292.348 208.927 296.608 223.379C302.487 243.32 314.352 256.931 330.922 262.74L332.191 263.185L333.184 263.533L334.176 263.185L335.446 262.74C352.016 256.931 363.881 243.321 369.76 223.379C374.021 208.925 373.644 196.172 373.626 195.637L373.519 192.473L373.435 190L370.991 189.612L367.865 189.115C356.502 187.31 345.804 181.073 338.514 172.002L335.523 168.28L333.184 165.371Z" fill="white"/>
<path d="M321.376 204.479L344.992 228.095" stroke="#18203E" stroke-width="3" stroke-miterlimit="10"/>
<path d="M344.992 204.479L321.376 228.095" stroke="#18203E" stroke-width="3" stroke-miterlimit="10"/>
<path d="M65.6561 294.09H48.5391C46.3391 294.09 44.5391 292.29 44.5391 290.09V276.281C44.5391 274.081 46.3391 272.281 48.5391 272.281H65.6571C67.8571 272.281 69.6571 274.081 69.6571 276.281V290.09C69.6561 292.29 67.8561 294.09 65.6561 294.09Z" stroke="white" stroke-width="2" stroke-miterlimit="10"/>
<path d="M57.974 283.26C58.64 282.934 59.101 282.252 59.101 281.461C59.101 280.354 58.204 279.458 57.098 279.458C55.992 279.458 55.095 280.355 55.095 281.461C55.095 282.253 55.555 282.935 56.222 283.26L54.698 287.747H56.943H57.254H59.499L57.974 283.26Z" fill="white"/>
<path d="M48.8901 266.695C48.8901 262.162 52.5651 258.487 57.0981 258.487C61.6311 258.487 65.3061 262.162 65.3061 266.695V272.282" stroke="white" stroke-width="2" stroke-miterlimit="10"/>
<path d="M353.216 79.7372C354.817 72.9899 350.646 66.2216 343.899 64.6198C337.152 63.0179 330.383 67.1891 328.782 73.9363C327.18 80.6836 331.351 87.4519 338.098 89.0538C344.845 90.6556 351.614 86.4845 353.216 79.7372Z" fill="#FFCA45"/>
<path d="M342.531 73.7109L341.669 80.0539H340.294L339.452 73.7109V69.3999H342.531V73.7109ZM342.531 84.3029H339.452V81.3059H342.531V84.3029Z" fill="#18203E"/>
<path d="M388.392 280.499L398.886 290.993" stroke="#18203E" stroke-width="2" stroke-miterlimit="10"/>
<path d="M398.886 280.499L388.392 290.993" stroke="#18203E" stroke-width="2" stroke-miterlimit="10"/>
<path d="M303.844 45.9819L314.337 56.4759" stroke="#18203E" stroke-width="2" stroke-miterlimit="10"/>
<path d="M314.337 45.9819L303.844 56.4759" stroke="#18203E" stroke-width="2" stroke-miterlimit="10"/>
<path d="M69.3511 145.494L79.8451 155.988" stroke="#18203E" stroke-width="2" stroke-miterlimit="10"/>
<path d="M79.8451 145.494L69.3511 155.988" stroke="#18203E" stroke-width="2" stroke-miterlimit="10"/>
<path d="M112.843 194.107L118.09 199.355" stroke="#18203E" stroke-width="2" stroke-miterlimit="10"/>
<path d="M118.09 194.107L112.843 199.355" stroke="#18203E" stroke-width="2" stroke-miterlimit="10"/>
<path d="M199.052 333.311L204.299 338.558" stroke="white" stroke-width="2" stroke-miterlimit="10"/>
<path d="M204.299 333.311L199.052 338.558" stroke="white" stroke-width="2" stroke-miterlimit="10"/>
<path d="M110.846 233.358H165.196C167.216 233.358 168.869 235.011 168.869 237.031V351.341C168.869 353.361 167.216 355.014 165.196 355.014H87.6872C85.6672 355.014 84.0142 353.361 84.0142 351.341V252.973" stroke="white" stroke-width="2" stroke-miterlimit="10"/>
<path d="M163.467 240.631H89.4163V339.146H163.467V240.631Z" fill="#18203E"/>
<path d="M132.716 303.685C141.154 300.231 145.193 290.591 141.739 282.153C138.285 273.716 128.645 269.676 120.207 273.131C111.77 276.585 107.73 286.225 111.184 294.662C114.639 303.1 124.279 307.139 132.716 303.685Z" stroke="white" stroke-width="2" stroke-miterlimit="10"/>
<path d="M128.466 284.269L127.333 292.608H125.525L124.419 284.269V278.602H128.467L128.466 284.269ZM128.466 298.194H124.418V294.254H128.466V298.194Z" fill="#FFCA45"/>
<path d="M130.409 345.956C130.409 348.147 128.633 349.923 126.442 349.923C124.251 349.923 122.475 348.147 122.475 345.956C122.475 343.765 124.251 341.989 126.442 341.989C128.633 341.989 130.409 343.765 130.409 345.956Z" stroke="white" stroke-miterlimit="10"/>
<path d="M131.951 238.574H120.931C120.325 238.574 119.829 238.078 119.829 237.472C119.829 236.866 120.325 236.37 120.931 236.37H131.951C132.557 236.37 133.053 236.866 133.053 237.472C133.053 238.078 132.557 238.574 131.951 238.574Z" fill="#18203E"/>
<path d="M106.207 184.761H58.3931V248.616H106.207V184.761Z" fill="white"/>
<path d="M122.711 162.678C119.166 158.496 117.379 159.722 115.311 161.144L114.933 161.402C114.295 161.835 113.219 161.02 112.431 160.26C111.43 159.294 110.235 157.789 108.881 155.787C104.815 149.775 105.457 148.395 105.922 148.08L106.3 147.827C108.39 146.436 110.195 145.235 107.631 140.387C106.763 138.744 105.789 137.815 104.654 137.546C103.013 137.159 101.488 138.245 100.142 139.205C99.917 139.366 99.696 139.523 99.483 139.667C96.836 141.457 97.113 149.821 103.575 159.376C109.047 167.464 115.173 170.927 118.612 170.927C119.299 170.927 119.879 170.789 120.325 170.522L120.698 170.301C122.144 169.448 123.944 168.387 124.244 166.612C124.446 165.42 123.944 164.133 122.711 162.678Z" fill="#FFCA45"/>
<path d="M317.695 86.46H274.247V94.227H317.695V86.46Z" fill="#18203E"/>
<path d="M315.366 72.5H276.576C275.29 72.5 274.247 73.543 274.247 74.829V86.46V98.091C274.247 99.377 275.29 100.42 276.576 100.42H315.366C316.652 100.42 317.695 99.377 317.695 98.091V86.46V74.829C317.695 73.543 316.652 72.5 315.366 72.5Z" stroke="white" stroke-width="2" stroke-miterlimit="10"/>
<path d="M312.548 83.513H304.538C303.643 83.513 302.918 82.788 302.918 81.893V78.452C302.918 77.557 303.643 76.832 304.538 76.832H312.548C313.443 76.832 314.168 77.557 314.168 78.452V81.893C314.168 82.788 313.443 83.513 312.548 83.513Z" fill="#FFCA45"/>
<path d="M385.246 310.653C385.246 309.119 384.002 307.875 382.467 307.875H307.051C305.517 307.875 304.273 309.119 304.273 310.653V319.297H385.246V310.653Z" stroke="white" stroke-width="2" stroke-miterlimit="10"/>
<path d="M317.408 313.034H314.302C313.954 313.034 313.672 312.752 313.672 312.404V303.344C313.672 302.996 313.954 302.714 314.302 302.714H317.408C317.756 302.714 318.038 302.996 318.038 303.344V312.404C318.038 312.752 317.756 313.034 317.408 313.034Z" fill="#18203E"/>
<path d="M328.97 313.034H325.864C325.516 313.034 325.234 312.752 325.234 312.404V303.344C325.234 302.996 325.516 302.714 325.864 302.714H328.97C329.318 302.714 329.6 302.996 329.6 303.344V312.404C329.6 312.752 329.318 313.034 328.97 313.034Z" fill="#18203E"/>
<path d="M340.532 313.034H337.426C337.078 313.034 336.796 312.752 336.796 312.404V303.344C336.796 302.996 337.078 302.714 337.426 302.714H340.532C340.88 302.714 341.162 302.996 341.162 303.344V312.404C341.162 312.752 340.88 313.034 340.532 313.034Z" fill="#18203E"/>
<path d="M352.093 313.034H348.987C348.639 313.034 348.357 312.752 348.357 312.404V303.344C348.357 302.996 348.639 302.714 348.987 302.714H352.093C352.441 302.714 352.723 302.996 352.723 303.344V312.404C352.723 312.752 352.441 313.034 352.093 313.034Z" fill="#18203E"/>
<path d="M363.655 313.034H360.549C360.201 313.034 359.919 312.752 359.919 312.404V303.344C359.919 302.996 360.201 302.714 360.549 302.714H363.655C364.003 302.714 364.285 302.996 364.285 303.344V312.404C364.285 312.752 364.003 313.034 363.655 313.034Z" fill="#18203E"/>
<path d="M375.217 313.034H372.111C371.763 313.034 371.481 312.752 371.481 312.404V303.344C371.481 302.996 371.763 302.714 372.111 302.714H375.217C375.565 302.714 375.847 302.996 375.847 303.344V312.404C375.847 312.752 375.565 313.034 375.217 313.034Z" fill="#18203E"/>
<path d="M350.544 354.25H338.976V365.901H350.544V354.25Z" stroke="white" stroke-width="2" stroke-miterlimit="10"/>
<path d="M350.544 330.948H338.976V342.599H350.544V330.948Z" stroke="white" stroke-width="2" stroke-miterlimit="10"/>
<path d="M350.544 319.297H338.976V330.948H350.544V319.297Z" stroke="white" stroke-width="2" stroke-miterlimit="10"/>
<path d="M350.544 342.599H338.976V354.25H350.544V342.599Z" fill="#18203E" stroke="white" stroke-width="2" stroke-miterlimit="10"/>
<path d="M327.409 319.297H315.841V330.948H327.409V319.297Z" fill="#18203E" stroke="white" stroke-width="2" stroke-miterlimit="10"/>
<path d="M327.409 330.948H315.841V342.599H327.409V330.948Z" stroke="white" stroke-width="2" stroke-miterlimit="10"/>
<path d="M327.409 342.599H315.841V354.25H327.409V342.599Z" stroke="white" stroke-width="2" stroke-miterlimit="10"/>
<path d="M327.409 354.25H315.841V365.901H327.409V354.25Z" stroke="white" stroke-width="2" stroke-miterlimit="10"/>
<path d="M304.273 354.25V363.123C304.273 364.658 305.517 365.902 307.051 365.902H315.84V354.25H304.273Z" stroke="white" stroke-width="2" stroke-miterlimit="10"/>
<path d="M315.84 319.297H304.273V330.948H315.84V319.297Z" stroke="white" stroke-width="2" stroke-miterlimit="10"/>
<path d="M315.84 342.599H304.273V354.25H315.84V342.599Z" stroke="white" stroke-width="2" stroke-miterlimit="10"/>
<path d="M315.84 330.948H304.273V342.599H315.84V330.948Z" stroke="white" stroke-width="2" stroke-miterlimit="10"/>
<path d="M338.976 342.599H327.408V354.25H338.976V342.599Z" stroke="white" stroke-width="2" stroke-miterlimit="10"/>
<path d="M338.976 330.948H327.408V342.599H338.976V330.948Z" stroke="white" stroke-width="2" stroke-miterlimit="10"/>
<path d="M338.976 319.297H327.408V330.948H338.976V319.297Z" stroke="white" stroke-width="2" stroke-miterlimit="10"/>
<path d="M338.976 354.25H327.408V365.901H338.976V354.25Z" stroke="white" stroke-width="2" stroke-miterlimit="10"/>
<path d="M362.111 354.25H350.543V365.901H362.111V354.25Z" stroke="white" stroke-width="2" stroke-miterlimit="10"/>
<path d="M362.111 319.297H350.543V330.948H362.111V319.297Z" stroke="white" stroke-width="2" stroke-miterlimit="10"/>
<path d="M362.111 342.599H350.543V354.25H362.111V342.599Z" stroke="white" stroke-width="2" stroke-miterlimit="10"/>
<path d="M362.111 330.948H350.543V342.599H362.111V330.948Z" stroke="white" stroke-width="2" stroke-miterlimit="10"/>
<path d="M385.246 342.599H373.678V354.25H385.246V342.599Z" fill="#FFCA45" stroke="white" stroke-width="2" stroke-miterlimit="10"/>
<path d="M373.678 365.901H382.467C384.002 365.901 385.246 364.657 385.246 363.122V354.249H373.678V365.901Z" fill="#FFCA45" stroke="white" stroke-width="2" stroke-miterlimit="10"/>
<path d="M385.246 319.297H373.678V330.948H385.246V319.297Z" fill="#FFCA45" stroke="white" stroke-width="2" stroke-miterlimit="10"/>
<path d="M385.246 330.948H373.678V342.599H385.246V330.948Z" fill="#FFCA45" stroke="white" stroke-width="2" stroke-miterlimit="10"/>
<path d="M373.679 354.25H362.111V365.901H373.679V354.25Z" stroke="white" stroke-width="2" stroke-miterlimit="10"/>
<path d="M373.679 319.297H362.111V330.948H373.679V319.297Z" stroke="white" stroke-width="2" stroke-miterlimit="10"/>
<path d="M373.679 330.948H362.111V342.599H373.679V330.948Z" stroke="white" stroke-width="2" stroke-miterlimit="10"/>
<path d="M373.679 342.599H362.111V354.25H373.679V342.599Z" stroke="white" stroke-width="2" stroke-miterlimit="10"/>
<path d="M400.503 322.259L399.337 320.569L398.192 322.259L396.716 321.17L397.998 319.656L396.172 319.286L396.716 317.48L398.503 318.16L398.405 316.335H400.249L400.055 318.199L401.959 317.48L402.464 319.286L400.6 319.656L401.959 321.17L400.503 322.259Z" fill="white"/>
<path d="M192.045 316.939L190.354 314.488L188.693 316.939L186.553 315.36L188.413 313.165L185.764 312.629L186.553 310.01L189.145 310.996L189.004 308.349H191.678L191.397 311.053L194.158 310.01L194.89 312.629L192.186 313.165L194.157 315.36L192.045 316.939Z" fill="#18203E"/>
<path d="M228.304 82.7751L227.138 81.0851L225.992 82.7751L224.516 81.6861L225.798 80.1721L223.972 79.8021L224.516 77.9961L226.303 78.6761L226.205 76.8511H228.049L227.855 78.7151L229.759 77.9961L230.264 79.8021L228.4 80.1721L229.759 81.6861L228.304 82.7751Z" fill="white"/>
<path d="M389.577 143.912L388.411 142.222L387.266 143.912L385.79 142.823L387.072 141.309L385.245 140.939L385.789 139.133L387.576 139.813L387.478 137.988H389.322L389.128 139.852L391.032 139.133L391.537 140.939L389.673 141.309L391.032 142.823L389.577 143.912Z" fill="white"/>
</g>
<defs>
<clipPath id="clip0_1368_3533">
<rect width="500" height="372" fill="white"/>
</clipPath>
</defs>
</svg>
