<svg width="500" height="500" viewBox="0 0 500 500" fill="none" xmlns="http://www.w3.org/2000/svg">
<g clip-path="url(#clip0_1410_172)">
<path opacity="0.3" d="M476.547 266.5C476.547 261.407 472.42 257 467.327 257H401.297C396.205 257 392.076 261.407 392.076 266.5C392.076 271.593 396.205 276 401.297 276H412.6C417.692 276 421.821 279.907 421.821 285C421.821 290.092 417.692 294 412.6 294H394.754C389.661 294 385.533 298.408 385.533 303.5C385.533 308.592 389.661 313 394.754 313H394.357C399.45 313 403.578 316.908 403.578 322C403.578 327.093 399.45 331 394.357 331H368.58C363.487 331 359.36 335.407 359.36 340.5C359.36 345.593 363.487 350 368.58 350H467.328C472.421 350 476.548 345.593 476.548 340.5C476.548 335.407 472.421 331 467.328 331H469.448C464.356 331 460.228 327.093 460.228 322C460.228 316.908 464.356 313 469.448 313H467.328C472.421 313 476.548 308.592 476.548 303.5C476.548 298.408 472.421 294 467.328 294H468.049C462.956 294 458.829 290.092 458.829 285C458.829 279.907 462.956 276 468.049 276H467.328C472.42 276 476.547 271.593 476.547 266.5Z" fill="#CCC9F3"/>
<path opacity="0.3" d="M144.71 135C144.71 128.887 139.754 124 133.641 124H134.507C128.394 124 123.439 119.113 123.439 113C123.439 106.887 128.394 102 134.507 102H133.641C139.754 102 144.71 96.613 144.71 90.5C144.71 84.387 139.754 79 133.641 79H46.521C40.408 79 35.453 84.387 35.453 90.5C35.453 96.613 40.408 102 46.521 102H67.944C74.057 102 79.012 106.887 79.012 113C79.012 119.113 74.057 124 67.944 124H46.521C40.408 124 35.453 128.887 35.453 135C35.453 141.113 40.408 146 46.521 146H46.045C52.157 146 57.112 150.387 57.112 156.5C57.112 162.613 52.158 167 46.046 167H46.522C40.409 167 35.454 172.387 35.454 178.5C35.454 184.613 40.408 190 46.521 190H133.64C139.753 190 144.709 184.613 144.709 178.5C144.709 172.387 139.753 167 133.64 167H136.186C130.073 167 125.118 162.613 125.118 156.5C125.118 150.387 130.073 146 136.186 146H133.64C139.754 146 144.71 141.113 144.71 135Z" fill="#CCC9F3"/>
<path opacity="0.3" d="M118 292.042C118 298.647 112.646 304 106.042 304H79.958C73.354 304 68 298.647 68 292.042V291.958C68 285.353 73.354 280 79.958 280H106.042C112.646 280 118 285.353 118 291.958V292.042Z" fill="#CCC9F3"/>
<path opacity="0.3" d="M422 69.042C422 75.646 416.646 81 410.042 81H383.958C377.353 81 372 75.646 372 69.042V68.958C372 62.354 377.353 57 383.958 57H410.042C416.646 57 422 62.354 422 68.958V69.042Z" fill="#CCC9F3"/>
<path opacity="0.3" d="M96 341.042C96 347.647 90.646 353 84.042 353H57.958C51.354 353 46 347.647 46 341.042V340.958C46 334.353 51.354 329 57.958 329H84.042C90.646 329 96 334.353 96 340.958V341.042Z" fill="#CCC9F3"/>
<path opacity="0.3" d="M452 104.042C452 110.646 446.646 116 440.042 116H413.958C407.353 116 402 110.646 402 104.042V103.958C402 97.354 407.353 92 413.958 92H440.042C446.646 92 452 97.354 452 103.958V104.042Z" fill="#CCC9F3"/>
<path d="M86.5 220V227" stroke="#3C3633" stroke-width="3" stroke-miterlimit="10"/>
<path d="M86.5 241V234" stroke="#3C3633" stroke-width="3" stroke-miterlimit="10"/>
<path d="M97 230.5H90" stroke="#3C3633" stroke-width="3" stroke-miterlimit="10"/>
<path d="M76 230.5H83" stroke="#3C3633" stroke-width="3" stroke-miterlimit="10"/>
<path d="M324.5 118V125" stroke="#3C3633" stroke-width="3" stroke-miterlimit="10"/>
<path d="M324.5 139V132" stroke="#3C3633" stroke-width="3" stroke-miterlimit="10"/>
<path d="M335 128.5H328" stroke="#3C3633" stroke-width="3" stroke-miterlimit="10"/>
<path d="M314 128.5H321" stroke="#3C3633" stroke-width="3" stroke-miterlimit="10"/>
<path d="M404.5 227V234" stroke="#3C3633" stroke-width="3" stroke-miterlimit="10"/>
<path d="M404.5 248V241" stroke="#3C3633" stroke-width="3" stroke-miterlimit="10"/>
<path d="M415 237.5H408" stroke="#3C3633" stroke-width="3" stroke-miterlimit="10"/>
<path d="M394 237.5H401" stroke="#3C3633" stroke-width="3" stroke-miterlimit="10"/>
<path d="M131.5 363V370" stroke="#3C3633" stroke-width="3" stroke-miterlimit="10"/>
<path d="M131.5 384V377" stroke="#3C3633" stroke-width="3" stroke-miterlimit="10"/>
<path d="M142 373.5H135" stroke="#3C3633" stroke-width="3" stroke-miterlimit="10"/>
<path d="M121 373.5H128" stroke="#3C3633" stroke-width="3" stroke-miterlimit="10"/>
<path d="M43 387.5H65" stroke="#CCC9F3" stroke-width="3" stroke-miterlimit="10"/>
<path d="M68 387.5H79" stroke="#CCC9F3" stroke-width="3" stroke-miterlimit="10"/>
<path d="M54 393.5H76" stroke="#CCC9F3" stroke-width="3" stroke-miterlimit="10"/>
<path d="M403 152.5H425" stroke="#CCC9F3" stroke-width="3" stroke-miterlimit="10"/>
<path d="M428 152.5H439" stroke="#CCC9F3" stroke-width="3" stroke-miterlimit="10"/>
<path d="M414 158.5H436" stroke="#CCC9F3" stroke-width="3" stroke-miterlimit="10"/>
<path d="M390 390.5H412" stroke="#CCC9F3" stroke-width="3" stroke-miterlimit="10"/>
<path d="M415 390.5H426" stroke="#CCC9F3" stroke-width="3" stroke-miterlimit="10"/>
<path d="M401 396.5H423" stroke="#CCC9F3" stroke-width="3" stroke-miterlimit="10"/>
<path d="M61 54.5H83" stroke="#CCC9F3" stroke-width="3" stroke-miterlimit="10"/>
<path d="M86 54.5H97" stroke="#CCC9F3" stroke-width="3" stroke-miterlimit="10"/>
<path d="M72 60.5H94" stroke="#CCC9F3" stroke-width="3" stroke-miterlimit="10"/>
<path d="M121.176 336.602C109.871 315.415 157.831 267.757 228.297 230.156C298.764 192.554 365.054 179.247 376.36 200.434" stroke="#333333" stroke-width="3" stroke-miterlimit="10" stroke-linecap="round" stroke-linejoin="round"/>
<path d="M120.692 201.349C131.846 180.082 198.23 192.914 268.963 230.01C339.697 267.107 387.997 314.42 376.844 335.688" stroke="#333333" stroke-width="4" stroke-miterlimit="10" stroke-linecap="round" stroke-linejoin="round"/>
<path d="M207.946 347.495L165.284 388.687C165.284 388.687 161.152 382.747 155.334 385.357C150.077 387.715 145.444 430.275 175.71 464.214L187.765 441.271L228.67 398.622L207.946 347.495Z" fill="#FFC96B"/>
<path d="M292.054 347.495L334.716 388.687C334.716 388.687 338.848 382.747 344.666 385.357C349.924 387.715 354.557 430.275 324.289 464.214L312.234 441.271L271.329 398.622L292.054 347.495Z" fill="#FFC96B"/>
<path d="M297.78 407.105C305.916 376.974 310.757 339.365 310.757 298.55C310.757 165.555 247.263 119.312 247.263 119.312C247.263 119.312 183.768 164.13 183.768 298.55C183.768 339.364 188.609 376.974 196.748 407.105H297.78Z" fill="#CCC9F3"/>
<path opacity="0.3" d="M199.889 288C200.027 243.597 206.406 213.893 225.771 163.173C231.931 148.799 236.798 140.29 247.262 119.313C247.262 119.313 183.767 164.131 183.767 298.551C183.767 339.365 188.608 376.975 196.747 407.106H230.378C207.815 367.797 203.009 333.709 199.889 288Z" fill="#CCC9F3"/>
<path d="M310.773 245L308.987 231.999C308.987 231.999 288.737 242.219 247.272 242.726C205.803 242.22 185.553 231.999 185.553 231.999L183.768 245C199.062 255.395 233.892 256.204 247.273 256.204C260.651 256.204 295.478 255.395 310.773 245Z" fill="#FFC96B"/>
<path d="M247.289 347.185C265.617 347.185 280.474 332.328 280.474 314C280.474 295.673 265.617 280.815 247.289 280.815C228.961 280.815 214.104 295.673 214.104 314C214.104 332.328 228.961 347.185 247.289 347.185Z" fill="#FFFFFC"/>
<path opacity="0.2" d="M258.598 282.803C256.25 281.951 253.78 281.358 251.219 281.055C238.932 293.43 226.656 305.817 214.379 318.201C214.707 320.798 215.338 323.299 216.23 325.673C230.338 311.368 244.441 297.058 258.598 282.803Z" fill="#CCC9F3"/>
<path opacity="0.2" d="M230.095 342.366C245.222 327.096 260.373 311.852 275.545 296.628C273.354 293.076 270.522 289.962 267.194 287.464C251.771 303.011 236.313 318.522 220.835 334.013C223.361 337.349 226.508 340.184 230.095 342.366Z" fill="#CCC9F3"/>
<path opacity="0.2" d="M252.467 346.78C261.667 337.583 270.867 328.385 280.068 319.188C280.334 317.497 280.474 315.765 280.474 313.999C280.474 311.085 280.087 308.265 279.381 305.573C265.879 319.067 252.396 332.579 238.929 346.108C241.6 346.802 244.399 347.183 247.289 347.183C249.051 347.185 250.78 347.045 252.467 346.78Z" fill="#CCC9F3"/>
<path d="M247.289 357.495C271.311 357.495 290.784 338.022 290.784 314C290.784 289.978 271.311 270.505 247.289 270.505C223.267 270.505 203.794 289.978 203.794 314C203.794 338.022 223.267 357.495 247.289 357.495Z" stroke="#FFFFFC" stroke-width="5" stroke-miterlimit="10" stroke-linecap="round" stroke-linejoin="round"/>
<path d="M194.815 243.249C194.815 244.091 194.133 244.773 193.291 244.773C192.449 244.773 191.767 244.09 191.767 243.249C191.767 242.407 192.449 241.725 193.291 241.725C194.133 241.725 194.815 242.407 194.815 243.249Z" fill="#FFFFFC"/>
<path d="M304.814 241.249C304.814 242.091 304.132 242.773 303.291 242.773C302.45 242.773 301.768 242.09 301.768 241.249C301.768 240.407 302.45 239.725 303.291 239.725C304.132 239.725 304.814 240.407 304.814 241.249Z" fill="#FFFFFC"/>
<path d="M301.814 372.249C301.814 373.091 301.132 373.773 300.291 373.773C299.45 373.773 298.768 373.09 298.768 372.249C298.768 371.408 299.45 370.725 300.291 370.725C301.132 370.725 301.814 371.407 301.814 372.249Z" fill="#FFFFFC"/>
<path d="M302.814 365.249C302.814 366.091 302.132 366.773 301.291 366.773C300.45 366.773 299.768 366.09 299.768 365.249C299.768 364.408 300.45 363.725 301.291 363.725C302.132 363.725 302.814 364.407 302.814 365.249Z" fill="#FFFFFC"/>
<path opacity="0.4" d="M200.217 244C200.217 244 251.752 257.574 295.925 243.773" stroke="#FFFFFC" stroke-width="2" stroke-miterlimit="10"/>
<path d="M247 178.991C273 178.795 284.855 169.914 284.855 169.914C271.426 137.221 247.079 119.313 247.079 119.313C247.079 119.313 247.264 119.323 247 119.313C247 119.313 223.612 137.085 209.22 169.914C209.22 169.914 220 178.794 246 178.991V179C246 179 246.354 178.996 246.5 178.995C246.647 178.996 247 179 247 179V178.991Z" fill="#FFC96B"/>
<path d="M297.603 127.249C297.603 128.091 296.921 128.773 296.08 128.773C295.238 128.773 294.557 128.09 294.557 127.249C294.557 126.407 295.239 125.725 296.08 125.725C296.922 125.725 297.603 126.407 297.603 127.249Z" fill="#FFFFFC"/>
<path d="M376.844 335.688C365.691 356.955 299.307 344.123 228.573 307.026C157.84 269.93 109.539 222.617 120.693 201.349" stroke="#333333" stroke-width="4" stroke-miterlimit="10" stroke-linecap="round" stroke-linejoin="round"/>
<path d="M376.36 200.434C387.666 221.62 339.705 269.278 269.238 306.88C198.772 344.482 132.482 357.789 121.176 336.602" stroke="#333333" stroke-width="3" stroke-miterlimit="10" stroke-linecap="round" stroke-linejoin="round"/>
<path d="M292.603 122.249C292.603 123.091 291.921 123.773 291.08 123.773C290.238 123.773 289.557 123.09 289.557 122.249C289.557 121.408 290.239 120.725 291.08 120.725C291.922 120.725 292.603 121.407 292.603 122.249Z" fill="#FFFFFC"/>
<path d="M135.386 231.617C135.386 234.873 132.745 237.513 129.49 237.513C126.233 237.513 123.593 234.872 123.593 231.617C123.593 228.36 126.233 225.721 129.49 225.721C132.745 225.721 135.386 228.36 135.386 231.617Z" fill="#CCC9F3"/>
<path d="M369.367 298.082C369.11 301.328 366.269 303.752 363.024 303.495C359.777 303.238 357.354 300.397 357.611 297.152C357.868 293.905 360.708 291.482 363.954 291.739C367.2 291.996 369.624 294.836 369.367 298.082Z" fill="#CCC9F3"/>
<path d="M341.367 191.082C341.11 194.328 338.269 196.752 335.024 196.495C331.777 196.238 329.354 193.397 329.611 190.152C329.868 186.905 332.708 184.482 335.954 184.739C339.2 184.996 341.624 187.836 341.367 191.082Z" fill="#CCC9F3"/>
<path d="M174.367 346.082C174.11 349.328 171.269 351.752 168.024 351.495C164.777 351.238 162.354 348.397 162.611 345.152C162.868 341.905 165.708 339.482 168.954 339.739C172.2 339.996 174.624 342.836 174.367 346.082Z" fill="#CCC9F3"/>
<path d="M382.998 454.936C382.998 454.936 416.856 437.036 440.1 470.357" stroke="#FFFFFC" stroke-width="2" stroke-miterlimit="10" stroke-dasharray="5 6"/>
<mask id="mask0_1410_172" style="mask-type:luminance" maskUnits="userSpaceOnUse" x="0" y="0" width="500" height="500">
<path d="M500 0H0V500H500V0Z" fill="white"/>
</mask>
<g mask="url(#mask0_1410_172)">
<path d="M151.794 502.701C152.204 500.017 152.417 497.269 152.417 494.471C152.417 464.607 128.207 440.398 98.343 440.398C68.48 440.398 44.269 464.607 44.269 494.471C44.269 497.27 44.481 500.018 44.892 502.701H151.794Z" fill="#CCC9F3" stroke="#CCC9F3" stroke-miterlimit="10"/>
<path d="M172.923 461.885C173.331 445.588 160.45 432.046 144.152 431.638C127.855 431.231 114.313 444.112 113.905 460.41C113.498 476.707 126.379 490.249 142.676 490.657C158.974 491.064 172.516 478.183 172.923 461.885Z" fill="#CCC9F3" stroke="#CCC9F3" stroke-miterlimit="10"/>
<path d="M183.438 483.64L206.311 485.729C228.291 482.54 246.053 464.657 248.161 441.569C250.628 414.539 230.716 390.629 203.687 388.16C176.658 385.694 152.746 405.603 150.279 432.633C148.17 455.721 162.398 476.523 183.438 483.64Z" fill="#CCC9F3" stroke="#CCC9F3" stroke-miterlimit="10"/>
<path d="M337.775 433.276C337.775 463.139 313.566 487.35 283.703 487.35C253.838 487.35 229.627 463.139 229.627 433.276C229.627 403.412 253.837 379.202 283.703 379.202C313.566 379.202 337.775 403.412 337.775 433.276Z" fill="#CCC9F3" stroke="#CCC9F3" stroke-miterlimit="10"/>
<path d="M380.569 494.903C384.742 488.19 387.16 480.269 387.16 471.785C387.16 447.56 367.523 427.923 343.299 427.923C319.075 427.923 299.439 447.561 299.439 471.785C299.439 480.269 301.857 488.19 306.03 494.903H380.569Z" fill="#CCC9F3" stroke="#CCC9F3" stroke-miterlimit="10"/>
<path d="M455.536 502.701C455.654 501.239 455.731 499.764 455.731 498.273C455.731 468.407 431.522 444.197 401.657 444.197C371.792 444.197 347.584 468.407 347.584 498.273C347.584 499.764 347.66 501.239 347.779 502.701H455.536Z" fill="#CCC9F3" stroke="#CCC9F3" stroke-miterlimit="10"/>
<path d="M385.668 502.701C383.048 475.276 359.958 453.828 331.847 453.828C303.736 453.828 280.647 475.276 278.027 502.701H385.668Z" fill="#CCC9F3" stroke="#CCC9F3" stroke-miterlimit="10"/>
<path d="M313.449 502.701C310.831 475.276 287.74 453.828 259.629 453.828C231.519 453.828 208.427 475.276 205.809 502.701H313.449Z" fill="#CCC9F3" stroke="#CCC9F3" stroke-miterlimit="10"/>
<path d="M237.002 502.701C230.553 480.049 209.724 463.457 185.003 463.457C160.283 463.457 139.454 480.049 133.005 502.701H237.002Z" fill="#CCC9F3" stroke="#CCC9F3" stroke-miterlimit="10"/>
<path d="M181.415 502.701C172.975 483.834 154.052 470.678 132.044 470.678C110.035 470.678 91.112 483.834 82.672 502.701H181.415Z" fill="#CCC9F3" stroke="#CCC9F3" stroke-miterlimit="10"/>
<path d="M121.332 495.009C123.227 494.441 124.789 493.876 126.684 493.321C126.895 493.261 127 493.241 127 493.201V492.532C127 492.386 126.828 492.029 126.775 491.704C126.63 490.816 126.593 489.936 126.455 489.127C126.077 488.85 125.781 488.902 125.457 488.909C123.846 488.922 122.269 488.955 120.66 488.982C120.328 488.988 120.011 488.982 119.6 488.982C119.46 488.604 119.323 488.232 119.19 487.849C119.065 487.471 118.961 487.079 118.829 486.656C119.842 485.974 120.811 485.345 121.753 484.682C122.66 484.039 123.621 483.462 124.436 482.634C123.913 481.323 123.29 480.104 122.522 478.891C121.37 479.123 120.297 479.547 119.21 479.925C118.157 480.296 117.118 480.694 116.004 481.097C115.528 480.461 115.064 479.838 114.566 479.169C114.706 478.944 114.818 478.719 114.971 478.521C115.991 477.182 117.018 475.851 118.031 474.513C118.256 474.221 118.442 473.904 118.668 473.572C117.733 472.486 116.766 471.511 115.679 470.585C114.64 471.135 113.759 471.876 112.838 472.565C111.944 473.235 111.082 473.943 110.182 474.645C109.744 474.526 109.466 474.207 109.142 473.976C108.811 473.745 108.433 473.558 108.155 473.154C108.898 471.048 109.779 468.955 110.348 466.695C109.142 465.947 107.917 465.338 106.592 464.774C106.413 464.966 106.214 465.138 106.074 465.338C105.108 466.716 104.147 468.101 103.193 469.479C103.001 469.75 102.815 470.029 102.617 470.327C101.762 470.241 101.027 469.903 100.212 469.605C100.278 467.65 100.352 465.703 100.312 463.749C100.306 463.418 100.299 463.08 100.286 462.749C100.219 462.728 100.16 462.715 100.093 462.702C98.762 462.357 97.463 462.191 96.118 462.073C95.999 462.345 95.873 462.569 95.8 462.808C95.29 464.484 94.787 465.831 94.277 467.507C94.197 467.786 94.09 468.001 93.999 468.001H91.64C91.534 468.001 91.409 467.798 91.328 467.526C90.858 465.95 90.408 464.541 89.924 462.965C89.818 462.62 89.758 462.319 89.427 461.981C88.85 462.042 88.261 462.15 87.678 462.23C86.916 462.342 86.155 462.502 85.393 462.714C85.174 463.482 85.293 464.24 85.28 464.976C85.267 465.764 85.293 466.553 85.312 467.341C85.32 467.553 85.333 467.774 85.339 467.991C85.365 468.514 85.392 469.054 85.418 469.623C84.636 469.882 83.901 470.128 83.105 470.386C82.914 470.148 82.721 469.929 82.555 469.691C82.404 469.472 82.251 469.247 82.105 469.028C81.37 467.955 80.635 466.889 79.892 465.815C79.654 465.477 79.389 465.167 79.151 464.862C78.164 465.06 76.467 465.895 75.289 466.762C75.805 468.949 76.72 471.03 77.461 473.196C76.872 473.772 76.189 474.142 75.548 474.666C75.315 474.52 75.09 474.395 74.892 474.243C74.534 473.965 74.17 473.692 73.812 473.408C72.899 472.712 71.983 472.003 71.069 471.307C70.745 471.062 70.4 470.843 70.003 470.565C68.863 471.433 67.922 472.473 66.956 473.533C67.393 474.348 67.93 475.05 68.466 475.746C68.466 475.746 68.466 475.753 68.472 475.753C68.638 475.972 68.803 476.184 68.963 476.396C69.215 476.727 69.466 477.052 69.725 477.383C69.983 477.714 70.241 478.046 70.506 478.377C70.685 478.602 70.871 478.833 71.056 479.072C70.606 479.794 70.142 480.457 69.599 481.066C67.452 480.317 65.346 479.582 63.278 478.853C62.921 479.217 62.503 479.847 62.132 480.562C61.999 480.801 61.873 481.052 61.761 481.311C61.668 481.516 61.574 481.728 61.496 481.933C61.39 482.192 61.304 482.45 61.23 482.689C61.417 482.861 61.614 483.086 61.846 483.252C63.164 484.174 64.49 485.087 65.808 486.002C66.113 486.207 66.411 486.419 66.776 486.664C66.523 487.439 66.292 488.182 66.046 488.949C65.934 488.956 65.828 488.969 65.729 488.976C65.629 488.982 65.536 489.001 65.444 489.001H65.436C65.37 489.001 65.304 489.001 65.238 489.001C63.594 488.976 61.951 488.933 60.309 488.906C59.937 488.906 59.567 488.936 59.228 488.956C58.93 489.712 58.725 490.58 58.605 491.666C58.559 492.11 58.519 492.592 58.499 493.116C58.704 493.208 58.923 493.348 59.162 493.42C59.665 493.572 60.176 493.726 60.685 493.878C61.328 494.076 61.977 494.269 62.627 494.467C63.15 494.619 63.664 494.779 64.187 494.938C64.465 495.024 64.999 495.124 64.999 495.21V497.654C64.999 497.846 63.767 497.002 63.131 498.002C63.131 498.002 63.131 498.002 63.124 498.002C61.991 498.002 60.872 498.73 59.778 499.104C59.354 499.243 58.944 499.446 58.533 499.611C58.5 500.824 58.725 502.373 59.142 503.817C59.851 504.029 60.6 503.459 61.341 503.472C62.09 503.492 62.838 503.002 63.587 503.002H63.693C64.316 503.002 64.946 503.399 65.581 503.359L65.939 503.566C66.025 503.746 66.105 504.033 66.177 504.211C66.422 504.814 66.581 505.481 66.746 506.137C66.621 506.223 66.495 506.337 66.369 506.416C65.547 506.966 64.746 507.517 63.952 508.067C63.037 508.71 62.137 509.38 61.262 510.008C61.302 510.26 61.387 510.574 61.513 510.912C61.566 511.077 61.64 511.25 61.712 511.423C61.719 511.43 61.719 511.44 61.719 511.446C62.084 512.274 62.6 513.194 63.137 513.917C63.394 513.863 63.687 513.824 63.965 513.731C65.482 513.208 66.993 512.671 68.509 512.134C68.853 512.015 69.198 511.89 69.609 511.738C70.093 512.393 70.556 513.016 71.053 513.685C70.908 513.911 70.782 514.123 70.629 514.322C69.629 515.634 68.622 516.931 67.628 518.237C67.403 518.535 67.204 518.846 67.012 519.137C67.43 519.946 68.834 521.396 70.006 522.244C70.959 521.655 71.874 520.952 72.789 520.257C73.676 519.574 74.551 518.872 75.484 518.144C76.134 518.615 76.756 519.065 77.433 519.555C77.367 519.813 77.321 520.058 77.24 520.296C76.684 521.88 76.121 523.463 75.565 525.046C75.452 525.364 75.372 525.69 75.287 525.994C75.975 526.663 77.758 527.603 79.103 528.008C79.309 527.749 79.559 527.485 79.772 527.187C80.672 525.901 81.554 524.603 82.449 523.312C82.634 523.04 82.825 522.775 83.038 522.47C83.866 522.675 84.635 522.907 85.423 523.271C85.272 525.524 85.244 527.756 85.291 529.956C86.285 530.414 88.126 530.628 89.578 530.581C90.392 528.495 90.916 526.001 91.565 524.001H94.035C94.698 526.001 95.208 528.482 96.05 530.628C97.494 530.608 98.832 530.393 100.203 530.074C100.409 529.319 100.147 528.594 100.167 527.857C100.18 527.076 99.999 526.312 99.999 525.531V523.225C100.999 522.913 101.592 522.649 102.46 522.49C103.705 524.351 104.981 526.24 106.366 527.956C107.306 527.81 109.098 526.955 110.284 526.074C109.761 523.894 108.87 521.807 108.11 519.615C108.752 519.131 109.384 518.668 110.06 518.164C110.305 518.33 110.561 518.481 110.786 518.654C112.124 519.675 113.458 520.701 114.797 521.715C115.061 521.914 115.354 522.079 115.612 522.238C116.586 521.522 117.812 520.31 118.621 519.257C118.084 518.25 117.335 517.369 116.646 516.448C115.977 515.547 115.268 514.686 114.56 513.778C114.779 513.421 114.998 512.694 115.243 512.356C115.481 512.026 115.74 512 116.025 511H116.031C118.197 512 120.277 513.037 122.456 513.549C123.192 512.555 123.974 511.223 124.405 509.963C124.232 509.811 124.06 509.713 123.855 509.568C122.509 508.621 121.152 507.735 119.806 506.795C119.502 506.59 119.197 506.401 118.866 506.177C119.045 505.335 119.304 504.584 119.662 503.776C120.178 503.816 120.694 503.856 121.218 503.877C121.735 503.902 122.258 503.918 122.781 503.932C123.987 503.964 125.199 503.954 126.425 503.914C126.79 503.105 126.79 502.239 126.968 501.411C127.014 501.192 126.768 500.954 126.855 500.755C126.915 500.603 127 500.503 127 500.384V499.708C127 499.351 125.18 498.979 124.041 498.636C122.894 498.297 122 497.987 121 497.649V495.257C121 495.155 121.158 495.063 121.332 495.009ZM117.329 498.48C116.388 509.676 107.895 518.726 96.964 520.514C95.666 520.733 94.328 520.845 92.969 520.845C83.569 520.845 75.413 515.545 71.32 507.768C70.842 506.861 70.419 505.914 70.054 504.94C69.663 503.886 69.339 502.806 69.094 501.687C68.947 501.038 68.828 500.374 68.742 499.706C68.591 498.626 68.517 497.52 68.517 496.393C68.517 495.036 68.629 493.697 68.848 492.399C69.305 489.603 70.239 486.973 71.557 484.582C72.432 482.992 73.485 481.508 74.684 480.163C75.062 479.732 75.459 479.315 75.877 478.911C77.546 477.274 79.454 475.877 81.541 474.777C84.37 473.273 87.531 472.319 90.882 472.034C91.572 471.969 92.266 471.941 92.969 471.941C106.471 471.941 117.422 482.885 117.422 496.393C117.422 497.097 117.396 497.792 117.329 498.48Z" fill="#333333"/>
<path d="M92.8941 475.329C81.2581 475.329 71.8251 484.762 71.8251 496.397C71.8251 508.033 81.2581 517.466 92.8941 517.466C104.53 517.466 113.963 508.032 113.963 496.397C113.963 484.762 104.53 475.329 92.8941 475.329ZM92.8941 503.447C89.0011 503.447 85.8451 500.291 85.8451 496.398C85.8451 492.505 89.0011 489.349 92.8941 489.349C96.7871 489.349 99.9431 492.504 99.9431 496.398C99.9431 500.291 96.7871 503.447 92.8941 503.447Z" fill="#F0F4F8"/>
<path d="M311.672 430.849C313.567 430.281 314.959 429.716 316.854 429.161C317.065 429.101 317.001 429.081 317.001 429.041V428.372C317.001 428.226 317.169 427.869 317.116 427.544C316.971 426.656 317.105 425.775 316.967 424.967C316.588 424.69 316.378 424.742 316.054 424.749C314.443 424.762 312.908 424.795 311.299 424.822C310.968 424.828 310.673 424.822 310.263 424.822C310.122 424.444 309.995 424.072 309.863 423.689C309.737 423.311 309.639 422.919 309.508 422.496C310.522 421.814 311.492 421.185 312.434 420.522C313.34 419.879 314.302 419.302 315.119 418.474C314.596 417.163 313.974 415.944 313.206 414.731C312.055 414.963 310.98 415.387 309.895 415.765C308.841 416.136 307.802 416.534 306.688 416.937C306.211 416.301 305.747 415.678 305.25 415.009C305.39 414.784 305.502 414.559 305.655 414.361C306.675 413.022 307.702 411.691 308.715 410.353C308.941 410.061 309.127 409.744 309.352 409.412C308.418 408.326 307.45 407.351 306.364 406.425C305.325 406.975 304.444 407.716 303.522 408.405C302.627 409.075 301.766 409.783 300.866 410.485C300.428 410.366 300.15 410.047 299.825 409.816C299.495 409.585 299.116 409.398 298.839 408.994C299.581 406.887 300.462 404.795 301.032 402.535C299.825 401.787 298.6 401.178 297.275 400.614C297.096 400.806 296.897 400.978 296.757 401.177C295.791 402.555 294.83 403.94 293.875 405.318C293.684 405.589 293.498 405.868 293.299 406.166C292.445 406.08 291.709 405.742 290.895 405.444C290.96 403.489 291.034 401.542 290.995 399.588C290.988 399.257 290.981 398.919 290.969 398.588C290.902 398.567 290.843 398.554 290.777 398.541C289.445 398.196 288.146 398.03 286.802 397.912C286.683 398.183 286.557 398.408 286.484 398.647C285.974 400.323 285.47 401.75 284.961 403.426C284.881 403.705 284.774 404 284.683 404H282.325C282.219 404 282.093 403.717 282.012 403.445C281.543 401.869 281.092 400.42 280.609 398.843C280.503 398.498 280.443 398.176 280.112 397.838C279.535 397.899 278.946 397.997 278.362 398.077C277.6 398.189 276.84 398.344 276.078 398.556C275.859 399.324 275.977 400.08 275.966 400.815C275.952 401.604 275.978 402.392 275.997 403.18C276.005 403.392 276.019 403.612 276.024 403.829C276.05 404.352 276.078 404.891 276.104 405.46C275.322 405.719 274.586 405.965 273.791 406.223C273.6 405.985 273.406 405.766 273.24 405.528C273.09 405.309 272.936 405.084 272.791 404.865C272.056 403.792 271.32 402.726 270.578 401.652C270.34 401.314 270.074 401.004 269.836 400.699C268.85 400.897 267.152 401.732 265.975 402.599C266.491 404.786 267.406 406.867 268.147 409.033C267.558 409.609 266.875 409.979 266.233 410.503C266.001 410.357 265.776 410.232 265.577 410.08C265.22 409.802 264.856 409.529 264.497 409.245C263.584 408.549 262.669 407.84 261.755 407.144C261.431 406.899 261.085 406.68 260.689 406.402C259.548 407.27 258.608 408.31 257.642 409.37C258.079 410.185 258.616 410.888 259.152 411.583C259.152 411.583 259.152 411.59 259.158 411.59C259.324 411.809 259.49 412.021 259.648 412.233C259.9 412.564 260.152 412.889 260.411 413.22C260.67 413.551 260.928 413.883 261.192 414.214C261.371 414.439 261.556 414.67 261.742 414.909C261.292 415.631 260.828 416.294 260.285 416.903C258.139 416.154 256.032 415.419 253.965 414.69C253.608 415.054 253.19 415.684 252.82 416.399C252.686 416.638 252.561 416.889 252.449 417.148C252.356 417.353 252.263 417.565 252.184 417.77C252.077 418.029 251.992 418.287 251.918 418.526C252.104 418.698 252.302 418.923 252.533 419.089C253.851 420.011 255.178 420.924 256.496 421.839C256.801 422.044 257.099 422.256 257.463 422.501C257.211 423.276 256.98 424.018 256.734 424.786C256.622 424.793 256.516 424.886 256.417 424.893C256.317 424.899 256.225 424.998 256.133 424.998H256.125C256.06 424.998 255.993 424.998 255.927 424.998C254.284 424.998 252.641 424.85 250.999 424.824C250.627 424.824 250.257 424.813 249.918 424.833C249.62 425.589 249.415 426.437 249.296 427.522C249.249 427.966 249.21 428.438 249.189 428.962C249.394 429.054 249.613 429.189 249.852 429.261C250.355 429.413 250.866 429.564 251.375 429.716C252.018 429.915 252.667 430.107 253.316 430.305C253.839 430.457 254.012 430.616 254.536 430.775C254.813 430.861 255.007 430.96 255.007 431.046V433.49C255.007 433.682 254.455 432.998 253.82 433.998C253.82 433.998 253.82 433.998 253.812 433.998C252.679 433.998 251.56 434.646 250.466 435.02C250.042 435.159 249.632 435.322 249.221 435.487C249.188 436.7 249.413 438.228 249.83 439.672C250.539 439.884 251.288 439.386 252.029 439.399C252.778 439.419 253.526 438.999 254.275 438.999H254.382C255.004 438.999 255.634 439.315 256.27 439.276L256.628 439.443C256.714 439.623 256.794 439.889 256.866 440.068C257.11 440.671 257.269 441.328 257.434 441.984C257.309 442.07 257.184 442.179 257.057 442.258C256.235 442.808 255.434 443.356 254.639 443.906C253.725 444.549 252.825 445.219 251.95 445.847C251.99 446.099 252.075 446.412 252.201 446.75C252.255 446.915 252.328 447.087 252.4 447.26C252.407 447.267 252.407 447.277 252.407 447.283C252.772 448.111 253.288 449.031 253.825 449.754C254.083 449.7 254.375 449.661 254.653 449.568C256.17 449.046 257.68 448.508 259.198 447.971C259.542 447.852 259.887 447.727 260.298 447.574C260.781 448.229 261.245 448.852 261.741 449.521C261.596 449.747 261.47 449.959 261.317 450.158C260.317 451.47 259.309 452.767 258.316 454.073C258.091 454.371 257.891 454.682 257.7 454.973C258.118 455.782 259.522 457.232 260.694 458.08C261.647 457.491 262.563 456.788 263.477 456.093C264.365 455.41 265.24 454.708 266.172 453.98C266.822 454.451 267.444 454.901 268.121 455.391C268.055 455.649 268.008 455.894 267.928 456.132C267.371 457.716 266.809 459.299 266.252 460.882C266.14 461.2 266.06 461.526 265.975 461.83C266.663 462.499 268.446 463.439 269.79 463.844C269.996 463.585 270.246 463.321 270.459 463.023C271.359 461.737 272.24 460.439 273.136 459.148C273.321 458.876 273.512 458.611 273.725 458.306C274.553 458.511 275.322 458.742 276.11 459.107C275.959 461.36 275.931 463.592 275.977 465.791C276.971 466.249 278.813 466.543 280.264 466.496C281.078 464.41 281.602 461.996 282.252 459.996H284.722C285.385 461.996 285.895 464.396 286.737 466.543C288.18 466.523 289.518 466.268 290.89 465.949C291.096 465.194 290.493 464.448 290.513 463.712C290.527 462.931 290.005 462.148 290.005 461.366V459.06C291.005 458.748 291.939 458.484 292.806 458.325C294.052 460.186 295.498 462.075 296.883 463.791C297.822 463.645 299.7 462.79 300.886 461.909C300.363 459.729 299.514 457.642 298.753 455.45C299.395 454.966 300.05 454.503 300.726 453.999C300.97 454.165 301.236 454.316 301.461 454.489C302.799 455.51 304.139 456.536 305.478 457.55C305.742 457.749 306.038 457.914 306.295 458.073C307.269 457.357 308.496 456.145 309.305 455.092C308.768 454.085 308.021 453.204 307.332 452.283C306.663 451.382 305.955 450.521 305.246 449.613C305.465 449.256 305.684 448.609 305.929 448.271C306.167 447.941 306.426 447.996 306.711 446.996H306.717C308.883 447.996 310.963 448.953 313.143 449.465C313.879 448.471 314.661 447.099 315.091 445.839C314.918 445.687 314.746 445.568 314.541 445.423C313.195 444.476 311.838 443.58 310.492 442.64C310.188 442.435 309.883 442.242 309.552 442.017C309.731 441.175 309.99 440.422 310.348 439.614C310.864 439.653 311.38 439.693 311.905 439.714C312.421 439.739 312.945 439.754 313.468 439.768C314.674 439.8 315.886 439.788 317.113 439.75C317.477 438.941 317.477 438.075 317.656 437.247C317.703 437.028 317.116 436.79 317.202 436.591C317.263 436.439 317.007 436.339 317.007 436.22V435.544C317.007 435.187 315.187 434.816 314.048 434.472C312.902 434.133 312.007 433.823 311.007 433.485V431.093C311 430.995 311.498 430.902 311.672 430.849ZM308.01 434.32C307.07 445.516 298.575 454.566 287.646 456.354C286.347 456.573 285.009 456.685 283.651 456.685C274.251 456.685 266.095 451.385 262.002 443.608C261.524 442.701 261.102 441.754 260.736 440.78C260.345 439.726 260.021 438.646 259.776 437.527C259.63 436.878 259.51 436.214 259.423 435.546C259.273 434.466 259.198 433.361 259.198 432.233C259.198 430.876 259.31 429.537 259.529 428.239C259.986 425.443 260.921 422.813 262.239 420.422C263.114 418.832 264.167 417.348 265.366 416.003C265.744 415.572 266.141 415.155 266.559 414.751C268.228 413.114 270.135 411.717 272.222 410.617C275.051 409.113 278.211 408.159 281.563 407.874C282.252 407.809 282.948 407.781 283.65 407.781C297.152 407.781 308.102 418.725 308.102 432.233C308.102 432.936 308.077 433.632 308.01 434.32Z" fill="#333333"/>
<path d="M283.575 411.169C271.938 411.169 262.506 420.602 262.506 432.237C262.506 443.873 271.939 453.306 283.575 453.306C295.211 453.306 304.643 443.872 304.643 432.237C304.644 420.602 295.211 411.169 283.575 411.169ZM283.575 439.287C279.681 439.287 276.526 436.131 276.526 432.238C276.526 428.344 279.681 425.189 283.575 425.189C287.468 425.189 290.624 428.344 290.624 432.238C290.624 436.131 287.468 439.287 283.575 439.287Z" fill="#F0F4F8"/>
<path d="M231.473 435.496C233.368 434.928 234.859 434.363 236.754 433.807C236.965 433.747 237 433.727 237 433.687V433.018C237 432.872 236.969 432.515 236.916 432.19C236.772 431.302 236.806 430.422 236.668 429.613C236.289 429.336 236.029 429.388 235.705 429.395C234.094 429.408 232.535 429.441 230.925 429.468C230.594 429.474 230.286 429.468 229.876 429.468C229.735 429.09 229.603 428.718 229.47 428.335C229.344 427.957 229.243 427.565 229.111 427.142C230.125 426.46 231.094 425.83 232.035 425.168C232.941 424.525 233.903 423.948 234.719 423.12C234.196 421.809 233.574 420.59 232.806 419.377C231.655 419.61 230.58 420.033 229.494 420.411C228.44 420.782 227.401 421.18 226.287 421.583C225.81 420.947 225.347 420.324 224.849 419.655C224.989 419.43 225.101 419.205 225.254 419.007C226.274 417.668 227.301 416.337 228.314 414.999C228.539 414.707 228.726 414.39 228.951 414.058C228.017 412.972 227.049 411.997 225.963 411.071C224.924 411.621 224.043 412.362 223.121 413.051C222.226 413.721 221.365 414.429 220.465 415.131C220.027 415.012 219.749 414.693 219.424 414.462C219.094 414.231 218.715 414.044 218.438 413.64C219.18 411.534 220.061 409.441 220.631 407.181C219.424 406.433 218.199 405.824 216.874 405.26C216.695 405.452 216.496 405.624 216.356 405.823C215.39 407.201 214.429 408.586 213.474 409.964C213.283 410.235 213.097 410.514 212.898 410.812C212.044 410.726 211.308 410.388 210.494 410.09C210.56 408.135 210.633 406.188 210.594 404.234C210.587 403.903 210.58 403.565 210.568 403.234C210.501 403.213 210.442 403.2 210.376 403.187C209.044 402.842 207.745 402.676 206.401 402.558C206.282 402.83 206.156 403.054 206.083 403.293C205.573 404.969 205.069 406.573 204.56 408.249C204.48 408.528 204.374 408.999 204.282 408.999H201.924C201.818 408.999 201.692 408.54 201.611 408.269C201.142 406.693 200.691 405.155 200.208 403.579C200.101 403.234 200.042 402.868 199.711 402.53C199.134 402.59 198.545 402.668 197.961 402.748C197.199 402.86 196.438 403.003 195.677 403.216C195.458 403.984 195.576 404.736 195.565 405.47C195.551 406.259 195.577 407.044 195.596 407.832C195.604 408.044 195.617 408.262 195.623 408.479C195.649 409.002 195.677 409.54 195.703 410.11C194.921 410.369 194.185 410.614 193.39 410.872C193.199 410.634 193.005 410.415 192.839 410.177C192.689 409.958 192.535 409.733 192.39 409.514C191.655 408.441 190.919 407.375 190.177 406.301C189.939 405.963 189.673 405.653 189.435 405.348C188.449 405.546 186.751 406.381 185.574 407.248C186.09 409.435 187.005 411.516 187.746 413.682C187.157 414.258 186.475 414.628 185.832 415.152C185.6 415.006 185.375 414.881 185.176 414.729C184.819 414.451 184.455 414.178 184.096 413.894C183.183 413.198 182.268 412.489 181.354 411.793C181.03 411.548 180.684 411.329 180.288 411.051C179.147 411.919 178.207 412.959 177.241 414.019C177.677 414.834 178.215 415.537 178.751 416.232C178.751 416.232 178.751 416.239 178.757 416.239C178.923 416.458 179.089 416.67 179.247 416.882C179.499 417.213 179.751 417.538 180.01 417.869C180.269 418.2 180.527 418.532 180.791 418.863C180.97 419.088 181.155 419.319 181.341 419.558C180.891 420.28 180.427 420.943 179.884 421.552C177.738 420.803 175.631 420.068 173.564 419.339C173.207 419.703 172.789 420.333 172.418 421.048C172.284 421.287 172.159 421.538 172.047 421.797C171.954 422.002 171.86 422.214 171.782 422.419C171.675 422.678 171.59 422.936 171.516 423.175C171.701 423.347 171.9 423.572 172.131 423.738C173.449 424.66 174.776 425.573 176.094 426.488C176.399 426.693 176.696 426.905 177.061 427.15C176.809 427.925 176.578 428.668 176.332 429.435C176.22 429.442 176.114 429.711 176.015 429.719C175.915 429.725 175.823 430 175.731 430H175.723C175.658 430 175.591 430 175.525 430C173.882 430 172.239 429.676 170.597 429.65C170.225 429.65 169.855 429.55 169.516 429.57C169.218 430.326 169.013 431.13 168.894 432.215C168.847 432.659 168.808 433.11 168.788 433.634C168.993 433.726 169.212 433.849 169.451 433.921C169.954 434.073 170.465 434.219 170.974 434.371C171.617 434.57 172.266 434.759 172.915 434.957C173.438 435.109 173.81 435.266 174.334 435.425C174.611 435.511 175.003 435.609 175.003 435.695V438.139C175.003 438.331 174.054 437.999 173.419 438.999C173.419 438.999 173.419 438.999 173.411 438.999C172.278 438.999 171.159 439.472 170.065 439.845C169.641 439.984 169.231 440.058 168.82 440.223C168.787 441.436 169.012 442.92 169.429 444.365C170.138 444.577 170.887 444.233 171.628 444.246C172.377 444.266 173.125 444 173.874 444H173.98C174.602 444 175.232 444.141 175.868 444.102L176.226 444.18C176.312 444.36 176.392 444.582 176.464 444.761C176.708 445.364 176.867 445.999 177.032 446.656C176.907 446.742 176.782 446.84 176.655 446.919C175.833 447.469 175.032 448.012 174.237 448.562C173.323 449.205 172.423 449.872 171.548 450.501C171.588 450.753 171.673 451.065 171.799 451.402C171.853 451.567 171.926 451.739 171.998 451.912C172.005 451.919 172.005 451.928 172.005 451.934C172.37 452.762 172.886 453.682 173.423 454.405C173.681 454.351 173.973 454.312 174.251 454.219C175.768 453.697 177.278 453.159 178.796 452.622C179.14 452.503 179.485 452.378 179.896 452.226C180.379 452.881 180.843 453.504 181.339 454.173C181.194 454.399 181.068 454.611 180.915 454.81C179.915 456.121 178.907 457.419 177.914 458.725C177.688 459.023 177.489 459.334 177.298 459.625C177.716 460.434 179.12 461.884 180.292 462.732C181.245 462.143 182.161 461.44 183.075 460.745C183.963 460.062 184.838 459.36 185.77 458.632C186.42 459.103 187.041 459.553 187.719 460.043C187.653 460.301 187.606 460.546 187.526 460.784C186.969 462.368 186.407 463.951 185.85 465.534C185.738 465.852 185.658 466.178 185.573 466.482C186.261 467.151 188.044 468.091 189.388 468.496C189.594 468.237 189.844 467.973 190.057 467.675C190.957 466.389 191.838 465.091 192.734 463.8C192.919 463.528 193.11 463.263 193.323 462.958C194.151 463.163 194.92 463.395 195.708 463.759C195.557 466.012 195.529 468.244 195.575 470.444C196.569 470.902 198.411 471.373 199.862 471.326C200.676 469.24 201.2 467.002 201.85 465.002H204.32C204.983 467.002 205.493 469.227 206.335 471.373C207.778 471.353 209.116 471.009 210.488 470.69C210.694 469.935 210.29 469.145 210.31 468.409C210.324 467.628 210.001 466.801 210.001 466.019V463.713C211.001 463.401 211.736 463.137 212.603 462.978C213.849 464.839 215.196 466.728 216.581 468.444C217.52 468.297 219.349 467.443 220.534 466.562C220.011 464.382 219.137 462.295 218.376 460.103C219.018 459.619 219.66 459.156 220.336 458.652C220.58 458.818 220.84 458.969 221.066 459.142C222.404 460.163 223.74 461.189 225.079 462.203C225.343 462.402 225.637 462.567 225.895 462.726C226.869 462.01 228.096 460.798 228.904 459.745C228.367 458.738 227.619 457.857 226.931 456.936C226.262 456.035 225.553 455.174 224.845 454.266C225.064 453.909 225.283 453.439 225.528 453.101C225.766 452.771 226.025 453.001 226.31 452.001H226.316C228.482 453.001 230.562 453.782 232.742 454.294C233.478 453.3 234.26 451.839 234.69 450.579C234.517 450.427 234.345 450.265 234.14 450.119C232.794 449.172 231.437 448.255 230.091 447.314C229.787 447.109 229.482 446.904 229.151 446.679C229.33 445.837 229.589 445.079 229.947 444.271C230.463 444.31 230.979 444.347 231.504 444.368C232.02 444.393 232.544 444.406 233.067 444.42C234.273 444.452 235.485 444.441 236.712 444.401C237.076 443.592 237.076 442.725 237.255 441.897C237.302 441.678 236.914 441.44 237 441.241C237.061 441.089 237.003 440.989 237.003 440.87V440.194C237.003 439.837 235.183 439.465 234.044 439.122C232.898 438.783 232.003 438.473 231.003 438.135V435.743C231 435.643 231.299 435.55 231.473 435.496ZM227.612 438.968C226.672 450.164 218.177 459.214 207.248 461.002C205.949 461.221 204.611 461.333 203.253 461.333C193.853 461.333 185.697 456.033 181.604 448.256C181.127 447.349 180.704 446.402 180.338 445.428C179.947 444.374 179.623 443.294 179.378 442.175C179.232 441.526 179.112 440.862 179.025 440.194C178.875 439.114 178.8 438.008 178.8 436.881C178.8 435.524 178.912 434.185 179.131 432.887C179.588 430.091 180.523 427.461 181.841 425.07C182.716 423.48 183.769 421.996 184.968 420.651C185.346 420.22 185.743 419.803 186.161 419.399C187.83 417.762 189.737 416.365 191.824 415.265C194.653 413.761 197.813 412.807 201.165 412.522C201.854 412.457 202.55 412.429 203.252 412.429C216.754 412.429 227.704 423.373 227.704 436.881C227.705 437.584 227.68 438.279 227.612 438.968Z" fill="#333333"/>
<path d="M203.178 415.816C191.541 415.816 182.109 425.249 182.109 436.884C182.109 448.52 191.542 457.953 203.178 457.953C214.814 457.953 224.246 448.519 224.246 436.884C224.246 425.249 214.813 415.816 203.178 415.816ZM203.178 443.935C199.285 443.935 196.129 440.779 196.129 436.886C196.129 432.992 199.284 429.837 203.178 429.837C207.071 429.837 210.227 432.992 210.227 436.886C210.227 440.778 207.07 443.935 203.178 443.935Z" fill="#F0F4F8"/>
<path d="M356.245 457.936C357.376 457.596 357.996 457.258 359.127 456.926C359.254 456.891 359 456.878 359 456.855V456.456C359 456.368 359.236 456.155 359.204 455.96C359.118 455.431 359.264 454.904 359.181 454.421C358.954 454.254 358.862 454.285 358.67 454.29C357.705 454.298 356.806 454.317 355.843 454.334C355.647 454.337 355.478 454.334 355.232 454.334C355.149 454.107 355.079 453.886 354.999 453.656C354.923 453.431 354.866 453.197 354.787 452.943C355.392 452.536 355.976 452.16 356.538 451.763C357.079 451.379 357.655 451.034 358.142 450.539C357.829 449.756 357.46 449.026 356.999 448.302C356.311 448.441 355.668 448.695 355.019 448.92C354.389 449.142 353.769 449.38 353.103 449.62C352.818 449.241 352.54 448.868 352.243 448.468C352.327 448.334 352.394 448.198 352.487 448.08C353.095 447.28 353.709 446.485 354.314 445.685C354.449 445.51 354.561 445.321 354.695 445.122C354.136 444.473 353.558 443.89 352.909 443.336C352.289 443.665 351.762 444.109 351.211 444.521C350.676 444.92 350.161 445.343 349.623 445.763C349.362 445.692 349.195 445.501 349.001 445.364C348.804 445.226 348.577 445.114 348.411 444.872C348.855 443.613 349.381 442.363 349.722 441.013C349.001 440.565 348.27 440.201 347.478 439.866C347.371 439.98 347.252 440.084 347.168 440.202C346.591 441.025 346.017 441.853 345.446 442.677C345.332 442.839 345.219 443.006 345.101 443.184C344.589 443.132 344.151 442.931 343.665 442.752C343.702 441.584 343.747 440.42 343.724 439.252C343.72 439.054 343.716 438.852 343.708 438.654C343.668 438.642 343.632 438.633 343.592 438.626C342.797 438.42 342.021 438.321 341.217 438.25C341.147 438.413 341.07 438.547 341.027 438.69C340.722 439.692 340.422 440.6 340.116 441.602C340.067 441.768 340.005 442 339.95 442H338.54C338.477 442 338.401 441.775 338.354 441.611C338.074 440.67 337.804 439.777 337.515 438.835C337.451 438.629 337.415 438.423 337.218 438.221C336.873 438.258 336.521 438.309 336.173 438.358C335.717 438.424 335.262 438.512 334.806 438.64C334.677 439.099 334.747 439.551 334.74 439.989C334.733 440.462 334.748 440.931 334.76 441.403C334.764 441.529 334.773 441.661 334.776 441.791C334.793 442.103 334.807 442.424 334.825 442.765C334.357 442.92 333.917 443.067 333.442 443.22C333.327 443.078 333.212 442.947 333.113 442.805C333.023 442.674 332.931 442.539 332.843 442.408C332.403 441.766 331.965 441.13 331.521 440.488C331.379 440.286 331.22 440.1 331.078 439.918C330.489 440.037 329.474 440.535 328.77 441.055C329.079 442.361 329.625 443.605 330.068 444.9C329.717 445.244 329.308 445.465 328.924 445.778C328.785 445.691 328.651 445.617 328.531 445.526C328.318 445.359 328.101 445.197 327.886 445.026C327.339 444.611 326.792 444.187 326.246 443.771C326.052 443.624 325.846 443.495 325.609 443.328C324.927 443.846 324.364 444.468 323.788 445.101C324.049 445.588 324.37 446.008 324.689 446.423C324.689 446.423 324.689 446.428 324.694 446.428C324.793 446.559 324.891 446.686 324.986 446.812C325.137 447.01 325.288 447.204 325.442 447.402C325.597 447.6 325.752 447.798 325.91 447.996C326.016 448.131 326.127 448.269 326.238 448.412C325.968 448.844 325.692 449.239 325.367 449.604C324.085 449.156 322.825 448.716 321.59 448.281C321.377 448.499 321.127 448.875 320.905 449.303C320.826 449.446 320.752 449.596 320.684 449.751C320.628 449.873 320.573 450 320.526 450.123C320.462 450.276 320.411 450.432 320.367 450.573C320.477 450.677 320.596 450.811 320.734 450.91C321.522 451.461 322.315 452.007 323.103 452.554C323.285 452.677 323.462 452.804 323.68 452.95C323.531 453.413 323.392 453.856 323.244 454.315C323.177 454.319 323.114 454.154 323.055 454.158C322.995 454.162 322.94 454.002 322.885 454.002H322.88C322.841 454.002 322.802 454.002 322.762 454.002C321.781 454.002 320.799 454.133 319.817 454.117C319.594 454.117 319.374 454.222 319.172 454.234C318.993 454.686 318.872 455.248 318.799 455.897C318.772 456.162 318.748 456.471 318.736 456.785C318.858 456.84 318.989 456.933 319.132 456.976C319.433 457.068 319.738 457.164 320.043 457.255C320.427 457.374 320.814 457.491 321.202 457.612C321.517 457.704 321.511 457.798 321.827 457.894C321.991 457.945 322 458.005 322 458.057V459.517C322 459.632 321.884 459.001 321.504 459.001C321.504 459.001 321.504 459.001 321.5 459.001C320.822 459.001 320.154 459.798 319.5 460.023C319.246 460.105 319.001 460.408 318.756 460.505C318.736 461.23 318.872 462.246 319.121 463.109C319.543 463.236 319.991 462.586 320.434 462.594C320.882 462.605 321.33 462 321.778 462H321.841C322.213 462 322.59 462.592 322.97 462.568L323.185 462.873C323.236 462.98 323.284 463.239 323.327 463.347C323.473 463.706 323.568 464.15 323.667 464.541C323.593 464.593 323.518 464.685 323.441 464.731C322.95 465.061 322.472 465.402 321.996 465.73C321.45 466.113 320.912 466.52 320.39 466.896C320.413 467.047 320.465 467.237 320.539 467.44C320.57 467.538 320.615 467.641 320.658 467.746C320.662 467.749 320.662 467.758 320.662 467.762C320.881 468.257 321.189 468.806 321.509 469.239C321.663 469.207 321.839 469.184 322.005 469.128C322.911 468.815 323.814 468.494 324.722 468.173C324.927 468.103 325.133 468.027 325.378 467.937C325.667 468.329 325.944 468.702 326.241 469.101C326.154 469.236 326.078 469.363 325.988 469.482C325.389 470.265 324.788 471.041 324.194 471.821C324.058 471.999 323.94 472.185 323.826 472.36C324.076 472.843 324.915 473.709 325.616 474.217C326.184 473.864 326.732 473.445 327.278 473.029C327.809 472.621 328.332 472.201 328.889 471.766C329.279 472.046 329.65 472.316 330.054 472.609C330.015 472.763 329.986 472.91 329.939 473.052C329.606 473.999 329.27 474.945 328.937 475.891C328.87 476.08 328.822 476.276 328.771 476.457C329.182 476.856 330.249 477.419 331.052 477.661C331.175 477.506 331.324 477.348 331.451 477.17C331.989 476.401 332.515 475.626 333.051 474.854C333.161 474.692 333.277 474.534 333.403 474.351C333.898 474.474 334.358 474.612 334.829 474.829C334.738 476.176 334.722 477.511 334.75 478.824C335.344 479.098 336.445 479.094 337.312 479.064C337.799 477.818 338.112 475.001 338.501 475.001H339.976C340.373 475.001 340.678 477.811 341.181 479.093C342.043 479.081 342.844 479.018 343.663 478.828C343.786 478.376 343.36 477.978 343.372 477.537C343.382 477.07 343.003 476.645 343.003 476.18V474.8C344.003 474.614 344.225 474.455 344.744 474.361C345.487 475.473 346.386 476.602 347.214 477.628C347.777 477.541 348.913 477.03 349.621 476.504C349.308 475.201 348.81 473.954 348.356 472.644C348.738 472.354 349.133 472.078 349.538 471.777C349.684 471.876 349.845 471.966 349.981 472.07C350.78 472.679 351.58 473.294 352.38 473.898C352.537 474.018 352.715 474.116 352.87 474.211C353.45 473.783 354.186 473.059 354.67 472.429C354.349 471.827 353.901 471.301 353.49 470.75C353.09 470.212 352.666 469.698 352.243 469.154C352.374 468.941 352.505 468.261 352.651 468.057C352.794 467.86 352.948 468 353.118 467H353.123C354.418 468 355.66 468.465 356.963 468.77C357.404 468.176 357.869 467.504 358.127 466.752C358.023 466.661 357.921 466.662 357.799 466.576C356.994 466.01 356.184 465.512 355.379 464.949C355.198 464.825 355.015 464.73 354.817 464.595C354.924 464.092 355.077 463.652 355.293 463.168C355.602 463.191 355.909 463.22 356.224 463.232C356.531 463.247 356.844 463.256 357.158 463.265C357.878 463.284 358.603 463.282 359.336 463.257C359.554 462.774 359.554 462.255 359.66 461.761C359.688 461.63 359.203 461.488 359.254 461.368C359.29 461.277 359.003 461.219 359.003 461.146V460.742C359.003 460.529 358.208 460.307 357.526 460.102C356.842 459.899 356.003 459.713 356.003 459.511V458.081C356 458.023 356.14 457.969 356.245 457.936ZM353.896 460.012C353.334 466.702 348.256 472.112 341.724 473.181C340.948 473.312 340.149 473.378 339.337 473.378C333.718 473.378 328.844 470.211 326.397 465.563C326.112 465.021 325.859 464.455 325.641 463.873C325.408 463.242 325.213 462.598 325.068 461.929C324.98 461.541 324.908 461.145 324.856 460.744C324.766 460.098 324.723 459.438 324.723 458.765C324.723 457.953 324.789 457.154 324.92 456.378C325.192 454.707 325.752 453.136 326.54 451.705C327.063 450.756 327.69 449.868 328.408 449.064C328.634 448.806 328.872 448.557 329.122 448.316C330.119 447.338 331.259 446.502 332.505 445.845C334.197 444.947 336.085 444.375 338.089 444.205C338.501 444.166 338.916 444.149 339.337 444.149C347.405 444.149 353.95 450.69 353.95 458.763C353.951 459.184 353.935 459.6 353.896 460.012Z" fill="#333333"/>
<path d="M339.293 446.174C332.337 446.174 326.699 451.812 326.699 458.767C326.699 465.721 332.337 471.36 339.293 471.36C346.246 471.36 351.885 465.721 351.885 458.767C351.885 451.811 346.246 446.174 339.293 446.174ZM339.293 462.979C336.965 462.979 335.079 461.092 335.079 458.766C335.079 456.439 336.965 454.553 339.293 454.553C341.618 454.553 343.506 456.439 343.506 458.766C343.506 461.093 341.618 462.979 339.293 462.979Z" fill="#F0F4F8"/>
<path d="M323.926 505.983C325.821 505.415 327.086 504.85 328.981 504.294C329.192 504.235 329.001 504.214 329.001 504.174V503.505C329.001 503.36 329.423 503.002 329.37 502.677C329.225 501.789 329.486 500.909 329.348 500.1C328.969 499.823 328.824 499.875 328.499 499.882C326.888 499.895 325.386 499.928 323.776 499.955C323.445 499.961 323.166 499.955 322.755 499.955C322.614 499.577 322.494 499.205 322.361 498.822C322.235 498.444 322.142 498.052 322.01 497.629C323.024 496.947 323.996 496.317 324.938 495.655C325.844 495.012 326.807 494.435 327.624 493.607C327.101 492.296 326.481 491.077 325.712 489.864C324.561 490.096 323.486 490.52 322.401 490.898C321.347 491.269 320.308 491.667 319.194 492.07C318.717 491.434 318.254 490.811 317.756 490.142C317.896 489.917 318.008 489.692 318.161 489.494C319.181 488.155 320.208 486.824 321.221 485.486C321.447 485.194 321.633 484.877 321.858 484.545C320.924 483.459 319.956 482.485 318.87 481.558C317.831 482.108 316.95 482.849 316.028 483.538C315.133 484.208 314.272 484.916 313.372 485.618C312.934 485.499 312.656 485.18 312.331 484.949C312.001 484.718 311.622 484.531 311.345 484.127C312.087 482.021 312.968 479.928 313.538 477.668C312.331 476.92 311.106 476.311 309.781 475.747C309.602 475.939 309.403 476.111 309.263 476.311C308.297 477.689 307.336 479.074 306.381 480.452C306.19 480.724 306.004 481.002 305.805 481.3C304.951 481.214 304.215 480.876 303.401 480.578C303.466 478.623 303.54 476.676 303.501 474.722C303.494 474.391 303.487 474.053 303.475 473.722C303.408 473.701 303.349 473.688 303.283 473.675C301.951 473.33 300.652 473.164 299.308 473.046C299.189 473.318 299.063 473.542 298.99 473.781C298.48 475.457 297.976 476.817 297.467 478.493C297.387 478.772 297.281 479 297.189 479H294.831C294.725 479 294.599 478.784 294.518 478.513C294.049 476.937 293.598 475.521 293.115 473.945C293.009 473.601 292.949 473.296 292.618 472.958C292.041 473.019 291.452 473.125 290.868 473.205C290.106 473.317 289.346 473.476 288.584 473.689C288.365 474.457 288.483 475.215 288.472 475.95C288.458 476.739 288.484 477.528 288.503 478.316C288.511 478.528 288.524 478.749 288.53 478.965C288.556 479.488 288.584 480.028 288.61 480.597C287.828 480.856 287.092 481.102 286.297 481.36C286.106 481.122 285.912 480.903 285.746 480.665C285.596 480.446 285.442 480.221 285.297 480.002C284.562 478.929 283.826 477.863 283.084 476.789C282.846 476.451 282.58 476.141 282.342 475.836C281.356 476.034 279.658 476.869 278.481 477.736C278.997 479.922 279.912 482.003 280.653 484.17C280.064 484.746 279.382 485.116 278.739 485.64C278.507 485.494 278.282 485.369 278.083 485.217C277.726 484.939 277.362 484.666 277.003 484.382C276.09 483.686 275.175 482.977 274.261 482.281C273.937 482.036 273.591 481.817 273.195 481.539C272.054 482.407 271.114 483.447 270.148 484.507C270.585 485.322 271.122 486.025 271.658 486.72C271.658 486.72 271.658 486.727 271.664 486.727C271.83 486.946 271.996 487.158 272.154 487.37C272.406 487.701 272.658 488.026 272.917 488.357C273.176 488.688 273.434 489.02 273.698 489.351C273.877 489.576 274.062 489.807 274.248 490.046C273.798 490.768 273.334 491.431 272.791 492.04C270.645 491.291 268.538 490.556 266.471 489.827C266.114 490.191 265.696 490.821 265.325 491.536C265.191 491.775 265.066 492.026 264.954 492.285C264.861 492.49 264.768 492.702 264.689 492.907C264.582 493.166 264.497 493.424 264.423 493.663C264.609 493.835 264.807 494.06 265.038 494.226C266.356 495.148 267.683 496.061 269.001 496.976C269.306 497.181 269.604 497.393 269.968 497.638C269.716 498.413 269.485 499.156 269.239 499.923C269.127 499.93 269.021 499.955 268.922 499.963C268.822 499.969 268.73 500.001 268.638 500.001H268.63C268.564 500.001 268.498 500.001 268.432 500.001C266.789 500.001 265.146 499.92 263.504 499.895C263.132 499.895 262.762 499.918 262.423 499.938C262.125 500.694 261.92 501.558 261.801 502.644C261.754 503.087 261.715 503.568 261.694 504.092C261.899 504.184 262.118 504.324 262.357 504.396C262.86 504.548 263.371 504.701 263.881 504.853C264.523 505.052 265.173 505.245 265.822 505.443C266.345 505.595 266.263 505.754 266.787 505.914C267.064 506 267.004 506.099 267.004 506.184V508.628C267.004 508.82 266.961 508.001 266.326 509.001C266.326 509.001 266.326 509.001 266.318 509.001C265.185 509.001 264.066 509.717 262.972 510.09C262.548 510.229 262.138 510.426 261.727 510.59C261.694 511.803 261.919 513.349 262.336 514.792C263.045 515.005 263.794 514.447 264.535 514.46C265.284 514.48 266.032 514.001 266.781 514.001H266.888C267.51 514.001 268.14 514.385 268.776 514.346L269.134 514.547C269.22 514.727 269.3 515.009 269.372 515.189C269.616 515.791 269.775 516.457 269.94 517.113C269.815 517.199 269.69 517.313 269.563 517.392C268.741 517.942 267.94 518.492 267.145 519.042C266.231 519.685 265.331 520.355 264.456 520.984C264.496 521.236 264.581 521.549 264.707 521.887C264.761 522.053 264.834 522.225 264.906 522.398C264.913 522.405 264.913 522.415 264.913 522.421C265.278 523.249 265.794 524.169 266.331 524.892C266.589 524.838 266.881 524.799 267.159 524.705C268.676 524.183 270.186 523.645 271.704 523.108C272.048 522.989 272.393 522.864 272.804 522.712C273.287 523.367 273.751 523.99 274.247 524.659C274.102 524.885 273.976 525.097 273.823 525.296C272.823 526.608 271.815 527.905 270.822 529.211C270.596 529.509 270.397 529.82 270.206 530.111C270.624 530.92 272.028 532.37 273.2 533.218C274.153 532.629 275.069 531.926 275.983 531.231C276.871 530.548 277.746 529.846 278.678 529.118C279.328 529.589 279.95 530.039 280.627 530.529C280.561 530.787 280.514 531.032 280.434 531.27C279.877 532.854 279.315 534.437 278.758 536.02C278.646 536.338 278.566 536.664 278.481 536.968C279.169 537.637 280.952 538.577 282.296 538.982C282.502 538.723 282.752 538.459 282.965 538.161C283.865 536.875 284.746 535.577 285.642 534.286C285.827 534.014 286.018 533.749 286.231 533.444C287.059 533.649 287.828 533.881 288.616 534.245C288.465 536.498 288.437 538.73 288.483 540.93C289.477 541.388 291.319 541.615 292.77 541.568C293.584 539.482 294.108 537.001 294.758 535.001H297.228C297.891 537.001 298.401 539.469 299.243 541.615C300.686 541.595 302.024 541.373 303.396 541.054C303.602 540.3 302.745 539.571 302.764 538.834C302.778 538.053 302.002 537.286 302.002 536.505V534.199C303.002 533.887 304.19 533.623 305.057 533.464C306.303 535.325 307.876 537.214 309.261 538.93C310.2 538.784 312.143 537.929 313.328 537.048C312.805 534.868 311.988 532.781 311.227 530.589C311.869 530.105 312.54 529.642 313.215 529.138C313.459 529.304 313.732 529.455 313.957 529.628C315.295 530.648 316.64 531.675 317.978 532.689C318.242 532.888 318.54 533.053 318.797 533.212C319.771 532.496 320.999 531.284 321.808 530.231C321.271 529.224 320.525 528.343 319.836 527.422C319.167 526.521 318.459 525.66 317.75 524.752C317.969 524.394 318.188 523.681 318.433 523.343C318.671 523.013 318.93 523 319.215 522H319.221C321.387 523 323.467 524.024 325.647 524.536C326.383 523.542 327.165 522.204 327.595 520.944C327.422 520.792 327.25 520.689 327.045 520.545C325.699 519.598 324.342 518.71 322.996 517.77C322.692 517.565 322.387 517.377 322.056 517.152C322.235 516.31 322.494 515.559 322.852 514.751C323.368 514.79 323.884 514.831 324.409 514.852C324.925 514.877 325.449 514.892 325.972 514.906C327.178 514.939 328.39 514.927 329.617 514.888C329.981 514.079 329.981 513.213 330.16 512.385C330.207 512.166 329.365 511.928 329.451 511.729C329.512 511.577 329.002 511.477 329.002 511.358V510.682C329.002 510.325 327.182 509.953 326.043 509.61C324.897 509.271 324.002 508.961 323.002 508.623V506.231C323 506.13 323.752 506.037 323.926 505.983ZM320.519 509.455C319.579 520.651 311.084 529.701 300.155 531.489C298.856 531.708 297.518 531.82 296.16 531.82C286.76 531.82 278.604 526.52 274.511 518.743C274.033 517.836 273.611 516.888 273.245 515.915C272.854 514.861 272.53 513.781 272.285 512.662C272.139 512.013 272.019 511.349 271.932 510.681C271.782 509.601 271.707 508.495 271.707 507.368C271.707 506.011 271.819 504.672 272.038 503.374C272.495 500.578 273.43 497.948 274.748 495.557C275.623 493.967 276.676 492.483 277.875 491.138C278.253 490.707 278.65 490.29 279.068 489.886C280.737 488.249 282.644 486.852 284.731 485.752C287.56 484.248 290.72 483.294 294.072 483.009C294.761 482.944 295.457 482.916 296.159 482.916C309.661 482.916 320.611 493.86 320.611 507.368C320.611 508.071 320.586 508.767 320.519 509.455Z" fill="#333333"/>
<path d="M296.084 486.304C284.447 486.304 275.015 495.737 275.015 507.372C275.015 519.008 284.448 528.441 296.084 528.441C307.72 528.441 317.152 519.007 317.152 507.372C317.152 495.736 307.72 486.304 296.084 486.304ZM296.084 514.422C292.19 514.422 289.035 511.266 289.035 507.373C289.035 503.48 292.19 500.324 296.084 500.324C299.977 500.324 303.133 503.479 303.133 507.373C303.133 511.266 299.977 514.422 296.084 514.422Z" fill="#F0F4F8"/>
<path d="M255.039 498.241C252.629 497.084 250.1 496.313 247.586 495.448C247.045 495.259 246.499 495.069 245.96 494.87C245.881 494.664 245.826 494.458 245.785 494.245C245.785 494.228 245.777 494.221 245.777 494.204C245.642 493.514 245.689 492.817 245.705 492.101C245.722 491.762 245.73 491.419 245.705 491.073C245.699 490.849 245.674 490.628 245.635 490.405C246.293 490.168 246.944 489.929 247.586 489.691C250.092 488.78 252.534 487.891 255.008 486.988C255.096 485.893 255.039 484.846 254.897 483.816C254.708 482.38 254.366 480.977 254.049 479.542C252.384 479.104 250.766 479.241 249.172 479.177H249.1C247.466 479.114 245.832 479.114 244.145 479.09C244.114 479.033 244.088 478.987 244.065 478.931C243.391 477.671 243.176 476.329 242.645 474.997C242.956 474.656 243.232 474.259 243.597 473.975C244.446 473.309 245.303 472.659 246.158 472.007C247.07 471.311 247.982 470.619 248.887 469.922C249.283 469.606 249.655 469.265 250.1 468.867C250.227 468.748 250.362 468.629 250.504 468.502C249.869 467.004 249.243 465.601 248.506 464.26C248.068 463.468 247.593 462.689 247.055 461.937C244.731 462.294 242.518 463.033 240.258 463.753C239.338 464.047 238.41 464.339 237.459 464.594C236.539 463.358 235.674 462.192 234.747 460.946C236.674 458.164 238.672 455.561 240.322 452.659C238.775 450.604 236.982 448.958 235.111 447.33C232.09 448.947 229.52 451.002 226.697 452.914C225.467 452.002 224.295 451.138 223.113 450.256C223.914 446.943 225.23 443.904 225.738 440.607C223.746 439.171 221.575 438.219 219.291 437.221C218.879 437.61 218.426 437.95 218.085 438.378C216.753 440.052 215.461 441.764 214.152 443.453C213.756 443.961 213.336 444.459 212.898 444.999C211.4 444.61 209.98 444.277 208.671 443.516C208.522 442.018 208.553 440.52 208.553 439.013C208.553 437.221 208.505 435.42 208.044 433.644C205.896 432.947 203.699 432.803 201.416 432.478C201.304 432.462 201.201 432.447 201.09 432.43C200.891 432.763 200.645 433.089 200.455 433.43C200.376 433.565 200.313 433.699 200.257 433.843C199.432 436.077 198.655 438.329 197.855 440.573C197.72 440.955 197.568 441.328 197.402 441.763C195.895 442.025 194.445 441.86 192.93 441.881C191.685 439.042 191.034 436.046 189.71 433.253C189.599 433.016 189.48 432.785 189.361 432.556C186.959 432.54 184.651 433.048 182.224 433.564C182.121 434.041 181.946 434.499 181.923 434.967C181.804 437.014 181.725 439.074 181.646 441.129C181.614 441.938 181.606 442.746 181.591 443.674C180.155 444.142 178.846 444.571 177.467 445.023C176.19 443.896 175.42 442.422 174.39 441.168C173.343 439.899 172.335 438.607 171.352 437.385C169.948 437.631 168.37 438.266 166.697 439.256C165.991 439.661 165.285 440.129 164.556 440.653C164.937 443.855 166.293 446.87 167.109 450.114C166.11 451.224 164.817 451.928 163.541 452.848C160.812 451 158.101 449.178 155.467 447.41C153.659 448.432 151.796 450.224 149.955 452.682C151.478 455.505 153.509 458.074 155.412 460.851C155.301 461.056 155.182 461.262 155.063 461.461C154.952 461.65 154.833 461.832 154.706 462.024C154.452 462.421 154.175 462.802 153.873 463.183C153.643 463.476 153.406 463.768 153.152 464.063C153.025 464.211 152.898 464.355 152.771 464.506H152.763C149.567 463.817 146.545 462.437 143.199 461.929C141.692 463.935 140.757 466.18 139.773 468.424C142.145 470.938 145.038 472.564 147.544 474.783C147.354 475.458 147.204 476.084 147.005 476.702C146.752 477.471 146.467 478.225 146.18 479.033C145.863 479.057 145.546 479.082 145.228 479.097C142.198 479.248 139.217 479.033 136.219 479.477C135.578 481.872 135.189 484.213 135.062 486.711C137.98 488.312 141.2 489.042 144.277 490.245C144.674 491.697 144.491 493.157 144.42 494.766C141.351 495.877 138.29 496.994 135.181 498.121C135.038 500.761 135.624 503.132 136.196 505.592C139.527 506.147 142.826 505.743 146.173 506.098C146.443 506.812 146.72 507.479 146.942 508.169C147.173 508.866 147.339 509.572 147.561 510.366C145.967 511.673 144.286 512.847 142.668 514.1C141.677 514.868 140.709 515.671 139.789 516.55C140.606 518.929 141.789 520.982 143.065 523.155C144.294 522.981 145.483 522.703 146.666 522.369C148.663 521.808 150.63 521.1 152.692 520.514C153.168 521.095 153.637 521.641 154.072 522.212C154.515 522.798 154.92 523.409 155.42 524.115C153.58 526.843 151.748 529.547 149.885 532.315C151.288 534.489 153.239 535.987 155.071 537.801C158.052 536.192 160.638 534.161 163.381 532.266C164.769 532.902 165.832 533.924 167.109 534.813C166.387 538.047 165.016 541.068 164.532 544.266C166.023 545.653 168.331 546.881 171.131 547.794C173.406 545.518 175.175 542.741 177.229 540.126C177.411 540.156 177.594 540.189 177.768 540.228C177.999 540.275 178.229 540.323 178.45 540.385C178.562 540.417 178.673 540.442 178.783 540.474C178.894 540.506 178.997 540.537 179.108 540.569C179.298 540.624 179.497 540.688 179.688 540.758C180.314 540.98 180.933 541.242 181.559 541.55C181.582 541.996 181.606 542.44 181.615 542.885C181.631 543.329 181.639 543.781 181.639 544.224C181.654 544.779 181.663 545.343 181.67 545.898C181.678 546.341 181.686 546.786 181.702 547.231C181.717 547.491 181.726 547.745 181.741 548.007C181.757 548.261 181.772 548.515 181.789 548.777C181.812 549.038 181.835 549.299 181.86 549.553C181.86 549.57 181.86 549.592 181.868 549.608C181.899 549.911 181.94 550.213 181.979 550.505C182.026 550.808 182.074 551.108 182.13 551.408C182.352 551.48 182.566 551.552 182.788 551.607C182.962 551.662 183.145 551.709 183.318 551.749C183.556 551.813 183.802 551.87 184.04 551.925C184.373 551.997 184.706 552.06 185.047 552.115C185.443 552.187 185.84 552.242 186.237 552.29C186.633 552.345 187.037 552.393 187.443 552.441C188.053 552.511 188.664 552.583 189.291 552.655C189.33 552.583 189.37 552.511 189.402 552.441C190.584 550.187 191.265 547.753 192.121 545.319C192.35 544.652 192.598 543.987 192.867 543.33C193.573 543.281 194.294 543.202 195.008 543.194C195.603 543.178 196.189 543.218 196.824 543.249C196.982 543.257 197.141 543.266 197.308 543.273C198.608 546.199 199.259 549.332 200.725 552.233C200.772 552.338 200.828 552.447 200.883 552.552C201.423 552.552 201.962 552.528 202.493 552.479C204.333 552.322 206.132 551.925 208.029 551.528C208.536 549.926 208.505 548.286 208.544 546.661C208.553 546.334 208.561 546.017 208.561 545.701C208.568 544.622 208.561 543.535 208.553 542.425V541.672C209.868 540.783 211.337 540.57 212.787 540.102C214.048 541.189 214.809 542.67 215.84 543.925C215.88 543.971 215.919 544.02 215.96 544.068C216.966 545.288 217.934 546.532 218.878 547.708C219.06 547.676 219.251 547.636 219.441 547.589C220.773 547.263 222.273 546.613 223.867 545.653C224.461 545.297 225.071 544.899 225.69 544.464C225.658 544.218 225.619 543.964 225.58 543.726C225.453 543.012 225.293 542.298 225.102 541.593C225.102 541.585 225.102 541.585 225.102 541.585C225.08 541.514 225.063 541.449 225.048 541.379C224.991 541.173 224.936 540.976 224.872 540.768C224.635 539.952 224.381 539.143 224.12 538.327C223.954 537.835 223.794 537.335 223.643 536.835C223.452 536.24 223.278 535.638 223.112 535.028C224.079 533.846 225.426 533.212 226.696 532.212C227.038 532.451 227.378 532.69 227.719 532.928C228.052 533.165 228.385 533.396 228.719 533.625C229.392 534.093 230.059 534.553 230.733 535.012C232.088 535.924 233.469 536.813 234.785 537.676C235.11 537.494 235.443 537.28 235.784 537.034C235.934 536.924 236.094 536.805 236.245 536.677C236.411 536.55 236.586 536.415 236.752 536.264C236.895 536.145 237.029 536.026 237.163 535.899C237.204 535.861 237.251 535.82 237.3 535.772C237.435 535.645 237.57 535.518 237.696 535.384C238.069 535.028 238.425 534.647 238.782 534.249C238.997 534.011 239.202 533.773 239.409 533.52C239.472 533.441 239.536 533.363 239.598 533.284C239.821 533.013 240.034 532.727 240.248 532.443C240.066 532.078 239.875 531.729 239.678 531.38C239.282 530.674 238.844 529.992 238.393 529.325C238.346 529.255 238.298 529.174 238.243 529.103C238.06 528.84 237.878 528.579 237.696 528.317C237.434 527.929 237.156 527.549 236.88 527.159C236.529 526.683 236.189 526.2 235.848 525.71C235.531 525.272 235.23 524.829 234.937 524.377C234.905 524.329 234.873 524.28 234.833 524.234C235.507 522.925 236.419 521.792 237.45 520.579C240.638 521.293 243.667 522.618 246.99 523.181C247.529 522.475 247.996 521.737 248.425 520.983C249.218 519.596 249.845 518.136 250.439 516.622C248.101 514.221 245.261 512.522 242.716 510.39C242.89 509.129 243.302 507.979 243.771 506.807C243.865 506.583 243.953 506.353 244.048 506.123C247.243 505.744 250.447 506.131 253.692 505.631C253.802 505.623 253.906 505.601 254.017 505.583C254.088 505.298 254.16 505.014 254.23 504.72C254.556 503.357 254.857 501.992 254.984 500.588C255.063 499.818 255.088 499.042 255.039 498.241ZM197.602 534.632C196.808 534.681 196 534.705 195.191 534.705C194.572 534.705 193.961 534.696 193.35 534.673C192.565 534.641 191.796 534.592 191.019 534.522C188.965 534.324 186.943 533.983 184.969 533.492C183.073 533.032 181.218 532.428 179.425 531.707C179.14 531.597 178.855 531.478 178.569 531.358C177.982 531.112 177.404 530.842 176.832 530.564C174.27 529.343 171.845 527.86 169.591 526.156C159.599 518.598 152.946 506.599 152.946 492.564C152.946 490.714 153.057 488.908 153.28 487.146C153.533 485.109 153.929 483.133 154.468 481.224C154.595 480.747 154.738 480.272 154.888 479.804C155.031 479.328 155.189 478.861 155.356 478.401C155.475 478.066 155.587 477.734 155.721 477.409C155.729 477.377 155.744 477.346 155.761 477.314C155.841 477.098 155.928 476.878 156.015 476.665C156.126 476.377 156.245 476.101 156.364 475.822C156.443 475.657 156.506 475.498 156.579 475.339C156.721 475.006 156.871 474.682 157.022 474.364C157.228 473.926 157.442 473.5 157.672 473.07C157.885 472.642 158.115 472.223 158.354 471.809C158.584 471.39 158.831 470.977 159.084 470.574C160.067 468.94 161.17 467.394 162.383 465.942C162.67 465.577 162.978 465.213 163.296 464.863C163.581 464.531 163.875 464.204 164.184 463.88C164.207 463.865 164.223 463.842 164.247 463.817C164.563 463.476 164.889 463.135 165.23 462.808C165.556 462.476 165.897 462.151 166.237 461.832C166.578 461.508 166.927 461.183 167.284 460.891C167.522 460.677 167.759 460.469 167.997 460.272C168.117 460.169 168.235 460.072 168.354 459.977C168.521 459.836 168.687 459.702 168.862 459.566L168.87 459.558C169.797 458.829 170.749 458.13 171.74 457.481C172.128 457.219 172.525 456.965 172.922 456.727C174.54 455.719 176.229 454.824 177.966 454.047C178.782 453.682 179.615 453.341 180.456 453.023C185.039 451.311 189.933 450.381 194.913 450.368C197.482 450.36 200.011 450.582 202.478 451.033C213.825 453.063 223.84 459.702 230.177 469.13C232.39 472.421 234.151 476.044 235.363 479.932C236.22 482.65 236.806 485.489 237.084 488.441C237.155 489.163 237.211 489.893 237.243 490.629C237.25 490.772 237.258 490.923 237.258 491.074C237.283 491.436 237.283 491.802 237.289 492.167C237.307 493.943 237.211 495.688 237.014 497.409C236.887 498.48 236.727 499.543 236.522 500.589C236.086 502.872 235.459 505.094 234.667 507.227C234.508 507.639 234.349 508.052 234.183 508.463C233.857 509.266 233.509 510.05 233.128 510.818C233.032 511.034 232.929 511.239 232.818 511.453C232.612 511.875 232.397 512.278 232.184 512.684C231.986 513.033 231.795 513.381 231.588 513.722C231.382 514.087 231.161 514.451 230.938 514.809C230.661 515.26 230.368 515.705 230.075 516.139C229.544 516.934 228.979 517.704 228.393 518.449C228.108 518.822 227.806 519.195 227.504 519.551C227.489 519.568 227.481 519.574 227.473 519.589C227.179 519.946 226.879 520.289 226.569 520.63C226.339 520.89 226.11 521.144 225.864 521.398C225.729 521.549 225.594 521.693 225.46 521.826C225.388 521.898 225.317 521.97 225.246 522.04C225.039 522.256 224.825 522.47 224.61 522.675C224.294 522.994 223.976 523.294 223.651 523.597H223.643C223.62 523.611 223.603 523.635 223.579 523.652C223.239 523.984 222.874 524.295 222.516 524.595C222.223 524.857 221.921 525.103 221.621 525.347C221.557 525.404 221.494 525.451 221.422 525.498C220.686 526.1 219.924 526.663 219.146 527.195C218.758 527.473 218.361 527.736 217.964 527.988C217.735 528.147 217.496 528.291 217.258 528.439C217.139 528.512 217.022 528.583 216.901 528.655C216.656 528.797 216.41 528.948 216.164 529.083C215.959 529.218 215.736 529.337 215.521 529.448C215.117 529.685 214.705 529.899 214.292 530.113C214.27 530.113 214.253 530.13 214.238 530.137C213.824 530.351 213.404 530.556 212.984 530.748C212.556 530.961 212.121 531.15 211.675 531.334C211.239 531.532 210.794 531.716 210.343 531.873C209.899 532.064 209.447 532.224 208.994 532.373C208.542 532.54 208.082 532.691 207.622 532.824C207.171 532.975 206.702 533.11 206.233 533.229C205.766 533.365 205.299 533.483 204.823 533.586C203.88 533.816 202.92 534.005 201.952 534.156C201.476 534.243 200.985 534.307 200.501 534.37C199.544 534.497 198.578 534.584 197.602 534.632Z" fill="#333333"/>
<path d="M238.814 491.287C238.822 491.214 238.814 491.143 238.806 491.073C238.79 490.422 238.759 489.77 238.704 489.129C238.394 485.028 237.506 481.08 236.135 477.376C235.032 474.378 233.605 471.532 231.901 468.883C225.072 458.281 213.788 450.811 200.695 449.129C198.847 448.892 196.975 448.773 195.065 448.773C189.458 448.773 184.105 449.828 179.181 451.747C178.293 452.088 177.411 452.461 176.555 452.864C163.612 458.915 154.112 471.104 151.828 485.696C151.472 487.924 151.289 490.216 151.289 492.548C151.289 507.449 158.735 520.613 170.115 528.52C171.679 529.607 173.319 530.597 175.025 531.478C176.127 532.048 177.26 532.573 178.42 533.041C179.323 533.42 180.244 533.763 181.179 534.071C189.02 536.658 198.18 536.598 206.158 534.596C210.822 533.425 215.303 531.498 219.307 528.828C219.83 528.487 220.337 528.218 220.846 527.837C222.463 526.663 223.994 525.418 225.428 524.037C226.032 523.457 226.61 522.885 227.174 522.273C229.736 519.515 231.947 516.433 233.732 513.078C234.534 511.572 235.247 510.021 235.866 508.416C236.833 505.952 237.571 503.381 238.077 500.724C238.086 500.683 238.095 500.639 238.102 500.59C238.26 499.749 238.387 498.893 238.498 498.035C238.72 496.237 238.839 494.404 238.839 492.549C238.838 492.128 238.831 491.706 238.814 491.287ZM161.995 473.442C163.835 470.264 167.491 468.788 170.893 469.564C171.669 469.74 172.43 470.032 173.152 470.454C177.062 472.706 178.394 477.702 176.142 481.61C174.333 484.744 170.765 486.225 167.402 485.522C166.57 485.346 165.753 485.038 164.984 484.592C164.286 484.189 163.669 483.696 163.137 483.132C162.518 482.483 162.026 481.744 161.661 480.944C160.584 478.62 160.616 475.829 161.995 473.442ZM176.206 511.579C175.516 512.831 174.484 513.91 173.152 514.672C170.163 516.401 166.538 516.02 163.985 513.999C163.208 513.38 162.526 512.602 161.995 511.69C159.743 507.78 161.083 502.784 164.984 500.534C165.278 500.366 165.572 500.215 165.872 500.095C167.911 499.222 170.139 499.239 172.098 500.017C173.747 500.666 175.191 501.864 176.143 503.521C177.634 506.099 177.554 509.151 176.206 511.579ZM194.556 454.331C194.739 454.323 194.929 454.315 195.119 454.315C199.632 454.315 203.288 457.97 203.288 462.483C203.288 462.848 203.264 463.205 203.216 463.562C202.685 467.566 199.266 470.651 195.119 470.651C190.606 470.651 186.951 466.996 186.951 462.483C186.952 458.162 190.306 454.624 194.556 454.331ZM203.065 524.553C202.423 527.202 200.504 529.343 197.998 530.295C197.102 530.628 196.135 530.81 195.12 530.81C193.795 530.81 192.542 530.493 191.432 529.93C188.767 528.581 186.952 525.823 186.952 522.643C186.952 521.738 187.094 520.875 187.371 520.056C188.046 518.044 189.481 516.376 191.345 515.403C191.677 515.227 192.027 515.076 192.383 514.951C192.518 514.903 192.661 514.854 192.803 514.816C193.533 514.602 194.319 514.483 195.119 514.483C195.364 514.483 195.603 514.49 195.841 514.513C197.109 514.624 198.291 515.022 199.322 515.641C200.153 516.138 200.883 516.782 201.486 517.528C202.612 518.931 203.287 520.708 203.287 522.643C203.288 523.3 203.208 523.941 203.065 524.553ZM195.064 505.865C187.706 505.865 181.741 499.9 181.741 492.543C181.741 485.185 187.706 479.221 195.064 479.221C202.421 479.221 208.386 485.186 208.386 492.543C208.387 499.9 202.422 505.865 195.064 505.865ZM213.041 474.585C213.683 472.903 215.147 471.43 216.829 470.454C217.684 469.954 218.726 469.636 219.655 469.477C221.93 469.081 224.349 469.683 226.163 471.119C226.958 471.738 227.681 472.514 228.212 473.442C229.298 475.329 229.569 477.47 229.094 479.43C228.682 481.142 227.728 482.712 226.293 483.87C225.968 484.132 225.623 484.378 225.25 484.592C224.909 484.791 224.562 484.956 224.206 485.1C224.017 485.179 223.82 485.251 223.621 485.306C223.621 485.306 223.621 485.314 223.613 485.314C223.361 485.401 223.105 485.465 222.843 485.522C219.48 486.225 215.911 484.744 214.096 481.61C213.913 481.294 213.238 480.968 213.105 480.636C212.787 479.866 212 479.073 212 478.273V478.265C212 477.003 212.59 475.751 213.041 474.585ZM228.243 511.69C227.403 513.141 226.182 514.243 224.779 514.934C222.415 516.091 219.537 516.091 217.087 514.671C213.186 512.419 211.844 507.423 214.097 503.521C214.651 502.562 215.373 501.753 216.205 501.12C218.054 499.699 220.449 499.137 222.748 499.599C223.613 499.764 224.453 500.073 225.254 500.535C226.539 501.278 227.545 502.317 228.229 503.514C229.647 505.958 229.75 509.065 228.243 511.69Z" fill="#F0F4F8"/>
<path d="M396.349 482.659C380.408 482.659 367.484 495.583 367.484 511.524C367.484 527.465 380.408 540.389 396.349 540.389C412.291 540.389 425.215 527.465 425.215 511.524C425.215 495.583 412.291 482.659 396.349 482.659ZM396.349 527.406C387.577 527.406 380.467 520.296 380.467 511.524C380.467 502.753 387.577 495.642 396.349 495.642C405.12 495.642 412.232 502.753 412.232 511.524C412.231 520.296 405.12 527.406 396.349 527.406Z" fill="#F0F4F8"/>
<path d="M440.523 508.8C443.244 507.708 445.769 506.617 448.498 505.533C448.721 505.446 449 505.414 449 505.358V504.623C449 503.642 448.614 502.662 448.385 501.681C448.305 501.357 448.295 500.983 448.215 500.651C447.948 499.471 447.746 498.001 447.478 497.001H437.32C436.727 495.001 436.102 494.149 435.589 492.923C438.018 490.415 440.343 488.036 442.684 485.608C441.885 484.161 441.055 482.821 440.153 481.514C439.481 480.526 438.769 479.575 438.018 478.635C434.806 479.678 431.784 481.113 428.858 482.472C427.656 481.263 426.508 480.118 425.345 478.963C425.48 478.654 425.607 478.347 425.741 478.038C425.947 477.556 426.153 477.073 426.366 476.583C426.865 475.405 427.379 474.202 427.892 472.991C428.335 471.956 428.787 470.903 429.237 469.843C427.023 468.048 424.753 466.554 422.277 465.154C420.363 466.791 418.607 468.587 416.875 470.469L416.867 470.477C416.289 471.086 415.735 471.696 415.166 472.321C413.758 471.735 412.018 471.158 410.633 470.581C410.539 470.541 410.001 470.502 410.001 470.462V460.385C410.001 460.369 410.254 460.362 410.215 460.346C409.772 460.211 409.497 460.085 409.056 459.966C408.771 459.887 408.564 459.816 408.271 459.744C407.693 459.601 407.151 459.474 406.565 459.364C406.273 459.3 405.993 459.246 405.692 459.198C405.369 459.142 405.055 459.087 404.731 459.04C404.502 459.001 404.292 458.977 404.064 458.945C403.511 458.866 402.952 458.795 402.381 458.731C402.198 459.19 402.01 459.649 401.83 460.107C401.639 460.575 401.458 461.042 401.267 461.499C400.769 462.749 400.263 463.987 399.765 465.245C399.393 466.161 399.021 467.001 398.65 468.001H393.848C393.801 468.001 394 467.779 394 467.661V467.652C392 464.686 391.476 461.736 390.265 458.746C390.044 458.77 389.739 458.794 389.518 458.817C389.336 458.834 389.108 458.857 388.926 458.881C388.547 458.929 388.14 458.984 387.76 459.039C387.334 459.103 386.897 459.174 386.477 459.253C386.28 459.292 386.085 459.324 385.896 459.363C385.698 459.395 385.506 459.434 385.307 459.481C385.094 459.529 384.871 459.577 384.656 459.624C384.387 459.679 384.128 459.742 383.859 459.814C383.519 459.893 383.27 459.988 382.929 460.075C382.589 460.17 382 460.265 382 460.368V470.453C381 470.572 381.331 470.698 381.038 470.816C380.556 471.023 380.027 471.22 379.529 471.433C378.832 471.726 378.089 472.019 377.353 472.328C377.236 472.201 377.105 471.954 376.995 471.827C374.874 469.495 372.712 467.001 370.34 465.001H370.332C370.308 465.001 370.276 465.066 370.252 465.042C370.149 465.097 370.039 465.217 369.936 465.273C369.287 465.629 368.654 466.027 368.037 466.423C366.4 467.427 364.834 468.565 363.26 469.823C364.566 472.884 365.855 475.927 367.097 478.839C365.957 479.97 364.803 481.112 363.553 482.362C360.769 481.176 357.699 479.872 354.559 478.536C352.772 480.765 351.261 483.029 349.876 485.498C352.067 488.045 354.519 490.265 357.051 492.559C356.418 494.085 355.793 495 355.184 497H345.116C344.261 499 343.404 502.422 343.08 505.332C346.172 506.574 349.001 507.858 352.001 509.124V513.925C349.001 515.159 346.228 516.393 343.111 517.651C343.332 520.492 344.112 523.149 344.866 525.894C348.202 526.154 351.634 525.965 355.059 525.91C355.676 527.365 356.331 528.82 356.997 530.394C354.583 532.704 352.068 534.935 349.853 537.536C351.213 539.996 352.746 542.243 354.541 544.513C357.634 543.2 360.677 541.903 363.579 540.669C364.725 541.817 365.875 542.955 367.101 544.181C365.89 547.029 364.588 550.098 363.259 553.214C365.514 555.01 367.768 556.528 370.229 557.889C372.799 555.699 375.13 553.222 377.431 550.731C378.935 551.348 380 551.957 382 552.582V562.659C384 563.506 387.295 564.003 390.197 564.319C391.455 561.202 392.589 558.001 393.856 555.001H398.633C399.859 558.001 400.768 561.132 402.041 564.296C404.92 564.042 407.999 563.482 409.999 562.684V552.599C411.999 552.005 413.209 551.388 414.816 550.716C417.054 553.175 419.514 555.644 422.03 557.85C423.999 556.933 427.76 554.465 429.106 553.113C427.848 550.138 426.592 547.101 425.358 544.206C426.505 543.06 427.672 541.913 428.906 540.679C431.722 541.882 434.802 543.187 437.919 544.507C439.73 542.269 441.237 539.998 442.614 537.531C440.391 535.007 437.973 532.705 435.443 530.443C435.94 529.233 436.441 527.56 436.947 526.349C437.066 526.058 437.185 526.001 437.311 525.001H447.381C448.053 524.001 448.265 521.476 448.635 519.476C448.723 519.017 448.998 519.06 448.998 518.609V517.629C448.998 517.559 448.485 517.526 448.201 517.415C445.582 516.38 443.181 515.327 440.57 514.283C440.31 514.18 439.998 514.054 439.998 513.935V509.125C440 509.005 440.293 508.887 440.523 508.8ZM422.759 492.568C423.068 491.817 423.621 491.169 424.381 490.733C424.515 490.654 424.649 490.583 424.791 490.527C426.548 489.776 428.628 490.432 429.608 492.133C430.66 493.96 430.035 496.301 428.209 497.362C427.465 497.789 426.643 497.939 425.852 497.852C425.48 497.804 425.117 497.709 424.776 497.559C424.048 497.25 423.4 496.705 422.973 495.961C422.355 494.887 422.315 493.629 422.759 492.568ZM410.277 479.439C411.337 477.603 413.677 476.978 415.505 478.039C415.743 478.174 415.956 478.331 416.147 478.497C417.475 479.683 417.832 481.67 416.914 483.268C416.582 483.837 416.123 484.295 415.593 484.621C415.403 484.732 415.214 484.826 415.017 484.905C413.964 485.325 412.738 485.277 411.678 484.669C410.634 484.06 409.978 483.031 409.812 481.923C409.684 481.099 409.826 480.222 410.277 479.439ZM396.251 472.876C398.366 472.876 400.08 474.59 400.08 476.704C400.08 478.818 398.366 480.532 396.251 480.532C394.137 480.532 392.423 478.818 392.423 476.704C392.423 474.59 394.137 472.876 396.251 472.876ZM375.102 480.949C375.118 480.814 375.133 480.679 375.165 480.554C375.221 480.284 375.307 480.024 375.419 479.779C375.467 479.668 375.521 479.565 375.577 479.463C375.6 479.432 375.616 479.399 375.64 479.36C375.696 479.265 375.758 479.17 375.83 479.075C375.838 479.067 375.846 479.058 375.846 479.051C375.917 478.956 375.988 478.869 376.068 478.79C376.163 478.672 376.273 478.569 376.392 478.466C376.4 478.458 376.408 478.45 376.415 478.443C376.59 478.293 376.787 478.158 376.993 478.04C377.942 477.494 379.017 477.392 379.99 477.685C380.899 477.946 381.879 478.554 382.385 479.441C382.852 480.247 383.001 481.165 383.001 482.019V482.027C383.001 483.103 382.005 484.076 380.985 484.67C380.384 485.018 379.645 485.184 378.995 485.184C378.87 485.184 378.694 485.176 378.567 485.161C378.528 485.161 378.475 485.161 378.444 485.152C378.333 485.137 378.212 485.121 378.11 485.097C377.943 485.057 377.772 485.01 377.615 484.954C377.361 484.859 377.114 484.748 376.886 484.606C376.767 484.526 376.646 484.44 376.534 484.352C376.432 484.274 376.329 484.178 376.227 484.083C376.217 484.075 375.75 484.067 375.743 484.06C375.649 483.957 375.001 483.854 375.001 483.744V483.735C375.001 483.696 375.396 483.665 375.373 483.625C375.285 483.515 375.434 483.396 375.364 483.27C375.016 482.668 374.964 482.004 374.964 481.356C374.963 481.218 375.085 481.083 375.102 480.949ZM362.896 492.134C363.956 490.299 366.296 489.674 368.125 490.734C368.939 491.201 369.517 491.92 369.81 492.744C370.181 493.771 370.111 494.942 369.525 495.963C368.94 496.983 367.943 497.632 366.859 497.822C366.013 497.964 365.103 497.83 364.298 497.363C362.469 496.302 361.836 493.961 362.896 492.134ZM357.739 511.395C357.739 510.643 357.952 509.939 358.332 509.354C359.004 508.278 360.198 507.566 361.567 507.566C362.477 507.566 363.331 507.89 363.987 508.42C364.85 509.124 365.395 510.192 365.395 511.395C365.395 512.597 364.834 513.681 363.963 514.376C363.853 514.471 363.734 514.55 363.608 514.63C363.014 515.009 362.31 515.223 361.567 515.223C359.448 515.223 357.739 513.507 357.739 511.395ZM369.738 530.212C369.429 530.963 368.876 531.612 368.125 532.047C366.297 533.107 363.956 532.482 362.896 530.648C361.835 528.82 362.468 526.479 364.296 525.419C365.063 524.977 365.917 524.826 366.724 524.945C367.855 525.095 368.915 525.752 369.524 526.82C370.149 527.894 370.189 529.151 369.738 530.212ZM382.221 543.343C381.168 545.178 378.827 545.803 376.992 544.742C375.164 543.69 374.54 541.348 375.592 539.514C376.019 538.778 376.652 538.24 377.371 537.924C378.447 537.448 379.728 537.481 380.82 538.112C381.927 538.754 382.599 539.86 382.71 541.047C382.798 541.824 382.64 542.622 382.221 543.343ZM398.293 549.315C397.7 549.695 397.004 549.908 396.252 549.908C394.141 549.908 392.424 548.192 392.424 546.08C392.424 545.328 392.638 544.625 393.018 544.039C393.049 543.983 393.088 543.929 393.128 543.881C393.816 542.893 394.963 542.252 396.252 542.252C397.558 542.252 398.705 542.9 399.393 543.898C399.829 544.514 400.081 545.266 400.081 546.081C400.08 547.44 399.369 548.635 398.293 549.315ZM415.505 544.742C413.678 545.802 411.337 545.177 410.277 543.343C409.881 542.647 409.722 541.887 409.778 541.144C409.865 539.925 410.546 538.782 411.676 538.123C412.816 537.467 414.151 537 415.251 538H415.259C415.931 538 416.509 538.836 416.912 539.523C417.965 541.359 417.34 543.69 415.505 544.742ZM422.03 524.635C422.015 524.659 422.007 524.675 422 524.691C421.627 525.412 421.225 526.115 420.805 526.795C420.789 526.819 420.774 526.842 420.758 526.866C420.536 527.221 420.299 527.569 420.062 527.918C419.801 528.297 419.532 528.67 419.254 529.033C419.026 529.342 418.788 529.642 418.534 529.934C418.265 530.259 417.997 530.576 417.712 530.883C417.491 531.128 417.27 531.366 417.04 531.604C416.723 531.928 416.399 532.252 416.067 532.561C415.995 532.631 415.923 532.703 415.845 532.766C415.489 533.098 415.125 533.415 414.753 533.731C414.516 533.937 414.271 534.135 414.017 534.325C413.829 534.475 413.63 534.625 413.433 534.76C413.274 534.886 413.108 535.004 412.942 535.123C412.365 535.534 411.763 535.93 411.154 536.294C410.98 536.404 410.799 536.508 410.617 536.61C410.056 536.934 409.486 537.235 408.9 537.519C408.765 537.59 408.624 537.662 408.48 537.725C408.196 537.851 407.912 537.986 407.627 538.105C407.492 538.168 407.357 538.223 407.224 538.271C407.216 538.279 407.2 538.287 407.192 538.287C406.884 538.413 406.567 538.54 406.259 538.651C405.935 538.769 405.61 538.888 405.285 538.991C405.277 539 405.262 539 405.254 539C405.065 539.063 404.874 539.126 404.677 539.182C404.511 539.238 404.345 539.286 404.179 539.325C404.005 539.381 403.83 539.435 403.649 539.475C403.356 539.554 403.063 539.625 402.763 539.689C402.597 539.728 402.431 539.767 402.265 539.799C402.225 539.815 402.194 539.822 402.154 539.822C401.845 539.893 401.537 539.957 401.22 540.005C400.785 540.083 400.35 540.147 399.907 540.202C399.505 540.257 399.093 540.298 398.681 540.329C398.571 540.345 398.452 540.352 398.341 540.352C397.969 540.383 397.597 540.4 397.226 540.416C396.916 540.423 396.609 540.432 396.3 540.432C395.984 540.432 395.667 540.423 395.359 540.416C395.264 540.416 395.177 540.408 395.098 540.408C394.805 540.391 394.521 540.376 394.244 540.36C393.896 540.337 393.555 540.305 393.223 540.273C392.883 540.242 392.543 540.202 392.211 540.146C391.547 540.059 390.881 539.941 390.234 539.798C389.585 539.672 388.945 539.506 388.311 539.331C378.724 536.602 371.194 529.064 368.458 519.478C368.315 518.987 368.189 518.489 368.07 517.983C368.046 517.872 368.023 517.769 367.999 517.659C367.943 517.39 367.889 517.121 367.841 516.851C367.643 515.808 367.501 514.747 367.422 513.663C367.406 513.449 367.391 513.228 367.382 513.015C367.366 512.77 367.359 512.533 367.351 512.287C367.335 511.758 367.335 511.219 367.359 510.696C367.359 510.499 367.367 510.293 367.382 510.095C367.422 509.209 367.501 508.339 367.628 507.477C367.65 507.288 367.683 507.097 367.714 506.916C367.778 506.505 367.849 506.102 367.936 505.706C367.968 505.524 368.007 505.342 368.055 505.16C368.071 505.056 368.094 504.954 368.126 504.851C368.173 504.638 368.228 504.424 368.284 504.21C369.004 501.434 370.135 498.815 371.605 496.427C371.7 496.269 371.795 496.111 371.89 495.96C372.143 495.572 372.405 495.185 372.673 494.805C372.791 494.631 372.918 494.457 373.053 494.283C373.448 493.746 373.867 493.223 374.311 492.71C374.587 492.378 374.88 492.046 375.189 491.73C375.292 491.611 375.403 491.501 375.513 491.389L375.56 491.342C375.71 491.183 375.862 491.026 376.019 490.883C376.628 490.281 377.269 489.704 377.942 489.158C378.108 489.016 378.274 488.882 378.44 488.755C378.614 488.621 378.78 488.486 378.954 488.36C379.129 488.233 379.303 488.099 379.476 487.98C379.658 487.853 379.831 487.727 380.014 487.609C380.188 487.482 380.369 487.355 380.551 487.245C380.725 487.135 380.892 487.031 381.066 486.913C381.635 486.572 382.212 486.24 382.798 485.932C382.837 485.909 382.876 485.893 382.916 485.869C383.066 485.791 383.225 485.711 383.383 485.633C383.637 485.514 383.897 485.387 384.158 485.261C384.292 485.205 384.428 485.142 384.569 485.078C385.171 484.817 385.788 484.564 386.413 484.336C386.823 484.185 387.243 484.051 387.662 483.924C387.876 483.853 388.09 483.789 388.303 483.733C388.698 483.623 389.102 483.512 389.506 483.418C389.75 483.362 390.004 483.307 390.257 483.252C390.479 483.204 390.7 483.156 390.922 483.117C391.143 483.077 391.364 483.038 391.594 483.006C391.816 482.967 392.036 482.928 392.266 482.903C392.488 482.864 392.717 482.84 392.947 482.816C393.809 482.713 394.687 482.658 395.573 482.634C398.294 482.571 400.935 482.879 403.452 483.528C405.144 483.963 406.782 484.541 408.34 485.26C410.618 486.304 412.737 487.649 414.653 489.231C414.819 489.365 414.976 489.499 415.142 489.642C415.925 490.315 416.669 491.027 417.374 491.787C417.437 491.85 417.493 491.912 417.548 491.976C421.844 496.651 424.627 502.774 425.094 509.608C425.118 509.893 425.134 510.17 425.142 510.455C425.197 511.941 425.142 513.413 424.984 514.852C424.945 515.208 424.897 515.564 424.842 515.912C424.826 516.047 424.802 516.181 424.778 516.308C424.66 517.011 424.525 517.7 424.351 518.38C424.312 518.554 424.272 518.72 424.224 518.894C424.154 519.171 424.074 519.456 423.988 519.733C423.956 519.851 423.917 519.978 423.877 520.097C423.663 520.785 423.426 521.465 423.157 522.137C423.109 522.28 423.046 522.414 422.991 522.548C422.816 522.976 422.627 523.395 422.437 523.806C422.3 524.09 422.166 524.366 422.03 524.635ZM429.608 530.648C428.548 532.482 426.207 533.107 424.38 532.047C423.684 531.652 423.153 531.058 422.829 530.386C422.314 529.286 422.322 527.957 422.972 526.82C423.628 525.688 424.768 525.015 425.977 524.921C426.729 524.857 427.504 525.016 428.209 525.419C430.035 526.479 430.66 528.819 429.608 530.648ZM434.109 513.546C433.413 514.559 432.251 515.223 430.937 515.223C430.447 515.223 429.972 515.128 429.537 514.954C429.244 514.843 428.976 514.692 428.723 514.511C427.75 513.823 427.11 512.684 427.11 511.395C427.11 510.114 427.735 508.982 428.7 508.286C429.333 507.836 430.108 507.566 430.938 507.566C433.05 507.566 434.766 509.275 434.766 511.395C434.766 512.185 434.52 512.929 434.109 513.546Z" fill="#333333"/>
</g>
<path d="M50.255 486.856C50.255 486.856 56.269 449.034 96.873 450.452" stroke="#FFFFFC" stroke-width="2" stroke-miterlimit="10" stroke-dasharray="5 6"/>
<path d="M238.921 421.391C238.921 421.391 250.204 384.793 290.201 391.918" stroke="#FFFFFC" stroke-width="2" stroke-miterlimit="10" stroke-dasharray="5 6"/>
<path d="M157.333 430.348C157.333 430.348 167.651 394.273 207.02 395.793" stroke="#FFFFFC" stroke-width="2" stroke-miterlimit="10" stroke-dasharray="5 6"/>
</g>
<defs>
<clipPath id="clip0_1410_172">
<rect width="500" height="500" fill="white"/>
</clipPath>
</defs>
</svg>
