<svg width="500" height="339" viewBox="0 0 500 339" fill="none" xmlns="http://www.w3.org/2000/svg">
<g clip-path="url(#clip0_1360_199)">
<path opacity="0.25" d="M500 -75H0V425H500V-75Z" fill="white"/>
<path d="M416.098 304.355C404.479 303.954 382.043 308.361 385.248 317.576C388.453 326.791 397.267 321.983 403.477 319.98C409.687 317.977 428.517 329.996 435.729 322.985C442.94 315.974 429.719 305.156 414.094 305.757" fill="#EDEFF4"/>
<path d="M317.54 309.163C317.54 309.163 295.505 307.961 295.705 311.166C295.905 314.371 307.524 318.378 317.54 320.782C327.556 323.186 329.96 329.195 349.592 328.394C369.224 327.593 360.209 304.355 360.209 304.355C360.209 304.355 352.396 303.153 342.38 307.761C332.364 312.368 318.942 312.368 314.535 305.758L317.54 309.163Z" fill="#EDEFF4"/>
<path d="M66.5371 309.163C66.5371 309.163 65.1351 315.974 70.7441 317.977C76.3531 319.98 87.1701 327.192 102.395 325.589C117.619 323.986 99.3901 309.163 99.3901 309.163H66.5371Z" fill="#EDEFF4"/>
<path d="M222.788 27.7119C203.758 23.9889 173.709 23.9059 178.317 31.7179C182.924 39.5309 213.373 63.1679 226.995 56.9589C240.616 50.7479 241.217 31.3169 222.788 27.7119Z" fill="#EDEFF4"/>
<path opacity="0.75" d="M380.641 222.424C346.59 250.163 224.591 276.11 148.869 223.225C73.1481 170.34 74.9511 99.426 73.5481 89.21C72.1461 78.994 75.3511 27.11 125.832 27.711C176.313 28.312 192.623 104.592 247.627 66.173C300.111 29.514 315.736 33.721 333.765 54.154C340.191 61.437 350.817 71.507 364.014 72.383C381.24 73.527 395.064 71.582 414.094 66.173C439.107 59.064 520.065 108.842 380.641 222.424Z" fill="#EDEFF4"/>
<path d="M408.236 165.041L414.029 159.558L425.681 165.041L423.643 220.559H413.966L408.236 165.041Z" fill="#EBEFF7"/>
<path d="M400.978 312.368C400.214 312.877 398.635 313.068 398.635 313.068L389.177 310.795C392.275 309.859 394.739 308.293 395.503 307.147C395.894 306.561 396.118 305.009 396.244 303.633C396.364 302.318 396.394 301.163 396.394 301.163L401.487 300.399C401.487 300.399 401.518 301.786 401.525 303.615C401.54 307.046 401.475 312.036 400.978 312.368Z" fill="#24246B"/>
<path d="M401.525 303.615C400.635 303.764 398.908 303.922 396.243 303.633C396.363 302.318 396.393 301.163 396.393 301.163L401.486 300.399C401.486 300.399 401.517 301.786 401.525 303.615Z" fill="url(#paint0_linear_1360_199)"/>
<path d="M434.722 312.623C434.722 312.623 427.846 314.915 426.318 314.613C424.79 314.31 425.809 310.713 426.063 308.675C426.188 307.679 426.099 305.678 425.976 303.892C425.846 302.026 425.681 300.398 425.681 300.398H430.902C430.902 300.398 430.977 302.025 431.088 303.713C431.18 305.12 431.296 306.568 431.411 307.147C431.666 308.421 434.722 312.623 434.722 312.623Z" fill="#24246B"/>
<path d="M431.087 303.714C429.722 303.815 427.955 303.871 425.976 303.894C425.846 302.028 425.681 300.4 425.681 300.4H430.902C430.902 300.4 430.977 302.026 431.087 303.714Z" fill="url(#paint1_linear_1360_199)"/>
<path d="M432.557 216.104C432.557 216.104 432.557 257.36 432.557 260.925C432.557 264.49 431.793 301.673 431.793 301.673H425.426C425.426 301.673 421.606 268.184 421.479 262.326C421.352 256.469 418.805 230.619 418.805 230.619L418.749 230.807L410.528 258.633C410.528 258.633 409 263.981 407.854 272.258C406.708 280.535 401.869 301.673 401.869 301.673H395.502L398.303 260.416L402.76 215.594C411.005 216.636 419.268 216.951 427.551 216.483C429.219 216.388 430.888 216.262 432.557 216.104Z" fill="url(#paint2_linear_1360_199)"/>
<path d="M398.685 313.133C398.685 313.133 395.534 308.931 391.249 310.077C386.964 311.223 387.972 312.751 388.728 313.133C389.485 313.514 394.778 314.406 398.685 313.133Z" fill="#3535AA"/>
<path d="M434.467 314.279C433.437 314.485 425.935 314.916 425.553 314.279C425.171 313.642 425.808 311.605 427.972 311.223C430.136 310.841 434.466 312.242 435.103 312.878C435.74 313.514 435.104 314.151 434.467 314.279Z" fill="#3535AA"/>
<path d="M432.557 216.104C432.557 216.104 432.557 257.36 432.557 260.925C432.557 264.49 431.793 301.673 431.793 301.673H430.116C430.346 298.546 430.818 290.068 430.01 280.79C428.991 269.075 428.355 264.746 430.01 250.866C431.332 239.783 428.675 222.855 427.551 216.483C429.219 216.388 430.888 216.262 432.557 216.104Z" fill="url(#paint3_linear_1360_199)"/>
<path d="M418.749 230.807L410.528 258.633C410.528 258.633 409 263.981 407.854 272.258C406.708 280.535 401.869 301.673 401.869 301.673H399.858C401.842 294.666 402.847 289.1 404.033 280.79C405.286 272.02 403.588 271.42 406.198 258.633C407.471 252.393 411.801 246.536 413.074 239.151C414.88 228.673 417.403 222.47 417.403 222.47L418.749 230.807Z" fill="url(#paint4_linear_1360_199)"/>
<path d="M443.508 233.038C443.508 233.038 444.399 241.315 444.145 241.824C443.89 242.333 436.653 244.922 435.741 242.461C434.468 239.023 435.741 220.177 435.741 220.177C435.741 220.177 435.614 213.683 437.014 213.938C438.414 214.193 443.508 233.038 443.508 233.038Z" fill="#152C68"/>
<path d="M436.759 226.162C436.759 226.162 435.995 217.248 436.759 216.102C437.523 214.956 438.542 215.083 440.07 221.96C441.598 228.836 441.853 234.184 442.871 234.694C443.89 235.203 445.545 235.331 445.545 235.331C445.545 235.331 439.433 211.01 437.778 211.01C436.123 211.01 434.085 212.92 434.467 225.654C434.467 225.654 434.849 230.364 436.759 226.162Z" fill="#192EAD"/>
<path d="M420.078 150.397L419.929 154.849L419.831 157.794L419.696 161.857C414.73 169.115 411.165 161.857 411.165 161.857L410.664 157.19L410.501 155.666L410.4 154.726L420.078 150.397Z" fill="url(#paint5_linear_1360_199)"/>
<path d="M419.929 154.849L419.831 157.794C418.569 159.386 416.914 161.093 415.621 161.093C413.924 161.093 411.788 158.65 410.664 157.19L410.501 155.666C412.817 154.26 417.391 154.549 419.929 154.849Z" fill="#4463C6"/>
<path d="M406.453 146.689C406.453 146.689 405.261 142.28 405.738 140.135C406.215 137.99 408.24 138.943 408.24 138.943C408.24 138.943 407.167 137.036 408.717 135.249C410.266 133.462 416.582 132.627 420.276 134.177C423.97 135.726 421.706 139.063 421.706 139.063C421.706 139.063 426.353 137.871 423.136 146.094L415.986 149.073L406.453 146.809V146.689Z" fill="#192EAD"/>
<path d="M408.598 146.57C408.598 146.57 406.81 144.663 406.215 145.855C405.619 147.047 406.93 151.456 409.79 151.217L408.598 146.57Z" fill="url(#paint6_linear_1360_199)"/>
<path d="M421.088 146.57C421.088 146.57 422.875 144.663 423.471 145.855C424.067 147.047 422.756 151.456 419.896 151.217L421.088 146.57Z" fill="url(#paint7_linear_1360_199)"/>
<path d="M421.467 146.094C421.467 146.094 421.467 146.096 421.467 146.1C421.451 146.368 420.986 153.983 420.634 155.389C420.345 156.541 418.585 158.545 416.977 159.278C416.59 159.454 416.212 159.558 415.866 159.558C414.435 159.558 413.052 158.75 411.986 157.761C411.366 157.188 410.854 156.555 410.504 155.984C409.552 154.435 408.24 146.095 408.24 146.095C408.24 146.095 409.335 144.716 409.525 141.832C409.548 141.488 409.558 141.12 409.552 140.731C409.552 140.731 415.986 138.23 420.276 140.85C420.276 140.85 420.276 140.868 420.274 140.899C420.266 141.285 420.258 143.894 421.467 146.094Z" fill="url(#paint8_linear_1360_199)"/>
<path d="M421.467 146.1C421.451 146.368 420.986 153.983 420.634 155.389C420.345 156.541 418.585 158.545 416.977 159.278C420.123 157.154 421.43 146.373 421.467 146.1Z" fill="#7168EE"/>
<path d="M420.276 140.85C420.276 140.85 420.276 140.867 420.275 140.899C415.862 139.872 411.13 141.276 409.525 141.832C409.548 141.486 409.557 141.119 409.551 140.731C409.551 140.731 415.986 138.228 420.276 140.85Z" fill="#7168EE"/>
<path d="M416.003 217.63C413.593 217.668 411.457 217.5 409.65 217.244C405.444 216.652 403.015 215.593 403.015 215.593L401.742 183.122C401.742 183.122 399.713 189.648 399.106 192.424C398.984 192.986 398.919 193.393 398.941 193.564C399.068 194.583 400.596 201.714 400.596 201.714L393.211 204.515C393.211 204.515 389.518 197.257 389.518 194.838C389.518 192.419 394.866 169.116 396.012 167.333C397.158 165.55 411.165 161.857 411.165 161.857L416.003 217.63Z" fill="url(#paint9_linear_1360_199)"/>
<path d="M432.524 194.45C432.6 193.685 432.628 193.026 432.557 192.672C432.302 191.399 430.52 185.923 430.52 185.923C430.775 188.979 432.557 218.266 432.557 218.266C430.872 218.313 428.911 218.239 427.106 218.126C424 217.935 421.352 217.629 421.352 217.629L419.951 161.856C426.954 162.493 434.34 165.676 435.104 166.186C435.868 166.695 441.216 191.78 441.216 192.799C441.216 193.818 439.051 201.203 439.051 201.203L431.856 199.183L431.792 199.165C431.792 199.165 431.807 199.09 431.833 198.955C431.957 198.295 432.34 196.203 432.512 194.557V194.556C432.512 194.552 432.513 194.544 432.515 194.533C432.517 194.51 432.52 194.486 432.523 194.463C432.524 194.46 432.524 194.455 432.524 194.45Z" fill="url(#paint10_linear_1360_199)"/>
<path d="M409.65 217.245C405.444 216.653 403.015 215.594 403.015 215.594L401.742 183.123C401.742 183.123 399.713 189.649 399.106 192.425L397.412 197.385L402.76 173.446C402.76 173.446 405.179 181.85 404.288 193.311C403.594 202.223 409.518 209.048 409.65 217.245Z" fill="url(#paint11_linear_1360_199)"/>
<path d="M430.519 185.924C430.774 188.98 432.556 218.267 432.556 218.267C430.871 218.314 428.91 218.24 427.105 218.127C430.278 211.835 429.252 198.94 428.227 192.673C427.081 185.669 428.227 171.79 428.227 171.79C428.227 171.79 432.938 189.49 432.938 190.126C432.938 190.699 432.593 193.829 432.523 194.45C432.599 193.685 432.627 193.026 432.556 192.672C432.302 191.399 430.519 185.924 430.519 185.924Z" fill="url(#paint12_linear_1360_199)"/>
<path d="M407.217 221.069C407.054 221.592 406.756 222.057 406.402 222.458C405.383 223.619 403.906 224.252 403.906 224.252C400.341 218.649 393.21 204.515 393.21 204.515L398.255 202.601L400.596 201.713C400.91 202.427 402.062 206.736 403.525 211.391C404.987 216.045 407.217 221.069 407.217 221.069Z" fill="url(#paint13_linear_1360_199)"/>
<path d="M407.217 221.069C407.054 221.592 406.756 222.057 406.402 222.458C405.387 217.868 403.121 216.496 401.869 211.264C400.934 207.356 399.263 204.241 398.255 202.601L400.596 201.713C400.91 202.427 402.062 206.736 403.525 211.391C404.987 216.045 407.217 221.069 407.217 221.069Z" fill="#7168EE"/>
<path d="M401.742 204.005C401.742 204.005 393.975 206.806 393.592 207.061C393.21 207.316 391.045 202.986 391.045 202.986L401.105 199.421C401.105 199.421 402.298 203.165 401.742 204.005Z" fill="#FCA229"/>
<path d="M425.681 162.494C425.681 162.494 424.146 200.077 434.527 209.427L432.939 212.919C432.939 212.919 420.849 200.816 422.755 162.236C422.755 162.236 423.771 161.603 425.681 162.494Z" fill="#192EAD"/>
<path d="M437.396 222.597C437.651 223.361 437.905 227.69 436.759 228.2C435.613 228.709 432.939 228.455 432.939 228.455C432.939 228.455 437.268 233.166 436.632 233.294C435.995 233.421 432.048 229.983 431.793 229.219C431.538 228.455 429.883 222.088 430.01 218.778C430.137 215.467 431.793 198.913 431.793 198.913L436.268 200.327L439.052 201.206C438.232 203.771 433.831 219.033 433.831 219.033C433.84 219.052 433.849 219.072 433.856 219.093C434.749 221.169 436.123 226.164 436.123 226.164C436.123 226.164 437.141 221.832 437.396 222.597Z" fill="url(#paint14_linear_1360_199)"/>
<path d="M433.83 219.031C433.839 219.05 433.848 219.07 433.855 219.091L432.556 220.559C434.084 216.612 433.32 212.409 435.103 207.571C436.23 204.514 436.34 201.863 436.267 200.326L439.051 201.205C438.231 203.769 433.83 219.031 433.83 219.031Z" fill="#7168EE"/>
<path d="M430.774 198.021L440.834 200.822C440.834 200.822 439.306 204.642 439.051 204.769C438.796 204.896 431.029 202.859 430.901 202.604C430.774 202.35 430.774 198.021 430.774 198.021Z" fill="#FCA229"/>
<path d="M317.452 309.056C317.395 309.711 317.272 310.341 317.062 310.904C317.062 310.904 303.928 311.287 299.21 310.904C294.492 310.521 297.042 305.676 298.827 304.656C299.037 304.536 299.276 304.457 299.536 304.409C301.484 304.053 304.648 305.489 306.223 305.039C308.008 304.529 311.451 302.234 311.451 302.234L316.712 302.759C316.712 302.759 317.71 306.146 317.452 309.056Z" fill="#24246B"/>
<path d="M317.452 309.056C317.395 309.711 317.272 310.341 317.062 310.904C317.062 310.904 303.928 311.287 299.21 310.904C294.492 310.521 297.042 305.676 298.827 304.656C299.037 304.536 299.276 304.457 299.536 304.409C300.568 304.681 301.716 305.988 302.652 309.629C302.652 309.629 312.552 309.966 317.452 309.056Z" fill="#EBF0F2"/>
<path d="M357.169 313.438C357.169 313.438 348.881 313.565 347.733 313.438C346.794 313.333 347.561 310.759 348.57 309.055C348.57 309.055 348.571 309.054 348.571 309.052C348.795 308.673 349.031 308.337 349.263 308.082C350.538 306.679 352.451 307.062 352.451 307.062C352.451 307.062 353.738 303.085 352.457 300.484L357.806 298.009C357.806 298.009 359.14 300.765 359.803 303.159C359.933 303.632 360.039 304.091 360.101 304.512C360.484 307.062 357.169 313.438 357.169 313.438Z" fill="#24246B"/>
<path d="M357.169 313.438C357.169 313.438 348.881 313.565 347.733 313.438C346.794 313.333 347.561 310.759 348.57 309.055C348.57 309.055 348.571 309.054 348.571 309.052C352.469 303.773 356.659 310.632 356.659 310.632C358.278 308.653 359.327 305.088 359.804 303.158C359.934 303.631 360.04 304.09 360.102 304.511C360.484 307.062 357.169 313.438 357.169 313.438Z" fill="#EBF0F2"/>
<path d="M320.575 256.074C320.449 258.132 320.243 260.479 319.907 262.91C318.887 270.306 316.608 302.62 316.608 302.62C313.42 304.915 310.377 302.62 310.377 302.62L308.431 257.229L308.265 253.354L320.761 248.891C320.759 248.891 320.835 251.875 320.575 256.074Z" fill="url(#paint15_linear_1360_199)"/>
<path d="M357.783 297.977C357.145 300.272 352.529 300.543 352.529 300.543C352.529 300.543 330.577 258.965 329.303 256.542C328.937 255.845 328.581 254.982 328.26 254.103C327.463 251.923 326.881 249.655 326.881 249.655L327.646 249.91L341.673 243.025L341.754 252.88L341.779 255.822C341.779 255.822 345.498 262.278 347.539 269.929C349.577 277.581 357.783 297.977 357.783 297.977Z" fill="url(#paint16_linear_1360_199)"/>
<path d="M320.759 248.891C320.759 248.891 320.835 251.875 320.574 256.074L308.429 257.229L308.263 253.354L320.759 248.891Z" fill="url(#paint17_linear_1360_199)"/>
<path d="M341.753 252.881L328.26 254.103C327.463 251.923 326.881 249.655 326.881 249.655L327.646 249.91L341.673 243.025L341.753 252.881Z" fill="url(#paint18_linear_1360_199)"/>
<path d="M302.717 201.52C302.717 201.52 300.423 204.2 300.039 204.453C299.655 204.706 293.293 205.384 293.036 205.764C292.78 206.144 297.262 206.903 297.262 206.903C297.262 206.903 293.805 209.182 293.677 209.815C293.549 210.448 294.511 216.844 296.655 216.558C298.799 216.272 303.409 207.916 303.409 207.916L305.714 205.384L302.717 201.52Z" fill="url(#paint19_linear_1360_199)"/>
<path d="M312.089 201.839L305.203 206.684L301.123 201.839C301.123 201.839 310.686 190.873 311.324 189.725C311.962 188.577 313.237 184.752 313.237 184.752L312.089 201.839Z" fill="url(#paint20_linear_1360_199)"/>
<path d="M332.735 163.761C332.735 163.761 338.229 165.495 340.014 166.009C344.668 167.348 345.306 169.643 345.625 174.68C345.947 179.774 337.209 206.686 337.209 206.686L310.942 206.048C310.942 206.048 312.09 194.699 312.217 192.022C312.345 189.344 310.559 171.493 310.942 169.963C311.325 168.433 315.625 165.112 320.552 164.031L332.735 163.761Z" fill="url(#paint21_linear_1360_199)"/>
<path d="M335.482 174.233C335.482 174.233 335.104 188.132 334.212 190.555C333.319 192.978 329.749 204.581 329.749 204.581L337.689 205.186L342.882 190.554L335.482 174.233Z" fill="url(#paint22_linear_1360_199)"/>
<path d="M334.531 148.539C334.531 148.539 336.061 145.861 335.679 141.908C335.679 141.908 338.484 138.975 333.384 136.043C328.283 133.11 322.035 134.003 319.995 135.278C317.955 136.553 318.72 139.231 318.72 139.231C318.72 139.231 315.66 144.714 320.123 148.922L332.619 150.707L334.531 148.539Z" fill="#192EAD"/>
<path d="M322.056 163.52L318.847 164.606L323.31 190.618L334.276 164.096L331.343 163.458L322.056 163.52Z" fill="url(#paint23_linear_1360_199)"/>
<path d="M326.37 166.008L323.257 190.309L327.135 166.008H326.37Z" fill="#D0D1D8"/>
<path d="M333.893 152.747C332.873 153.384 332.363 152.237 332.363 152.237C331.725 155.425 331.343 162.183 331.343 162.183C331.343 162.183 328.92 166.136 326.88 166.008C324.84 165.88 323.182 163.075 323.182 163.075L323.408 161.994L323.82 160.015C323.82 160.015 323.06 160.395 321.897 160.128C321.604 160.06 321.285 159.952 320.946 159.788C320.942 159.784 320.94 159.784 320.94 159.784C320.718 159.674 320.487 159.541 320.25 159.377C318.668 158.289 319.606 148.206 320.086 143.903C320.217 142.718 320.314 141.971 320.314 141.971C320.888 142.927 322.035 143.31 325.606 143.055C329.176 142.8 331.217 143.438 331.217 143.438C331.204 143.479 331.192 143.518 331.18 143.559C330.233 146.719 331.599 150.323 331.599 150.323C331.599 150.323 332.747 147.135 334.149 147.263C335.551 147.391 334.913 152.109 333.893 152.747Z" fill="url(#paint24_linear_1360_199)"/>
<path d="M331.216 143.439C331.203 143.48 331.191 143.519 331.179 143.56C330.02 143.564 327.421 143.65 323.82 144.204C322.091 144.47 320.902 144.274 320.085 143.904C320.216 142.719 320.313 141.972 320.313 141.972C320.887 142.928 322.034 143.311 325.605 143.056C329.175 142.801 331.216 143.439 331.216 143.439Z" fill="#7168EE"/>
<path d="M328.155 157.21C328.155 157.21 326.926 161.466 323.408 161.994L323.82 160.015C323.82 160.015 323.06 160.395 321.897 160.128C323.043 160.325 325.189 160.093 328.155 157.21Z" fill="#7168EE"/>
<path d="M323.437 162.055C323.437 162.055 322.289 162.82 321.907 163.84C321.524 164.86 324.967 169.961 324.967 169.961L326.371 165.921C326.371 165.921 323.947 164.733 323.437 162.055Z" fill="#A7B3C6"/>
<path d="M331.343 162.055C331.343 162.055 332.236 162.948 332.363 163.968C332.491 164.988 328.155 169.961 328.155 169.961L327.135 166.008C327.135 166.008 329.558 164.606 331.343 162.055Z" fill="#A7B3C6"/>
<path d="M370.279 196.856L378.733 236.774C379.011 238.085 378.614 239.383 377.779 240.306C377.366 240.762 376.844 241.127 376.243 241.356C376.049 241.431 375.845 241.491 375.636 241.535L308.773 255.696C308.455 255.763 308.138 255.791 307.825 255.782C307.214 255.765 306.626 255.61 306.1 255.338C305.065 254.804 304.271 253.826 304.011 252.599L295.557 212.681C295.391 211.899 295.465 211.121 295.73 210.425C296.2 209.19 297.266 208.214 298.655 207.92L365.518 193.759C366.939 193.458 368.342 193.948 369.272 194.931C369.762 195.449 370.12 196.106 370.279 196.856Z" fill="url(#paint25_linear_1360_199)"/>
<path d="M370.279 196.856L372.219 206.016C363.353 213.198 342.236 230.185 339.842 230.999C337.082 231.938 302.037 215.866 295.603 212.898L295.557 212.681C295.391 211.899 295.465 211.121 295.73 210.425C296.2 209.19 297.266 208.214 298.655 207.92L365.518 193.759C366.939 193.458 368.342 193.948 369.272 194.931C369.762 195.449 370.12 196.106 370.279 196.856Z" fill="url(#paint26_linear_1360_199)"/>
<path d="M368.313 243.087L373.931 214.102L378.733 236.774C379.011 238.085 378.614 239.383 377.779 240.306C377.366 240.762 376.844 241.127 376.243 241.356C376.049 241.431 375.845 241.491 375.636 241.535L368.313 243.087Z" fill="url(#paint27_linear_1360_199)"/>
<path d="M369.272 194.93L339.617 224.693C339.347 224.964 339.049 225.195 338.73 225.385C338.524 225.508 338.309 225.615 338.088 225.702C337.457 225.955 336.775 226.063 336.094 226.016C335.947 226.007 335.8 225.99 335.654 225.963C335.349 225.913 335.047 225.83 334.751 225.714L326.735 222.574L325.2 221.972L295.73 210.425C296.2 209.19 297.266 208.214 298.655 207.92L365.518 193.759C366.938 193.458 368.341 193.948 369.272 194.93Z" fill="url(#paint28_linear_1360_199)"/>
<path d="M295.767 210.383C295.767 210.383 298.317 210.893 299.465 211.02C300.613 211.148 299.975 211.785 298.7 211.913C297.425 212.041 298.488 216.05 296.426 216.787C296.426 216.787 293.982 212.805 295.767 210.383Z" fill="url(#paint29_linear_1360_199)"/>
<path d="M333.766 216.631C333.766 216.631 333.126 217.363 332.42 218.225C331.948 218.801 331.447 219.435 331.089 219.946C330.196 221.221 329.941 224.919 328.921 225.301C327.901 225.684 324.968 225.173 324.458 225.556C323.948 225.939 321.78 226.831 321.398 226.576C321.015 226.321 323.183 225.046 324.203 223.771C325.223 222.496 326.498 220.073 325.478 220.201C324.458 220.329 322.035 221.094 322.8 220.456C323.565 219.818 326.88 218.033 327.263 217.651C327.457 217.457 328.013 216.77 328.511 216.141C328.997 215.53 329.43 214.973 329.43 214.973L333.766 216.631Z" fill="url(#paint30_linear_1360_199)"/>
<path d="M333.766 216.631C333.766 216.631 333.126 217.363 332.42 218.225L328.512 216.141C328.998 215.53 329.431 214.973 329.431 214.973L333.766 216.631Z" fill="#7168EE"/>
<path d="M347.027 191.893C346.644 194.316 344.477 199.544 340.651 206.047C336.826 212.55 334.275 217.651 334.275 217.651L331.28 216.312L328.282 214.973C328.282 214.973 330.779 209.818 332.872 205.41C335.295 200.31 337.717 193.296 337.717 190.364C337.717 187.432 334.274 177.613 335.804 172.512C336.773 169.281 339.637 168.147 341.928 168.368C343.254 168.494 344.389 169.074 344.857 169.962C346.135 172.384 347.41 189.47 347.027 191.893Z" fill="url(#paint31_linear_1360_199)"/>
<path d="M347.027 191.893C346.644 194.316 344.477 199.544 340.651 206.047C336.826 212.55 334.275 217.651 334.275 217.651L331.28 216.312C341.401 207.301 343.208 193.459 344.668 187.622C346.198 181.501 341.93 168.368 341.93 168.368C343.256 168.494 344.391 169.074 344.859 169.962C346.135 172.384 347.41 189.47 347.027 191.893Z" fill="url(#paint32_linear_1360_199)"/>
<path d="M170.403 184.262H190.236V293.038H170.403V184.262Z" fill="#7168EE" stroke="#7168EE"/>
<path d="M170.403 184.262H176.214V293.038H170.403V184.262Z" fill="#7168EE" stroke="#7168EE"/>
<path d="M207.332 276.831L200.98 290.283L192.712 276.754C191.72 263.205 191.878 254.283 192.913 248.859C193.434 246.134 194.164 244.355 195.029 243.313C195.865 242.306 196.83 241.975 197.955 242.148L207.332 276.831ZM207.332 276.831C207.323 276.77 207.312 276.69 207.299 276.592C207.264 276.341 207.212 275.971 207.144 275.5C207.008 274.558 206.808 273.212 206.552 271.593C206.039 268.355 205.302 264.031 204.403 259.684C203.503 255.334 202.444 250.977 201.29 247.666C200.713 246.007 200.119 244.635 199.522 243.66C199.224 243.174 198.935 242.803 198.66 242.549C198.384 242.293 198.149 242.178 197.955 242.148L207.332 276.831Z" fill="url(#paint33_linear_1360_199)" stroke="#7168EE"/>
<path d="M203.134 270.163C203.7 265.695 203.997 261.466 204.246 257.461C204.285 256.828 204.323 256.202 204.361 255.581C204.563 252.263 204.755 249.105 205.069 246.079C205.814 238.899 207.242 232.526 211.069 226.705C214.432 221.59 217.963 220.667 219.65 220.72L219.65 220.72C221.253 220.77 222.938 221.333 224.316 222.583C225.691 223.831 226.795 225.792 227.182 228.699L227.678 228.633L227.183 228.699C227.83 233.56 227.147 240.023 225.734 247.02C224.323 254.007 222.193 261.483 219.978 268.349C217.764 275.215 215.467 281.465 213.723 285.998C212.851 288.265 212.118 290.102 211.603 291.372C211.345 292.007 211.142 292.5 211.004 292.834C210.972 292.91 210.944 292.978 210.919 293.037H198.681C201.215 283.384 202.466 275.451 203.134 270.163ZM203.134 270.163L202.638 270.1M203.134 270.163L202.638 270.1M202.638 270.1C203.29 264.947 203.585 260.111 203.862 255.553C204.542 244.359 205.121 234.842 210.651 226.43M202.638 270.1C201.969 275.395 200.713 283.353 198.164 293.037L210.651 226.43M210.651 226.43C214.092 221.196 217.776 220.161 219.665 220.22L210.651 226.43Z" fill="url(#paint34_linear_1360_199)" stroke="#7168EE"/>
<path d="M225.934 244.888L225.934 244.888C229.659 242.647 232.454 241.926 234.415 242.206C236.313 242.477 237.523 243.703 238.091 245.673C238.669 247.674 238.566 250.416 237.778 253.556C236.993 256.687 235.538 260.171 233.46 263.633L233.46 263.633C226.836 274.674 223.662 282.121 222.145 286.824C221.387 289.176 221.041 290.844 220.887 291.934C220.819 292.409 220.788 292.774 220.774 293.038H208.388C208.412 292.749 208.446 292.348 208.494 291.848C208.599 290.74 208.766 289.146 209.014 287.205C209.508 283.322 210.324 278.052 211.608 272.504C212.892 266.953 214.641 261.139 216.996 256.158C219.357 251.167 222.298 247.074 225.934 244.888Z" fill="url(#paint35_linear_1360_199)" stroke="#7168EE"/>
<path d="M214.762 293.038L221.817 283.395L221.822 283.388L221.85 283.353C221.874 283.322 221.911 283.275 221.959 283.213C222.055 283.091 222.198 282.91 222.383 282.681C222.752 282.223 223.288 281.569 223.956 280.789C225.291 279.227 227.145 277.165 229.227 275.155C231.313 273.141 233.611 271.195 235.833 269.855C238.075 268.502 240.139 267.827 241.796 268.186C242.561 268.351 243.097 268.799 243.467 269.501C243.847 270.222 244.05 271.215 244.091 272.428C244.173 274.851 243.606 277.974 242.795 281.093C241.987 284.201 240.947 287.265 240.108 289.554C239.689 290.697 239.321 291.646 239.057 292.309C238.934 292.617 238.834 292.863 238.763 293.038H214.762Z" fill="url(#paint36_linear_1360_199)" stroke="#7168EE"/>
<path d="M242.604 293.038C242.763 292.622 242.996 292.03 243.294 291.322C243.898 289.886 244.769 287.976 245.836 286.07C246.905 284.159 248.159 282.273 249.525 280.872C250.902 279.461 252.321 278.613 253.721 278.613C254.413 278.613 254.957 278.818 255.397 279.167C255.844 279.523 256.209 280.048 256.498 280.72C257.078 282.075 257.303 283.924 257.327 285.832C257.352 287.729 257.179 289.632 256.999 291.066C256.909 291.781 256.818 292.377 256.749 292.794C256.734 292.884 256.721 292.965 256.708 293.038H242.604Z" fill="url(#paint37_linear_1360_199)" stroke="#7168EE"/>
<path d="M204.089 292.62C204.099 292.778 204.107 292.918 204.114 293.038H191.453C191.446 292.991 191.438 292.941 191.43 292.887C191.373 292.509 191.289 291.955 191.176 291.249C190.95 289.837 190.611 287.817 190.159 285.384C189.256 280.518 187.901 273.993 186.093 267.365L185.611 267.496L186.093 267.365C184.575 261.798 186.295 258.223 188.758 257.134C191.207 256.05 194.85 257.23 197.595 262.131C200.349 267.05 201.993 274.879 202.945 281.539C203.419 284.858 203.719 287.865 203.9 290.043C203.99 291.131 204.051 292.012 204.089 292.62Z" fill="url(#paint38_linear_1360_199)" stroke="#7168EE"/>
<path d="M253.52 284.323L250.361 293.538" stroke="#7168EE" stroke-width="1.0016" stroke-miterlimit="10" stroke-linecap="round"/>
<path d="M240.499 272.704C240.499 272.704 232.927 282.92 231.204 293.537" stroke="#7168EE" stroke-width="1.0016" stroke-miterlimit="10" stroke-linecap="round"/>
<path d="M231.914 250.115C231.914 250.115 220.267 267.897 213.856 293.538" stroke="#7168EE" stroke-width="1.0016" stroke-miterlimit="10" stroke-linecap="round"/>
<path d="M192.222 266.094C192.222 266.094 197.831 283.121 198.031 293.538" stroke="#7168EE" stroke-width="1.0016" stroke-miterlimit="10" stroke-linecap="round"/>
<path d="M150.018 276.592C150.005 276.69 149.994 276.77 149.985 276.831L156.338 290.283L164.605 276.754C165.597 263.205 165.439 254.283 164.404 248.859C163.884 246.134 163.153 244.355 162.288 243.313C161.453 242.306 160.487 241.975 159.362 242.148L150.018 276.592ZM150.018 276.592C150.053 276.341 150.105 275.971 150.173 275.5M150.018 276.592L150.173 275.5M150.173 275.5C150.309 274.558 150.509 273.212 150.765 271.593M150.173 275.5L150.765 271.593M150.765 271.593C151.278 268.355 152.015 264.031 152.914 259.684M150.765 271.593L152.914 259.684M152.914 259.684C153.814 255.334 154.873 250.977 156.027 247.666M152.914 259.684L156.027 247.666M156.027 247.666C156.605 246.007 157.198 244.635 157.795 243.66M156.027 247.666L157.795 243.66M157.795 243.66C158.093 243.174 158.383 242.803 158.657 242.549M157.795 243.66L158.657 242.549M158.657 242.549C158.933 242.293 159.168 242.178 159.362 242.148L158.657 242.549Z" fill="url(#paint39_linear_1360_199)" stroke="#7168EE"/>
<path d="M154.183 270.163C154.852 275.451 156.102 283.384 158.636 293.037H146.397C146.372 292.978 146.344 292.91 146.313 292.834C146.174 292.5 145.971 292.007 145.713 291.372C145.198 290.102 144.465 288.265 143.593 285.998C141.85 281.465 139.553 275.215 137.338 268.349C135.123 261.483 132.993 254.007 131.582 247.02C130.169 240.023 129.486 233.56 130.134 228.699L129.638 228.633L130.134 228.699C130.521 225.792 131.625 223.831 133 222.583C134.378 221.333 136.064 220.77 137.667 220.72L137.667 220.72C139.354 220.667 142.886 221.59 146.248 226.705C150.075 232.526 151.503 238.899 152.248 246.079C152.562 249.105 152.754 252.263 152.956 255.58C152.994 256.201 153.032 256.828 153.071 257.461C153.32 261.466 153.617 265.695 154.183 270.163Z" fill="url(#paint40_linear_1360_199)" stroke="#7168EE"/>
<path d="M125.747 293.019C125.746 293.026 125.746 293.032 125.746 293.038H114.45C114.428 292.88 114.399 292.68 114.365 292.441C114.268 291.773 114.122 290.799 113.925 289.574C113.529 287.124 112.927 283.667 112.099 279.64C110.444 271.59 107.883 261.241 104.262 252.088C101.902 246.122 102.853 239.497 105.544 235.847C106.881 234.034 108.607 232.999 110.541 233.054C112.486 233.11 114.783 234.273 117.238 237.17C119.657 240.025 121.427 244.94 122.702 250.797C123.972 256.633 124.733 263.324 125.183 269.66C125.633 275.994 125.771 281.961 125.796 286.345C125.808 288.537 125.793 290.332 125.774 291.579C125.764 292.203 125.754 292.689 125.747 293.019Z" fill="url(#paint41_linear_1360_199)" stroke="#7168EE"/>
<path d="M164.093 89.71H243.444C226.271 93.6923 213.473 109.087 213.473 127.471V183.261H126.332V127.471C126.332 106.615 143.237 89.71 164.093 89.71Z" fill="#FF911E" stroke="#7168EE"/>
<path d="M247.687 89.9804L247.687 89.9803C248.851 89.8405 250.031 89.7537 251.226 89.7219H251.241C271.63 90.2573 287.993 106.954 287.993 127.471V183.261H214.473V127.471C214.473 108.156 228.975 92.2265 247.687 89.9804Z" fill="#7168EE" stroke="#7168EE"/>
<path d="M280.782 127.471V183.261H214.474V127.471C214.474 108.177 228.945 92.2606 247.628 89.9878C266.311 92.2606 280.782 108.177 280.782 127.471Z" fill="#7168EE" stroke="#7168EE"/>
<path d="M164.093 89.71H243.445C226.271 93.6923 213.473 109.087 213.473 127.471V157.62H126.332V127.471C126.332 106.615 143.237 89.71 164.093 89.71Z" fill="url(#paint42_linear_1360_199)" stroke="#7168EE"/>
<path d="M155.781 170.741C155.781 172.457 154.391 173.847 152.675 173.847C150.96 173.847 149.569 172.457 149.569 170.741C149.569 169.026 150.959 167.635 152.675 167.635C154.391 167.635 155.781 169.025 155.781 170.741Z" fill="#EF6520" stroke="#7168EE"/>
<path d="M169.403 170.741C169.403 172.457 168.013 173.847 166.297 173.847C164.582 173.847 163.191 172.457 163.191 170.741C163.191 169.026 164.581 167.635 166.297 167.635C168.012 167.635 169.403 169.025 169.403 170.741Z" fill="#EF6520" stroke="#7168EE"/>
<path d="M181.422 170.741C181.422 172.457 180.032 173.847 178.316 173.847C176.6 173.847 175.21 172.457 175.21 170.741C175.21 169.026 176.6 167.635 178.316 167.635C180.032 167.635 181.422 169.025 181.422 170.741Z" fill="#EF6520" stroke="#7168EE"/>
<path d="M287.993 184.262V230.237C287.993 248.547 273.149 263.391 254.839 263.391H247.627C229.317 263.391 214.473 248.547 214.473 230.237V184.262H287.993Z" fill="#7168EE" stroke="#7168EE"/>
<path d="M217.278 230.237V184.262H287.993V230.237C287.993 243.018 280.759 254.113 270.159 259.646L270.159 259.646C265.577 262.039 260.368 263.391 254.839 263.391H250.432C232.122 263.391 217.278 248.547 217.278 230.237Z" fill="#E0E3EA" stroke="#7168EE"/>
<path d="M148.93 293.038H136.543C136.529 292.774 136.498 292.409 136.43 291.934C136.276 290.844 135.931 289.176 135.172 286.824C133.655 282.121 130.481 274.674 123.857 263.633L123.857 263.633C121.78 260.171 120.324 256.687 119.539 253.556C118.751 250.416 118.648 247.674 119.225 245.673C119.794 243.703 121.003 242.477 122.902 242.206C124.862 241.926 127.658 242.647 131.383 244.888C135.019 247.074 137.96 251.167 140.321 256.158C142.676 261.139 144.425 266.953 145.709 272.504C146.993 278.052 147.809 283.322 148.304 287.205C148.551 289.146 148.718 290.74 148.823 291.848C148.871 292.348 148.906 292.749 148.93 293.038Z" fill="url(#paint43_linear_1360_199)" stroke="#7168EE"/>
<path d="M142.554 293.038H118.553C118.482 292.863 118.382 292.617 118.259 292.309C117.996 291.646 117.627 290.697 117.208 289.554C116.369 287.265 115.33 284.201 114.522 281.093C113.711 277.974 113.144 274.851 113.226 272.428C113.267 271.215 113.47 270.222 113.85 269.501C114.22 268.799 114.756 268.351 115.521 268.186C117.178 267.827 119.242 268.502 121.485 269.855C123.706 271.195 126.004 273.141 128.09 275.155C130.172 277.165 132.027 279.227 133.362 280.789C134.029 281.569 134.565 282.223 134.935 282.681C135.119 282.91 135.262 283.091 135.358 283.213C135.407 283.275 135.443 283.322 135.468 283.353L135.495 283.388L135.5 283.395L142.554 293.038Z" fill="url(#paint44_linear_1360_199)" stroke="#7168EE"/>
<path d="M114.714 293.038H100.609C100.597 292.965 100.583 292.884 100.568 292.794C100.499 292.377 100.408 291.781 100.318 291.066C100.138 289.632 99.9656 287.729 99.9903 285.832C100.015 283.924 100.24 282.075 100.82 280.72C101.108 280.048 101.474 279.523 101.921 279.167C102.361 278.818 102.905 278.613 103.597 278.613C104.998 278.613 106.416 279.461 107.793 280.872C109.159 282.273 110.413 284.159 111.482 286.07C112.549 287.976 113.42 289.886 114.024 291.322C114.323 292.03 114.555 292.622 114.714 293.038Z" fill="url(#paint45_linear_1360_199)" stroke="#7168EE"/>
<path d="M171.224 267.365L171.706 267.496L171.224 267.365C169.416 273.993 168.061 280.518 167.158 285.384C166.706 287.817 166.367 289.837 166.141 291.249C166.028 291.955 165.944 292.509 165.887 292.887C165.879 292.941 165.872 292.991 165.865 293.038H153.203C153.21 292.918 153.218 292.778 153.228 292.62C153.266 292.012 153.327 291.131 153.418 290.043C153.599 287.865 153.898 284.858 154.372 281.539C155.324 274.879 156.968 267.05 159.722 262.131C162.467 257.23 166.11 256.05 168.559 257.134C171.022 258.223 172.742 261.798 171.224 267.365Z" fill="url(#paint46_linear_1360_199)" stroke="#7168EE"/>
<path d="M103.797 284.323L106.956 293.538" stroke="#7168EE" stroke-width="1.0016" stroke-miterlimit="10" stroke-linecap="round"/>
<path d="M116.818 272.704C116.818 272.704 124.39 282.92 126.113 293.537" stroke="#7168EE" stroke-width="1.0016" stroke-miterlimit="10" stroke-linecap="round"/>
<path d="M125.403 250.115C125.403 250.115 137.05 267.897 143.461 293.538" stroke="#7168EE" stroke-width="1.0016" stroke-miterlimit="10" stroke-linecap="round"/>
<path d="M165.095 266.094C165.095 266.094 159.486 283.121 159.286 293.538" stroke="#7168EE" stroke-width="1.0016" stroke-miterlimit="10" stroke-linecap="round"/>
<path d="M214.637 89.9851H242.339C225.725 94.36 213.474 109.485 213.474 127.472V157.621H172.526C177.233 153.633 180.82 146.308 180.82 133.281V123.804C180.82 105.126 195.961 89.9851 214.637 89.9851Z" fill="url(#paint47_linear_1360_199)" stroke="#7168EE"/>
<path d="M197.547 132.781C195.832 132.781 194.441 131.391 194.441 129.675V40.03H200.653V129.675C200.653 131.391 199.263 132.781 197.547 132.781Z" fill="#7168EE" stroke="#7168EE"/>
<path d="M200.653 60.7076L175.505 40.03H200.653V60.7076Z" fill="#FF911E" stroke="#7168EE"/>
<path d="M221.761 184.261L269.674 259.893C265.212 262.131 260.174 263.39 254.839 263.39H250.432C232.122 263.39 217.278 248.546 217.278 230.236V184.261H221.761Z" fill="#CED1D8" stroke="#7168EE"/>
<path d="M83.6541 300.161C83.6541 300.161 83.0361 303.125 83.6541 304.731C84.2721 306.337 88.4711 305.596 88.4711 305.596L88.1001 300.408L83.6541 300.161Z" fill="url(#paint48_linear_1360_199)"/>
<path d="M99.39 308.896C99.391 308.999 99.3741 309.094 99.3411 309.178C99.1171 309.744 94.981 309.654 90.818 309.672C86.505 309.692 82.166 309.798 82.295 309.178C82.263 309.011 82.238 308.838 82.22 308.662C81.94 306.092 82.913 302.632 82.913 302.632H83.531C84.025 306.09 88.225 304.732 88.163 302.632H88.8421C88.7181 304.855 90.903 306.009 94.524 306.337C98.154 306.667 99.381 308.053 99.39 308.896Z" fill="#D9E0E2"/>
<path d="M99.3901 308.896C99.3911 308.999 99.3741 309.094 99.3411 309.178C99.1171 309.744 94.9811 309.654 90.8181 309.672C86.5051 309.692 82.1661 309.798 82.2951 309.178C82.2631 309.011 82.2381 308.838 82.2201 308.662C87.0701 308.623 95.9341 308.816 99.3901 308.896Z" fill="#7168EE"/>
<path d="M67.967 300.161C67.967 300.161 67.349 303.125 67.967 304.731C68.585 306.337 72.784 305.596 72.784 305.596L72.413 300.408L67.967 300.161Z" fill="url(#paint49_linear_1360_199)"/>
<path d="M83.6541 309.178C83.4301 309.744 79.2941 309.654 75.1321 309.672C70.8191 309.692 66.4801 309.798 66.6091 309.178C66.5441 308.836 66.506 308.469 66.492 308.091C66.389 305.61 67.227 302.632 67.227 302.632H67.8451C68.7101 305.72 72.415 304.979 72.477 302.632H73.1561C73.0331 304.855 75.2181 306.009 78.838 306.337C82.01 306.625 83.3461 307.719 83.6401 308.553C83.7231 308.79 83.7221 309.007 83.6541 309.178Z" fill="#EBF0F2"/>
<path d="M76.49 213.207C78.361 230.406 77.694 236.992 79.701 254.955C80.991 266.496 79.825 285.463 82.665 301.891H89.211C89.211 289.539 89.968 287.519 90.817 263.601C91.239 251.698 91.041 239.526 91.805 234.081C93.781 220 93.04 206.908 93.04 206.908L76.49 213.207Z" fill="#24246B"/>
<path d="M80.5661 234.698C77.6661 248.619 73.2791 301.89 73.2791 301.89H66.9801C65.2511 286.204 66.9241 272.459 65.9921 260.883C64.6301 243.966 61.7931 227.534 63.7691 213.206L70.6031 212.428L84.1491 210.365C84.1491 210.365 83.0361 222.841 80.5661 234.698Z" fill="url(#paint50_linear_1360_199)"/>
<path d="M69.0791 271.506C67.9061 279.824 68.0021 294.69 69.4501 301.891H66.9801C65.2511 286.205 66.9241 272.46 65.9921 260.884C64.6301 243.967 61.7931 227.535 63.7691 213.207L70.6031 212.429C70.0201 215.687 66.5901 235.675 67.7211 249.027C68.9551 263.601 70.4381 261.871 69.0791 271.506Z" fill="url(#paint51_linear_1360_199)"/>
<path d="M88.288 196.511C87.164 196.954 86.004 197.215 84.923 197.362C85.177 196.445 85.396 195.536 85.583 194.647C87.306 194.32 88.1 193.815 88.1 193.815L88.194 194.037L87.817 184.048L87.729 181.71L79.824 166.271H69.079L77.555 210.77L78.467 215.554C78.467 215.554 83.161 217.036 88.966 214.442L88.288 196.511ZM79.885 208.081C80.496 207.263 81.052 206.414 81.56 205.543C85.579 205.57 87.359 204.438 87.359 204.438L88.347 206.785C85.093 208.361 81.287 208.207 79.885 208.081Z" fill="#EBEFF7"/>
<path d="M82.172 172.199C82.172 172.199 79.455 173.928 73.155 173.064L74.143 175.781C74.143 175.781 79.084 176.522 83.16 174.546L82.172 172.199Z" fill="#4561D8"/>
<path d="M87.4831 183.069C87.4831 183.069 84.7661 184.798 78.4661 183.934L79.4541 186.651C79.4541 186.651 84.3951 187.392 88.4711 185.416L87.4831 183.069Z" fill="#4561D8"/>
<path d="M85.583 194.647C85.396 195.536 85.178 196.445 84.923 197.362C82.259 197.725 80.071 197.397 80.071 197.397L79.083 194.68C81.979 195.077 84.117 194.926 85.583 194.647Z" fill="#4561D8"/>
<path d="M89.0891 196.161C88.8261 196.288 88.5581 196.406 88.2891 196.51L88.1951 194.037L89.0891 196.161Z" fill="#242528"/>
<path d="M81.56 205.542C81.052 206.413 80.497 207.263 79.885 208.08C79.532 208.048 79.33 208.018 79.33 208.018L78.342 205.301C79.543 205.466 80.614 205.538 81.56 205.542Z" fill="#4561D8"/>
<path d="M88.347 206.784C85.092 208.361 81.287 208.207 79.885 208.081C80.496 207.263 81.052 206.414 81.56 205.543C85.579 205.57 87.359 204.438 87.359 204.438L88.347 206.784Z" fill="#3C53A0"/>
<path d="M88.288 196.511C87.164 196.954 86.004 197.215 84.923 197.362C85.177 196.445 85.396 195.536 85.583 194.647C87.306 194.32 88.1 193.815 88.1 193.815L88.194 194.037V194.038L88.288 196.511Z" fill="#3C53A0"/>
<path d="M85.583 194.647C87.058 187.626 86.618 181.71 86.618 181.71L87.817 184.048L88.194 194.037L88.1 193.815C88.1 193.815 87.306 194.32 85.583 194.647Z" fill="#CCD2DB"/>
<path d="M88.9651 214.442C83.1601 217.036 78.4661 215.554 78.4661 215.554L77.5541 210.77C78.4081 209.924 79.1821 209.024 79.8851 208.081C81.2871 208.207 85.0921 208.361 88.3471 206.784L87.3591 204.437C87.3591 204.437 85.5791 205.57 81.5601 205.542C83.0871 202.92 84.1651 200.105 84.9231 197.362C86.0041 197.215 87.1641 196.954 88.2881 196.511L88.9651 214.442Z" fill="#CCD2DB"/>
<path d="M93.906 210.983C92.177 215.059 86.619 216.418 86.619 216.418C86.619 216.418 87.197 206.774 87.313 197.883C87.39 191.952 87.261 186.355 86.619 184.18C86.008 182.112 84.593 178.955 83.074 175.835C80.6 170.755 77.849 165.776 77.849 165.776L78.425 164.642L86.619 168.37C86.619 168.37 86.914 170.408 87.313 173.186C88.036 178.236 89.097 185.734 89.336 187.885C89.524 189.572 90.69 195.46 91.798 200.869C92.88 206.156 93.906 210.983 93.906 210.983Z" fill="url(#paint52_linear_1360_199)"/>
<path d="M75.0081 136.133C70.5611 128.598 63.8851 132.11 62.6561 134.033C56.1101 144.285 69.0791 157.377 61.9151 160.095C61.9151 160.095 69.7381 163.949 72.0021 154.796C74.2661 145.643 77.6011 139.468 77.6011 139.468L75.0081 136.133Z" fill="#1C3391"/>
<path d="M86.1241 150.584C86.1241 150.584 88.1001 147.62 87.6061 142.185C87.1121 136.75 83.5301 135.515 81.8011 137.121C81.8011 137.121 77.1071 132.551 71.7961 136.256C66.9911 139.608 66.7321 146.261 68.4611 150.954C70.1901 155.648 70.7551 157.75 70.8431 160.034L78.4661 152.56L86.1241 150.584Z" fill="#192EAD"/>
<path d="M86.618 147.867C86.618 147.867 86.617 147.899 86.614 147.962C86.558 149.133 85.911 160.75 81.924 161.454C80.636 161.681 79.743 161.426 79.187 161.135C78.693 160.876 78.466 160.589 78.466 160.589C78.466 160.589 78.251 162.038 78.352 163.803C78.404 164.716 78.541 165.715 78.836 166.641C78.836 166.641 74.636 170.099 69.078 165.282C69.078 165.282 71.425 159.847 72.289 152.807C72.289 152.807 70.189 151.942 70.56 148.978C70.963 145.76 74.266 148.113 73.895 150.831C73.895 150.831 78.718 148.79 81.129 143.183C81.502 142.32 81.816 141.371 82.047 140.332C82.047 140.332 82.295 143.544 86.618 147.867Z" fill="url(#paint53_linear_1360_199)"/>
<path d="M86.618 147.867C86.618 147.867 86.617 147.899 86.614 147.962C83.958 146.831 82.206 144.846 81.13 143.183C81.503 142.32 81.817 141.371 82.048 140.332C82.048 140.332 82.295 143.544 86.618 147.867Z" fill="#4864D8"/>
<path d="M79.1881 161.135C78.6941 160.876 78.4671 160.589 78.4671 160.589C78.4671 160.589 78.2521 162.038 78.3531 163.803C75.2501 160.632 75.0081 156.266 75.0081 156.266C76.3921 158.673 77.9521 160.201 79.1881 161.135Z" fill="#4864D8"/>
<path d="M79.825 216.912C79.825 216.912 77.737 217.147 74.509 216.885C70.716 216.576 65.345 215.582 59.939 212.713C59.939 212.713 62.273 206.54 64.234 200.957C64.906 199.041 65.535 197.195 66.009 195.692C66.594 193.838 66.945 192.507 66.856 192.21C66.811 192.062 66.609 191.617 66.29 190.949L66.228 190.822C63.808 185.781 55.356 169.218 56.11 168.248C56.497 167.752 60.186 166.025 69.508 164.196C69.508 164.196 79.949 181.094 80.443 183.688C80.937 186.28 79.825 216.912 79.825 216.912Z" fill="url(#paint54_linear_1360_199)"/>
<path d="M66.0081 195.691C66.5931 193.837 66.9441 192.506 66.8551 192.209C66.8101 192.061 66.6081 191.616 66.2891 190.948L70.6841 199.867L66.0081 195.691Z" fill="url(#paint55_linear_1360_199)"/>
<path d="M74.5091 216.885C70.7161 216.576 65.3451 215.582 59.9391 212.713C59.9391 212.713 62.2731 206.54 64.2341 200.957C65.0971 205.477 67.5511 212.906 74.5091 216.885Z" fill="url(#paint56_linear_1360_199)"/>
<path d="M69.2021 218.641C67.9671 219.259 67.0311 217.281 66.6341 215.428C66.2371 213.576 66.2371 212.959 67.1021 213.33C67.1021 213.33 66.8551 212.465 67.1021 210.983L64.9081 209.439L63.7671 208.636L67.4721 205.301C67.4721 205.301 67.7591 205.607 68.2061 206.072C68.4881 206.364 68.8321 206.717 69.2101 207.094C69.7091 207.594 70.2651 208.136 70.8071 208.637C72.0681 209.8 72.9071 213.578 73.1541 215.183C73.4021 216.789 70.4381 218.024 69.2021 218.641Z" fill="url(#paint57_linear_1360_199)"/>
<path d="M62.279 181.971C62.279 181.971 56.11 190.356 56.11 191.097C56.11 191.838 69.203 205.054 69.203 205.054L63.398 210.983C63.398 210.983 47.063 192.325 47.341 191.097C48.823 184.551 56.234 169.235 56.234 169.235C56.234 169.235 61.778 174.822 62.279 181.971Z" fill="url(#paint58_linear_1360_199)"/>
<path d="M87.312 197.883C87.389 191.952 87.26 186.355 86.618 184.18C86.007 182.112 84.592 178.955 83.073 175.835C83.749 172.174 84.585 169.571 84.585 169.571C84.585 169.571 85.718 170.914 87.312 173.185C88.035 178.235 89.096 185.733 89.335 187.884C89.523 189.571 90.689 195.459 91.797 200.868C90.347 200.228 88.78 199.281 87.312 197.883Z" fill="url(#paint59_linear_1360_199)"/>
<path d="M89.3351 168.618L86.3181 170.127L84.8891 170.841L83.4071 164.665C83.4071 164.665 82.1721 163.924 81.3071 160.959C81.3071 160.959 80.9961 161.425 80.6441 161.452C80.4511 161.467 80.2461 161.351 80.0721 160.959C79.5781 159.847 79.9481 159.23 80.3191 157.995C80.6901 156.76 81.0601 155.895 82.5421 156.019C84.0241 156.143 84.8991 155.298 85.4821 156.007C87.1121 157.996 87.7301 164.171 87.7301 164.171L89.3351 168.618Z" fill="url(#paint60_linear_1360_199)"/>
<path d="M86.318 170.127L84.889 170.841L83.407 164.665C83.407 164.665 82.172 163.924 81.307 160.959C81.307 160.959 80.996 161.425 80.644 161.452C80.696 161.231 80.786 160.941 80.937 160.589L80.691 158.125C80.729 158.265 81.346 160.513 82.542 161.948C83.777 163.43 84.148 163.801 84.642 164.789C84.996 165.496 85.857 168.488 86.318 170.127Z" fill="#4864D8"/>
<path d="M82.542 167.876L90.571 166.27C90.571 166.27 95.265 187.638 95.882 190.232C96.5 192.826 95.759 199.249 93.906 199.866C92.053 200.484 88.965 197.272 88.471 195.049C87.977 192.827 82.542 167.876 82.542 167.876Z" fill="url(#paint61_linear_1360_199)"/>
<path d="M69.2111 207.094L64.9091 209.439L68.2071 206.072C68.4891 206.364 68.8331 206.717 69.2111 207.094Z" fill="#4864D8"/>
<path d="M83.6541 309.178C83.4301 309.744 79.2941 309.654 75.1321 309.672C70.8191 309.692 66.4801 309.798 66.6091 309.178C66.5441 308.836 66.5061 308.469 66.4921 308.091C68.8261 308.475 74.2651 309.078 83.6401 308.553C83.7231 308.79 83.7221 309.007 83.6541 309.178Z" fill="#7168EE"/>
<path d="M187.673 139.435H187.671V139.214L187.673 139.435Z" fill="url(#paint62_linear_1360_199)"/>
<path d="M274.076 179.822C274.084 181.162 273.433 182.352 272.427 183.089C271.932 183.451 271.345 183.704 270.712 183.806C270.506 183.84 270.295 183.858 270.081 183.86L223.592 184.1V135.262L269.826 135.024C271.278 135.016 272.554 135.779 273.268 136.929C273.643 137.538 273.861 138.253 273.865 139.018L273.877 141.44L274.076 179.822Z" fill="url(#paint63_linear_1360_199)"/>
<path d="M197.489 139.635H197.487V139.415L197.489 139.635Z" fill="url(#paint64_linear_1360_199)"/>
<path d="M273.93 141.412C273.912 141.42 273.896 141.43 273.878 141.44C263.714 146.721 239.661 165.991 237.155 166.306C235.999 166.45 230.338 162.889 223.593 158.291V135.262L269.827 135.024C271.279 135.016 272.555 135.779 273.269 136.929C273.644 137.538 273.862 138.253 273.866 139.018L273.93 141.412Z" fill="url(#paint65_linear_1360_199)"/>
<path d="M273.269 136.929L238.209 160.084C237.891 160.294 237.552 160.461 237.201 160.583C236.975 160.661 236.742 160.723 236.508 160.763C235.839 160.883 235.15 160.851 234.493 160.667C234.351 160.629 234.21 160.583 234.072 160.527C233.784 160.417 233.503 160.274 233.239 160.1L226.021 155.404L224.641 154.505L223.593 153.824V135.262L269.827 135.024C271.279 135.016 272.555 135.779 273.269 136.929Z" fill="url(#paint66_linear_1360_199)"/>
<path d="M197.489 139.435H197.487V139.214L197.489 139.435Z" fill="url(#paint67_linear_1360_199)"/>
<path d="M264.26 179.621C264.268 180.961 263.617 182.151 262.611 182.888C262.116 183.251 261.529 183.503 260.896 183.605C260.69 183.639 260.479 183.657 260.265 183.659L213.776 183.899V135.061L260.01 134.823C261.462 134.815 262.738 135.578 263.452 136.728C263.827 137.337 264.045 138.052 264.049 138.817L264.061 141.239L264.26 179.621Z" fill="url(#paint68_linear_1360_199)"/>
<path d="M187.673 139.435H187.671V139.214L187.673 139.435Z" fill="url(#paint69_linear_1360_199)"/>
<path d="M264.114 141.212C264.096 141.22 264.08 141.23 264.062 141.24C253.898 146.521 229.845 165.791 227.339 166.106C226.183 166.25 220.522 162.689 213.777 158.091V135.062L260.011 134.824C261.463 134.816 262.739 135.579 263.453 136.729C263.828 137.338 264.046 138.053 264.05 138.818L264.114 141.212Z" fill="url(#paint70_linear_1360_199)"/>
<path d="M263.453 136.728L228.393 159.883C228.074 160.093 227.736 160.26 227.385 160.382C227.159 160.46 226.926 160.522 226.692 160.562C226.023 160.682 225.334 160.65 224.677 160.466C224.535 160.428 224.395 160.382 224.256 160.326C223.968 160.216 223.687 160.074 223.423 159.899L216.205 155.203L214.825 154.304L213.777 153.623V135.061L260.011 134.823C261.464 134.815 262.74 135.579 263.453 136.728Z" fill="url(#paint71_linear_1360_199)"/>
<path d="M278.677 139.691C278.677 139.691 279.602 139.542 281.111 139.121" stroke="#18317F" stroke-width="1.6026" stroke-miterlimit="10" stroke-linecap="round"/>
<path d="M286.613 137.12C296.29 132.757 310.625 121.563 304.319 94.418C295.104 54.754 296.306 22.703 319.744 9.882C337.197 0.334997 356.761 7.22799 365.614 11.371" stroke="#18317F" stroke-width="1.6026" stroke-miterlimit="10" stroke-linecap="round" stroke-dasharray="4.88 5.86"/>
<path d="M368.24 12.6719C369.646 13.4089 370.424 13.8889 370.424 13.8889" stroke="#18317F" stroke-width="1.6026" stroke-miterlimit="10" stroke-linecap="round"/>
<path d="M372.285 15.774L366.418 23.022L395.064 33.721L382.122 5.07495L376.082 12.841L383.675 22.159L372.285 15.774Z" fill="url(#paint72_linear_1360_199)"/>
<path d="M63.2851 28.581L72.0911 31.649L72.4611 1.07202L49.8881 22.948L59.2401 26.002L65.4381 15.703L63.2851 28.581Z" fill="url(#paint73_linear_1360_199)"/>
<path d="M213.974 147.962C213.974 147.962 247.488 143.284 235.809 120.26C207.764 64.9709 123.285 126.004 89.1741 98.0239C53.5171 68.7769 59.9271 27.7109 59.9271 27.7109" stroke="#18317F" stroke-width="1.6026" stroke-miterlimit="10" stroke-linecap="round" stroke-dasharray="5.01 6.01"/>
<path d="M353.798 39.5299C350.272 32.2649 338.373 37.1259 345.585 46.7419C352.796 56.3569 360.409 53.1519 353.798 39.5299Z" fill="#EDEFF4"/>
<path d="M395.264 44.138C389.289 43.355 372.227 48.014 372.227 57.96C372.227 63.569 385.248 67.976 398.269 61.766C411.29 55.556 412.091 46.341 395.264 44.138Z" fill="#EDEFF4"/>
<path d="M99.39 293.538C99.39 293.538 99.991 303.955 121.425 303.955C142.859 303.955 162.09 301.551 184.927 320.782C207.764 340.013 263.854 343.218 278.677 329.596C293.501 315.974 257.844 293.538 257.844 293.538H99.39Z" fill="#EDEFF4"/>
</g>
<defs>
<linearGradient id="paint0_linear_1360_199" x1="396.243" y1="302.097" x2="401.525" y2="302.097" gradientUnits="userSpaceOnUse">
<stop stop-color="#7168EE"/>
<stop offset="1" stop-color="#7168EE"/>
</linearGradient>
<linearGradient id="paint1_linear_1360_199" x1="425.681" y1="302.146" x2="431.087" y2="302.146" gradientUnits="userSpaceOnUse">
<stop stop-color="#7168EE"/>
<stop offset="1" stop-color="#7168EE" stop-opacity="0.992157"/>
</linearGradient>
<linearGradient id="paint2_linear_1360_199" x1="414.029" y1="201.011" x2="414.029" y2="271.69" gradientUnits="userSpaceOnUse">
<stop stop-color="#24247F"/>
<stop offset="1" stop-color="#2D2D96"/>
</linearGradient>
<linearGradient id="paint3_linear_1360_199" x1="462.282" y1="259.751" x2="352.633" y2="256.694" gradientUnits="userSpaceOnUse">
<stop stop-color="#242463"/>
<stop offset="1" stop-color="#242463" stop-opacity="0"/>
</linearGradient>
<linearGradient id="paint4_linear_1360_199" x1="422.6" y1="267.459" x2="342.37" y2="236.513" gradientUnits="userSpaceOnUse">
<stop stop-color="#242463"/>
<stop offset="1" stop-color="#242463" stop-opacity="0"/>
</linearGradient>
<linearGradient id="paint5_linear_1360_199" x1="415.521" y1="160.083" x2="415.875" y2="169.507" gradientUnits="userSpaceOnUse">
<stop stop-color="#7168EE"/>
<stop offset="1" stop-color="#7168EE"/>
</linearGradient>
<linearGradient id="paint6_linear_1360_199" x1="410.612" y1="148.53" x2="404.549" y2="148.073" gradientUnits="userSpaceOnUse">
<stop stop-color="#7168EE"/>
<stop offset="1" stop-color="#7168EE"/>
</linearGradient>
<linearGradient id="paint7_linear_1360_199" x1="419.896" y1="148.344" x2="423.612" y2="148.344" gradientUnits="userSpaceOnUse">
<stop stop-color="#7168EE"/>
<stop offset="1" stop-color="#7168EE"/>
</linearGradient>
<linearGradient id="paint8_linear_1360_199" x1="424.106" y1="159.6" x2="411.628" y2="143.641" gradientUnits="userSpaceOnUse">
<stop stop-color="#7168EE"/>
<stop offset="1" stop-color="#7168EE"/>
</linearGradient>
<linearGradient id="paint9_linear_1360_199" x1="399.994" y1="230.316" x2="407.253" y2="166.896" gradientUnits="userSpaceOnUse">
<stop stop-color="#F4BA38"/>
<stop offset="1" stop-color="#FFD349"/>
</linearGradient>
<linearGradient id="paint10_linear_1360_199" x1="420.131" y1="222.064" x2="438.851" y2="142.216" gradientUnits="userSpaceOnUse">
<stop stop-color="#F4BA38"/>
<stop offset="1" stop-color="#FFD349"/>
</linearGradient>
<linearGradient id="paint11_linear_1360_199" x1="393.65" y1="221.553" x2="424.214" y2="157.751" gradientUnits="userSpaceOnUse">
<stop stop-color="#FF911E"/>
<stop offset="1" stop-color="#FE931E" stop-opacity="0"/>
</linearGradient>
<linearGradient id="paint12_linear_1360_199" x1="440.564" y1="218.69" x2="396.756" y2="138.083" gradientUnits="userSpaceOnUse">
<stop stop-color="#FF911E"/>
<stop offset="1" stop-color="#FE931E" stop-opacity="0"/>
</linearGradient>
<linearGradient id="paint13_linear_1360_199" x1="393.21" y1="212.982" x2="407.217" y2="212.982" gradientUnits="userSpaceOnUse">
<stop stop-color="#7168EE" stop-opacity="0.27451"/>
<stop offset="1" stop-color="#7168EE"/>
</linearGradient>
<linearGradient id="paint14_linear_1360_199" x1="430.003" y1="216.104" x2="439.051" y2="216.104" gradientUnits="userSpaceOnUse">
<stop stop-color="#7168EE"/>
<stop offset="1" stop-color="#7168EE"/>
</linearGradient>
<linearGradient id="paint15_linear_1360_199" x1="314.621" y1="249.656" x2="312.856" y2="297.749" gradientUnits="userSpaceOnUse">
<stop stop-color="#24247F"/>
<stop offset="1" stop-color="#2D2D96"/>
</linearGradient>
<linearGradient id="paint16_linear_1360_199" x1="330.733" y1="240.086" x2="352.924" y2="285.373" gradientUnits="userSpaceOnUse">
<stop stop-color="#24247F"/>
<stop offset="1" stop-color="#2D2D96"/>
</linearGradient>
<linearGradient id="paint17_linear_1360_199" x1="314.516" y1="249.636" x2="314.516" y2="265.058" gradientUnits="userSpaceOnUse">
<stop stop-color="#242463"/>
<stop offset="1" stop-color="#242463" stop-opacity="0"/>
</linearGradient>
<linearGradient id="paint18_linear_1360_199" x1="334.317" y1="244.016" x2="334.317" y2="264.505" gradientUnits="userSpaceOnUse">
<stop stop-color="#242463"/>
<stop offset="1" stop-color="#242463" stop-opacity="0"/>
</linearGradient>
<linearGradient id="paint19_linear_1360_199" x1="293.026" y1="209.043" x2="305.713" y2="209.043" gradientUnits="userSpaceOnUse">
<stop stop-color="#7168EE"/>
<stop offset="1" stop-color="#658BFD"/>
</linearGradient>
<linearGradient id="paint20_linear_1360_199" x1="317.181" y1="190.164" x2="297.75" y2="203.72" gradientUnits="userSpaceOnUse">
<stop stop-color="#E1E1E1"/>
<stop offset="1" stop-color="white"/>
</linearGradient>
<linearGradient id="paint21_linear_1360_199" x1="337.185" y1="204.587" x2="314.233" y2="163.273" gradientUnits="userSpaceOnUse">
<stop stop-color="#F4BA38"/>
<stop offset="1" stop-color="#FFD349"/>
</linearGradient>
<linearGradient id="paint22_linear_1360_199" x1="336.53" y1="207.726" x2="335.765" y2="171.387" gradientUnits="userSpaceOnUse">
<stop stop-color="#FF911E"/>
<stop offset="1" stop-color="#FE931E" stop-opacity="0"/>
</linearGradient>
<linearGradient id="paint23_linear_1360_199" x1="327.618" y1="222.813" x2="326.47" y2="159.306" gradientUnits="userSpaceOnUse">
<stop stop-color="#E1E1E1"/>
<stop offset="1" stop-color="white"/>
</linearGradient>
<linearGradient id="paint24_linear_1360_199" x1="319.369" y1="153.992" x2="334.959" y2="153.992" gradientUnits="userSpaceOnUse">
<stop stop-color="#7168EE"/>
<stop offset="1" stop-color="#7168EE"/>
</linearGradient>
<linearGradient id="paint25_linear_1360_199" x1="370.468" y1="200.884" x2="311.303" y2="243.218" gradientUnits="userSpaceOnUse">
<stop stop-color="#DFE1E5"/>
<stop offset="1" stop-color="#F3F3F3"/>
</linearGradient>
<linearGradient id="paint26_linear_1360_199" x1="333.152" y1="155.667" x2="334.172" y2="234.215" gradientUnits="userSpaceOnUse">
<stop stop-color="#B9BEC6"/>
<stop offset="1" stop-color="#B9BEC6" stop-opacity="0"/>
</linearGradient>
<linearGradient id="paint27_linear_1360_199" x1="413.728" y1="257.442" x2="364.764" y2="224.288" gradientUnits="userSpaceOnUse">
<stop stop-color="#B9BEC6"/>
<stop offset="1" stop-color="#B9BEC6" stop-opacity="0"/>
</linearGradient>
<linearGradient id="paint28_linear_1360_199" x1="339.738" y1="177.221" x2="324.947" y2="229.246" gradientUnits="userSpaceOnUse">
<stop stop-color="#DFE1E5"/>
<stop offset="1" stop-color="#F3F3F3"/>
</linearGradient>
<linearGradient id="paint29_linear_1360_199" x1="295.115" y1="213.584" x2="300.064" y2="213.584" gradientUnits="userSpaceOnUse">
<stop stop-color="#7168EE"/>
<stop offset="1" stop-color="#7168EE"/>
</linearGradient>
<linearGradient id="paint30_linear_1360_199" x1="321.353" y1="220.797" x2="333.766" y2="220.797" gradientUnits="userSpaceOnUse">
<stop stop-color="#7168EE"/>
<stop offset="1" stop-color="#7168EE"/>
</linearGradient>
<linearGradient id="paint31_linear_1360_199" x1="354.767" y1="194.978" x2="334.51" y2="192.584" gradientUnits="userSpaceOnUse">
<stop stop-color="#E1E1E1"/>
<stop offset="1" stop-color="white"/>
</linearGradient>
<linearGradient id="paint32_linear_1360_199" x1="371.169" y1="202.762" x2="315.696" y2="186.312" gradientUnits="userSpaceOnUse">
<stop stop-color="#BCCACE"/>
<stop offset="1" stop-color="#BCCACE" stop-opacity="0"/>
</linearGradient>
<linearGradient id="paint33_linear_1360_199" x1="199.755" y1="276.877" x2="199.454" y2="236.915" gradientUnits="userSpaceOnUse">
<stop stop-color="#7168EE"/>
<stop offset="1" stop-color="#658BFD"/>
</linearGradient>
<linearGradient id="paint34_linear_1360_199" x1="212.869" y1="265.537" x2="219.328" y2="208.695" gradientUnits="userSpaceOnUse">
<stop stop-color="#7168EE"/>
<stop offset="1" stop-color="#658BFD"/>
</linearGradient>
<linearGradient id="paint35_linear_1360_199" x1="220.063" y1="298.67" x2="224.872" y2="259.002" gradientUnits="userSpaceOnUse">
<stop stop-color="#7168EE"/>
<stop offset="1" stop-color="#658BFD"/>
</linearGradient>
<linearGradient id="paint36_linear_1360_199" x1="227.279" y1="299.544" x2="232.088" y2="259.877" gradientUnits="userSpaceOnUse">
<stop stop-color="#7168EE"/>
<stop offset="1" stop-color="#658BFD"/>
</linearGradient>
<linearGradient id="paint37_linear_1360_199" x1="248.504" y1="302.117" x2="253.313" y2="262.45" gradientUnits="userSpaceOnUse">
<stop stop-color="#7168EE"/>
<stop offset="1" stop-color="#658BFD"/>
</linearGradient>
<linearGradient id="paint38_linear_1360_199" x1="192.746" y1="295.359" x2="197.554" y2="255.691" gradientUnits="userSpaceOnUse">
<stop stop-color="#7168EE"/>
<stop offset="1" stop-color="#658BFD"/>
</linearGradient>
<linearGradient id="paint39_linear_1360_199" x1="157.563" y1="276.877" x2="157.863" y2="236.915" gradientUnits="userSpaceOnUse">
<stop stop-color="#7168EE"/>
<stop offset="1" stop-color="#658BFD"/>
</linearGradient>
<linearGradient id="paint40_linear_1360_199" x1="144.449" y1="265.537" x2="137.989" y2="208.695" gradientUnits="userSpaceOnUse">
<stop stop-color="#7168EE"/>
<stop offset="1" stop-color="#658BFD"/>
</linearGradient>
<linearGradient id="paint41_linear_1360_199" x1="115.677" y1="271.422" x2="109.893" y2="220.527" gradientUnits="userSpaceOnUse">
<stop stop-color="#7168EE"/>
<stop offset="1" stop-color="#658BFD"/>
</linearGradient>
<linearGradient id="paint42_linear_1360_199" x1="231.201" y1="123.665" x2="105.399" y2="123.665" gradientUnits="userSpaceOnUse">
<stop stop-color="#F4BA38"/>
<stop offset="1" stop-color="#FFD349"/>
</linearGradient>
<linearGradient id="paint43_linear_1360_199" x1="137.254" y1="298.67" x2="132.445" y2="259.002" gradientUnits="userSpaceOnUse">
<stop stop-color="#7168EE"/>
<stop offset="1" stop-color="#658BFD"/>
</linearGradient>
<linearGradient id="paint44_linear_1360_199" x1="130.038" y1="299.544" x2="125.23" y2="259.877" gradientUnits="userSpaceOnUse">
<stop stop-color="#7168EE"/>
<stop offset="1" stop-color="#658BFD"/>
</linearGradient>
<linearGradient id="paint45_linear_1360_199" x1="108.813" y1="302.117" x2="104.005" y2="262.45" gradientUnits="userSpaceOnUse">
<stop stop-color="#7168EE"/>
<stop offset="1" stop-color="#658BFD"/>
</linearGradient>
<linearGradient id="paint46_linear_1360_199" x1="164.572" y1="295.359" x2="159.763" y2="255.691" gradientUnits="userSpaceOnUse">
<stop stop-color="#7168EE"/>
<stop offset="1" stop-color="#658BFD"/>
</linearGradient>
<linearGradient id="paint47_linear_1360_199" x1="289.752" y1="136.025" x2="139.541" y2="113.192" gradientUnits="userSpaceOnUse">
<stop stop-color="#FF911E"/>
<stop offset="1" stop-color="#FE931E" stop-opacity="0"/>
</linearGradient>
<linearGradient id="paint48_linear_1360_199" x1="86.0062" y1="300.988" x2="85.8209" y2="308.214" gradientUnits="userSpaceOnUse">
<stop stop-color="#7168EE"/>
<stop offset="1" stop-color="#658BFD"/>
</linearGradient>
<linearGradient id="paint49_linear_1360_199" x1="70.33" y1="300.587" x2="70.1448" y2="307.812" gradientUnits="userSpaceOnUse">
<stop stop-color="#7168EE"/>
<stop offset="1" stop-color="#7168EE"/>
</linearGradient>
<linearGradient id="paint50_linear_1360_199" x1="73.6573" y1="214.589" x2="72.1648" y2="298.665" gradientUnits="userSpaceOnUse">
<stop stop-color="#24247F"/>
<stop offset="1" stop-color="#2D2D96"/>
</linearGradient>
<linearGradient id="paint51_linear_1360_199" x1="60.2444" y1="214.84" x2="80.7479" y2="316.369" gradientUnits="userSpaceOnUse">
<stop stop-color="#242463"/>
<stop offset="1" stop-color="#242463" stop-opacity="0"/>
</linearGradient>
<linearGradient id="paint52_linear_1360_199" x1="90.1887" y1="215" x2="81.6653" y2="162.377" gradientUnits="userSpaceOnUse">
<stop stop-color="#FFA322"/>
<stop offset="1" stop-color="#FCEA34"/>
</linearGradient>
<linearGradient id="paint53_linear_1360_199" x1="68.6929" y1="169.802" x2="81.0444" y2="147.322" gradientUnits="userSpaceOnUse">
<stop stop-color="#7168EE"/>
<stop offset="1" stop-color="#7168EE"/>
</linearGradient>
<linearGradient id="paint54_linear_1360_199" x1="72.9874" y1="223.34" x2="67.3057" y2="172.204" gradientUnits="userSpaceOnUse">
<stop stop-color="#F4BA38"/>
<stop offset="1" stop-color="#FFD349"/>
</linearGradient>
<linearGradient id="paint55_linear_1360_199" x1="61.996" y1="188.094" x2="77.3118" y2="207.362" gradientUnits="userSpaceOnUse">
<stop stop-color="#FF911E"/>
<stop offset="1" stop-color="#FE931E" stop-opacity="0"/>
</linearGradient>
<linearGradient id="paint56_linear_1360_199" x1="69.9812" y1="208.364" x2="57.2703" y2="219.958" gradientUnits="userSpaceOnUse">
<stop stop-color="#FF911E"/>
<stop offset="1" stop-color="#FE931E" stop-opacity="0"/>
</linearGradient>
<linearGradient id="paint57_linear_1360_199" x1="66.3856" y1="205.646" x2="70.1603" y2="215.764" gradientUnits="userSpaceOnUse">
<stop stop-color="#7168EE"/>
<stop offset="1" stop-color="#658BFD"/>
</linearGradient>
<linearGradient id="paint58_linear_1360_199" x1="62.6116" y1="172.231" x2="57.1769" y2="204.592" gradientUnits="userSpaceOnUse">
<stop stop-color="#F4BA38"/>
<stop offset="1" stop-color="#FFD349"/>
</linearGradient>
<linearGradient id="paint59_linear_1360_199" x1="88.9445" y1="205.055" x2="83.1151" y2="140.543" gradientUnits="userSpaceOnUse">
<stop stop-color="#FF911E"/>
<stop offset="1" stop-color="#FE931E" stop-opacity="0"/>
</linearGradient>
<linearGradient id="paint60_linear_1360_199" x1="82.0477" y1="163.941" x2="90.3536" y2="160.704" gradientUnits="userSpaceOnUse">
<stop stop-color="#7168EE"/>
<stop offset="1" stop-color="#7168EE"/>
</linearGradient>
<linearGradient id="paint61_linear_1360_199" x1="92.0959" y1="206.206" x2="88.3907" y2="171.006" gradientUnits="userSpaceOnUse">
<stop stop-color="#F4BA38"/>
<stop offset="1" stop-color="#FFD349"/>
</linearGradient>
<linearGradient id="paint62_linear_1360_199" x1="187.635" y1="139.246" x2="187.833" y2="139.673" gradientUnits="userSpaceOnUse">
<stop stop-color="#F9A82C"/>
<stop offset="0.9961" stop-color="#FAA72C" stop-opacity="0"/>
</linearGradient>
<linearGradient id="paint63_linear_1360_199" x1="273.647" y1="140.832" x2="227.504" y2="173.848" gradientUnits="userSpaceOnUse">
<stop stop-color="#546AEA"/>
<stop offset="1" stop-color="#658BFD"/>
</linearGradient>
<linearGradient id="paint64_linear_1360_199" x1="197.451" y1="139.446" x2="197.649" y2="139.874" gradientUnits="userSpaceOnUse">
<stop stop-color="#F9A82C"/>
<stop offset="0.9961" stop-color="#FAA72C" stop-opacity="0"/>
</linearGradient>
<linearGradient id="paint65_linear_1360_199" x1="240.274" y1="129.968" x2="273.756" y2="202.247" gradientUnits="userSpaceOnUse">
<stop stop-color="#4864D8"/>
<stop offset="0.9961" stop-color="#4864D8" stop-opacity="0"/>
</linearGradient>
<linearGradient id="paint66_linear_1360_199" x1="252.354" y1="122.298" x2="239.483" y2="167.566" gradientUnits="userSpaceOnUse">
<stop stop-color="#546AEA"/>
<stop offset="1" stop-color="#658BFD"/>
</linearGradient>
<linearGradient id="paint67_linear_1360_199" x1="197.451" y1="139.246" x2="197.649" y2="139.673" gradientUnits="userSpaceOnUse">
<stop stop-color="#F9A82C"/>
<stop offset="0.9961" stop-color="#FAA72C" stop-opacity="0"/>
</linearGradient>
<linearGradient id="paint68_linear_1360_199" x1="263.832" y1="140.631" x2="217.688" y2="173.648" gradientUnits="userSpaceOnUse">
<stop stop-color="#FCEA45"/>
<stop offset="1" stop-color="#F9C53F"/>
</linearGradient>
<linearGradient id="paint69_linear_1360_199" x1="187.635" y1="139.246" x2="187.833" y2="139.673" gradientUnits="userSpaceOnUse">
<stop stop-color="#F9A82C"/>
<stop offset="0.9961" stop-color="#FAA72C" stop-opacity="0"/>
</linearGradient>
<linearGradient id="paint70_linear_1360_199" x1="230.458" y1="129.768" x2="263.94" y2="202.047" gradientUnits="userSpaceOnUse">
<stop stop-color="#F9A82C"/>
<stop offset="0.9961" stop-color="#FAA72C" stop-opacity="0"/>
</linearGradient>
<linearGradient id="paint71_linear_1360_199" x1="242.538" y1="122.098" x2="229.668" y2="167.366" gradientUnits="userSpaceOnUse">
<stop stop-color="#FCEA45"/>
<stop offset="1" stop-color="#F9C53F"/>
</linearGradient>
<linearGradient id="paint72_linear_1360_199" x1="366.418" y1="19.3981" x2="395.064" y2="19.3981" gradientUnits="userSpaceOnUse">
<stop stop-color="#546AEA"/>
<stop offset="1" stop-color="#658BFD"/>
</linearGradient>
<linearGradient id="paint73_linear_1360_199" x1="68.6806" y1="32.8756" x2="58.9841" y2="5.92029" gradientUnits="userSpaceOnUse">
<stop stop-color="#546AEA"/>
<stop offset="1" stop-color="#658BFD"/>
</linearGradient>
<clipPath id="clip0_1360_199">
<rect width="500" height="339" fill="white"/>
</clipPath>
</defs>
</svg>
