<svg width="500" height="371" viewBox="0 0 500 371" fill="none" xmlns="http://www.w3.org/2000/svg">
<g opacity="0.5">
<path opacity="0.5" d="M448.71 360.261C459.386 369.303 40.6126 369.303 51.2917 360.26C40.6136 351.22 459.387 351.22 448.71 360.261Z" fill="#FFD86C"/>
<g opacity="0.3">
<path opacity="0.8" d="M432.761 178.557C428.684 416.652 71.3501 416.614 67.3083 178.55C71.3852 -59.5367 428.719 -59.4991 432.761 178.557Z" fill="#FFD86C"/>
<path opacity="0.6" d="M214.124 253.269C211.735 392.771 2.36788 392.749 0 253.264C2.38857 113.766 211.755 113.788 214.124 253.269Z" fill="#FFD86C"/>
<path opacity="0.6" d="M285.876 253.269C288.265 392.771 497.632 392.749 500 253.264C497.611 113.766 288.244 113.788 285.876 253.269Z" fill="#FFD86C"/>
<path opacity="0.5" d="M353.296 145.214C354.933 240.792 498.378 240.777 500 145.211C498.364 49.6357 354.919 49.6511 353.296 145.214Z" fill="#FFD86C"/>
<path opacity="0.5" d="M146.704 145.214C145.067 240.792 1.62238 240.777 0 145.211C1.63634 49.6357 145.081 49.6511 146.704 145.214Z" fill="#FFD86C"/>
</g>
</g>
<g opacity="0.8">
<g opacity="0.8">
<path d="M400.527 306.92C402.686 292.031 414.446 281.122 428.67 277.32C455.263 269.626 457.745 249.942 461.291 259.784C464.837 269.625 457.391 280.255 463.773 287.946C470.156 295.637 465.08 310.049 454.852 313.212C444.625 316.376 408.008 340.447 408.008 359.695C408.008 359.695 380.469 359.695 380.446 359.695C379.036 359.695 379.034 349.169 379.092 348.382C379.643 331.648 396.573 322.351 400.527 306.92Z" fill="#7168EE"/>
<g opacity="0.8">
<path d="M420.441 319.411C419.863 309.939 424.287 300.448 431.41 294.23C435.472 290.668 440.001 288.074 443.938 284.616C447.032 282.073 450.52 279.629 452.276 275.915C450.861 280.492 446.759 283.504 443.44 286.694C431.927 295.406 421.441 303.786 420.441 319.411Z" fill="white"/>
</g>
</g>
<path d="M498.393 324.141C494.568 336.027 484.147 342.641 472.283 345.246C438.545 352.652 422.75 357.328 417.504 359.002C415.058 360.359 388.949 359.448 385.764 359.695C394.903 338.563 393.624 302.144 440.133 305.262C471.334 311.104 483.154 288.414 490.72 281.948C492.322 280.578 498.423 274.767 499.377 279.397C496.186 294.328 502.725 309.238 498.393 324.141Z" fill="#7168EE"/>
<path d="M486.821 305.479C480.794 328.183 452.719 328.593 433.535 330.359C421.759 331.752 409.646 338.76 406.685 350.935C408.235 338.068 420.767 329.884 432.794 328.16C451.816 325.695 478.59 326.84 486.821 305.479Z" fill="#7168EE"/>
<path opacity="0.8" d="M486.821 305.479C480.794 328.183 452.719 328.593 433.535 330.359C421.759 331.752 409.646 338.76 406.685 350.935C408.235 338.068 420.767 329.884 432.794 328.16C451.816 325.695 478.59 326.84 486.821 305.479Z" fill="white"/>
<g opacity="0.8">
<path d="M99.4726 306.92C97.3131 292.031 85.5531 281.122 71.3299 277.32C44.7365 269.626 42.2546 249.942 38.7085 259.784C35.1625 269.626 42.6088 280.255 36.2266 287.946C29.8439 295.637 34.9199 310.049 45.147 313.212C55.3742 316.376 91.9911 340.447 91.9911 359.695C91.9911 359.695 119.53 359.695 119.554 359.695C120.964 359.695 120.965 349.169 120.908 348.382C120.357 331.648 103.427 322.351 99.4726 306.92Z" fill="#7168EE"/>
<g opacity="0.8">
<path d="M79.5584 319.411C80.1364 309.939 75.713 300.448 68.5891 294.23C64.5272 290.668 59.9988 288.074 56.062 284.616C52.9674 282.073 49.4791 279.629 47.7234 275.915C49.1388 280.492 53.2403 283.504 56.5596 286.694C68.0722 295.406 78.5583 303.786 79.5584 319.411Z" fill="white"/>
</g>
</g>
<path d="M1.60748 324.141C5.43266 336.027 15.8533 342.641 27.7172 345.246C61.4552 352.652 77.2502 357.328 82.4966 359.002C84.9424 360.359 111.051 359.448 114.236 359.695C105.097 338.563 106.377 302.144 59.8674 305.262C28.6658 311.104 16.8466 288.414 9.28046 281.948C7.67829 280.578 1.57667 274.767 0.622784 279.397C3.81365 294.328 -2.72545 309.238 1.60748 324.141Z" fill="#7168EE"/>
<path d="M13.1787 305.479C19.2057 328.183 47.28 328.593 66.4647 330.359C78.2405 331.752 90.3533 338.76 93.3151 350.935C91.7649 338.068 79.2329 329.884 67.2054 328.16C48.1839 325.695 21.41 326.84 13.1787 305.479Z" fill="#7168EE"/>
<path opacity="0.8" d="M13.1787 305.479C19.2057 328.183 47.28 328.593 66.4647 330.359C78.2405 331.752 90.3533 338.76 93.3151 350.935C91.7649 338.068 79.2329 329.884 67.2054 328.16C48.1839 325.695 21.41 326.84 13.1787 305.479Z" fill="white"/>
</g>
<g opacity="0.8">
<g opacity="0.5">
<g opacity="0.8">
<path d="M63.582 229.819C61.5871 229.234 63.84 227.542 64.6384 226.406C73.0266 216.521 84.3587 203.642 93.528 193.037C90.1903 196.401 86.5081 200.131 82.9924 203.692C58.8212 228.176 58.6042 228.177 57.9602 228.181C56.9004 228.109 57.0222 226.963 57.6474 226.409C68.2167 213.974 82.7907 198.06 93.9313 185.232C84.1412 195.094 70.6279 208.981 61.333 218.279C51.8283 227.331 52.9694 227.309 51.1843 226.795C50.5529 226.169 51.0101 225.625 52.9338 223.333C63.5353 210.987 78.7152 194.53 90.1802 181.546C80.8487 190.721 44.5268 228.148 47.3572 224.029C47.143 224.032 46.9298 223.945 46.7792 223.796C46.1526 223.175 46.5366 222.722 48.6677 220.21C59.083 208.169 73.5685 192.441 84.8871 179.742C81.1818 183.481 77.0712 187.65 73.1493 191.629C45.7165 219.456 44.161 220.785 43.3809 220.79C41.7754 220.22 42.4034 219.723 44.7371 216.914C55.3801 204.627 70.2169 188.498 81.7454 175.562C76.2574 181.046 69.7082 187.643 63.8183 193.576C40.2521 217.314 40.178 217.315 39.601 217.317C39.3916 217.334 39.1798 217.233 39.0292 217.084C38.198 215.539 40.7401 214.008 41.875 212.223C50.5707 202.038 62.0929 189.354 72.0592 178.236C64.1634 185.906 41.0968 210.383 36.5415 213.075C36.3288 213.075 36.1045 212.985 35.9538 212.836C35.1982 211.582 36.8221 210.846 37.594 209.618C48.2918 197.317 63.594 180.633 74.9526 167.794C70.472 172.306 65.1678 177.702 60.1563 182.801C35.7349 207.645 34.4301 208.751 33.6726 208.756C32.0868 208.22 32.7197 207.654 34.8681 205.049C44.5182 193.786 57.8673 179.153 68.4058 167.229C64.2721 171.37 59.5672 176.106 55.0947 180.608C31.6214 204.238 31.5324 204.238 30.9519 204.24C29.6304 203.841 29.8874 203.321 31.4255 201.571C41.4183 190.023 55.1106 174.791 65.3449 162.932C60.3026 167.723 29.3358 199.719 30.4832 197.545C30.2705 197.546 30.063 197.462 29.9129 197.313C29.1404 196.099 30.8648 195.217 31.632 193.944C38.9219 185.152 48.5681 174.002 56.7435 164.403C54.096 167.084 51.2796 169.95 48.6706 172.606C29.8272 191.288 31.2547 191.252 29.2655 190.74C28.2794 189.395 32.2937 186.08 33.7477 183.788C38.1841 178.293 44.715 170.362 49.6938 164.261C24.061 191.076 27.3169 184.795 40.1949 166.459C37.7158 168.951 37.658 168.951 37.3192 168.953C36.5482 168.979 36.2142 167.896 36.8851 167.498C37.2672 167.163 39.3632 165.048 40.9062 163.491C44.6202 159.744 44.6202 159.744 45.0076 159.742C47.0968 160.38 44.4229 162.595 43.6716 164.147C41.3191 167.66 37.748 172.857 35.1381 176.725C38.8391 173.248 59.714 151.345 58.4882 153.62C59.8415 154.019 59.4979 154.587 58.0257 156.448C52.0574 164.008 44.0196 173.638 37.4805 181.704C40.5558 178.602 44.1384 174.955 47.5285 171.504C66.4976 152.195 66.6906 152.194 67.3297 152.189C68.3558 152.253 68.286 153.369 67.6685 153.91C60.0172 163.18 49.9498 174.708 41.5535 184.626C99.0699 125.631 68.6734 162.62 44.9114 188.601C47.8505 185.649 50.962 182.517 53.9589 179.5C79.3977 153.892 79.5378 153.892 80.1268 153.889C81.7069 154.439 81.0528 155.002 78.8784 157.65C69.0098 169.177 55.2574 184.243 44.5297 196.391C48.9459 191.942 54.1196 186.678 59.0147 181.699C83.3841 156.908 84.6864 155.803 85.4411 155.799C87.0702 156.416 86.4965 156.781 83.8245 160.049C73.491 172.076 59.237 187.627 47.8317 200.422C54.1076 194.342 92.3527 154.977 89.5714 158.883C89.7851 158.881 89.9949 158.966 90.1456 159.115C90.8819 160.215 89.5348 160.776 88.9087 161.76C77.5053 174.7 62.3278 191.295 50.4547 204.77C54.1836 201.029 58.4598 196.722 62.6815 192.469C93.5256 161.913 92.0943 161.945 94.1281 162.462C94.7562 163.085 94.3582 163.553 92.1486 166.153C81.344 178.635 66.1973 195.095 54.5268 208.197C59.856 202.853 66.2608 196.356 72.0087 190.526C96.2915 165.894 96.4667 165.893 97.1183 165.889C97.3349 165.893 97.5476 165.975 97.6977 166.124C98.3326 166.754 97.8821 167.286 95.7159 169.844C85.4955 181.687 71.4903 196.899 60.227 209.514C63.7004 206.014 67.4876 202.183 71.1135 198.515C98.0231 171.293 99.4284 170.081 100.149 170.077C101.773 170.637 101.07 171.26 98.77 174.09C88.2912 186.363 73.5468 202.354 62.1305 215.23C72.1588 205.328 105.46 170.621 103.497 174.118C103.712 174.115 103.933 174.204 104.084 174.354C104.698 174.962 104.406 175.392 101.83 178.484C92.8229 189.129 80.9508 202.271 70.7083 213.859C82.4885 202.156 105.894 177.738 104.917 180.013C106.023 180.149 105.869 181.171 105.136 181.891C96.4657 192.282 85.2269 204.927 75.6457 216.038C77.7561 213.904 79.9521 211.678 82.077 209.525C105.072 186.036 107.273 184.04 106.042 188.189C98.45 197.565 88.308 209.295 79.9959 219.261C84.5377 214.883 108.106 190.392 106.439 193.048C106.652 193.046 106.86 193.131 107.01 193.28C107.741 194.356 106.386 195.045 105.791 196.097C100.831 202.454 94.3736 210.403 88.7224 217.452C104.411 201.597 105.829 199.924 105.38 203.229C103.967 204.234 95.9214 212.474 89.5603 218.859C80.1904 228.315 80.2005 228.311 79.7466 228.314C78.5097 227.94 78.6628 227.49 80.0306 225.801C85.3458 219.051 92.3999 210.382 98.2031 203.115C96.7785 204.557 95.2817 206.074 93.797 207.578C72.1646 229.499 71.9264 229.5 71.2892 229.504C71.0851 229.508 70.8575 229.417 70.7073 229.268C70.0836 228.649 70.0836 228.649 76.3426 221.152C82.012 214.362 90.2991 204.588 96.56 197.145C92.447 201.272 87.5895 206.195 83.2157 210.629C64.2861 229.816 64.1793 229.816 63.5858 229.82C63.5849 229.819 63.5834 229.819 63.582 229.819ZM93.4255 213.128C93.527 213.228 93.6411 213.29 93.7551 213.324C93.6348 213.287 93.5212 213.223 93.4255 213.128ZM26.4847 177.271C26.6878 177.271 26.8904 177.347 27.0459 177.5C26.7725 177.231 26.3827 177.219 26.1233 177.357C26.2369 177.299 26.3606 177.271 26.4847 177.271Z" fill="#DDA528"/>
</g>
<g opacity="0.8">
<path d="M266.779 90.3589C265.316 89.9291 266.968 88.6879 267.555 87.8538C273.71 80.6005 282.026 71.1492 288.754 63.368C286.305 65.8364 283.603 68.5734 281.023 71.1868C263.286 89.1533 263.126 89.1543 262.654 89.1567C261.877 89.1042 261.965 88.2629 262.424 87.8562C270.18 78.7312 280.875 67.0536 289.049 57.6408C281.056 65.3152 265.018 82.9689 258.111 88.3149C256.94 87.9246 257.435 87.4515 258.965 85.5991C266.744 76.5395 277.883 64.4633 286.297 54.9355C279.449 61.6681 252.796 89.1326 254.873 86.1097C254.716 86.1111 254.559 86.0481 254.449 85.9388C253.668 84.7337 258.208 80.9764 259.872 78.6894C266.184 71.5857 275.62 61.2061 282.413 53.6115C231.173 106.193 253.15 79.701 280.107 50.5439C276.08 54.5683 271.274 59.4094 266.952 63.763C249.659 81.1824 249.604 81.1824 249.181 81.1843C249.027 81.1968 248.872 81.1227 248.762 81.0134C248.191 79.8059 249.991 78.8034 250.85 77.4462C257.231 69.9725 265.686 60.6646 272.999 52.506C267.202 58.1351 250.28 76.0991 246.933 78.0709C245.452 77.6224 247.105 76.3715 247.709 75.5341C255.559 66.5073 266.788 54.2646 275.123 44.8436C230.688 90.7324 239.132 78.5705 270.319 44.4283C223.985 91.6193 244.147 68.0859 268.073 41.2749C264.372 44.7916 241.648 68.2702 242.491 66.6743C242.334 66.6753 242.183 66.6137 242.073 66.5039C241.506 65.6131 242.771 64.9658 243.334 64.0321C248.683 57.5806 255.761 49.3984 261.761 42.3545C233.559 71.6964 237.745 64.652 256.588 42.2505C237.829 61.8967 240.191 57.2625 249.618 43.8637C247.799 45.6921 247.756 45.6921 247.508 45.6936C246.942 45.7128 246.697 44.9187 247.189 44.6261C247.784 44.2117 253.131 38.3714 253.15 38.935C255.648 38.8536 246.587 49.6891 245.908 51.3971C248.624 48.8449 263.942 32.7727 263.042 34.4423C264.035 34.7349 263.783 35.1512 262.703 36.5175C258.324 42.0647 252.425 49.1313 247.627 55.0505C249.884 52.7741 252.512 50.0982 255.001 47.5657C268.92 33.3965 269.062 33.3955 269.531 33.3926C270.283 33.4383 270.233 34.2579 269.779 34.655C264.165 41.4578 256.777 49.9172 250.616 57.1951C292.591 14.1165 270.52 41.0776 253.08 60.1116C300.706 11.546 273.138 43.6168 252.8 65.8282C256.041 62.5632 259.837 58.7005 263.429 55.0467C281.311 36.8549 282.267 36.0444 282.821 36.0406C282.978 36.0396 283.141 36.1051 283.252 36.2148C283.708 36.6672 283.489 36.9651 281.635 39.1597C274.052 47.9854 263.592 59.3969 255.223 68.7852C261.048 63.6206 286.662 35.6421 286.272 38.4734C286.902 39.6371 283.835 41.7721 282.691 43.4469C275.24 51.7947 264.861 63.2399 257.149 71.9761C309.831 18.2146 287.827 44.4153 260.137 74.4907C264.048 70.5693 268.747 65.8018 272.965 61.5232C290.784 43.4484 290.912 43.4475 291.391 43.4446C291.55 43.4475 291.706 43.5076 291.816 43.6173C292.548 44.9288 287.895 48.7733 286.137 51.1854C280.035 58.058 271.005 67.9968 264.32 75.4566C315.262 23.2593 290.636 52.6369 265.717 79.6519C304.985 38.9196 306.46 40.5804 272.011 78.6451C311.644 37.8742 298.982 54.0047 275.634 80.2449C312.842 41.9468 296.563 62.0815 278.826 82.6094C282.168 79.392 299.445 61.4269 298.233 63.3742C300.178 63.8588 296.052 67.326 295.17 68.8925C292.408 72.363 288.426 77.3038 285.229 81.283C297.131 69.627 296.065 69.6529 297.451 70.0259C298.1 71.1353 290.148 77.4169 285.844 82.3158C278.972 89.2515 278.972 89.2514 278.645 89.2529C278.489 89.2534 278.338 89.1923 278.228 89.0825C277.844 88.7018 277.998 88.5046 278.851 87.4087C282.751 82.4554 287.927 76.0938 292.186 70.7618C280.335 82.6445 272.527 90.9196 272.437 90.125C272.286 90.1293 272.12 90.0619 272.009 89.9527C271.552 89.4988 271.552 89.4988 276.144 83.9969C280.305 79.0147 286.386 71.8428 290.98 66.3807C287.962 69.4089 284.398 73.0219 281.188 76.2753C267.298 90.355 267.219 90.355 266.784 90.3574C266.781 90.3589 266.78 90.3589 266.779 90.3589ZM276.548 60.3335C276.623 60.4066 276.706 60.4523 276.79 60.4769C276.701 60.4504 276.618 60.4023 276.548 60.3335ZM227.426 34.0207C227.575 34.0207 227.724 34.077 227.838 34.1891C227.638 33.9913 227.352 33.9822 227.161 34.0837C227.244 34.0418 227.335 34.0207 227.426 34.0207Z" fill="#DDA528"/>
</g>
<g opacity="0.8">
<path d="M435.732 215.158C434.759 214.872 435.857 214.048 436.247 213.493C440.338 208.672 445.865 202.391 450.337 197.219C418.636 229.647 436.931 208.416 450.534 193.412C445.223 198.513 434.561 210.243 429.973 213.8C429.192 213.543 429.521 213.226 430.538 211.994C435.709 205.973 443.113 197.947 448.704 191.614C417.485 223.664 424.58 214.156 446.123 190.735C412.363 225.403 426.707 208.004 444.591 188.696C441.914 191.37 438.72 194.588 435.847 197.482C424.354 209.059 424.318 209.059 424.036 209.06C423.409 208.957 423.615 208.412 424.055 207.912C428.659 202.317 434.564 195.958 439.866 190C436.015 193.741 424.766 205.679 422.544 206.992C421.556 206.697 422.655 205.862 423.057 205.306C428.274 199.307 435.738 191.169 441.278 184.908C411.981 215.195 417.468 207.167 438.084 184.632C407.454 215.84 420.702 200.324 436.591 182.536C434.132 184.874 419.029 200.478 419.589 199.417C418.599 199.12 419.755 198.251 420.149 197.661C423.704 193.373 428.409 187.935 432.397 183.254C413.767 202.663 416.488 197.982 428.959 183.184C416.537 196.212 418.084 193.107 424.326 184.257C422.865 185.594 423.276 185.6 422.646 185.36C422.282 184.58 423.812 183.946 424.673 182.809C426.484 180.982 426.484 180.982 426.673 180.981C428.193 181.259 422.398 187.923 421.86 189.263C441.051 169.407 433.182 179.529 423.003 191.691C446.198 167.704 438.368 177.895 424.989 193.117C452.717 164.646 438.221 182.423 426.627 195.055C457.961 163.085 439.981 184.102 426.44 198.855C458.744 165.53 446.868 180.445 428.051 200.82C431.112 197.855 449.764 178.656 448.408 180.561C449.299 180.793 448.449 181.522 448.084 181.965C442.523 188.276 435.12 196.37 429.33 202.942C464.082 167.459 449.686 184.687 431.316 204.613C461.883 173.115 455.742 181.759 434.096 205.255C467.66 170.842 451.574 190.134 435.024 208.043C461 181.072 461.988 182.227 439.208 207.374C465.32 180.486 457.081 191.089 441.615 208.437C466.139 183.173 455.514 196.409 443.737 210.008C445.954 207.872 457.446 195.929 456.633 197.224C458.469 197.354 448.95 207.407 447.993 209.127C455.904 201.379 455.195 201.397 456.116 201.645C456.349 202.619 451.39 206.403 448.402 209.813C443.834 214.422 443.834 214.423 443.617 214.423C441.741 214.386 451.755 203.76 452.617 202.134C428.98 226.444 441.809 210.745 451.816 199.222C449.81 201.235 447.441 203.636 445.307 205.799C436.075 215.156 436.023 215.156 435.734 215.158H435.732ZM479.094 209.914C479.144 209.963 479.199 209.993 479.255 210.01C479.196 209.992 479.141 209.961 479.094 209.914ZM446.446 192.426C446.546 192.426 446.644 192.464 446.72 192.538C446.587 192.407 446.397 192.401 446.27 192.468C446.326 192.44 446.386 192.426 446.446 192.426Z" fill="#DDA528"/>
</g>
</g>
<g opacity="0.5">
<path opacity="0.5" d="M13.125 152.423C41.0896 136.086 70.6106 122.3 101.111 111.398C73.156 127.755 43.6158 141.5 13.125 152.423Z" fill="#DDA528"/>
<path opacity="0.5" d="M160.85 70.8482C189.301 55.3848 218.694 41.6636 248.835 29.8228C220.392 45.2996 190.985 58.9929 160.85 70.8482Z" fill="#DDA528"/>
<path opacity="0.5" d="M427.012 228.807C445.434 218.68 464.521 209.77 484.126 202.176C465.708 212.312 446.612 221.203 427.012 228.807Z" fill="#DDA528"/>
</g>
</g>
<path d="M369.045 230.115V338.085C363.687 335.06 275.928 285.531 273.394 284.1L369.045 230.115Z" fill="url(#paint0_linear_1362_1403)"/>
<path d="M226.675 284.1C224.552 285.299 135.971 335.292 131.024 338.085V230.115L226.675 284.1Z" fill="url(#paint1_linear_1362_1403)"/>
<path d="M226.675 284.1L226.701 284.115C224.509 285.355 136.018 335.296 131.024 338.117V338.085C136.382 335.061 224.141 285.531 226.675 284.1Z" fill="url(#paint2_linear_1362_1403)"/>
<path d="M369.045 338.085V338.117C363.644 335.066 275.944 285.572 273.367 284.115L273.393 284.1C275.516 285.299 364.097 335.293 369.045 338.085Z" fill="url(#paint3_linear_1362_1403)"/>
<g opacity="0.2">
<path d="M369.045 230.115V239.783L283.027 289.537L273.394 284.1L369.045 230.115Z" fill="url(#paint4_linear_1362_1403)"/>
<path d="M226.675 284.1L217.042 289.537L131.024 239.783V230.115L226.675 284.1Z" fill="url(#paint5_linear_1362_1403)"/>
</g>
<path d="M369.045 193.661V230.115C360.329 234.989 284.169 278.05 273.393 284.1C273.374 284.18 257.264 274.994 257.241 275.013C247.853 268.631 234.771 280.277 226.704 284.114C215.608 277.866 140.216 235.294 131.025 230.115V193.661C142.355 187.239 234.348 135.367 242.828 130.557C247.297 128.039 252.773 128.039 257.241 130.557C265.35 135.167 358.221 187.532 369.045 193.661Z" fill="url(#paint6_linear_1362_1403)"/>
<path d="M369.045 338.116C369.519 344.866 368.725 352.071 360.305 352.454H139.763C131.443 352.091 130.497 344.91 131.024 338.116C136.425 335.066 224.125 285.572 226.701 284.114C251.544 269.606 248.567 269.646 273.367 284.114C275.56 285.355 364.051 335.296 369.045 338.116Z" fill="url(#paint7_linear_1362_1403)"/>
<path opacity="0.3" d="M226.675 284.1L226.701 284.115C226.691 284.128 217.086 289.539 217.068 289.552L217.042 289.538L226.675 284.1Z" fill="url(#paint8_linear_1362_1403)"/>
<path opacity="0.3" d="M283.027 289.538L283.001 289.552C282.974 289.535 273.39 284.134 273.367 284.115L273.393 284.1L283.027 289.538Z" fill="url(#paint9_linear_1362_1403)"/>
<path d="M353.332 204.089V238.983C327.149 253.751 299.5 269.374 273.364 284.114C247.293 269.383 252.726 269.429 226.704 284.115C200.583 269.382 172.898 253.743 146.737 238.983V204.089C146.737 200.898 149.344 198.313 152.563 198.313H347.506C350.725 198.313 353.332 200.898 353.332 204.089Z" fill="#FFE7BD"/>
<g opacity="0.8">
<path d="M226.675 215.154H159.729V221.566H226.675V215.154Z" fill="#FFE7BD"/>
<path d="M340.64 230.115H159.428V233.321H340.64V230.115Z" fill="#FFE7BD"/>
<path d="M340.64 239.61H159.428V242.817H340.64V239.61Z" fill="#FFE7BD"/>
<path d="M335.394 249.107L329.713 252.312H170.355L164.675 249.107H335.394Z" fill="#FFE7BD"/>
<path d="M318.571 258.602L312.891 261.807H187.178L181.497 258.602H318.571Z" fill="#FFE7BD"/>
<path d="M301.749 268.096L296.065 271.304H204.003L198.32 268.096H301.749Z" fill="#FFE7BD"/>
<path d="M215.148 277.594H238.254L232.577 280.799H220.826L215.148 277.594Z" fill="#FFE7BD"/>
<path d="M284.92 277.594L279.243 280.799H267.492L261.814 277.594H284.92Z" fill="#FFE7BD"/>
</g>
<g opacity="0.5">
<path opacity="0.5" d="M264.557 285.624C277.419 331.554 276.319 366.552 217.806 356.499C217.809 356.497 264.557 285.624 264.557 285.624Z" fill="url(#paint10_linear_1362_1403)"/>
<path opacity="0.5" d="M268.087 249.58C268.087 249.58 278.747 259.811 264.866 283.776C256.878 297.567 243.536 258.292 243.536 258.292L268.087 249.58Z" fill="url(#paint11_linear_1362_1403)"/>
</g>
<path d="M300.997 264.964C317.166 246.59 272.25 252.102 261.955 242.339C254.169 234.543 245.169 224.215 234.027 234.483C221.748 244.875 231.561 257.274 235.958 265.46C229.181 280.593 234.854 295.699 251.958 289.738C258.898 287.345 266.361 283.533 273.337 287.154C280.65 292.291 288.2 294.749 297.256 292.762C301.802 291.935 307.46 289.336 304.431 284.674C298.455 275.478 288.752 277.595 300.997 264.964Z" fill="url(#paint12_linear_1362_1403)"/>
<path d="M242.824 253.996C242.824 253.996 242.621 266.247 238.62 267.288C238.62 267.288 243.755 274.348 250.994 265.823C250.994 265.823 250.581 259.317 252.421 254.486L242.824 253.996Z" fill="url(#paint13_linear_1362_1403)"/>
<path d="M161.725 338.781C161.725 338.781 154.949 339.3 151.139 335.041C148.324 339.65 163.365 349.948 168.525 350.149C171.527 342.776 168.699 340.126 161.725 338.781Z" fill="url(#paint14_linear_1362_1403)"/>
<path d="M164.413 335.319C164.413 335.319 162.95 337.729 162.156 338.898C161.807 339.411 166.269 342.738 169.261 342.567L170.301 339.226L166.669 334.704L164.413 335.319Z" fill="url(#paint15_linear_1362_1403)"/>
<path d="M163.398 337.07C163.398 337.07 165.221 340.309 170.057 340.012C170.057 340.012 179.623 326.053 186.232 311.649C194.694 321.758 200.45 331.888 210.526 338.104C216.073 341.057 222.088 341.82 224.949 342.019C233.526 345.041 242.972 332.601 243.537 331.537L240.909 321.774L239.887 321.644L220.533 319.198C214.904 313.366 208.901 307.658 202.694 302.366C196.776 298.379 190.228 288.697 182.496 290.167C174.777 291.863 168.297 330.065 163.398 337.07Z" fill="url(#paint16_linear_1362_1403)"/>
<path d="M125.788 357.354C125.788 357.354 120.709 352.876 121.16 347.202C115.876 348.359 118.794 366.248 122.247 370.095C129.577 367.158 129.727 363.372 125.788 357.354Z" fill="url(#paint17_linear_1362_1403)"/>
<path d="M130.168 356.871C130.168 356.871 127.402 357.499 126.002 357.742C125.388 357.849 126.066 363.343 128.266 365.36L131.415 363.785L132.18 358.054L130.168 356.871Z" fill="url(#paint18_linear_1362_1403)"/>
<path d="M131.416 363.783C131.554 364.474 168.149 362.257 183.83 355.751C204.249 354.989 229.472 361.71 246.119 346.854C253.469 340.942 254.622 331.794 251.581 323.281L242.186 319.365C240.912 320.629 229.248 332.188 227.659 333.763C196.601 335.801 148.153 352.801 130.17 356.87C130.169 356.87 128.416 360.015 131.416 363.783Z" fill="url(#paint19_linear_1362_1403)"/>
<path d="M231.363 270.517C214.777 296.314 211.549 289.325 225.757 319.366L231.363 270.517Z" fill="url(#paint20_linear_1362_1403)"/>
<path d="M261.529 292.163C259.1 302.857 255.467 313.493 251.448 323.61C251.433 323.63 251.419 323.67 251.415 323.684C239.963 327.265 223.014 320.648 223.593 319.712C227.468 305.584 223.263 286.283 230.385 272.327C232.195 267.32 238.117 268 241.345 264.533C241.172 264.838 239.33 268.204 242.634 268.613C248.275 269.092 251.09 265.713 251.09 265.713C255.436 266.163 263.183 273.833 263.183 273.833C263.981 278.704 263.084 285.193 261.529 292.163Z" fill="url(#paint21_linear_1362_1403)"/>
<path opacity="0.3" d="M230.321 291.83C230.372 291.849 230.552 291.922 230.846 292.032C230.628 291.965 230.451 291.897 230.321 291.83Z" fill="url(#paint22_linear_1362_1403)"/>
<path opacity="0.5" d="M260.738 295.499C258.322 305.057 255.043 314.609 251.416 323.684C239.973 327.264 223.005 320.644 223.593 319.71C241.027 325.416 252.785 322.594 251.787 316.543C246.815 311.3 230.843 307.872 225.183 307.087L225.324 305.966C225.438 305.928 238.254 301.348 238.369 301.308C240.366 301.335 255.441 305.949 254.365 303.646C253.946 297.068 236.034 301.75 229.907 294.998C229.907 294.998 241.249 298.408 248.596 298.05C255.941 297.694 254.21 285.877 254.916 284.455C256.227 282.821 255.661 296.304 260.781 294.226C260.781 294.226 260.777 294.685 260.738 295.499Z" fill="url(#paint23_linear_1362_1403)"/>
<path d="M221.337 282.397L221.056 282.622C221.134 282.528 221.23 282.451 221.337 282.397Z" fill="url(#paint24_linear_1362_1403)"/>
<path d="M235.004 303.425C234.986 303.446 234.34 304.217 234.322 304.239C234.543 303.986 234.448 303.518 234.424 303.2L233.081 287.936C233.7 286.94 223.577 286.358 223.351 286.102C223.132 286.1 222.793 285.954 222.595 286.107C222.871 285.883 223.157 285.137 223.586 285.2L233.327 286.517C234.142 286.274 235.248 303.429 235.004 303.425Z" fill="url(#paint25_linear_1362_1403)"/>
<path d="M234.322 304.239C234.53 304.825 225.14 303.144 225.014 303.239C224.787 303.208 224.603 302.99 224.563 302.703C224.877 302.245 221.271 285.594 222.883 286.039C222.949 286.016 223.275 286.114 223.35 286.102L232.624 287.356C232.866 287.388 233.054 287.629 233.081 287.936L234.423 303.2C234.444 303.513 234.545 303.988 234.322 304.239Z" fill="url(#paint26_linear_1362_1403)"/>
<path opacity="0.6" d="M233.238 303.63C233.192 303.677 233.132 303.707 233.063 303.712L233.238 303.63Z" fill="url(#paint27_linear_1362_1403)"/>
<path opacity="0.6" d="M234.461 303.887C234.428 304.188 234.19 304.49 233.881 304.45C233.629 304.207 224.024 303.616 224.564 302.703C224.799 302.299 221.468 285.734 222.773 286.037C222.693 286.317 225.04 301.861 225.031 302.141C225.074 302.43 225.257 302.645 225.482 302.678C228.001 303.002 231.963 303.595 234.461 303.887Z" fill="url(#paint28_linear_1362_1403)"/>
<path d="M232.795 305.7C232.836 305.711 232.858 305.72 232.858 305.72C232.851 305.719 232.846 305.722 232.838 305.721C233.717 306.132 234.602 306.533 235.487 306.927C235.541 303.181 238.26 301.378 238.368 301.308C237.424 301.044 236.626 300.827 236.022 300.672C235.06 299.602 235.171 298.216 234.556 296.97C233.893 295.927 234.817 295.076 234.65 294.738C234.482 294.402 234.332 294.403 233.719 294.983C232.992 295.136 233.37 300.694 231.332 298.982L229.602 296.965C229.602 296.965 229.072 295.455 228.631 294.08C225.862 289.144 228.351 298.661 229.197 299.169C228.075 298.642 227.984 298.151 226.491 296.344C222.207 292.669 227.756 300.658 228.741 300.9C227.652 300.559 227.442 300.042 225.765 298.501C221.498 295.646 226.448 301.407 227.756 302.119C227.342 301.91 226.846 301.625 226.38 301.278C221.38 298.927 229.223 305.349 229.848 304.916C230.709 304.952 231.901 305.603 232.835 305.721C232.821 305.713 232.809 305.708 232.795 305.7Z" fill="url(#paint29_linear_1362_1403)"/>
<path d="M232.795 305.7C232.817 305.71 232.833 305.726 232.858 305.72C232.858 305.72 232.836 305.712 232.795 305.7Z" fill="url(#paint30_linear_1362_1403)"/>
<path d="M232.795 305.7C232.817 305.71 232.833 305.726 232.858 305.72C232.858 305.72 232.836 305.712 232.795 305.7Z" fill="url(#paint31_linear_1362_1403)"/>
<path d="M264.866 308.945C264.045 314.807 262.509 316.978 256.955 315.365C249.524 312.981 242.572 309.973 235.487 306.929C235.54 303.182 238.26 301.379 238.369 301.308C246.424 303.524 257.254 306.768 264.866 308.945Z" fill="url(#paint32_linear_1362_1403)"/>
<path d="M264.816 308.939C264.562 310.857 264.159 312.933 263.085 314.615L256.083 311.398C256.998 304.767 254.587 298.143 254.403 291.524C254.174 286.819 254.959 281.765 256.033 277.159C256.295 275.746 259.598 269.423 263.034 273.671C269.836 281.985 265.559 298.781 264.816 308.939Z" fill="url(#paint33_linear_1362_1403)"/>
<path opacity="0.5" d="M207.996 336.568C206.539 336.83 205.036 337.116 203.48 337.422C210.058 338.121 226.075 332.752 228.882 330.472C218.211 335.046 202.394 331.425 202.394 331.425C204.514 333.692 205.797 335.034 207.996 336.568Z" fill="url(#paint34_linear_1362_1403)"/>
<path d="M232.364 246.468C236.237 252.003 232.226 261.521 242.521 265.319C244.892 264.413 255.438 260.593 253.559 251.384C253.595 249.705 255.791 248.408 254.209 246.006C252.627 243.604 251.77 245.551 251.77 245.551C251.77 245.551 251.081 243.582 250.364 241.962C249.646 240.342 232.364 246.468 232.364 246.468Z" fill="url(#paint35_linear_1362_1403)"/>
<path d="M231.326 242.144C224.32 229.273 247.404 227.036 254.77 238.686L253.864 238.936L255.009 244.426C251.754 248.09 242.874 253.257 235.947 247.275C235.58 248.591 234.694 250.173 232.556 250.622C232.556 250.622 230.703 246.546 231.326 242.144Z" fill="url(#paint36_linear_1362_1403)"/>
<path opacity="0.5" d="M354.156 93.0872C330.157 92.7874 311.561 113.554 324.773 132.356L311.626 150.766L332.066 139.297C379.064 167.276 418.642 99.7731 354.156 93.0872Z" fill="#F4BF3B"/>
<g opacity="0.6">
<path d="M358.761 120.27C358.854 126.541 348.915 126.541 349.009 120.269C348.916 113.998 358.855 113.998 358.761 120.27Z" fill="white"/>
<path d="M374.701 120.27C374.794 126.541 364.855 126.541 364.948 120.269C364.856 113.998 374.794 113.998 374.701 120.27Z" fill="white"/>
<path d="M333.069 120.27C332.976 126.541 342.915 126.541 342.821 120.269C342.914 113.998 332.975 113.998 333.069 120.27Z" fill="white"/>
</g>
<path opacity="0.5" d="M145.31 126.631C160.775 126.438 172.757 139.819 164.243 151.934L172.715 163.797L159.544 156.407C129.26 174.436 103.758 130.939 145.31 126.631Z" fill="#F4BF3B"/>
<g opacity="0.6">
<path d="M142.343 144.146C142.283 148.188 148.688 148.188 148.627 144.146C148.687 140.105 142.283 140.105 142.343 144.146Z" fill="white"/>
<path d="M132.072 144.146C132.012 148.188 138.417 148.188 138.356 144.146C138.416 140.105 132.012 140.105 132.072 144.146Z" fill="white"/>
<path d="M158.898 144.146C158.958 148.188 152.554 148.188 152.614 144.146C152.554 140.105 158.958 140.105 158.898 144.146Z" fill="white"/>
</g>
<defs>
<linearGradient id="paint0_linear_1362_1403" x1="321.219" y1="294.24" x2="321.219" y2="225.004" gradientUnits="userSpaceOnUse">
<stop stop-color="#FFCF5C"/>
<stop offset="1" stop-color="#FFB300"/>
</linearGradient>
<linearGradient id="paint1_linear_1362_1403" x1="178.85" y1="294.24" x2="178.85" y2="225.004" gradientUnits="userSpaceOnUse">
<stop stop-color="#FFCF5C"/>
<stop offset="1" stop-color="#FFB300"/>
</linearGradient>
<linearGradient id="paint2_linear_1362_1403" x1="178.863" y1="362.105" x2="178.863" y2="292.598" gradientUnits="userSpaceOnUse">
<stop stop-color="#FFCF5C"/>
<stop offset="1" stop-color="#FFB52E"/>
</linearGradient>
<linearGradient id="paint3_linear_1362_1403" x1="321.206" y1="362.105" x2="321.206" y2="292.598" gradientUnits="userSpaceOnUse">
<stop stop-color="#FFCF5C"/>
<stop offset="1" stop-color="#FFB52E"/>
</linearGradient>
<linearGradient id="paint4_linear_1362_1403" x1="321.219" y1="315.926" x2="321.219" y2="239.463" gradientUnits="userSpaceOnUse">
<stop stop-color="#FFCF5C"/>
<stop offset="1" stop-color="#FFB300"/>
</linearGradient>
<linearGradient id="paint5_linear_1362_1403" x1="178.85" y1="315.926" x2="178.85" y2="239.463" gradientUnits="userSpaceOnUse">
<stop stop-color="#FFCF5C"/>
<stop offset="1" stop-color="#FFB300"/>
</linearGradient>
<linearGradient id="paint6_linear_1362_1403" x1="250.372" y1="198.229" x2="244.758" y2="425.277" gradientUnits="userSpaceOnUse">
<stop stop-color="#FFCF5C"/>
<stop offset="1" stop-color="#FFB300"/>
</linearGradient>
<linearGradient id="paint7_linear_1362_1403" x1="248.127" y1="247.753" x2="249.996" y2="339.322" gradientUnits="userSpaceOnUse">
<stop stop-color="#FFCF5C"/>
<stop offset="1" stop-color="#FFB300"/>
</linearGradient>
<linearGradient id="paint8_linear_1362_1403" x1="221.872" y1="284.1" x2="221.872" y2="289.552" gradientUnits="userSpaceOnUse">
<stop stop-color="#FFCF5C"/>
<stop offset="1" stop-color="#FFB300"/>
</linearGradient>
<linearGradient id="paint9_linear_1362_1403" x1="278.197" y1="284.1" x2="278.197" y2="289.552" gradientUnits="userSpaceOnUse">
<stop stop-color="#FFCF5C"/>
<stop offset="1" stop-color="#FFB300"/>
</linearGradient>
<linearGradient id="paint10_linear_1362_1403" x1="268.675" y1="318.113" x2="228.245" y2="328.742" gradientUnits="userSpaceOnUse">
<stop stop-color="#FFCF5C"/>
<stop offset="1" stop-color="#FFB300"/>
</linearGradient>
<linearGradient id="paint11_linear_1362_1403" x1="272.076" y1="266.218" x2="254.529" y2="270.831" gradientUnits="userSpaceOnUse">
<stop stop-color="#FFCF5C"/>
<stop offset="1" stop-color="#FFB300"/>
</linearGradient>
<linearGradient id="paint12_linear_1362_1403" x1="228.035" y1="224.03" x2="268.192" y2="269.477" gradientUnits="userSpaceOnUse">
<stop stop-color="#C2728D"/>
<stop offset="1" stop-color="#11486D"/>
</linearGradient>
<linearGradient id="paint13_linear_1362_1403" x1="245.76" y1="257.772" x2="244.894" y2="269.047" gradientUnits="userSpaceOnUse">
<stop stop-color="#F0877E"/>
<stop offset="1" stop-color="#FABEB2"/>
</linearGradient>
<linearGradient id="paint14_linear_1362_1403" x1="163.284" y1="338.307" x2="156.437" y2="346.814" gradientUnits="userSpaceOnUse">
<stop stop-color="#5B00E7"/>
<stop offset="1" stop-color="#C845FF"/>
</linearGradient>
<linearGradient id="paint15_linear_1362_1403" x1="168.024" y1="333.862" x2="165.285" y2="341.982" gradientUnits="userSpaceOnUse">
<stop stop-color="#F0877E"/>
<stop offset="1" stop-color="#FABEB2"/>
</linearGradient>
<linearGradient id="paint16_linear_1362_1403" x1="238.538" y1="307.706" x2="157.173" y2="329.096" gradientUnits="userSpaceOnUse">
<stop stop-color="#E75B00"/>
<stop offset="1" stop-color="#FFA345"/>
</linearGradient>
<linearGradient id="paint17_linear_1362_1403" x1="128.398" y1="356.733" x2="116.705" y2="360.074" gradientUnits="userSpaceOnUse">
<stop stop-color="#5B00E7"/>
<stop offset="1" stop-color="#C845FF"/>
</linearGradient>
<linearGradient id="paint18_linear_1362_1403" x1="133.728" y1="358.432" x2="125.934" y2="362.116" gradientUnits="userSpaceOnUse">
<stop stop-color="#F0877E"/>
<stop offset="1" stop-color="#FABEB2"/>
</linearGradient>
<linearGradient id="paint19_linear_1362_1403" x1="248.448" y1="334.487" x2="121.629" y2="362.179" gradientUnits="userSpaceOnUse">
<stop stop-color="#E75B00"/>
<stop offset="1" stop-color="#FFA345"/>
</linearGradient>
<linearGradient id="paint20_linear_1362_1403" x1="229.178" y1="280.74" x2="217.709" y2="318.332" gradientUnits="userSpaceOnUse">
<stop stop-color="#5B00E7"/>
<stop offset="1" stop-color="#C845FF"/>
</linearGradient>
<linearGradient id="paint21_linear_1362_1403" x1="238.039" y1="326.111" x2="247.618" y2="267.581" gradientUnits="userSpaceOnUse">
<stop stop-color="#5B00E7"/>
<stop offset="1" stop-color="#C845FF"/>
</linearGradient>
<linearGradient id="paint22_linear_1362_1403" x1="230.589" y1="292.096" x2="230.581" y2="291.878" gradientUnits="userSpaceOnUse">
<stop stop-color="#E75B00"/>
<stop offset="1" stop-color="#FFA345"/>
</linearGradient>
<linearGradient id="paint23_linear_1362_1403" x1="242.921" y1="324.8" x2="241.261" y2="284.894" gradientUnits="userSpaceOnUse">
<stop stop-color="#5B00E7"/>
<stop offset="1" stop-color="#C845FF"/>
</linearGradient>
<linearGradient id="paint24_linear_1362_1403" x1="221.255" y1="282.396" x2="221.117" y2="282.666" gradientUnits="userSpaceOnUse">
<stop stop-color="#00D1D0"/>
<stop offset="1" stop-color="#0098D0"/>
</linearGradient>
<linearGradient id="paint25_linear_1362_1403" x1="227.921" y1="281.419" x2="229.414" y2="301.898" gradientUnits="userSpaceOnUse">
<stop stop-color="#00D0FF"/>
<stop offset="1" stop-color="#7500D0"/>
</linearGradient>
<linearGradient id="paint26_linear_1362_1403" x1="229.11" y1="291.529" x2="225.05" y2="315.56" gradientUnits="userSpaceOnUse">
<stop stop-color="#00D0FF"/>
<stop offset="1" stop-color="#7500D0"/>
</linearGradient>
<linearGradient id="paint27_linear_1362_1403" x1="233.157" y1="303.644" x2="233.112" y2="303.815" gradientUnits="userSpaceOnUse">
<stop stop-color="#00D1D0"/>
<stop offset="1" stop-color="#0098D0"/>
</linearGradient>
<linearGradient id="paint28_linear_1362_1403" x1="229.231" y1="292.316" x2="223.398" y2="314.558" gradientUnits="userSpaceOnUse">
<stop stop-color="#00D0FF"/>
<stop offset="1" stop-color="#7500D0"/>
</linearGradient>
<linearGradient id="paint29_linear_1362_1403" x1="239.937" y1="302.804" x2="227.798" y2="298.061" gradientUnits="userSpaceOnUse">
<stop stop-color="#F0877E"/>
<stop offset="1" stop-color="#FABEB2"/>
</linearGradient>
<linearGradient id="paint30_linear_1362_1403" x1="232.8" y1="305.662" x2="232.849" y2="305.751" gradientUnits="userSpaceOnUse">
<stop stop-color="#F0877E"/>
<stop offset="1" stop-color="#FABEB2"/>
</linearGradient>
<linearGradient id="paint31_linear_1362_1403" x1="232.566" y1="305.249" x2="232.896" y2="305.836" gradientUnits="userSpaceOnUse">
<stop stop-color="#F0877E"/>
<stop offset="1" stop-color="#FABEB2"/>
</linearGradient>
<linearGradient id="paint32_linear_1362_1403" x1="246.882" y1="327.841" x2="256.523" y2="268.933" gradientUnits="userSpaceOnUse">
<stop stop-color="#5B00E7"/>
<stop offset="1" stop-color="#C845FF"/>
</linearGradient>
<linearGradient id="paint33_linear_1362_1403" x1="254.465" y1="328.969" x2="264.081" y2="270.218" gradientUnits="userSpaceOnUse">
<stop stop-color="#5B00E7"/>
<stop offset="1" stop-color="#C845FF"/>
</linearGradient>
<linearGradient id="paint34_linear_1362_1403" x1="228.348" y1="328.442" x2="202.88" y2="335.138" gradientUnits="userSpaceOnUse">
<stop stop-color="#E75B00"/>
<stop offset="1" stop-color="#FFA345"/>
</linearGradient>
<linearGradient id="paint35_linear_1362_1403" x1="243.747" y1="237.17" x2="244.574" y2="258.686" gradientUnits="userSpaceOnUse">
<stop stop-color="#F0877E"/>
<stop offset="1" stop-color="#FABEB2"/>
</linearGradient>
<linearGradient id="paint36_linear_1362_1403" x1="224.446" y1="222.771" x2="266.101" y2="269.912" gradientUnits="userSpaceOnUse">
<stop stop-color="#C2728D"/>
<stop offset="1" stop-color="#11486D"/>
</linearGradient>
</defs>
</svg>
