<svg width="500" height="500" viewBox="0 0 500 500" fill="none" xmlns="http://www.w3.org/2000/svg">
<g clip-path="url(#clip0_1404_428)">
<path d="M500 433.243H0.00292969V500.006H500V433.243Z" fill="#CCC9F3"/>
<path d="M500 433.243H0.00292969" stroke="#7168EE" stroke-miterlimit="10" stroke-linejoin="round"/>
<path d="M419.556 171.62C439.81 173.141 457.467 157.956 458.989 137.724C460.514 117.45 445.324 99.7969 425.071 98.2739C404.827 96.7529 387.171 111.937 385.647 132.21C384.125 152.441 399.31 170.096 419.556 171.62Z" stroke="#7168EE" stroke-miterlimit="10" stroke-linejoin="round"/>
<path d="M446.564 154.308C445.695 153.705 446.598 150.912 448.578 148.067C450.557 145.22 452.865 143.404 453.731 144.008C454.597 144.612 453.697 147.406 451.716 150.25C449.737 153.095 447.431 154.909 446.564 154.308Z" fill="#CCC9F3" stroke="#7168EE" stroke-miterlimit="10" stroke-linejoin="round"/>
<path d="M438.272 153.818C437.35 153.012 438.49 150.275 440.814 147.701C443.138 145.129 445.769 143.697 446.688 144.503C447.609 145.311 446.471 148.049 444.146 150.62C441.822 153.192 439.192 154.627 438.272 153.818Z" fill="#CCC9F3" stroke="#7168EE" stroke-miterlimit="10" stroke-linejoin="round"/>
<path d="M399.528 113.095C401.141 113.964 400.394 118.349 397.861 122.891C395.327 127.428 391.961 130.402 390.344 129.532C388.73 128.663 389.474 124.279 392.009 119.739C394.545 115.199 397.911 112.226 399.528 113.095Z" fill="#CCC9F3" stroke="#7168EE" stroke-miterlimit="10" stroke-linejoin="round"/>
<path d="M396.272 130.981C397.38 131.464 397.131 134.379 395.721 137.494C394.31 140.612 392.269 142.748 391.161 142.267C390.056 141.787 390.301 138.87 391.711 135.753C393.123 132.64 395.164 130.504 396.272 130.981Z" fill="#CCC9F3" stroke="#7168EE" stroke-miterlimit="10" stroke-linejoin="round"/>
<path d="M430.06 167.352C429.165 166.423 430.912 163.288 433.961 160.347C437.013 157.409 440.212 155.781 441.108 156.709C442.003 157.638 440.256 160.775 437.206 163.714C434.155 166.653 430.956 168.281 430.06 167.352Z" fill="#CCC9F3" stroke="#7168EE" stroke-miterlimit="10" stroke-linejoin="round"/>
<path d="M442.057 161.872C441.655 161.507 442.304 160.14 443.505 158.822C444.705 157.504 446.005 156.734 446.406 157.099C446.809 157.464 446.16 158.831 444.959 160.149C443.758 161.466 442.459 162.239 442.057 161.872Z" fill="#CCC9F3" stroke="#7168EE" stroke-miterlimit="10" stroke-linejoin="round"/>
<path d="M144.071 120.102C142.903 120.102 141.77 120.248 140.676 120.498C140.018 109.434 130.863 100.657 119.633 100.657C109.225 100.657 100.596 108.203 98.863 118.115C98.147 118.02 97.424 117.954 96.684 117.954C87.712 117.954 80.437 125.227 80.437 134.201C80.437 143.173 87.712 150.448 96.684 150.448C103.158 150.448 137.451 150.448 144.071 150.448C152.453 150.448 159.245 143.653 159.245 135.274C159.245 126.894 152.453 120.102 144.071 120.102Z" fill="#CCC9F3" stroke="#7168EE" stroke-miterlimit="10" stroke-linecap="round" stroke-linejoin="round"/>
<path d="M124.362 126.984C123.192 126.984 122.06 127.13 120.966 127.38C120.309 116.317 111.153 107.539 99.923 107.539C89.515 107.539 80.885 115.084 79.154 124.997C78.438 124.901 77.715 124.835 76.975 124.835C68.001 124.835 60.728 132.109 60.728 141.082C60.728 150.054 68.001 157.329 76.975 157.329C83.449 157.329 117.741 157.329 124.362 157.329C132.744 157.329 139.536 150.535 139.536 142.155C139.536 133.776 132.744 126.984 124.362 126.984Z" stroke="#7168EE" stroke-miterlimit="10" stroke-linecap="round" stroke-linejoin="round"/>
<path d="M375.693 161.931C376.439 161.931 377.164 162.024 377.863 162.184C378.284 155.114 384.134 149.505 391.31 149.505C397.96 149.505 403.475 154.327 404.582 160.661C405.04 160.6 405.502 160.557 405.975 160.557C411.708 160.557 416.357 165.205 416.357 170.94C416.357 176.672 411.709 181.322 405.975 181.322C401.838 181.322 379.924 181.322 375.694 181.322C370.337 181.322 365.998 176.98 365.998 171.626C365.997 166.271 370.337 161.931 375.693 161.931Z" fill="#CCC9F3" stroke="#7168EE" stroke-miterlimit="10" stroke-linecap="round" stroke-linejoin="round"/>
<path d="M388.288 166.329C389.035 166.329 389.759 166.423 390.458 166.582C390.878 159.513 396.729 153.904 403.905 153.904C410.556 153.904 416.071 158.724 417.176 165.059C417.633 164.998 418.096 164.955 418.568 164.955C424.302 164.955 428.95 169.603 428.95 175.337C428.95 181.071 424.302 185.72 418.568 185.72C414.431 185.72 392.517 185.72 388.287 185.72C382.93 185.72 378.591 181.378 378.591 176.024C378.592 170.669 382.932 166.329 388.288 166.329Z" stroke="#7168EE" stroke-miterlimit="10" stroke-linecap="round" stroke-linejoin="round"/>
<path d="M453.145 397.512C453.145 421.002 447.379 433.242 440.268 433.242C433.153 433.242 427.388 421.002 427.388 397.512C427.388 374.016 433.153 348.167 440.268 348.167C447.38 348.167 453.145 374.016 453.145 397.512Z" fill="#CCC9F3" stroke="#7168EE" stroke-width="0.75" stroke-miterlimit="10" stroke-linecap="round" stroke-linejoin="round"/>
<path d="M440.269 348.167V433.242" stroke="#7168EE" stroke-width="0.5" stroke-miterlimit="10" stroke-linecap="round" stroke-linejoin="round"/>
<path d="M428.916 416.065L440.269 427.414L451.617 416.067" stroke="#7168EE" stroke-width="0.5" stroke-miterlimit="10" stroke-linecap="round" stroke-linejoin="round"/>
<path d="M427.416 394.714L440.269 407.565L453.118 394.715" stroke="#7168EE" stroke-width="0.5" stroke-miterlimit="10" stroke-linecap="round" stroke-linejoin="round"/>
<path d="M428.849 376.299L440.269 387.716L451.684 376.302" stroke="#7168EE" stroke-width="0.5" stroke-miterlimit="10" stroke-linecap="round" stroke-linejoin="round"/>
<path d="M432.299 359.897L440.269 367.865L448.233 359.9" stroke="#7168EE" stroke-width="0.5" stroke-miterlimit="10" stroke-linecap="round" stroke-linejoin="round"/>
<path d="M427.34 401.205C434.592 419.415 433.904 430.683 428.391 432.878C422.877 435.075 414.629 427.367 407.377 409.154C400.125 390.943 396.616 369.131 402.131 366.931C407.644 364.738 420.088 382.993 427.34 401.205Z" stroke="#7168EE" stroke-width="0.75" stroke-miterlimit="10" stroke-linecap="round" stroke-linejoin="round"/>
<path d="M402.131 366.932L428.391 432.878" stroke="#7168EE" stroke-width="0.5" stroke-miterlimit="10" stroke-linecap="round" stroke-linejoin="round"/>
<path d="M414.285 423.066L426.592 428.362L431.888 416.06" stroke="#7168EE" stroke-width="0.5" stroke-miterlimit="10" stroke-linecap="round" stroke-linejoin="round"/>
<path d="M406.535 406.98L420.466 412.974L426.46 399.048" stroke="#7168EE" stroke-width="0.5" stroke-miterlimit="10" stroke-linecap="round" stroke-linejoin="round"/>
<path d="M401.96 392.265L414.338 397.589L419.662 385.219" stroke="#7168EE" stroke-width="0.5" stroke-miterlimit="10" stroke-linecap="round" stroke-linejoin="round"/>
<path d="M399.572 378.484L408.211 382.201L411.925 373.568" stroke="#7168EE" stroke-width="0.5" stroke-miterlimit="10" stroke-linecap="round" stroke-linejoin="round"/>
<path d="M450.274 405.932C444.09 421.452 444.678 431.064 449.378 432.932C454.079 434.804 461.112 428.231 467.295 412.708C473.477 397.183 476.469 378.586 471.769 376.711C467.068 374.842 456.457 390.404 450.274 405.932Z" stroke="#7168EE" stroke-width="0.75" stroke-miterlimit="10" stroke-linecap="round" stroke-linejoin="round"/>
<path d="M471.769 376.711L449.378 432.932" stroke="#7168EE" stroke-width="0.5" stroke-miterlimit="10" stroke-linecap="round" stroke-linejoin="round"/>
<path d="M461.401 424.568L450.911 429.082L446.397 418.595" stroke="#7168EE" stroke-width="0.5" stroke-miterlimit="10" stroke-linecap="round" stroke-linejoin="round"/>
<path d="M468.011 410.855L456.14 415.965L451.027 404.093" stroke="#7168EE" stroke-width="0.5" stroke-miterlimit="10" stroke-linecap="round" stroke-linejoin="round"/>
<path d="M471.914 398.307L461.359 402.849L456.819 392.301" stroke="#7168EE" stroke-width="0.5" stroke-miterlimit="10" stroke-linecap="round" stroke-linejoin="round"/>
<path d="M473.946 386.563L466.583 389.729L463.417 382.369" stroke="#7168EE" stroke-width="0.5" stroke-miterlimit="10" stroke-linecap="round" stroke-linejoin="round"/>
<path d="M46.853 397.512C46.853 421.002 52.619 433.242 59.73 433.242C66.844 433.242 72.611 421.002 72.611 397.512C72.611 374.016 66.844 348.167 59.73 348.167C52.618 348.167 46.853 374.016 46.853 397.512Z" fill="#CCC9F3" stroke="#7168EE" stroke-width="0.75" stroke-miterlimit="10" stroke-linecap="round" stroke-linejoin="round"/>
<path d="M59.729 348.167V433.242" stroke="#7168EE" stroke-width="0.5" stroke-miterlimit="10" stroke-linecap="round" stroke-linejoin="round"/>
<path d="M71.0831 416.065L59.7291 427.414L48.3821 416.067" stroke="#7168EE" stroke-width="0.5" stroke-miterlimit="10" stroke-linecap="round" stroke-linejoin="round"/>
<path d="M72.5831 394.714L59.7291 407.565L46.8801 394.715" stroke="#7168EE" stroke-width="0.5" stroke-miterlimit="10" stroke-linecap="round" stroke-linejoin="round"/>
<path d="M71.1489 376.299L59.7289 387.716L48.3149 376.302" stroke="#7168EE" stroke-width="0.5" stroke-miterlimit="10" stroke-linecap="round" stroke-linejoin="round"/>
<path d="M67.6981 359.897L59.7291 367.865L51.7651 359.9" stroke="#7168EE" stroke-width="0.5" stroke-miterlimit="10" stroke-linecap="round" stroke-linejoin="round"/>
<path d="M72.659 401.205C65.407 419.415 66.095 430.683 71.608 432.878C77.122 435.075 85.37 427.367 92.622 409.154C99.874 390.943 103.383 369.131 97.867 366.931C92.354 364.738 79.911 382.993 72.659 401.205Z" stroke="#7168EE" stroke-width="0.75" stroke-miterlimit="10" stroke-linecap="round" stroke-linejoin="round"/>
<path d="M97.8671 366.932L71.6082 432.878" stroke="#7168EE" stroke-width="0.5" stroke-miterlimit="10" stroke-linecap="round" stroke-linejoin="round"/>
<path d="M85.7141 423.066L73.4071 428.362L68.1101 416.06" stroke="#7168EE" stroke-width="0.5" stroke-miterlimit="10" stroke-linecap="round" stroke-linejoin="round"/>
<path d="M93.464 406.98L79.534 412.974L73.54 399.048" stroke="#7168EE" stroke-width="0.5" stroke-miterlimit="10" stroke-linecap="round" stroke-linejoin="round"/>
<path d="M98.0382 392.265L85.6602 397.589L80.3372 385.219" stroke="#7168EE" stroke-width="0.5" stroke-miterlimit="10" stroke-linecap="round" stroke-linejoin="round"/>
<path d="M100.427 378.484L91.788 382.201L88.074 373.568" stroke="#7168EE" stroke-width="0.5" stroke-miterlimit="10" stroke-linecap="round" stroke-linejoin="round"/>
<path d="M49.7241 405.932C55.9081 421.452 55.3201 431.064 50.6201 432.932C45.9181 434.804 38.8871 428.231 32.7041 412.708C26.5221 397.183 23.5301 378.586 28.2311 376.711C32.9311 374.842 43.5421 390.404 49.7241 405.932Z" stroke="#7168EE" stroke-width="0.75" stroke-miterlimit="10" stroke-linecap="round" stroke-linejoin="round"/>
<path d="M28.2312 376.711L50.6202 432.932" stroke="#7168EE" stroke-width="0.5" stroke-miterlimit="10" stroke-linecap="round" stroke-linejoin="round"/>
<path d="M38.5981 424.568L49.0871 429.082L53.6011 418.595" stroke="#7168EE" stroke-width="0.5" stroke-miterlimit="10" stroke-linecap="round" stroke-linejoin="round"/>
<path d="M31.9871 410.855L43.8601 415.965L48.9721 404.093" stroke="#7168EE" stroke-width="0.5" stroke-miterlimit="10" stroke-linecap="round" stroke-linejoin="round"/>
<path d="M28.0852 398.307L38.6402 402.849L43.1792 392.301" stroke="#7168EE" stroke-width="0.5" stroke-miterlimit="10" stroke-linecap="round" stroke-linejoin="round"/>
<path d="M26.052 386.563L33.416 389.729L36.582 382.369" stroke="#7168EE" stroke-width="0.5" stroke-miterlimit="10" stroke-linecap="round" stroke-linejoin="round"/>
<path d="M289.4 360.095C289.4 361.011 288.657 361.754 287.74 361.754H275.66C274.743 361.754 274 361.011 274 360.095V347.23C274 346.313 274.743 345.57 275.66 345.57H287.74C288.657 345.57 289.4 346.313 289.4 347.23V360.095Z" fill="#B7B4DF" stroke="#7168EE" stroke-miterlimit="10" stroke-linejoin="round"/>
<path d="M289.4 326.511C289.4 327.427 288.657 328.17 287.74 328.17H275.66C274.743 328.17 274 327.427 274 326.511V313.647C274 312.73 274.743 311.987 275.66 311.987H287.74C288.657 311.987 289.4 312.73 289.4 313.647V326.511Z" fill="#B7B4DF" stroke="#7168EE" stroke-miterlimit="10" stroke-linejoin="round"/>
<path d="M280.833 365.93C280.833 368.487 282.167 370.154 284.167 371.654C286.167 373.154 306.5 391.062 292.96 433.244H304.361C304.361 433.244 317.353 404.24 325.835 375.237C331.684 355.237 326.043 340.086 315.583 326.737C308.965 318.292 301 309.737 287.417 299.611C284.37 297.339 280.833 298.07 280.833 302.737C280.833 307.404 280.833 365.93 280.833 365.93Z" fill="#B7B4DF" stroke="#7168EE" stroke-miterlimit="10" stroke-linejoin="round"/>
<path d="M291.731 370.173C293.544 370.538 295.308 369.365 295.673 367.551C296.036 365.752 294.864 363.986 293.052 363.62C291.249 363.257 289.486 364.433 289.122 366.231C288.757 368.045 289.932 369.81 291.731 370.173Z" stroke="#7168EE" stroke-miterlimit="10" stroke-linejoin="round"/>
<path d="M292.615 365.787L292.393 366.891L292.168 368.008" stroke="#7168EE" stroke-miterlimit="10" stroke-linecap="round" stroke-linejoin="round"/>
<path d="M291.274 366.665L292.393 366.891L293.509 367.116" stroke="#7168EE" stroke-miterlimit="10" stroke-linecap="round" stroke-linejoin="round"/>
<path d="M296.03 348.845C297.843 349.211 299.606 348.038 299.973 346.225C300.335 344.425 299.162 342.66 297.351 342.292C295.549 341.93 293.785 343.103 293.421 344.904C293.057 346.717 294.229 348.48 296.03 348.845Z" stroke="#7168EE" stroke-miterlimit="10" stroke-linejoin="round"/>
<path d="M296.915 344.461L296.691 345.564L296.466 346.681" stroke="#7168EE" stroke-miterlimit="10" stroke-linecap="round" stroke-linejoin="round"/>
<path d="M295.574 345.338L296.691 345.564L297.808 345.789" stroke="#7168EE" stroke-miterlimit="10" stroke-linecap="round" stroke-linejoin="round"/>
<path d="M300.33 327.519C302.143 327.884 303.905 326.71 304.273 324.897C304.634 323.099 303.46 321.332 301.649 320.966C299.848 320.604 298.084 321.778 297.72 323.577C297.355 325.391 298.527 327.154 300.33 327.519Z" stroke="#7168EE" stroke-miterlimit="10" stroke-linejoin="round"/>
<path d="M301.215 323.133L300.99 324.236L300.766 325.354" stroke="#7168EE" stroke-miterlimit="10" stroke-linecap="round" stroke-linejoin="round"/>
<path d="M299.872 324.011L300.99 324.236L302.104 324.462" stroke="#7168EE" stroke-miterlimit="10" stroke-linecap="round" stroke-linejoin="round"/>
<path d="M257.125 129.653H242.875V164.236H257.125V129.653Z" fill="#A5BCD6" stroke="#7168EE" stroke-miterlimit="10" stroke-linecap="round" stroke-linejoin="round"/>
<path d="M274.25 169.644H225.75L228.5 152.653H271.5L274.25 169.644Z" fill="#A5BCD6" stroke="#7168EE" stroke-miterlimit="10" stroke-linecap="round" stroke-linejoin="round"/>
<path d="M259.104 147.571L240.895 150.237V146.237L259.104 143.571V147.571Z" stroke="#7168EE" stroke-miterlimit="10" stroke-linecap="round" stroke-linejoin="round"/>
<path d="M259.104 139.279L240.895 141.945V137.945L259.104 135.279V139.279Z" stroke="#7168EE" stroke-miterlimit="10" stroke-linecap="round" stroke-linejoin="round"/>
<path d="M259.104 130.987L240.895 133.653V129.653L259.104 126.987V130.987Z" stroke="#7168EE" stroke-miterlimit="10" stroke-linecap="round" stroke-linejoin="round"/>
<path d="M250 373.722H275.377C272.973 382.824 271.297 387.742 271.297 387.742H250H228.703C228.703 387.742 227.029 382.824 224.623 373.722H250Z" fill="#A5BCD6"/>
<path d="M234.027 387.741C234.027 387.741 232.771 382.823 230.966 373.721" stroke="#7168EE" stroke-width="0.5" stroke-miterlimit="10" stroke-linejoin="round"/>
<path d="M239.352 387.741C239.352 387.741 238.516 382.823 237.313 373.721" stroke="#7168EE" stroke-width="0.5" stroke-miterlimit="10" stroke-linejoin="round"/>
<path d="M244.676 387.741C244.676 387.741 244.258 382.823 243.656 373.721" stroke="#7168EE" stroke-width="0.5" stroke-miterlimit="10" stroke-linejoin="round"/>
<path d="M250 387.741C250 387.741 250 382.823 250 373.721" stroke="#7168EE" stroke-width="0.5" stroke-miterlimit="10" stroke-linejoin="round"/>
<path d="M255.324 387.741C255.324 387.741 255.742 382.823 256.344 373.721" stroke="#7168EE" stroke-width="0.5" stroke-miterlimit="10" stroke-linejoin="round"/>
<path d="M260.648 387.741C260.648 387.741 261.486 382.823 262.689 373.721" stroke="#7168EE" stroke-width="0.5" stroke-miterlimit="10" stroke-linejoin="round"/>
<path d="M265.973 387.741C265.973 387.741 267.229 382.823 269.034 373.721" stroke="#7168EE" stroke-width="0.5" stroke-miterlimit="10" stroke-linejoin="round"/>
<path d="M275.377 373.722C272.973 382.824 271.297 387.742 271.297 387.742H250H228.703C228.703 387.742 227.029 382.824 224.623 373.722" stroke="#7168EE" stroke-miterlimit="10" stroke-linejoin="round"/>
<path d="M207.494 332.283H292.504C287.754 359.713 281.676 376.833 281.676 376.833H250.004H218.334C218.334 376.833 212.244 359.713 207.494 332.283Z" fill="#FFC96B"/>
<path d="M292.504 332.283C299.725 290.643 303.875 225.233 279.016 159.823H250.004H220.994C196.125 225.233 200.275 290.643 207.494 332.283C212.244 359.713 218.334 376.833 218.334 376.833H250.004H281.676C281.676 376.833 287.754 359.713 292.504 332.283Z" stroke="#7168EE" stroke-miterlimit="10" stroke-linecap="round" stroke-linejoin="round"/>
<path d="M207.494 332.283H292.504" stroke="#7168EE" stroke-miterlimit="10" stroke-linecap="round" stroke-linejoin="round"/>
<path d="M250.008 185.301C265.037 185.301 277.221 197.494 277.221 212.526C277.221 227.555 265.037 239.751 250.008 239.751C234.965 239.751 222.783 227.556 222.783 212.526C222.783 197.494 234.965 185.301 250.008 185.301ZM253.494 193.146C253.494 191.228 251.926 189.659 250.008 189.659C249.578 189.659 249.16 189.671 248.752 189.693C246.822 189.798 245.357 191.45 245.463 193.366C245.555 195.226 247.102 196.668 248.938 196.668C248.997 196.668 249.067 196.668 249.137 196.656C249.416 196.646 249.705 196.634 250.008 196.634C251.926 196.634 253.494 195.076 253.494 193.146ZM241.498 199.099C243.125 198.064 243.613 195.913 242.58 194.286C241.545 192.66 239.394 192.182 237.767 193.218C231.117 197.437 227.142 204.656 227.142 212.527C227.142 214.456 228.699 216.013 230.628 216.013C232.557 216.013 234.116 214.455 234.116 212.527C234.117 207.061 236.883 202.039 241.498 199.099Z" fill="#A5BCD6"/>
<path d="M250.065 226.502L245.994 223.882C236.31 217.642 236.292 213.076 236.285 211.363C236.267 207.235 239.606 203.884 243.736 203.884C246.34 203.884 248.635 205.216 249.985 207.236C251.313 205.216 253.603 203.884 256.202 203.884C260.336 203.884 263.696 207.236 263.718 211.363C263.725 213.076 263.739 217.641 254.118 223.882L250.065 226.502Z" stroke="#7168EE" stroke-miterlimit="10" stroke-linejoin="round"/>
<path d="M282.162 212.525C282.162 230.287 267.769 244.69 250.008 244.69C232.247 244.69 217.842 230.287 217.842 212.525C217.842 194.761 232.246 180.359 250.008 180.359C267.77 180.359 282.162 194.762 282.162 212.525Z" stroke="#7168EE" stroke-miterlimit="10" stroke-linejoin="round"/>
<path d="M277.221 212.525C277.221 227.554 265.037 239.75 250.008 239.75C234.965 239.75 222.783 227.555 222.783 212.525C222.783 197.494 234.965 185.3 250.008 185.3C265.037 185.301 277.221 197.494 277.221 212.525Z" stroke="#7168EE" stroke-miterlimit="10" stroke-linejoin="round"/>
<path d="M248.938 196.668C247.102 196.668 245.555 195.227 245.463 193.366C245.358 191.45 246.822 189.799 248.752 189.693C249.16 189.67 249.578 189.659 250.008 189.659C251.926 189.659 253.494 191.228 253.494 193.146C253.494 195.076 251.926 196.633 250.008 196.633C249.705 196.633 249.416 196.646 249.137 196.655C249.066 196.668 248.996 196.668 248.938 196.668Z" stroke="#7168EE" stroke-miterlimit="10" stroke-linejoin="round"/>
<path d="M234.117 212.525C234.117 207.061 236.883 202.039 241.498 199.098C243.125 198.063 243.613 195.912 242.58 194.285C241.545 192.659 239.394 192.181 237.767 193.217C231.117 197.436 227.142 204.655 227.142 212.526C227.142 214.455 228.699 216.012 230.628 216.012C232.557 216.012 234.117 214.454 234.117 212.525Z" stroke="#7168EE" stroke-miterlimit="10" stroke-linejoin="round"/>
<path d="M278.084 285.842C278.084 287.499 276.74 288.842 275.084 288.842H224.916C223.26 288.842 221.916 287.499 221.916 285.842V258.495C221.916 256.839 223.26 255.495 224.916 255.495H275.084C276.74 255.495 278.084 256.839 278.084 258.495V285.842Z" fill="#A5BCD6" stroke="#7168EE" stroke-miterlimit="10" stroke-linecap="round" stroke-linejoin="round"/>
<path d="M232.375 264.751C232.375 265.446 231.812 266.009 231.117 266.009H227.801C227.106 266.009 226.543 265.446 226.543 264.751V261.434C226.543 260.739 227.106 260.176 227.801 260.176H231.117C231.812 260.176 232.375 260.739 232.375 261.434V264.751Z" stroke="#7168EE" stroke-miterlimit="10" stroke-linecap="round" stroke-linejoin="round"/>
<path d="M246.07 264.751C246.07 265.446 245.507 266.009 244.812 266.009H241.494C240.799 266.009 240.236 265.446 240.236 264.751V261.434C240.236 260.739 240.799 260.176 241.494 260.176H244.812C245.507 260.176 246.07 260.739 246.07 261.434V264.751Z" stroke="#7168EE" stroke-miterlimit="10" stroke-linecap="round" stroke-linejoin="round"/>
<path d="M259.764 264.751C259.764 265.446 259.201 266.009 258.506 266.009H255.19C254.495 266.009 253.932 265.446 253.932 264.751V261.434C253.932 260.739 254.495 260.176 255.19 260.176H258.506C259.201 260.176 259.764 260.739 259.764 261.434V264.751Z" stroke="#7168EE" stroke-miterlimit="10" stroke-linecap="round" stroke-linejoin="round"/>
<path d="M273.459 264.751C273.459 265.446 272.896 266.009 272.201 266.009H268.883C268.188 266.009 267.625 265.446 267.625 264.751V261.434C267.625 260.739 268.188 260.176 268.883 260.176H272.201C272.896 260.176 273.459 260.739 273.459 261.434V264.751Z" stroke="#7168EE" stroke-miterlimit="10" stroke-linecap="round" stroke-linejoin="round"/>
<path d="M260.76 272.582H227.801C227.106 272.582 226.543 273.145 226.543 273.84V277.157C226.543 277.852 227.106 278.415 227.801 278.415H257.512L260.76 272.582Z" fill="#FFC96B"/>
<path d="M273.459 277.157C273.459 277.852 272.896 278.415 272.201 278.415H227.801C227.106 278.415 226.543 277.852 226.543 277.157V273.84C226.543 273.145 227.106 272.582 227.801 272.582H272.201C272.896 272.582 273.459 273.145 273.459 273.84V277.157Z" stroke="#7168EE" stroke-miterlimit="10" stroke-linecap="round" stroke-linejoin="round"/>
<path d="M214.025 340.226C214.025 342.075 215.523 343.574 217.373 343.574C219.209 343.574 220.709 342.075 220.709 340.226C220.709 338.389 219.209 336.89 217.373 336.89C215.523 336.89 214.025 338.389 214.025 340.226Z" stroke="#7168EE" stroke-miterlimit="10" stroke-linejoin="round"/>
<path d="M218.498 340.226H217.373H216.232" stroke="#7168EE" stroke-miterlimit="10" stroke-linecap="round" stroke-linejoin="round"/>
<path d="M217.373 339.085V340.226V341.363" stroke="#7168EE" stroke-miterlimit="10" stroke-linecap="round" stroke-linejoin="round"/>
<path d="M235.781 340.226C235.781 342.075 237.279 343.574 239.129 343.574C240.965 343.574 242.465 342.075 242.465 340.226C242.465 338.389 240.965 336.89 239.129 336.89C237.279 336.89 235.781 338.389 235.781 340.226Z" stroke="#7168EE" stroke-miterlimit="10" stroke-linejoin="round"/>
<path d="M240.254 340.226H239.129H237.988" stroke="#7168EE" stroke-miterlimit="10" stroke-linecap="round" stroke-linejoin="round"/>
<path d="M239.129 339.085V340.226V341.363" stroke="#7168EE" stroke-miterlimit="10" stroke-linecap="round" stroke-linejoin="round"/>
<path d="M257.537 340.226C257.537 342.075 259.035 343.574 260.885 343.574C262.721 343.574 264.221 342.075 264.221 340.226C264.221 338.389 262.721 336.89 260.885 336.89C259.035 336.89 257.537 338.389 257.537 340.226Z" stroke="#7168EE" stroke-miterlimit="10" stroke-linejoin="round"/>
<path d="M262.01 340.226H260.885H259.744" stroke="#7168EE" stroke-miterlimit="10" stroke-linecap="round" stroke-linejoin="round"/>
<path d="M260.885 339.085V340.226V341.363" stroke="#7168EE" stroke-miterlimit="10" stroke-linecap="round" stroke-linejoin="round"/>
<path d="M279.293 340.226C279.293 342.075 280.791 343.574 282.641 343.574C284.477 343.574 285.977 342.075 285.977 340.226C285.977 338.389 284.477 336.89 282.641 336.89C280.791 336.89 279.293 338.389 279.293 340.226Z" stroke="#7168EE" stroke-miterlimit="10" stroke-linejoin="round"/>
<path d="M283.766 340.226H282.641H281.5" stroke="#7168EE" stroke-miterlimit="10" stroke-linecap="round" stroke-linejoin="round"/>
<path d="M282.641 339.085V340.226V341.363" stroke="#7168EE" stroke-miterlimit="10" stroke-linecap="round" stroke-linejoin="round"/>
<path d="M283.998 369.44H267.502L260.48 362.419H250H239.52L232.496 369.44H216.002" stroke="#7168EE" stroke-miterlimit="10" stroke-linecap="round" stroke-linejoin="round"/>
<path d="M259.646 368.591C259.646 369.719 258.732 370.633 257.603 370.633H242.396C241.269 370.633 240.355 369.719 240.355 368.591C240.355 367.463 241.269 366.549 242.396 366.549H257.603C258.732 366.549 259.646 367.463 259.646 368.591Z" fill="#FF986B" stroke="#7168EE" stroke-miterlimit="10" stroke-linecap="round" stroke-linejoin="round"/>
<path d="M257.603 366.549H242.396C241.599 366.549 240.917 367.009 240.582 367.675C240.918 368.339 241.6 368.8 242.396 368.8H257.603C258.4 368.8 259.082 368.339 259.419 367.675C259.082 367.009 258.4 366.549 257.603 366.549Z" fill="#7168EE"/>
<path d="M250 362.419V332.283" stroke="#7168EE" stroke-miterlimit="10" stroke-linecap="round" stroke-linejoin="round"/>
<path d="M320.668 163.596C320.664 164.561 319.196 168.054 320.067 171.374C320.938 174.694 330.916 189.056 334.529 192.786C338.154 196.507 338.066 199.974 340.229 201.683C342.972 203.84 364.912 218.669 364.912 218.669L356.649 232.87C356.649 232.87 338.381 217.99 331.244 210.739C330.438 209.937 328.239 207.26 324.859 200.419C321.49 193.578 314.83 177.863 313.142 175.398C309.714 170.38 307.326 168.408 307.177 167.971C307.03 167.535 306.204 166.41 305.822 165.085C305.429 163.76 305.072 162.682 304.44 160.83C303.81 158.949 304.422 156.9 304.782 156.926C304.933 156.93 305.316 157.53 305.73 158.324C305.539 157.713 305.322 157.058 305.058 156.259C304.427 154.399 305.03 152.338 305.391 152.353C305.759 152.389 307.437 155.879 308.063 157.176C307.995 156.958 307.925 156.74 307.865 156.543C307.47 155.23 307.114 154.15 306.482 152.289C305.862 150.42 306.464 148.358 306.834 148.394C307.194 148.41 308.813 151.773 309.44 153.071C309.625 153.45 309.91 154.02 310.246 154.686C309.92 153.61 309.588 152.592 309.048 151.022C308.426 149.172 309.029 147.111 309.399 147.128C309.768 147.163 311.369 150.515 312.004 151.823C312.631 153.121 314.575 156.867 315.315 158.247C315.526 158.649 315.847 159.174 316.182 159.749C316.048 158.037 317.481 156.339 318.018 156.491C318.451 156.595 318.741 158.762 319.124 159.876C319.495 161.01 320.662 162.641 320.668 163.596Z" fill="#CCC9F3"/>
<path d="M338.692 217.671C346.76 224.817 356.649 232.871 356.649 232.871L364.912 218.67C364.912 218.67 354.996 211.968 347.664 206.919C345.458 208.793 341.361 212.679 338.692 217.671Z" fill="#CCC9F3"/>
<path d="M316.182 159.751C316.048 158.039 317.481 156.341 318.018 156.493C318.451 156.597 318.741 158.764 319.124 159.878C319.495 161.01 320.662 162.641 320.668 163.596C320.664 164.561 319.196 168.054 320.067 171.374C320.938 174.694 330.916 189.056 334.529 192.786C338.154 196.507 338.066 199.974 340.229 201.683C342.972 203.84 364.912 218.669 364.912 218.669L356.649 232.87C356.649 232.87 338.381 217.99 331.244 210.739C330.438 209.937 328.239 207.26 324.859 200.419C321.49 193.578 314.83 177.863 313.142 175.398C309.714 170.38 307.326 168.408 307.177 167.971C307.03 167.535 306.204 166.41 305.822 165.085C305.429 163.76 305.072 162.682 304.44 160.83C303.81 158.949 304.422 156.9 304.782 156.926C304.933 156.93 305.316 157.53 305.73 158.324" stroke="#7168EE" stroke-miterlimit="10" stroke-linecap="round" stroke-linejoin="round"/>
<path d="M318.089 163.464C317.988 162.851 317.008 161.167 316.181 159.761L316.182 159.751C315.847 159.176 315.526 158.651 315.315 158.249C314.576 156.869 312.631 153.123 312.004 151.825C311.368 150.516 309.768 147.165 309.399 147.13C309.03 147.112 308.426 149.174 309.048 151.024C309.588 152.594 309.92 153.612 310.246 154.688C310.307 154.885 310.359 155.082 310.428 155.299C310.822 156.623 311.553 158.484 311.71 158.931C311.857 159.378 311.868 160.092 311.803 160.347" stroke="#7168EE" stroke-miterlimit="10" stroke-linecap="round" stroke-linejoin="round"/>
<path d="M308.064 157.177C307.438 155.88 305.76 152.39 305.392 152.354C305.031 152.339 304.428 154.4 305.059 156.26C305.323 157.06 305.539 157.714 305.731 158.325C305.987 159.103 306.211 159.789 306.43 160.524C306.812 161.857 307.554 163.717 307.702 164.155C307.859 164.602 307.857 165.335 307.792 165.591" stroke="#7168EE" stroke-miterlimit="10" stroke-linecap="round" stroke-linejoin="round"/>
<path d="M310.246 154.688C309.91 154.022 309.625 153.452 309.44 153.073C308.813 151.775 307.194 148.412 306.834 148.396C306.465 148.36 305.862 150.421 306.482 152.291C307.114 154.151 307.47 155.232 307.865 156.545C307.926 156.742 307.995 156.96 308.063 157.178C308.456 158.402 309.012 159.804 309.145 160.188C309.293 160.625 309.292 161.358 309.226 161.613" stroke="#7168EE" stroke-miterlimit="10" stroke-linecap="round" stroke-linejoin="round"/>
<path d="M370.439 219.468L351.11 207.527C351.11 207.527 347.045 216.13 343.801 227.87C343.801 227.87 354.885 235.654 363.589 239.981" stroke="#7168EE" stroke-miterlimit="10" stroke-linecap="round" stroke-linejoin="round"/>
<path d="M354.123 234.631C354.123 234.631 357.563 240.186 361.015 243.412" stroke="#7168EE" stroke-miterlimit="10" stroke-linecap="round" stroke-linejoin="round"/>
<path d="M327.894 115.964C288.619 134.519 271.963 153.166 271.963 153.166L321.809 182.86C321.809 182.86 330.276 159.336 327.894 115.964Z" fill="#FFC96B" stroke="#7168EE" stroke-miterlimit="10" stroke-linejoin="round"/>
<path d="M351.404 404.681C354.345 405.91 359.059 407.773 363.597 409.112L364.036 394L350.927 394.021L351.404 404.681Z" fill="#CCC9F3"/>
<path d="M350.928 394.02L352.243 423.452L361.874 424.375L363.26 420.721L364.037 393.999L350.928 394.02Z" stroke="#7168EE" stroke-miterlimit="10" stroke-linecap="round" stroke-linejoin="round"/>
<path d="M363.26 420.724L363.49 429.884L340.17 429.984C339.92 425.934 338 424.984 338 424.984C338 424.984 350.04 419.954 351.31 419.244C352.571 418.534 353.361 419.015 354.441 419.724C355.51 420.443 358.99 423.103 363.26 420.724Z" fill="#FFC96B"/>
<path d="M363.49 429.884L340.17 429.984L329.71 430.024M363.49 429.884L363.58 433.244H338.49H329.71V430.024M363.49 429.884L363.26 420.724C358.99 423.104 355.51 420.444 354.441 419.724C353.361 419.014 352.571 418.534 351.31 419.244C350.04 419.954 338 424.984 338 424.984C338 424.984 331.08 425.784 329.71 430.024" stroke="#7168EE" stroke-miterlimit="10" stroke-linecap="round" stroke-linejoin="round"/>
<path d="M338 424.983C338 424.983 339.92 425.933 340.17 429.983" stroke="#7168EE" stroke-miterlimit="10" stroke-linecap="round" stroke-linejoin="round"/>
<path d="M351.891 420.288C352.102 420.878 351.793 421.53 351.203 421.738C350.612 421.948 349.961 421.64 349.751 421.049L349.124 419.47C348.914 418.878 349.223 418.228 349.813 418.018C350.405 417.808 351.055 418.117 351.266 418.707L351.891 420.288Z" stroke="#7168EE" stroke-miterlimit="10" stroke-linecap="round" stroke-linejoin="round"/>
<path d="M348.379 422.031C348.59 422.621 348.281 423.272 347.69 423.482C347.099 423.691 346.449 423.384 346.238 422.792L345.612 421.213C345.403 420.622 345.711 419.973 346.3 419.762C346.891 419.553 347.542 419.861 347.752 420.452L348.379 422.031Z" stroke="#7168EE" stroke-miterlimit="10" stroke-linecap="round" stroke-linejoin="round"/>
<path d="M344.867 423.774C345.078 424.365 344.769 425.015 344.179 425.224C343.588 425.434 342.938 425.126 342.727 424.535L342.101 422.956C341.89 422.365 342.199 421.714 342.789 421.505C343.38 421.295 344.03 421.603 344.241 422.193L344.867 423.774Z" stroke="#7168EE" stroke-miterlimit="10" stroke-linecap="round" stroke-linejoin="round"/>
<path d="M350.688 294.028C350.688 294.028 345.269 349.691 345.625 356.278C345.98 362.866 347.119 400.344 347.119 400.344C347.119 400.344 357.691 400.253 365.75 400.278C365.75 400.278 364.894 376.329 365.116 371.981C365.337 367.634 362.759 358.698 362.917 353.57C363.075 348.442 377.327 325.006 378.417 321.32C379.509 317.632 385.473 309.615 385.121 300.707L350.688 294.028Z" fill="#A5BCD6" stroke="#7168EE" stroke-miterlimit="10" stroke-linecap="round" stroke-linejoin="round"/>
<path d="M398.25 388.403L402.226 397.623C405.118 398.004 410.235 398.537 415.041 398.348L410.5 383.737L398.25 388.403Z" fill="#CCC9F3"/>
<path d="M398.25 388.403L409.917 415.457L419.25 412.903L418.38 409.094L410.5 383.736L398.25 388.403Z" stroke="#7168EE" stroke-miterlimit="10" stroke-linecap="round" stroke-linejoin="round"/>
<path d="M418.38 409.094L423.651 416.594L403.251 430.333C403.571 426.333 401.441 424.283 401.441 424.283C401.441 424.283 406.951 415.773 407.611 414.483C408.27 413.193 409.191 413.153 410.481 413.153C411.77 413.153 416.15 413.443 418.38 409.094Z" fill="#FFC96B"/>
<path d="M423.65 416.594L403.25 430.333H392.25" stroke="#7168EE" stroke-miterlimit="10" stroke-linecap="round" stroke-linejoin="round"/>
<path d="M401.44 424.283C401.44 424.283 406.95 415.773 407.61 414.483C408.269 413.193 409.19 413.153 410.48 413.153C411.769 413.153 416.15 413.443 418.379 409.094L423.65 416.594L425.5 419.213L404.69 433.243H392.25V430.333C392.25 430.333 392.38 427.023 401.44 424.283ZM401.44 424.283C401.44 424.283 403.57 426.333 403.25 430.333" stroke="#7168EE" stroke-miterlimit="10" stroke-linecap="round" stroke-linejoin="round"/>
<path d="M408.675 415.031C409.177 415.406 409.28 416.119 408.905 416.62C408.529 417.122 407.817 417.227 407.314 416.85L405.918 415.882C405.416 415.506 405.313 414.794 405.688 414.292C406.064 413.79 406.776 413.687 407.279 414.062L408.675 415.031Z" stroke="#7168EE" stroke-miterlimit="10" stroke-linecap="round" stroke-linejoin="round"/>
<path d="M406.717 418.428C407.219 418.803 407.322 419.516 406.947 420.017C406.571 420.519 405.859 420.623 405.356 420.247L403.96 419.279C403.458 418.903 403.355 418.191 403.73 417.689C404.106 417.187 404.818 417.084 405.321 417.459L406.717 418.428Z" stroke="#7168EE" stroke-miterlimit="10" stroke-linecap="round" stroke-linejoin="round"/>
<path d="M404.759 421.824C405.261 422.199 405.364 422.912 404.989 423.413C404.613 423.915 403.901 424.019 403.398 423.643L402.002 422.675C401.5 422.299 401.396 421.587 401.771 421.085C402.147 420.583 402.859 420.48 403.362 420.855L404.759 421.824Z" stroke="#7168EE" stroke-miterlimit="10" stroke-linecap="round" stroke-linejoin="round"/>
<path d="M350.688 296.278C350.688 296.278 378.751 351.528 381.751 357.403C384.751 363.278 396.501 394.903 396.501 394.903C396.501 394.903 406.126 390.528 413.501 387.278C413.501 387.278 407.501 367.903 405.938 363.84C404.375 359.777 398.938 351.465 397 346.715C395.062 341.965 390.75 314.465 390.25 310.652C389.75 306.839 388.5 295.714 384.562 287.714L350.688 296.278Z" fill="#A5BCD6" stroke="#7168EE" stroke-miterlimit="10" stroke-linecap="round" stroke-linejoin="round"/>
<path d="M376.1 202.213V195.081L362.75 200.778C362.75 200.778 362.379 205.186 360.783 210.57C368.779 207.927 374.233 203.775 376.1 202.213Z" fill="#CCC9F3"/>
<path d="M362.75 200.778C362.75 200.778 361.875 211.216 357 219.591H377.875L376.1 205.945V195.081L362.75 200.778Z" stroke="#7168EE" stroke-miterlimit="10" stroke-linecap="round" stroke-linejoin="round"/>
<path d="M393.25 181.223C393.25 181.223 402.563 180.529 402.563 189.716C402.563 198.903 402.563 217.029 402.563 223.091C402.563 232.591 404.063 236.029 404.063 236.029C404.063 236.029 390.188 237.404 390.188 221.904C390.188 209.154 390.188 186.697 390.188 186.697L393.25 181.223Z" fill="#FFC96B" stroke="#7168EE" stroke-miterlimit="10" stroke-linecap="round" stroke-linejoin="round"/>
<path d="M396.108 186.936C395.368 190.67 392.956 193.338 390.721 192.895C388.486 192.452 387.275 189.066 388.016 185.331C388.756 181.598 391.168 178.93 393.403 179.373C395.639 179.816 396.85 183.202 396.108 186.936Z" fill="#FF6684" stroke="#7168EE" stroke-miterlimit="10" stroke-linecap="round" stroke-linejoin="round"/>
<path d="M369.209 164.236C357.417 163.654 349.416 172.416 359.708 180.66H369.209V164.236Z" fill="#FFC96B" stroke="#7168EE" stroke-miterlimit="10" stroke-linecap="round" stroke-linejoin="round"/>
<path d="M370.292 170.229C366.606 170.785 361.042 173.739 359 178.905C356.958 184.071 357.749 183.822 356.958 184.78C356.167 185.738 353.251 186.988 353.292 187.738C353.333 188.488 354.333 189.989 354.333 190.53C354.333 191.071 353.71 191.697 353.688 191.947C353.667 192.197 354.354 193.176 354.354 193.26C354.354 193.343 353.729 194.217 353.771 194.739C353.813 195.261 354.583 195.448 354.542 196.26C354.501 197.073 354.334 201.343 354.334 201.551C354.334 201.759 365.125 206.071 376.042 199.612C383.584 200.571 390.871 194.362 390.792 186.237C390.703 177.135 382.459 168.395 370.292 170.229Z" stroke="#7168EE" stroke-miterlimit="10" stroke-linecap="round" stroke-linejoin="round"/>
<path d="M360.505 182.185C360.505 182.185 363.313 182.185 363.887 184.998" stroke="#7168EE" stroke-miterlimit="10" stroke-linecap="round" stroke-linejoin="round"/>
<path d="M360.953 182.194C360.721 182.442 360.509 182.757 360.348 183.124C359.863 184.24 360.014 185.38 360.681 185.673C361.355 185.97 362.295 185.303 362.783 184.187C362.893 183.931 362.968 183.678 363.016 183.43C362.476 183.033 361.722 182.538 360.953 182.194Z" fill="#7168EE"/>
<path d="M360.938 179.249C360.643 179.263 360.533 179.366 360.511 179.476C360.483 179.626 360.528 180.211 360.883 180.526C361.24 180.835 361.613 180.712 362.113 180.761C362.905 180.84 364.167 181.025 365.014 181.372C365.771 181.683 366.747 182.218 366.78 182.047C366.814 181.876 365.864 180.793 365.185 180.393C364.25 179.841 362.808 179.159 360.938 179.249Z" fill="#7168EE"/>
<path d="M355.542 193.279C355.542 193.279 356.708 193.696 358.458 193.279" stroke="#EA698C" stroke-miterlimit="10" stroke-linecap="round" stroke-linejoin="round"/>
<path d="M369.209 164.236C363.834 172.611 365.463 185.878 379.263 191.64L380.792 192.404L378.749 199.46L376.042 199.611C376.042 199.611 376.032 204.111 376.1 205.945C383.251 201.945 389.12 199.126 392.501 189.654C395.938 180.028 390.251 164.236 369.209 164.236Z" fill="#FFC96B" stroke="#7168EE" stroke-miterlimit="10" stroke-linecap="round" stroke-linejoin="round"/>
<path d="M382.111 193.314C381.829 193.429 381.56 193.556 381.298 193.717C381.033 193.865 380.789 194.047 380.555 194.231C380.326 194.423 380.107 194.622 379.925 194.85C379.712 195.054 379.601 195.323 379.434 195.55L378.962 194.795C379.123 194.809 379.286 194.822 379.438 194.855C379.583 194.908 379.728 194.954 379.861 195.023C379.987 195.107 380.117 195.18 380.227 195.281C380.329 195.396 380.442 195.493 380.518 195.629C380.582 195.774 380.678 195.896 380.693 196.058C380.706 196.215 380.76 196.371 380.707 196.517C380.663 196.659 380.659 196.822 380.569 196.93L380.342 197.269C380.275 197.369 380.14 197.395 380.04 197.329C379.954 197.271 379.922 197.162 379.959 197.069L379.984 197.003L380.09 196.732C380.143 196.646 380.101 196.555 380.118 196.476C380.143 196.393 380.07 196.323 380.059 196.251C380.047 196.177 379.96 196.126 379.926 196.063C379.878 196.003 379.789 195.968 379.733 195.916C379.663 195.874 379.576 195.853 379.504 195.816C379.424 195.795 379.34 195.792 379.265 195.774C379.188 195.778 379.117 195.793 379.047 195.792L379.002 195.791C378.726 195.789 378.503 195.563 378.505 195.287C378.506 195.196 378.532 195.109 378.574 195.036L378.575 195.035C378.807 194.763 378.996 194.45 379.27 194.23C379.519 193.98 379.796 193.775 380.082 193.584C380.371 193.402 380.664 193.229 380.974 193.095C381.275 192.95 381.602 192.835 381.924 192.742C382.084 192.696 382.251 192.788 382.298 192.948C382.341 193.097 382.264 193.252 382.123 193.31L382.111 193.314Z" fill="#7168EE"/>
<path d="M376.1 199.611C376.1 199.611 379.804 200.043 382.458 197.734C385.11 195.421 385.191 191.904 383.397 191.116C381.603 190.329 379.262 191.64 379.262 191.64L378.6 192.551" stroke="#7168EE" stroke-miterlimit="10" stroke-linecap="round" stroke-linejoin="round"/>
<path d="M376.371 208.029C376.371 208.029 364.148 213.368 358.918 215.76C354.063 221.09 347.125 229.778 345.75 233.465C344.375 237.152 346.063 242.653 347.125 246.84C348.187 251.027 348.813 252.59 348.75 254.778C348.687 256.965 347.625 284.278 348.625 297.09C359.938 299.653 377.813 294.277 386.313 289.09L377.875 269.277C377.875 269.277 382.375 238.59 382.125 230.777C381.875 222.964 376.371 208.029 376.371 208.029Z" stroke="#7168EE" stroke-miterlimit="10" stroke-linecap="round" stroke-linejoin="round"/>
<path d="M334.588 221.585C343.315 227.91 353.941 234.963 353.941 234.963L360.781 220.024C360.781 220.024 350.259 214.32 342.469 210.01C340.456 212.09 336.758 216.356 334.588 221.585Z" fill="#CCC9F3"/>
<path d="M306.54 166.134C306.24 164.444 307.5 162.613 308.05 162.713C308.49 162.774 308.99 164.903 309.481 165.974C309.96 167.064 311.281 168.574 311.38 169.524C311.47 170.484 310.35 174.104 311.54 177.324C312.73 180.544 324.06 193.864 328.019 197.224C331.99 200.574 332.24 204.034 334.559 205.524C337.499 207.404 360.78 220.024 360.78 220.024L353.94 234.963C353.94 234.963 334.309 221.934 326.5 215.413C325.62 214.693 323.17 212.243 319.14 205.764C315.12 199.284 306.96 184.293 305.04 182.003C301.14 177.344 298.57 175.613 298.38 175.194C298.191 174.774 297.26 173.734 296.75 172.454C296.23 171.174 295.77 170.135 294.96 168.354C294.15 166.543 294.56 164.444 294.92 164.434C295.07 164.423 295.51 164.984 296 165.734" stroke="#7168EE" stroke-miterlimit="10" stroke-linecap="round" stroke-linejoin="round"/>
<path d="M308.8 169.644C308.64 169.043 307.5 167.463 306.54 166.144V166.134C306.15 165.594 305.78 165.104 305.53 164.724C304.66 163.423 302.36 159.884 301.61 158.654C300.849 157.414 298.929 154.234 298.559 154.234C298.19 154.254 297.789 156.364 298.589 158.144C299.28 159.654 299.709 160.634 300.139 161.673C300.219 161.863 300.289 162.054 300.379 162.264C300.9 163.543 301.809 165.323 302.009 165.753C302.199 166.184 302.28 166.894 302.239 167.153" stroke="#7168EE" stroke-miterlimit="10" stroke-linecap="round" stroke-linejoin="round"/>
<path d="M298.21 164.363C297.46 163.134 295.45 159.823 295.08 159.823C294.72 159.844 294.32 161.953 295.13 163.743C295.47 164.514 295.75 165.143 296 165.733C296.33 166.483 296.62 167.143 296.91 167.853C297.42 169.143 298.34 170.922 298.53 171.343C298.73 171.773 298.8 172.502 298.759 172.763" stroke="#7168EE" stroke-miterlimit="10" stroke-linecap="round" stroke-linejoin="round"/>
<path d="M300.14 161.673C299.741 161.043 299.401 160.503 299.18 160.144C298.43 158.914 296.491 155.724 296.13 155.744C295.76 155.744 295.36 157.854 296.16 159.654C296.97 161.444 297.43 162.484 297.95 163.754C298.03 163.945 298.12 164.154 298.21 164.364C298.72 165.544 299.41 166.885 299.58 167.254C299.769 167.674 299.84 168.404 299.8 168.664" stroke="#7168EE" stroke-miterlimit="10" stroke-linecap="round" stroke-linejoin="round"/>
<path d="M366.358 220.279L345.958 210.279C345.958 210.279 342.751 219.237 340.667 231.237C340.667 231.237 352.457 237.904 361.541 241.362" stroke="#7168EE" stroke-miterlimit="10" stroke-linecap="round" stroke-linejoin="round"/>
<path d="M351.598 236.96C351.598 236.96 355.563 242.153 359.313 245.028" stroke="#7168EE" stroke-miterlimit="10" stroke-linecap="round" stroke-linejoin="round"/>
<path d="M119.221 300.279C121.822 303.035 125.787 306.965 129.152 309.958C131.705 305.99 134.15 301.041 135.632 297.868C133.591 295.053 130.249 290.264 127.039 285.764L115.115 295.541C116.355 297.092 117.716 298.686 119.221 300.279Z" fill="#CCC9F3"/>
<path d="M176.722 310.027C172.841 312.192 170.294 313.742 167.624 311.978C161.124 311.687 149.361 312.266 144.193 312.745C138.818 313.228 132.896 313.11 131.692 312.125C128.017 309.165 122.518 303.774 119.22 300.279C113.41 294.127 109.705 287.944 107.072 284.42C103.95 280.219 104.973 275.236 109.014 273.601C112.862 272.05 117.582 272.878 123.016 280.205C128.446 287.547 136.693 299.64 137.525 300.319C139.268 301.77 141.487 300.899 148.156 302.129C152.804 302.972 165.375 305.667 168.678 304.993C171.785 304.349 178.202 302.238 178.645 302.19" stroke="#7168EE" stroke-miterlimit="10" stroke-linecap="round" stroke-linejoin="round"/>
<path d="M178.31 308.38C178.994 308.873 179.989 309.565 180.397 309.815C181.053 310.201 181.252 310.71 181.516 311.06C181.764 311.402 182.193 312.494 182.46 312.825C182.727 313.157 182.894 313.53 182.477 313.666C182.063 313.814 181.074 313.459 180.54 312.509C180.008 311.549 179.597 311.396 179.113 310.987C178.279 310.36 176.721 310.028 176.721 310.028" stroke="#7168EE" stroke-miterlimit="10" stroke-linecap="round" stroke-linejoin="round"/>
<path d="M177.588 307.872C177.588 307.872 177.879 308.094 178.29 308.374" stroke="#7168EE" stroke-miterlimit="10" stroke-linecap="round" stroke-linejoin="round"/>
<path d="M179.007 306.46C179.97 306.844 181.476 307.46 182.1 307.818C182.861 308.242 183.225 308.691 183.576 309.046C183.935 309.384 184.725 310.343 185.105 310.669C185.459 310.998 185.726 311.398 185.282 311.616C184.845 311.849 183.53 311.774 182.744 310.77C181.963 309.777 181.471 309.683 180.861 309.302C180.286 308.93 178.545 308.442 178.31 308.379C178.29 308.373 178.29 308.373 178.29 308.373" stroke="#7168EE" stroke-miterlimit="10" stroke-linecap="round" stroke-linejoin="round"/>
<path d="M178.111 306.125C178.111 306.125 178.455 306.258 178.938 306.44" stroke="#7168EE" stroke-miterlimit="10" stroke-linecap="round" stroke-linejoin="round"/>
<path d="M178.645 302.19C178.645 302.19 181.8 302.665 182.837 303.033C183.663 303.322 184.096 303.69 184.508 303.972C184.898 304.246 185.884 305.043 186.283 305.297C186.715 305.569 187.032 305.914 186.644 306.202C186.249 306.507 184.938 306.673 183.993 305.841C183.055 304.994 182.555 304.987 181.887 304.727C181.474 304.573 180.717 304.532 180.15 304.536" stroke="#7168EE" stroke-miterlimit="10" stroke-linecap="round" stroke-linejoin="round"/>
<path d="M178.623 304.07C178.623 304.07 179.303 304.256 180.15 304.534C181.22 304.873 182.566 305.306 183.173 305.59C184.034 306.015 184.494 306.483 184.902 306.833C185.326 307.19 186.293 308.181 186.72 308.522C187.163 308.856 187.479 309.272 187.001 309.553C186.537 309.84 185.076 309.861 184.135 308.83C183.174 307.798 182.672 307.628 181.926 307.36C180.838 306.953 179.367 306.553 179.005 306.46C178.97 306.451 178.937 306.44 178.937 306.44" stroke="#7168EE" stroke-miterlimit="10" stroke-linecap="round" stroke-linejoin="round"/>
<path d="M119.444 272.078C119.444 272.078 130.449 287.36 134.715 293.166C134.715 293.166 128.574 303.34 120.798 307.242L107.362 292.33" stroke="#7168EE" stroke-miterlimit="10" stroke-linecap="round" stroke-linejoin="round"/>
<path d="M113.972 299.664C113.972 299.664 109.088 297.166 106.001 295.84" stroke="#7168EE" stroke-miterlimit="10" stroke-linecap="round" stroke-linejoin="round"/>
<path d="M184.43 330.464C184.279 331.367 184.888 332.224 185.792 332.375L197.705 334.375C198.61 334.527 199.466 333.917 199.617 333.014L201.747 320.327C201.899 319.423 201.289 318.566 200.385 318.415L188.472 316.415C187.568 316.264 186.711 316.873 186.56 317.777L184.43 330.464Z" fill="#B7B4DF" stroke="#7168EE" stroke-miterlimit="10" stroke-linejoin="round"/>
<path d="M189.989 297.344C189.838 298.247 190.448 299.104 191.352 299.255L203.265 301.255C204.169 301.406 205.025 300.797 205.177 299.894L207.307 287.207C207.458 286.303 206.848 285.446 205.944 285.295L194.031 283.295C193.127 283.143 192.271 283.753 192.119 284.657L189.989 297.344Z" fill="#B7B4DF" stroke="#7168EE" stroke-miterlimit="10" stroke-linejoin="round"/>
<path d="M191.913 337.637C191.489 340.159 189.897 341.582 187.677 342.73C185.456 343.878 162.44 358.173 168.81 402.014L157.566 400.127C157.566 400.127 149.554 369.372 145.992 339.365C143.535 318.673 151.606 304.664 164.132 293.231C172.057 285.998 181.328 278.88 196.401 271.142C199.782 269.407 203.149 270.712 202.377 275.315C201.602 279.918 191.913 337.637 191.913 337.637Z" fill="#B7B4DF" stroke="#7168EE" stroke-miterlimit="10" stroke-linejoin="round"/>
<path d="M180.462 340.018C178.614 340.077 177.068 338.629 177.009 336.78C176.948 334.945 178.396 333.397 180.244 333.337C182.082 333.277 183.627 334.73 183.686 336.564C183.748 338.411 182.298 339.957 180.462 340.018Z" stroke="#7168EE" stroke-miterlimit="10" stroke-linejoin="round"/>
<path d="M180.316 335.546L180.354 336.671L180.39 337.81" stroke="#7168EE" stroke-miterlimit="10" stroke-linecap="round" stroke-linejoin="round"/>
<path d="M181.493 336.634L180.354 336.671L179.216 336.709" stroke="#7168EE" stroke-miterlimit="10" stroke-linecap="round" stroke-linejoin="round"/>
<path d="M179.754 318.272C177.905 318.333 176.361 316.885 176.299 315.036C176.239 313.201 177.689 311.654 179.535 311.592C181.372 311.533 182.918 312.983 182.978 314.819C183.038 316.666 181.59 318.211 179.754 318.272Z" stroke="#7168EE" stroke-miterlimit="10" stroke-linejoin="round"/>
<path d="M179.606 313.802L179.645 314.927L179.683 316.065" stroke="#7168EE" stroke-miterlimit="10" stroke-linecap="round" stroke-linejoin="round"/>
<path d="M180.784 314.889L179.645 314.927L178.507 314.964" stroke="#7168EE" stroke-miterlimit="10" stroke-linecap="round" stroke-linejoin="round"/>
<path d="M179.044 296.528C177.196 296.588 175.651 295.138 175.589 293.289C175.53 291.457 176.981 289.908 178.827 289.848C180.663 289.788 182.209 291.239 182.269 293.074C182.329 294.922 180.882 296.468 179.044 296.528Z" stroke="#7168EE" stroke-miterlimit="10" stroke-linejoin="round"/>
<path d="M178.897 292.057L178.936 293.182L178.973 294.322" stroke="#7168EE" stroke-miterlimit="10" stroke-linecap="round" stroke-linejoin="round"/>
<path d="M180.076 293.145L178.936 293.182L177.8 293.22" stroke="#7168EE" stroke-miterlimit="10" stroke-linecap="round" stroke-linejoin="round"/>
<path d="M99.8789 404.055L91.2679 409.217C88.6979 407.837 84.2329 405.282 80.4419 402.321L92.6609 393.112L99.8789 404.055Z" fill="#CCC9F3"/>
<path d="M99.879 404.055L74.608 419.201L70.104 413.028L71.455 409.094L92.66 393.111L99.879 404.055Z" stroke="#7168EE" stroke-miterlimit="10" stroke-linecap="round" stroke-linejoin="round"/>
<path d="M71.4551 409.094L66.1841 416.594L86.5841 430.333C86.2641 426.333 88.3941 424.283 88.3941 424.283C88.3941 424.283 82.8841 415.773 82.2241 414.483C81.5651 413.193 80.6441 413.153 79.3541 413.153C78.0651 413.153 73.6851 413.443 71.4551 409.094Z" fill="#FFC96B"/>
<path d="M66.1851 416.594L86.5851 430.333H97.5851" stroke="#7168EE" stroke-miterlimit="10" stroke-linecap="round" stroke-linejoin="round"/>
<path d="M88.395 424.283C88.395 424.283 82.885 415.773 82.225 414.483C81.566 413.193 80.645 413.153 79.355 413.153C78.066 413.153 73.685 413.443 71.456 409.094L66.185 416.594L64.335 419.213L85.145 433.243H97.585V430.333C97.585 430.333 97.455 427.023 88.395 424.283ZM88.395 424.283C88.395 424.283 86.265 426.333 86.585 430.333" stroke="#7168EE" stroke-miterlimit="10" stroke-linecap="round" stroke-linejoin="round"/>
<path d="M81.16 415.031C80.658 415.406 80.555 416.119 80.93 416.62C81.306 417.122 82.018 417.227 82.521 416.85L83.917 415.882C84.419 415.506 84.522 414.794 84.147 414.292C83.771 413.79 83.059 413.687 82.556 414.062L81.16 415.031Z" stroke="#7168EE" stroke-miterlimit="10" stroke-linecap="round" stroke-linejoin="round"/>
<path d="M83.118 418.428C82.616 418.803 82.513 419.516 82.888 420.017C83.264 420.519 83.976 420.623 84.479 420.247L85.875 419.279C86.377 418.903 86.48 418.191 86.105 417.689C85.729 417.187 85.017 417.084 84.514 417.459L83.118 418.428Z" stroke="#7168EE" stroke-miterlimit="10" stroke-linecap="round" stroke-linejoin="round"/>
<path d="M85.076 421.824C84.574 422.199 84.471 422.912 84.846 423.413C85.222 423.915 85.934 424.019 86.437 423.643L87.833 422.675C88.335 422.299 88.438 421.587 88.063 421.085C87.687 420.583 86.975 420.48 86.472 420.855L85.076 421.824Z" stroke="#7168EE" stroke-miterlimit="10" stroke-linecap="round" stroke-linejoin="round"/>
<path d="M94.479 339.653C94.479 339.653 105.354 358.278 111.979 377.653L76.479 403.528C76.479 403.528 83.436 411.153 88.395 414.528C117.854 397.778 134.291 388.34 135.666 387.465C137.041 386.59 138.729 383.527 138.791 381.34C138.853 379.153 131.436 333.777 131.436 333.777L94.479 339.653Z" fill="#A5BCD6" stroke="#7168EE" stroke-miterlimit="10" stroke-linecap="round" stroke-linejoin="round"/>
<path d="M111.979 377.653C111.979 377.653 118.396 379.861 123.271 385.361" stroke="#7168EE" stroke-miterlimit="10" stroke-linecap="round" stroke-linejoin="round"/>
<path d="M111.781 377.081C111.781 377.081 119.561 375.652 129.436 379.611" stroke="#7168EE" stroke-miterlimit="10" stroke-linecap="round" stroke-linejoin="round"/>
<path d="M154.564 405.549C151.623 406.778 145.794 408.719 141.256 410.058L145.165 394.946L157.104 394.966L154.564 405.549Z" fill="#CCC9F3"/>
<path d="M157.105 394.966L150.265 423.452L140.634 424.375L139.248 420.721L145.166 394.945L157.105 394.966Z" stroke="#7168EE" stroke-miterlimit="10" stroke-linecap="round" stroke-linejoin="round"/>
<path d="M139.248 420.724L139.018 429.884L162.338 429.984C162.588 425.934 164.508 424.984 164.508 424.984C164.508 424.984 152.468 419.954 151.198 419.244C149.937 418.534 149.147 419.015 148.067 419.724C146.998 420.443 143.518 423.103 139.248 420.724Z" fill="#FFC96B"/>
<path d="M139.018 429.884L162.338 429.984L172.798 430.024M139.018 429.884L138.928 433.244H164.018H172.798V430.024M139.018 429.884L139.248 420.724C143.518 423.104 146.998 420.444 148.067 419.724C149.147 419.014 149.937 418.534 151.198 419.244C152.468 419.954 164.508 424.984 164.508 424.984C164.508 424.984 171.428 425.784 172.798 430.024" stroke="#7168EE" stroke-miterlimit="10" stroke-linecap="round" stroke-linejoin="round"/>
<path d="M164.508 424.983C164.508 424.983 162.588 425.933 162.338 429.983" stroke="#7168EE" stroke-miterlimit="10" stroke-linecap="round" stroke-linejoin="round"/>
<path d="M150.617 420.288C150.406 420.878 150.715 421.53 151.305 421.738C151.896 421.948 152.547 421.64 152.757 421.049L153.384 419.47C153.594 418.878 153.285 418.228 152.696 418.018C152.104 417.808 151.454 418.117 151.243 418.707L150.617 420.288Z" stroke="#7168EE" stroke-miterlimit="10" stroke-linecap="round" stroke-linejoin="round"/>
<path d="M154.129 422.031C153.918 422.621 154.227 423.272 154.818 423.482C155.409 423.691 156.059 423.384 156.27 422.792L156.896 421.213C157.105 420.622 156.797 419.973 156.208 419.762C155.617 419.553 154.966 419.861 154.756 420.452L154.129 422.031Z" stroke="#7168EE" stroke-miterlimit="10" stroke-linecap="round" stroke-linejoin="round"/>
<path d="M157.641 423.774C157.43 424.365 157.739 425.015 158.329 425.224C158.92 425.434 159.57 425.126 159.781 424.535L160.407 422.956C160.618 422.365 160.309 421.714 159.718 421.505C159.127 421.295 158.477 421.603 158.266 422.193L157.641 423.774Z" stroke="#7168EE" stroke-miterlimit="10" stroke-linecap="round" stroke-linejoin="round"/>
<path d="M93.604 340.028C93.604 340.028 97.927 350.012 110.354 354.278C123.932 358.939 148.177 361.278 148.177 361.278L138.869 415.457H153.45C153.45 415.457 171.273 363.778 172.376 359.528C173.478 355.278 172.689 349.778 171.271 348.278C169.853 346.778 127.853 325.278 127.853 325.278L93.604 340.028Z" fill="#A5BCD6" stroke="#7168EE" stroke-miterlimit="10" stroke-linecap="round" stroke-linejoin="round"/>
<path d="M148.177 361.278C148.177 361.278 153.271 358.57 163.271 357.32" stroke="#7168EE" stroke-miterlimit="10" stroke-linecap="round" stroke-linejoin="round"/>
<path d="M147.497 361.209C147.497 361.209 149.77 356.736 158.27 352.57" stroke="#7168EE" stroke-miterlimit="10" stroke-linecap="round" stroke-linejoin="round"/>
<path d="M108.104 247.403L106.866 253.523L103.672 260.403L120.479 270.966L121.554 250.612L108.104 247.403Z" stroke="#7168EE" stroke-miterlimit="10" stroke-linecap="round" stroke-linejoin="round"/>
<path d="M129.99 253.064C129.99 253.064 126.898 252.201 125.616 251.728C124.335 251.251 124.035 250.773 124.035 250.773" stroke="#FF8CB0" stroke-width="0.75" stroke-miterlimit="10" stroke-linecap="round" stroke-linejoin="round"/>
<path d="M130.838 229.498C133.358 232.485 133.308 235.981 132.603 239.336C131.895 242.686 132.027 242.909 132.049 243.981C132.071 245.049 133.849 248.377 133.584 248.826C133.319 249.273 132.509 249.961 131.496 250.314C131.269 251.557 131.353 251.897 131.153 252.256C130.951 252.618 129.99 253.064 129.99 253.064C129.99 253.064 130.013 254.487 129.773 254.949C129.535 255.407 128.524 255.431 128.085 256.435C127.644 257.437 126.994 260.428 126.803 260.839C126.612 261.255 124.453 261.364 123.146 261.093C121.838 260.821 113.521 257.027 112.146 255.402C111.411 254.533 109.712 249.883 109.712 249.883C109.712 249.883 102.364 244.978 103.878 234.292C105.393 223.608 115.587 222.076 121.056 223.555C126.524 225.035 128.672 226.931 130.838 229.498Z" stroke="#7168EE" stroke-miterlimit="10" stroke-linecap="round" stroke-linejoin="round"/>
<path d="M121.264 230.989H121.256C120.502 233.626 119.557 237.002 119.557 237.002C118.954 236.344 118.543 235.564 118.255 234.781L116.609 239.486C116.609 239.486 113.943 240.096 113.805 240.341C113.675 240.581 112.305 244.795 112.305 244.795C111.607 245.019 111.188 244.624 111.188 244.624L110.542 241.427L109.186 242.323L106.867 253.522C106.867 253.522 102.124 245.036 101.672 243.556C101.218 242.076 100.122 238.53 100.509 233.331C102.01 228.286 104.55 226.025 104.55 226.025C104.55 226.025 104.374 224.374 105.581 222.439C106.781 220.503 108.379 219.518 111.503 216.492C111.689 217.747 111.052 218.847 110.997 218.946C119.142 216.671 126.273 219.368 129.279 221.307C132.278 223.247 135.919 228.674 138.819 229.247C137.6 230.693 135.653 230.343 135.653 230.343C135.653 230.343 136.034 232.583 135.64 234.424C135.255 236.259 134.684 237.5 132.659 239.041C132.275 235.911 128.897 234.481 126.674 231.922C126.79 233.02 126.711 236.317 126.711 236.317C123.666 234.727 122.079 232.613 121.264 230.989Z" fill="#FFC96B"/>
<path d="M117.624 230.759C117.624 230.759 117.522 232.787 118.255 234.781C118.543 235.563 118.954 236.344 119.557 237.002C119.557 237.002 120.502 233.626 121.256 230.989" stroke="#7168EE" stroke-miterlimit="10" stroke-linecap="round" stroke-linejoin="round"/>
<path d="M110.996 218.947C111.051 218.848 111.687 217.748 111.502 216.493C108.378 219.519 106.78 220.505 105.58 222.44C104.373 224.375 104.549 226.026 104.549 226.026C104.549 226.026 102.009 228.287 100.508 233.332C100.121 238.53 101.217 242.076 101.671 243.557C102.123 245.037 106.866 253.523 106.866 253.523L109.185 242.324L110.541 241.428L111.187 244.625C111.187 244.625 111.606 245.02 112.304 244.796C112.304 244.796 113.674 240.582 113.804 240.342C113.942 240.098 116.608 239.487 116.608 239.487L118.254 234.782" stroke="#7168EE" stroke-miterlimit="10" stroke-linecap="round" stroke-linejoin="round"/>
<path d="M120.415 228.532C120.415 228.532 120.546 229.572 121.264 230.989C122.079 232.613 123.666 234.727 126.71 236.318C126.71 236.318 126.789 233.021 126.673 231.923C128.897 234.483 132.275 235.912 132.658 239.042C134.683 237.501 135.255 236.26 135.639 234.425C136.033 232.584 135.652 230.344 135.652 230.344C135.652 230.344 137.599 230.695 138.818 229.248C135.918 228.675 132.277 223.248 129.278 221.308C126.272 219.369 119.14 216.671 110.996 218.947L110.986 218.954" stroke="#7168EE" stroke-miterlimit="10" stroke-linecap="round" stroke-linejoin="round"/>
<path d="M130.474 249.42C130.474 249.42 130.206 249.411 130.017 249.52" stroke="#FF9C8C" stroke-width="0.75" stroke-miterlimit="10" stroke-linecap="round" stroke-linejoin="round"/>
<path d="M130.094 241.632C130.094 241.632 128.287 240.733 126.024 241.668" stroke="#7168EE" stroke-miterlimit="10" stroke-linecap="round" stroke-linejoin="round"/>
<path d="M129.777 241.408C129.836 241.655 129.854 241.936 129.822 242.233C129.719 243.133 129.197 243.813 128.657 243.754C128.112 243.694 127.754 242.913 127.854 242.012C127.878 241.806 127.925 241.615 127.987 241.437C128.482 241.383 129.154 241.344 129.777 241.408Z" fill="#7168EE"/>
<path d="M131.083 238.802C131.331 238.961 131.375 239.106 131.339 239.211C131.288 239.356 130.957 239.84 130.492 239.935C130.028 240.024 129.738 239.783 129.308 239.524C128.878 239.267 127.317 238.093 126.429 237.867C125.896 237.729 124.566 237.867 124.623 237.702C124.679 237.537 126.057 236.923 126.831 237.067C127.744 237.239 129.509 237.789 131.083 238.802Z" fill="#7168EE"/>
<path d="M107.664 241.309C107.918 241.528 108.167 241.77 108.38 242.027C108.605 242.278 108.8 242.558 108.986 242.844C109.164 243.137 109.331 243.439 109.453 243.77C109.61 244.084 109.651 244.448 109.748 244.792L109.749 244.793C109.777 245.068 109.577 245.314 109.302 245.342C109.212 245.351 109.124 245.336 109.047 245.301L109.004 245.281C108.94 245.252 108.882 245.209 108.814 245.174C108.737 245.159 108.66 245.126 108.579 245.112C108.499 245.115 108.411 245.098 108.33 245.107C108.257 245.13 108.161 245.126 108.093 245.16C108.035 245.203 107.935 245.213 107.893 245.275C107.854 245.335 107.759 245.368 107.747 245.455C107.729 245.534 107.653 245.599 107.665 245.699L107.649 245.99L107.645 246.061C107.638 246.181 107.536 246.272 107.416 246.266C107.312 246.26 107.23 246.182 107.214 246.084L107.149 245.681C107.113 245.546 107.177 245.395 107.196 245.248C107.208 245.093 107.324 244.974 107.4 244.837C107.481 244.696 107.62 244.626 107.738 244.521C107.863 244.429 108.007 244.389 108.148 244.327C108.291 244.282 108.439 244.27 108.588 244.246C108.737 244.239 108.889 244.258 109.042 244.27C109.193 244.304 109.347 244.36 109.499 244.415L108.754 244.905C108.697 244.629 108.709 244.338 108.6 244.064C108.53 243.781 108.414 243.509 108.287 243.239C108.15 242.974 108.005 242.707 107.826 242.462C107.655 242.206 107.464 241.979 107.256 241.756L107.246 241.746C107.132 241.624 107.139 241.433 107.26 241.32C107.374 241.211 107.549 241.21 107.664 241.309Z" fill="#7168EE"/>
<path d="M110.088 249.985C110.088 249.985 106.542 248.831 105.095 245.624C103.651 242.416 105.046 239.186 107.005 239.219C108.964 239.253 110.543 241.422 110.543 241.422L110.764 242.526" stroke="#7168EE" stroke-miterlimit="10" stroke-linecap="round" stroke-linejoin="round"/>
<path d="M102.541 257.278C102.541 257.278 116.379 264.903 121.554 269.403C121.554 269.403 125.354 281.341 125.541 295.778C125.728 310.215 124.666 320.716 124.728 321.341C124.79 321.966 130.103 324.779 130.103 324.779C130.103 324.779 123.603 337.404 114.353 341.467C105.103 345.53 90.603 342.467 90.603 342.467C90.603 342.467 91.666 331.279 91.791 328.217C91.916 325.155 91.228 291.092 92.979 279.029C94.73 266.966 102.541 257.278 102.541 257.278Z" stroke="#7168EE" stroke-miterlimit="10" stroke-linecap="round" stroke-linejoin="round"/>
<path d="M124.729 321.341C124.729 321.341 120.329 327.904 109.341 332.279" stroke="#7168EE" stroke-miterlimit="10" stroke-linecap="round" stroke-linejoin="round"/>
<path d="M115.237 300.89C117.51 303.921 121.008 308.274 124.012 311.627C126.996 307.973 129.985 303.331 131.816 300.346C130.105 297.318 127.326 292.183 124.644 287.349L111.693 295.719C112.75 297.399 113.922 299.137 115.237 300.89Z" fill="#CCC9F3"/>
<path d="M171.271 317.064C167.17 318.777 164.465 320.03 162.011 317.976C155.585 316.954 143.832 316.202 138.644 316.094C133.248 315.968 127.377 315.182 126.292 314.068C122.975 310.711 118.119 304.735 115.236 300.89C110.158 294.122 107.174 287.56 104.955 283.761C102.327 279.235 103.906 274.399 108.106 273.23C112.104 272.123 116.701 273.479 121.273 281.372C125.839 289.279 132.669 302.226 133.419 302.995C134.987 304.633 137.29 304.018 143.778 305.992C148.301 307.354 160.487 311.451 163.845 311.154C167.004 310.865 173.62 309.491 174.065 309.494" stroke="#7168EE" stroke-miterlimit="10" stroke-linecap="round" stroke-linejoin="round"/>
<path d="M173.035 315.605C173.659 316.172 174.569 316.971 174.947 317.266C175.555 317.723 175.695 318.252 175.919 318.629C176.126 318.997 176.429 320.13 176.657 320.489C176.886 320.848 177.01 321.238 176.579 321.326C176.151 321.427 175.208 320.962 174.786 319.958C174.365 318.944 173.973 318.745 173.54 318.285C172.782 317.568 171.272 317.062 171.272 317.062" stroke="#7168EE" stroke-miterlimit="10" stroke-linecap="round" stroke-linejoin="round"/>
<path d="M172.376 315.02C172.376 315.02 172.64 315.273 173.017 315.598" stroke="#7168EE" stroke-miterlimit="10" stroke-linecap="round" stroke-linejoin="round"/>
<path d="M173.944 313.776C174.858 314.266 176.285 315.048 176.864 315.475C177.572 315.982 177.884 316.469 178.192 316.861C178.51 317.238 179.187 318.28 179.528 318.646C179.842 319.013 180.063 319.44 179.597 319.608C179.136 319.791 177.838 319.567 177.17 318.481C176.506 317.406 176.028 317.257 175.465 316.81C174.936 316.376 173.26 315.694 173.034 315.605C173.015 315.597 173.015 315.597 173.015 315.597" stroke="#7168EE" stroke-miterlimit="10" stroke-linecap="round" stroke-linejoin="round"/>
<path d="M173.093 313.343C173.093 313.343 173.419 313.514 173.879 313.749" stroke="#7168EE" stroke-miterlimit="10" stroke-linecap="round" stroke-linejoin="round"/>
<path d="M174.067 309.493C174.067 309.493 177.149 310.321 178.137 310.803C178.926 311.184 179.314 311.599 179.692 311.924C180.048 312.241 180.938 313.144 181.306 313.442C181.704 313.761 181.981 314.139 181.563 314.382C181.136 314.64 179.815 314.657 178.969 313.724C178.132 312.777 177.637 312.712 177.002 312.379C176.608 312.179 175.861 312.053 175.297 311.992" stroke="#7168EE" stroke-miterlimit="10" stroke-linecap="round" stroke-linejoin="round"/>
<path d="M173.833 311.359C173.833 311.359 174.487 311.62 175.298 311.992C176.323 312.45 177.611 313.032 178.184 313.383C178.992 313.902 179.396 314.418 179.762 314.813C180.143 315.216 180.992 316.309 181.378 316.696C181.78 317.078 182.047 317.527 181.541 317.753C181.047 317.986 179.594 317.842 178.774 316.712C177.936 315.577 177.456 315.352 176.745 315.002C175.71 314.475 174.294 313.912 173.944 313.777C173.911 313.764 173.879 313.75 173.879 313.75" stroke="#7168EE" stroke-miterlimit="10" stroke-linecap="round" stroke-linejoin="round"/>
<path d="M118.642 272.894C118.642 272.894 127.853 289.321 131.437 295.571C131.437 295.571 124.188 304.987 116.021 307.987L104.354 291.654" stroke="#7168EE" stroke-miterlimit="10" stroke-linecap="round" stroke-linejoin="round"/>
<path d="M110.092 299.685C110.092 299.685 105.521 296.652 102.604 294.986" stroke="#7168EE" stroke-miterlimit="10" stroke-linecap="round" stroke-linejoin="round"/>
<path d="M221.916 179.615H187.241V187.863H221.916V179.615Z" fill="#A5BCD6" stroke="#7168EE" stroke-miterlimit="10" stroke-linecap="round" stroke-linejoin="round"/>
<path d="M193.716 0V179.33H186.216V0" stroke="#7168EE" stroke-miterlimit="10" stroke-linejoin="round"/>
<path d="M189.966 194.864C196.11 194.864 201.091 189.883 201.091 183.739C201.091 177.595 196.11 172.614 189.966 172.614C183.822 172.614 178.841 177.595 178.841 183.739C178.841 189.883 183.822 194.864 189.966 194.864Z" stroke="#7168EE" stroke-miterlimit="10" stroke-linecap="round" stroke-linejoin="round"/>
<path d="M189.966 190.739C193.832 190.739 196.966 187.605 196.966 183.739C196.966 179.873 193.832 176.739 189.966 176.739C186.1 176.739 182.966 179.873 182.966 183.739C182.966 187.605 186.1 190.739 189.966 190.739Z" fill="#A5BCD6" stroke="#7168EE" stroke-miterlimit="10" stroke-linecap="round" stroke-linejoin="round"/>
<path d="M192.497 182.52H191.184V181.207C191.184 180.534 190.639 179.988 189.965 179.988C189.293 179.988 188.746 180.534 188.746 181.207V182.52H187.433C186.761 182.52 186.214 183.066 186.214 183.739C186.214 184.412 186.761 184.958 187.433 184.958H188.746V186.271C188.746 186.944 189.293 187.49 189.965 187.49C190.639 187.49 191.184 186.944 191.184 186.271V184.958H192.497C193.171 184.958 193.716 184.412 193.716 183.739C193.716 183.066 193.171 182.52 192.497 182.52Z" stroke="#7168EE" stroke-miterlimit="10" stroke-linecap="round" stroke-linejoin="round"/>
<path d="M197.278 109.364C197.278 107.707 195.936 106.364 194.278 106.364H185.653C183.997 106.364 182.653 107.707 182.653 109.364V140.114C182.653 141.771 183.997 143.114 185.653 143.114H194.278C195.936 143.114 197.278 141.771 197.278 140.114V109.364Z" fill="#A5BCD6" stroke="#7168EE" stroke-miterlimit="10" stroke-linecap="round" stroke-linejoin="round"/>
<path d="M196.761 167.331C196.937 168.299 196.294 169.226 195.327 169.402L185.243 171.235C184.274 171.411 183.347 170.769 183.171 169.801C182.995 168.833 183.638 167.905 184.605 167.73L194.691 165.897C195.657 165.722 196.585 166.363 196.761 167.331Z" fill="#FFC96B" stroke="#7168EE" stroke-miterlimit="10" stroke-linejoin="round"/>
<path d="M196.761 160.769C196.937 161.737 196.294 162.664 195.327 162.84L185.243 164.673C184.274 164.849 183.347 164.207 183.171 163.239C182.995 162.271 183.638 161.343 184.605 161.168L194.691 159.335C195.657 159.159 196.585 159.801 196.761 160.769Z" fill="#FFC96B" stroke="#7168EE" stroke-miterlimit="10" stroke-linejoin="round"/>
<path d="M196.761 154.206C196.937 155.174 196.294 156.101 195.327 156.277L185.243 158.11C184.274 158.286 183.347 157.644 183.171 156.676C182.995 155.708 183.638 154.78 184.605 154.605L194.691 152.772C195.657 152.597 196.585 153.238 196.761 154.206Z" fill="#FFC96B" stroke="#7168EE" stroke-miterlimit="10" stroke-linejoin="round"/>
<path d="M196.761 147.644C196.937 148.612 196.294 149.539 195.327 149.715L185.243 151.548C184.274 151.724 183.347 151.082 183.171 150.114C182.995 149.146 183.638 148.218 184.605 148.043L194.691 146.21C195.657 146.034 196.585 146.676 196.761 147.644Z" fill="#FFC96B" stroke="#7168EE" stroke-miterlimit="10" stroke-linejoin="round"/>
<path d="M207.875 179.615V187.863" stroke="#7168EE" stroke-miterlimit="10" stroke-linecap="round" stroke-linejoin="round"/>
<path d="M268.364 316.065C268.364 318.762 270.55 320.95 273.248 320.95C275.945 320.95 278.133 318.762 278.133 316.065C278.133 313.368 275.945 311.181 273.248 311.181C270.551 311.182 268.364 313.368 268.364 316.065Z" stroke="#7168EE" stroke-miterlimit="10" stroke-linecap="round" stroke-linejoin="round"/>
<path d="M500 447.786H289.326C277.708 447.786 275.748 445.507 275.748 440.397V316.065C275.748 314.684 274.629 313.565 273.248 313.565C271.867 313.565 270.748 314.684 270.748 316.065V440.397C270.748 451.829 280.338 452.786 289.326 452.786H500" fill="#A5BCD6"/>
<path d="M500 447.786H289.326C277.708 447.786 275.748 445.507 275.748 440.397V316.065C275.748 314.684 274.629 313.565 273.248 313.565C271.867 313.565 270.748 314.684 270.748 316.065V440.397C270.748 451.829 280.338 452.786 289.326 452.786H500" stroke="#7168EE" stroke-miterlimit="10" stroke-linejoin="round"/>
<path d="M231.636 316.065C231.636 318.762 229.449 320.95 226.752 320.95C224.055 320.95 221.867 318.762 221.867 316.065C221.867 313.368 224.055 311.181 226.752 311.181C229.449 311.182 231.636 313.368 231.636 316.065Z" stroke="#7168EE" stroke-miterlimit="10" stroke-linecap="round" stroke-linejoin="round"/>
<path d="M0 447.786H210.674C222.292 447.786 224.252 445.507 224.252 440.397V316.065C224.252 314.684 225.371 313.565 226.752 313.565C228.133 313.565 229.252 314.684 229.252 316.065V440.397C229.252 451.829 219.662 452.786 210.674 452.786H0" fill="#A5BCD6"/>
<path d="M0 447.786H210.674C222.292 447.786 224.252 445.507 224.252 440.397V316.065C224.252 314.684 225.371 313.565 226.752 313.565C228.133 313.565 229.252 314.684 229.252 316.065V440.397C229.252 451.829 219.662 452.786 210.674 452.786H0" stroke="#7168EE" stroke-miterlimit="10" stroke-linejoin="round"/>
<path d="M278.919 86.4502L279.295 88.6042L281.169 89.7292L279.235 90.7512L278.746 92.8802L277.177 91.3592L274.999 91.5512L275.961 89.5872L275.105 87.5752L277.271 87.8842L278.919 86.4502Z" stroke="#7168EE" stroke-width="0.75" stroke-miterlimit="10" stroke-linejoin="round"/>
<path d="M129.945 182.583L131.803 183.735L133.89 183.087L133.365 185.21L134.628 186.992L132.448 187.151L131.142 188.903L130.316 186.878L128.246 186.177L129.918 184.768L129.945 182.583Z" fill="#FFC96B" stroke="#7168EE" stroke-width="0.75" stroke-miterlimit="10" stroke-linejoin="round"/>
<path d="M319.788 254.118L321.645 255.27L323.732 254.622L323.208 256.745L324.471 258.527L322.291 258.686L320.984 260.439L320.159 258.413L318.089 257.712L319.761 256.303L319.788 254.118Z" stroke="#7168EE" stroke-width="0.75" stroke-miterlimit="10" stroke-linejoin="round"/>
<path d="M40.8169 275.348L45.5389 276.096L42.5309 279.814L40.8169 275.348Z" stroke="#7168EE" stroke-width="0.75" stroke-miterlimit="10" stroke-linecap="round" stroke-linejoin="round"/>
<path d="M419.957 272.336L424.679 273.084L421.671 276.802L419.957 272.336Z" stroke="#FF6684" stroke-width="0.75" stroke-miterlimit="10" stroke-linecap="round" stroke-linejoin="round"/>
<path d="M371.613 92.0142C370.045 92.0142 370.045 93.1882 368.478 93.1882C366.91 93.1882 366.91 92.0142 365.341 92.0142C363.773 92.0142 363.773 93.1882 362.204 93.1882C360.634 93.1882 360.634 92.0142 359.065 92.0142C357.493 92.0142 357.493 93.1882 355.921 93.1882C354.35 93.1882 354.35 92.0142 352.777 92.0142" stroke="#7168EE" stroke-width="0.75" stroke-miterlimit="10" stroke-linecap="round" stroke-linejoin="round"/>
<path d="M134.791 55.3191C133.223 55.3191 133.223 56.4931 131.656 56.4931C130.088 56.4931 130.088 55.3191 128.519 55.3191C126.951 55.3191 126.951 56.4931 125.382 56.4931C123.812 56.4931 123.812 55.3191 122.243 55.3191C120.671 55.3191 120.671 56.4931 119.098 56.4931C117.527 56.4931 117.527 55.3191 115.955 55.3191" stroke="#7168EE" stroke-width="0.75" stroke-miterlimit="10" stroke-linecap="round" stroke-linejoin="round"/>
<path d="M171.26 238.108L171.997 237.633C173.752 236.502 173.756 235.675 173.757 235.364C173.76 234.616 173.155 234.009 172.407 234.009C171.935 234.009 171.519 234.25 171.274 234.616C171.034 234.25 170.619 234.009 170.148 234.009C169.399 234.009 168.79 234.616 168.786 235.364C168.785 235.675 168.782 236.502 170.526 237.633L171.26 238.108Z" stroke="#FF6684" stroke-width="0.75" stroke-miterlimit="10" stroke-linecap="round" stroke-linejoin="round"/>
</g>
<defs>
<clipPath id="clip0_1404_428">
<rect width="500" height="500" fill="white"/>
</clipPath>
</defs>
</svg>
