<svg width="127" height="127" viewBox="0 0 127 127" fill="none" xmlns="http://www.w3.org/2000/svg">
<g clip-path="url(#clip0_1447_99)">
<path fill-rule="evenodd" clip-rule="evenodd" d="M102.8 71.5999C94.9002 68.6999 90.8002 63.0999 90.7002 54.4999C90.7002 54.4999 109.6 47.9999 112.6 52.2999C116.6 58.0999 102.8 71.5999 102.8 71.5999Z" fill="#0E2238"/>
<path fill-rule="evenodd" clip-rule="evenodd" d="M82 3.2998C82 3.2998 88 10.3998 87.2 10.9998C86.4 11.4998 83 10.9998 84 12.1998L90.1 19.3998C90.1 19.3998 83 13.3998 82.2 11.5998C81.4 9.7998 84.5 10.0998 85 9.3998L82 3.2998Z" fill="white"/>
<path fill-rule="evenodd" clip-rule="evenodd" d="M51.2999 100.3C54.6999 93.4001 41.8999 87.5001 41.8999 87.5001C41.8999 87.5001 38.6999 85.3001 33.6999 88.6001C28.6999 91.9001 24.5999 94.4001 20.7999 94.5001C16.9999 94.6001 21.9999 97.7001 25.0999 96.8001C28.1999 95.9001 23.0999 98.1001 20.6999 101.7C18.2999 105.3 16.1999 105 13.2999 104C10.3999 103.1 12.7999 107 17.7999 107C22.7999 107 13.7999 110.8 8.79987 110.4C3.89987 110 9.69987 115.6 16.3999 113.7C23.6999 111.7 12.7999 117.6 15.6999 117.8C18.5999 118 22.4999 114 25.3999 113.7C28.2999 113.4 24.9999 119.7 26.5999 120.9C27.6999 121.7 27.9999 114.2 31.4999 112.6C34.9999 111 30.5999 116.1 31.5999 119.1C32.3999 121.7 33.2999 114 40.8999 110.5C46.9999 107.7 47.8999 107.3 51.2999 100.3Z" fill="#7168EE"/>
<path fill-rule="evenodd" clip-rule="evenodd" d="M47.2001 98.2C46.9001 92.6 42.4001 91.2 42.4001 91.2C42.4001 91.2 38.0001 90.2 36.0001 92.7C34.1001 95.2 32.3001 96.2 30.6001 96.7C28.9001 97.1 28.6001 98.7 31.2001 98.8C33.8001 98.9 30.6001 101.3 29.6001 103.1C28.6001 104.9 25.7001 105.9 24.6001 106.5C23.5001 107 24.1001 108.3 26.8001 107.5C29.5001 106.6 33.4001 103.8 33.5001 105.3C33.6001 106.8 29.6001 108 30.8001 108.7C32.0001 109.4 35.7001 104.5 37.2001 105.1C38.7001 105.7 34.6001 109.9 40.5001 107.4C46.4001 104.9 47.4001 100.8 47.2001 98.2Z" fill="#7168EE"/>
<path fill-rule="evenodd" clip-rule="evenodd" d="M102.8 71.6C102.8 71.6 90.8 68.7 90.7 54.5C90.7 54.5 70 61 56.8 71.6L39.5 68L13.5 90.2L44.3 83.6C42.1 86.3 41.9 87.4 42 87.9C42.1 89.2 43 93.8 45.8 96.7C48.6 99.5 50.3 100.4 52.6 100.1C53.8 99.9 54.9 99.5 56.1 99.2L36.8 123.9L68 110L72.4 92.8C82.8 88 95 80.9 102.8 71.6Z" fill="white"/>
<path d="M103 71.2001C102.9 71.2001 91.3002 68.2001 91.1002 54.4001V54.3001L91.0002 54.2001C91.0002 54.2001 90.9002 54.2001 90.9002 54.1001H90.8002C90.6002 54.2001 70.0002 60.7001 56.9002 71.2001L39.8002 67.7001H39.7002C39.7002 67.7001 39.6002 67.7001 39.6002 67.8001L13.3002 89.8001C13.3002 89.8001 13.2002 89.9001 13.2002 90.0001V90.2001C13.2002 90.3001 13.3002 90.3001 13.3002 90.4001C13.4002 90.4001 13.4002 90.5001 13.5002 90.5001C13.6002 90.5001 12.1002 90.8001 43.5002 84.1001C42.2002 85.8001 41.6002 87.1001 41.6002 87.9001C41.7002 88.9001 41.9002 89.9001 42.2002 90.9001C41.1002 90.7001 37.6002 90.3001 35.9002 92.6001C34.3002 94.7001 32.7002 95.9001 30.7002 96.5001C28.6002 97.0001 28.4002 99.1001 31.3002 99.2001C31.8002 99.2001 32.0002 99.3001 32.0002 99.4001C32.2002 99.8001 30.1002 101.8 29.4002 103C28.6002 104.5 26.3002 105.5 25.0002 106C24.8002 106.1 24.6002 106.2 24.5002 106.2C23.1002 106.8 23.7002 108.8 26.9002 107.7C29.1002 107 33.1002 104.4 33.2002 105.3C33.2002 105.9 32.3002 106.5 31.6002 107C30.9002 107.5 30.3002 107.9 30.3002 108.4C30.3002 108.6 30.4002 108.8 30.6002 108.9C30.8002 109 30.9002 109.1 31.1002 109.1C31.9002 109.1 32.9002 108.2 34.0002 107.3C35.1002 106.4 36.5002 105.2 37.0002 105.5C37.2002 105.6 37.2002 106 37.0002 106.7C36.8002 107.3 36.6002 108 37.1002 108.4C37.6002 108.8 38.6002 108.6 40.6002 107.8C45.7002 105.6 47.8002 101.9 47.6002 99.0001C49.2002 100.2 50.6002 100.7 52.5002 100.5C53.4002 100.3 54.2002 100.1 55.0002 99.8001L36.3002 123.7C36.3002 123.8 36.2002 123.8 36.2002 123.9C36.2002 124 36.2002 124 36.3002 124.1C36.3002 124.2 36.4002 124.2 36.5002 124.2H36.7002L68.0002 110.4C68.0002 110.4 68.1002 110.4 68.1002 110.3L68.2002 110.2L72.5002 93.1001C83.0002 88.3001 95.2002 81.2001 102.9 71.9001L103 71.8001V71.6001C103 71.5001 103 71.5001 102.9 71.5001C103.1 71.2001 103 71.2001 103 71.2001ZM14.7002 89.5001L39.7002 68.3001L56.2002 71.7001C52.9002 74.5001 47.1002 79.6001 44.2002 83.2001L14.7002 89.5001ZM40.5002 107C38.3002 108 37.8002 107.8 37.7002 107.7C37.6002 107.6 37.7002 107 37.8002 106.7C38.0002 106 38.3002 105.1 37.5002 104.7C36.6002 104.3 35.2002 105.4 33.8002 106.6C32.9002 107.4 31.6002 108.5 31.1002 108.3H31.0002C31.3002 108 31.6002 107.7 32.0002 107.5C32.9002 106.9 34.0002 106.1 33.9002 105.2C33.9002 105.1 33.9002 104.9 33.8002 104.8L33.5002 104.5C32.4002 103.9 29.3002 106.2 26.7002 107C25.2002 107.5 24.5002 107.2 24.4002 107C24.4002 106.9 24.5002 106.7 24.7002 106.6C26.2002 105.9 28.9002 105 29.9002 103.1C30.7002 101.6 32.9002 99.9001 32.5002 98.9001C32.3002 98.4001 31.5002 98.3001 31.3002 98.3001C30.2002 98.3001 29.7002 98.0001 29.7002 97.7001C29.7002 97.4001 30.1002 97.0001 30.8002 96.8001C32.9002 96.2001 34.7002 94.9001 36.4002 92.7001C38.2002 90.4001 42.4002 91.3001 42.4002 91.3001C43.2002 94.0001 44.8002 96.3001 47.0002 98.1001C47.4002 100.2 46.4002 104.5 40.5002 107ZM67.8002 109.7L37.8002 122.9L56.3002 99.3001C61.7002 97.6001 66.9002 95.6001 72.0002 93.2001L67.8002 109.7ZM70.9002 93.0001C63.3002 96.4001 54.6002 99.3001 52.6002 99.6001C50.4002 99.9001 48.7002 99.0001 46.0002 96.3001C43.3002 93.5001 42.4002 88.8001 42.3002 87.7001C42.2002 86.5001 43.9002 83.0001 55.9002 72.7001C67.8002 62.5001 87.4002 55.8001 90.5002 54.8001C90.8002 67.1001 100.1 70.9001 102.4 71.6001C94.5002 80.9001 82.0002 88.1001 70.9002 93.0001Z" fill="#0E2238"/>
<path fill-rule="evenodd" clip-rule="evenodd" d="M70.1002 61.8998C71.2002 61.8998 72.3002 61.5998 73.3002 60.9998C73.9002 58.4998 74.2002 55.8998 74.2002 53.2998L69.9002 43.7998L65.5002 44.3998L70.1002 61.8998ZM63.3002 77.6998L64.5002 77.2998L66.6002 80.1998C66.3002 80.4998 66.1002 80.7998 65.9002 81.1998C65.9002 81.1998 62.7002 81.5998 62.4002 79.8998C62.3002 79.4998 62.3002 78.9998 62.4002 78.5998C62.6002 78.2998 62.9002 77.8998 63.3002 77.6998Z" fill="white"/>
<path fill-rule="evenodd" clip-rule="evenodd" d="M66 81C66 81 65.8 80.2 64.2 80.3C62.6 80.4 63.3 77.7 63.3 77.7C62 77.6 61.5 77.8 59.5 78.9L59.9 80.7L60.5 80.4V82.8C60.5 84 61.2 87.5 63.6 89.3C64.8 90.2 66 89.2 65.8 87.9C65.7 87.2 65.4 86.2 65.3 85.3C65.3 83.8 65.6 82.4 66 81Z" fill="#7168EE"/>
<path d="M66.4 80.8002C66.4 80.8002 66.1 79.7002 64.3 79.8002H64C63.9 79.8002 63.8 79.7002 63.8 79.6002C63.5 79.2002 63.6 78.2002 63.7 77.7002C63.9 77.6002 64.3 77.5002 64.8 77.3002C64.9 77.3002 64.9 77.2002 65 77.1002V76.9002C65 76.8002 64.9 76.8002 64.8 76.7002H64.6C64.1 76.9002 63.6 77.1002 63.5 77.1002C62.7 77.0002 61.9 77.1002 61.2 77.5002C61.1 77.6002 60.1 78.0002 59.6 78.3002C59.5 78.3002 59.5 78.4002 59.5 78.4002V78.6002L59.9 80.4002C59.9 80.4002 59.9 80.5002 60 80.5002L60.1 80.6002H60.3L60.4 80.5002V82.4002C60.4 83.8002 61.2 87.3002 63.7 89.1002C64.7 89.8002 65.5 89.6002 65.9 88.9002C67.1 88.3002 66 86.4002 65.9 84.8002C66 83.4002 66.2 82.0002 66.6 80.6002C66.4 80.9002 66.4 80.9002 66.4 80.8002ZM64.7 89.1002C64.5 89.1002 64.4 89.1002 64.2 89.0002C64 88.9002 63.9 88.9002 63.8 88.8002C61.5 87.2002 60.8 83.9002 60.8 82.6002V80.0002L60.7 79.9002C60.7 79.9002 60.6 79.9002 60.6 79.8002H60.4L60.2 79.9002L59.9 79.0002C60.2 78.8002 60.6 78.6002 60.9 78.5002C61.1 79.8002 61.1 81.2002 61.1 82.5002C61 85.0002 63.2 88.3002 64.7 89.1002ZM65.4 88.6002C65.4 88.6002 65.2 88.6002 64.8 88.3002C63.5 87.3002 61.7 84.6002 61.8 82.5002C61.9 81.0002 61.8 79.6002 61.6 78.2002C62.1 78.0002 62.6 77.9002 63.1 78.0002C63 78.6002 62.9 79.6002 63.4 80.2002C63.5 80.3002 63.7 80.5002 63.9 80.5002C64.1 80.6002 64.3 80.6002 64.5 80.6002C65.5 80.5002 65.9 80.9002 65.9 81.0002C65.8 81.2002 65.7 81.6002 65.6 82.2002C64.9 81.9002 64.1 81.8002 63.3 81.9002C63.2 81.9002 63.1 82.0002 63.1 82.0002C63.1 82.1002 63 82.2002 63 82.2002C63 82.3002 63.1 82.4002 63.1 82.4002C63.2 82.4002 63.2 82.5002 63.3 82.5002C64 82.4002 64.7 82.5002 65.4 82.8002C65.4 83.0002 65.3 83.1002 65.3 83.3002C64.6 83.0002 63.8 82.9002 63 83.0002C62.9 83.0002 62.8 83.0002 62.8 83.1002C62.7 83.2002 62.7 83.2002 62.7 83.3002C62.7 83.4002 62.7 83.5002 62.8 83.5002C62.9 83.6002 62.9 83.6002 63 83.6002C63.7 83.6002 64.5 83.7002 65.2 84.0002C65.1 84.4002 65.1 84.8002 65.1 85.2002C65.1 86.6002 65.9 88.4002 65.4 88.6002Z" fill="#0E2238"/>
<path fill-rule="evenodd" clip-rule="evenodd" d="M72.6001 63.2002L73.5001 61.4002C73.4001 60.9002 73.5001 60.4002 73.3001 60.5002C69.8001 61.8002 64.7001 62.6002 64.7001 62.1002C64.7001 62.1002 63.7001 65.0002 64.4001 66.4002C64.8001 67.3002 70.7001 71.4002 74.1001 73.4002C74.1001 73.4002 67.7001 75.6002 64.4001 76.2002C64.4001 76.2002 63.9001 79.7002 65.9001 81.7002C65.9001 81.7002 70.2001 80.6002 79.6001 76.5002C79.8001 76.4002 80.0001 76.2002 80.2001 76.0002C80.4001 75.8002 80.5001 75.6002 80.6001 75.3002C81.1001 72.2002 72.6001 63.2002 72.6001 63.2002ZM69.7001 44.3002L69.4001 43.4002C70.4001 42.2002 70.7001 41.7002 71.8001 41.0002C73.4001 40.1002 76.6001 36.8002 77.8001 35.5002C79.6001 33.6002 81.3001 31.1002 82.6001 29.7002L86.0001 32.2002C86.1001 32.2002 81.3001 37.5002 73.6001 45.6002C73.6001 45.6002 73.2001 47.4002 73.4001 47.5002C73.6001 47.6002 74.2001 47.9002 74.5001 48.1002C74.5001 48.1002 74.3001 52.6002 74.4001 53.7002C74.6001 53.2002 71.5001 46.7002 69.7001 44.3002Z" fill="#7168EE"/>
<path fill-rule="evenodd" clip-rule="evenodd" d="M65 44.4998C63.7 45.2998 62.5 46.1998 61.3 47.2998C60 48.4998 59 51.2998 58 52.9998C57 54.6998 51.8 60.4998 51 61.7998C51 61.7998 53 63.2998 54.4 64.1998C54.4 64.1998 61.8 54.6998 62.5 54.0998C63.2 55.0998 63.7 56.1998 64.2 57.3998C64.9 59.0998 63.6 63.1998 63.6 63.1998C63.6 63.1998 67.7 66.6998 70.7 65.8998C71.7 62.5998 71.8 58.9998 70.8 55.6998C69.5 51.9998 67.8 48.4998 65.8 45.0998L65.1 43.2998C65.2 43.6998 65.1 44.0998 65 44.4998Z" fill="#7168EE"/>
<path d="M82.2998 3.1001C82.2998 3.1001 88.2998 10.2001 87.4998 10.8001C86.6998 11.3001 83.2998 10.8001 84.2998 12.0001L90.3998 19.2001C90.3998 19.2001 83.2998 13.2001 82.4998 11.4001C81.6998 9.6001 84.7998 9.9001 85.2998 9.2001L82.2998 3.1001Z" fill="white" stroke="#0E2238" stroke-miterlimit="10"/>
<path fill-rule="evenodd" clip-rule="evenodd" d="M53.4998 63.6001L50.9998 61.9001L50.2998 62.8001L52.6998 64.8001L53.4998 63.6001ZM82.4998 29.9001L83.1998 29.1001L85.8998 30.9001L85.2998 32.0001L82.4998 29.9001Z" fill="white"/>
<path d="M64.6996 47.8999H64.5996L64.4996 47.7999C64.2996 47.4999 63.9996 47.2999 63.5996 47.1999C63.1996 47.0999 62.8996 47.0999 62.4996 47.1999H62.2996C62.2996 47.1999 62.1996 47.1999 62.1996 47.0999C62.1996 47.0999 62.1996 46.9999 62.0996 46.9999V46.7999C62.0996 46.7999 62.0996 46.6999 62.1996 46.6999C62.1996 46.6999 62.2996 46.6999 62.2996 46.5999C62.7996 46.4999 63.2996 46.4999 63.7996 46.5999C64.2996 46.7999 64.6996 46.9999 64.9996 47.3999C64.9996 47.3999 65.0996 47.4999 65.0996 47.5999V47.7999C65.0996 47.8999 64.9996 47.8999 64.9996 47.8999H64.6996Z" fill="#0E2238"/>
<path fill-rule="evenodd" clip-rule="evenodd" d="M45.7002 66.1002C45.7002 66.1002 47.1002 64.1002 48.2002 64.7002C49.3002 65.2002 52.8002 67.0002 52.8002 68.6002C52.6002 69.3002 52.2002 70.0002 51.6002 70.5002L50.2002 69.5002C50.2002 69.5002 51.4002 68.5002 50.9002 67.9002C50.1002 67.1002 48.1002 65.6002 47.7002 66.2002L46.9002 67.0002L45.7002 66.1002Z" fill="#7168EE"/>
<path fill-rule="evenodd" clip-rule="evenodd" d="M42.2 63.1998L55.4 73.5998C55.8 73.8998 56.1 74.2998 56.3 74.7998C56.4 75.2998 56.4 75.7998 56.3 76.2998C55.6 77.8998 50.3 85.6998 47.8 85.3998C45.3 85.0998 32.4 74.2998 32 72.7998C31.6 71.2998 32.2 70.9998 34.6 68.2998C37.1 65.5998 39.6 62.1998 42.2 63.1998Z" fill="#0E2238"/>
<path d="M56.6004 74.4001C56.4004 73.9001 56.1004 73.5001 55.7004 73.2001L52.3004 70.5001C52.8004 69.9001 53.1004 69.3001 53.3004 68.5001C53.3004 66.6001 49.6004 64.8001 48.5004 64.3001C47.5004 63.8001 46.5004 64.8001 45.9004 65.4001L45.6004 65.2001C45.6004 65.2001 45.5004 65.2001 45.5004 65.1001H45.3004C45.3004 65.1001 45.2004 65.1001 45.2004 65.2001C45.2004 65.2001 45.2004 65.3001 45.1004 65.3001V65.5001L45.2004 65.6001L47.0004 67.0001C47.0004 67.0001 47.1004 67.1001 47.2004 67.1001H47.4004C47.5004 67.1001 47.5004 67.0001 47.5004 67.0001V66.8001C47.6004 66.7001 48.1004 66.3001 48.1004 66.2001C48.6004 66.1001 50.1004 67.2001 50.8004 67.9001C51.0004 68.1001 50.5004 68.7001 50.2004 68.9001C50.1004 68.9001 50.1004 69.0001 50.1004 69.0001L50.0004 69.1001V69.3001C50.0004 69.4001 50.1004 69.4001 50.1004 69.4001C55.8004 73.9001 55.5004 73.6001 55.8004 74.1001C54.0004 74.9001 50.9004 80.9001 48.5004 80.4001C47.1004 80.1001 39.5004 73.3001 34.6004 68.7001C34.7004 68.6001 34.8004 68.4001 35.0004 68.3001C35.1004 68.2001 35.1004 68.2001 35.1004 68.1001C35.1004 68.0001 35.1004 67.9001 35.0004 67.9001C34.9004 67.8001 34.9004 67.8001 34.8004 67.8001C34.7004 67.8001 34.6004 67.8001 34.6004 67.9001C32.3004 70.4001 31.5004 71.0001 31.9004 72.7001C32.3004 74.3001 45.1004 85.1001 47.8004 85.4001C50.6004 85.7001 55.9004 77.9001 56.6004 76.1001C56.8004 75.6001 56.8004 74.9001 56.6004 74.4001ZM51.2004 67.6001C50.8004 67.2001 49.0004 65.6001 48.0004 65.7001C47.9004 65.7001 47.8004 65.7001 47.7004 65.8001C47.6004 65.8001 47.5004 65.9001 47.5004 66.0001L47.0004 66.4001L46.3004 65.8001C46.8004 65.3001 47.5004 64.6001 48.1004 64.8001C50.3004 65.8001 52.5004 67.3001 52.5004 68.4001C52.4004 69.0001 52.1004 69.6001 51.7004 70.0001L50.8004 69.3001C51.3004 68.8001 51.7004 68.1001 51.2004 67.6001ZM47.7004 84.8001C45.0004 84.2001 32.8004 74.0001 32.4004 72.6001C32.4004 72.5001 32.4004 72.4001 32.3004 72.3001C35.0004 74.7001 45.4004 83.8001 47.6004 84.5001L47.7004 84.8001ZM47.6004 83.8001C45.6004 82.9001 37.5004 76.0001 32.4004 71.5001C32.9004 70.7001 33.5004 69.9001 34.1004 69.3001C36.1004 71.2001 46.4004 80.7001 48.3004 81.2001C50.9004 81.8001 53.6004 76.9001 55.5004 75.2001C54.1004 77.2001 50.2004 82.5001 48.4004 83.7001C48.1004 84.0001 47.9004 84.0001 47.6004 83.8001ZM56.0004 75.9001C55.3004 77.5001 50.8004 84.1001 48.3004 84.8001V84.5001C50.3004 83.7001 54.6004 77.8001 56.1004 75.5001C56.1004 75.7001 56.0004 75.8001 56.0004 75.9001Z" fill="white"/>
<path fill-rule="evenodd" clip-rule="evenodd" d="M40.0996 75.4L42.0996 73.5L43.6996 74.8L41.7996 76.8L40.0996 75.4Z" fill="#7168EE"/>
<path d="M41.5998 77.0002L39.8998 75.6002L39.7998 75.5002V75.3002C39.7998 75.3002 39.7998 75.2002 39.8998 75.2002L41.8998 73.3002C41.9998 73.2002 41.9998 73.2002 42.0998 73.2002C42.1998 73.2002 42.2998 73.2002 42.2998 73.3002L43.8998 74.6002L43.9998 74.7002V74.9002C43.9998 74.9002 43.9998 75.0002 43.8998 75.0002L41.9998 77.0002C41.8998 77.1002 41.8998 77.1002 41.7998 77.1002C41.7998 77.1002 41.6998 77.0002 41.5998 77.0002ZM40.5998 75.3002L41.7998 76.3002L43.1998 74.8002L42.0998 73.9002L40.5998 75.3002Z" fill="#0E2238"/>
<path fill-rule="evenodd" clip-rule="evenodd" d="M50.4002 62.7999C49.8002 63.3999 49.2002 63.8999 48.6002 64.3999C47.8002 64.8999 47.8002 66.4999 48.2002 66.6999C48.2002 66.6999 48.4002 67.4999 49.0002 67.4999L49.6002 68.0999C49.8002 68.2999 50.1002 68.3999 50.4002 68.3999C51.2002 68.3999 51.0002 67.0999 51.7002 67.0999C52.2002 67.0999 52.6002 67.7999 52.6002 67.7999C52.8002 67.4999 52.9002 67.1999 52.9002 66.8999C52.9002 66.5999 52.9002 66.2999 52.8002 65.9999C52.7002 65.7999 52.6002 65.4999 52.6002 65.2999C52.6002 64.9999 52.6002 64.7999 52.7002 64.5999L50.4002 62.7999ZM83.5002 29.1999C83.7002 28.8999 83.9002 28.4999 84.0002 28.1999C84.3002 27.2999 84.0002 26.7999 85.0002 25.9999C86.0002 25.1999 88.3002 22.9999 88.5002 23.5999C88.8002 24.1999 86.5002 26.1999 86.5002 26.1999C86.5002 26.1999 88.2002 27.0999 87.5002 28.1999C86.8002 29.2999 85.9002 29.0999 85.3002 30.5999L83.5002 29.1999Z" fill="white"/>
<path d="M87.0998 25.9C88.1998 24.9 89.1998 23.8 88.8998 23.2C88.3998 22.3 86.4998 24.3 84.8998 25.6C83.5998 26.6 84.1998 27.2 83.4998 28.6C83.3998 28.6 83.3998 28.5 83.2998 28.5C83.1998 28.5 83.0998 28.5 83.0998 28.6L82.3998 29.4C82.2998 29.5 82.2998 29.5 82.2998 29.6C82.2998 29.7 82.2998 29.8 82.3998 29.8C82.4998 29.9 82.4998 29.9 82.5998 29.9C82.6998 29.9 82.7998 29.9 82.7998 29.8L83.2998 29.2C85.0998 30.4 85.2998 30.5 85.4998 30.7L84.9998 31.5V31.7C84.9998 31.7 84.9998 31.8 85.0998 31.8L85.1998 31.9H85.3998C85.3998 31.9 85.4998 31.9 85.4998 31.8L85.5998 31.7L86.1998 30.6C86.1998 30.5 86.2998 30.4 86.1998 30.4C86.1998 30.3 86.0998 30.3 86.0998 30.2L85.7998 30C85.9998 29.6 86.3998 29.2 86.7998 29C87.5998 28.5 88.2998 27.7 87.9998 26.9C87.8998 26.6 87.5998 26.2 87.0998 25.9ZM87.3998 27.8C86.7998 28.7 85.9998 28.7 85.3998 29.9L83.9998 29C84.0998 28.7 84.2998 28.5 84.3998 28.2C84.6998 27.3 84.3998 26.9 85.2998 26.1C86.1998 25.3 87.1998 24.5 88.2998 23.7C87.7998 24.6 86.1998 25.8 85.8998 26.3C85.7998 26.3 85.7998 26.3 85.6998 26.2H85.4998C85.3998 26.2 85.3998 26.3 85.3998 26.4V26.6C85.3998 26.7 85.4998 26.7 85.5998 26.7C85.9998 26.8 86.3998 27.1 86.5998 27.4C86.5998 27.5 86.6998 27.5 86.7998 27.5C86.8998 27.5 86.9998 27.5 86.9998 27.4C87.0998 27.4 87.0998 27.3 87.0998 27.2C87.0998 27.1 87.0998 27 86.9998 27L86.3998 26.4L86.5998 26.1C87.1998 26.7 87.6998 27.3 87.3998 27.8Z" fill="#0E2238"/>
<path fill-rule="evenodd" clip-rule="evenodd" d="M65.5003 43.0999H65.4003C65.1003 43.2999 64.8003 43.4 64.5003 43.4C64.2003 43.4 64.0003 43.3999 63.7003 43.2999C63.5003 43.1999 63.2003 43.1 63.0003 42.9C62.7003 42.6 62.5003 42.3 62.5003 41.9C62.5003 41.5 62.6003 41.0999 62.8003 40.7999C62.8003 40.7999 58.2003 35.8999 64.7003 33.5999C65.5003 33.2999 66.3003 33.2 67.1003 33.4C68.6003 33.8 69.2003 34.6999 69.5003 36.7999C69.6003 37.1999 70.7003 37.7 70.9003 38.4C71.0003 39 71.0003 39.6999 70.9003 40.2999C70.8003 41.3999 70.2003 42.4 69.4003 43.2V43.7L69.0003 45.5999C68.0003 45.3999 67.0003 45 66.2003 44.4L65.5003 43.0999Z" fill="white"/>
<path fill-rule="evenodd" clip-rule="evenodd" d="M68 47.0002L69.3 48.5002C69.3 48.5002 72 54.4002 72 57.4002V61.5002L75.3 64.7002C75.3 64.7002 75.8 61.3002 75.8 60.0002C75.8 60.0002 72.7 51.0002 70.4 47.9002L70.2 46.2002L68.8 45.7002L68 47.0002Z" fill="#7168EE"/>
<path d="M67.6001 35.7001C67.5001 35.7001 67.5001 35.7001 67.4001 35.6001C67.3001 35.6001 67.3001 35.5001 67.3001 35.4001V35.2001C67.3001 35.1001 67.4001 35.1001 67.4001 35.0001C67.7001 34.8001 67.9001 34.7001 68.3001 34.6001C68.6001 34.6001 68.9001 34.6001 69.2001 34.7001C69.3001 34.7001 69.3001 34.8001 69.4001 34.9001V35.1001C69.4001 35.2001 69.3001 35.2001 69.2001 35.3001H69.0001C68.8001 35.2001 68.6001 35.2001 68.4001 35.3001C68.2001 35.3001 68.0001 35.4001 67.8001 35.5001C67.8001 35.7001 67.7001 35.7001 67.6001 35.7001ZM64.1001 38.7001C64.0001 38.7001 64.0001 38.7001 63.9001 38.6001C63.8001 38.6001 63.8001 38.5001 63.8001 38.4001C63.8001 38.4001 63.3001 37.0001 65.1001 36.3001H65.3001C65.4001 36.3001 65.4001 36.4001 65.5001 36.5001C65.6001 36.6001 65.5001 36.7001 65.5001 36.7001C65.5001 36.8001 65.4001 36.8001 65.3001 36.9001C64.1001 37.3001 64.3001 38.1001 64.4001 38.2001V38.3001C64.4001 38.3001 64.4001 38.4001 64.3001 38.4001L64.2001 38.5001C64.2001 38.7001 64.2001 38.7001 64.1001 38.7001ZM68.2001 36.4001C68.7001 36.1001 69.4001 37.3001 68.9001 37.6001C68.4001 37.9001 67.7001 36.7001 68.2001 36.4001ZM65.1001 39.1001C64.6001 38.3001 65.4001 37.8001 65.9001 38.6001C66.0001 38.8001 66.0001 39.0001 66.0001 39.2001C66.0001 39.3001 65.9001 39.4001 65.8001 39.4001C65.6001 39.6001 65.2001 39.4001 65.1001 39.1001Z" fill="#0E2238"/>
<path d="M67.2004 40.3002C66.7004 40.3002 66.3004 39.7002 66.7004 39.5002H66.9004C67.0004 39.5002 67.0004 39.6002 67.1004 39.6002C67.2004 39.7002 67.4004 39.5002 67.5004 39.4002C67.6004 39.2002 67.7004 39.2002 68.2004 39.0002C68.8004 38.7002 68.9004 38.6002 68.9004 38.6002C68.9004 38.6002 68.8004 38.5002 68.5004 38.3002C68.4004 38.3002 68.4004 38.2002 68.3004 38.1002C68.2004 38.0002 68.3004 37.9002 68.3004 37.9002C68.3004 37.8002 68.4004 37.8002 68.5004 37.7002H68.7004C68.9004 37.8002 69.4004 38.1002 69.4004 38.6002C69.4004 39.3002 68.1004 39.6002 67.9004 39.8002C67.8004 39.9002 67.7004 40.1002 67.5004 40.1002C67.6004 40.3002 67.4004 40.3002 67.2004 40.3002ZM68.8004 42.7002C67.9004 42.7002 66.8004 41.2002 67.6004 40.5002C68.0004 40.2002 69.0004 39.5002 69.5004 39.8002C69.9004 40.0002 69.8004 40.8002 69.8004 41.3002C69.7004 41.9002 69.5004 42.7002 68.8004 42.7002ZM69.2004 40.4002C68.8004 40.5002 68.4004 40.7002 68.0004 41.0002C67.9004 41.1002 68.0004 41.2002 68.0004 41.3002C68.2004 41.7002 68.6004 42.0002 68.8004 42.0002C68.9004 41.9002 68.9004 41.8002 69.0004 41.7002C69.2004 41.3002 69.2004 40.9002 69.2004 40.4002Z" fill="#0E2238"/>
<path fill-rule="evenodd" clip-rule="evenodd" d="M61.8 36.4998C61.8 36.4998 61.1 38.6998 63.1 38.8998C63.5 39.7998 64 40.6998 64.6 41.5998L64.3 41.9998L62.8 40.9998C62.7 40.9998 62.7 40.9998 62.6 41.0998C62.5 41.0998 62.5 41.1998 62.4 41.1998C62.4 41.2998 62.3 41.2998 62.3 41.3998V41.5998C61.4 40.5998 60.8 39.2998 60.6 37.8998C60.4 35.6998 63.9 30.5998 68 34.1998C67.7 33.8998 67.2 33.7998 66.8 33.7998C65.8 33.9998 66.3 34.9998 64.5 35.2998C62.9 35.5998 62.2 35.9998 61.8 36.4998Z" fill="#0E2238"/>
<path d="M84.4 75.5002C83.4 75.5002 82.4 75.3002 81.5 74.7002C80.6 74.1002 79.9 73.4002 79.5 72.4002C78.4 69.8002 79.9 66.7002 82.8 65.5002C85.7 64.3002 88.9 65.5002 90 68.1002C91.3 71.6002 88.4 75.5002 84.4 75.5002ZM83 66.1002C80.4 67.1002 79.1 69.9002 80.1 72.2002C81 74.5002 83.9 75.5002 86.4 74.5002C89 73.5002 90.3 70.7002 89.3 68.4002C88.4 66.1002 85.5 65.1002 83 66.1002Z" fill="#0E2238"/>
<path d="M80.9005 71.9C80.2005 70.1 81.2005 67.9 83.3005 67.1C86.7005 65.7 89.8005 68.6 88.3005 71.6C86.8005 74.6 82.1005 74.8 80.9005 71.9ZM83.6005 67.6C81.9005 68.3 80.9005 70.1 81.5005 71.6C82.2005 73.2 84.2005 73.7 85.8005 73C87.5005 72.3 88.5005 70.5 87.9005 69C87.3005 67.5 85.4005 66.9 83.6005 67.6ZM89.7005 80.2C88.5005 80.2 88.0005 79.5 88.1005 78.7C88.4005 76.9 91.6005 75.5 92.8005 76.8C92.9005 76.9 93.0005 77.1 93.1005 77.3C93.1005 77.5 93.2005 77.7 93.1005 77.8C92.8005 79 91.1005 80.2 89.7005 80.2ZM89.8005 77.4C89.5005 77.5 89.3005 77.7 89.1005 78C88.9005 78.2 88.8005 78.5 88.7005 78.8V79.1C88.7005 79.2 88.8005 79.3 88.8005 79.3C89.2005 79.7 90.3005 79.7 91.3005 79.1C91.6005 79 91.8005 78.8 92.0005 78.5C92.2005 78.3 92.3005 78 92.4005 77.7V77.4C92.4005 77.3 92.3005 77.2 92.3005 77.2C91.9005 76.7 90.8005 76.7 89.8005 77.4ZM79.4005 63.7C78.4005 63.7 77.6005 63.1 77.8005 62.2C78.1005 60.4 81.3005 58.9 82.5005 60.2C82.6005 60.3 82.7005 60.5 82.8005 60.7C82.8005 60.9 82.9005 61.1 82.8005 61.2C82.7005 62.6 80.9005 63.7 79.4005 63.7ZM81.2005 60.4C79.5005 60.4 77.9005 62.1 78.6005 62.9C79.4005 63.8 82.1005 62.6 82.2005 61.3C82.3005 60.6 81.8005 60.4 81.2005 60.4ZM16.4005 99.3C13.7005 99.3 7.70046 98.3 4.80046 90.3C0.900455 79.9 4.50046 70 9.20046 64.3C10.5005 62.6 12.1005 61.1 13.9005 59.9C13.6005 56.6 13.8005 53.3 14.5005 50.1C15.6005 44.8 19.0005 34.8 29.2005 28.4C45.6005 18 58.1005 20.8 58.2005 20.8C58.3005 20.8 58.4005 20.9 58.4005 20.9C58.4005 21 58.5005 21.1 58.4005 21.1C58.4005 21.2 58.3005 21.3 58.3005 21.3C58.2005 21.3 58.1005 21.4 58.1005 21.3C58.0005 21.3 45.7005 18.6 29.5005 28.8C19.5005 35.1 16.2005 44.9 15.1005 50.1C14.4005 53.1 14.3005 56.3 14.5005 59.3C17.3005 57.5 20.2005 56.7 22.8005 57.1C25.6005 57.5 27.5005 58.8 28.3005 60.8C28.6005 61.7 28.8005 62.6 28.6005 63.5C28.5005 64.4 28.1005 65.3 27.5005 66.1C26.8005 67 25.9005 67.8 24.9005 68.3C23.9005 68.8 22.7005 69.1 21.6005 69.1C20.0005 69.1 17.6005 68.4 15.5005 65.3C14.6005 63.8 14.1005 62.1 13.9005 60.4C12.3005 61.6 10.9005 63 9.60046 64.5C5.10046 70.1 1.60046 79.7 5.30046 89.9C9.00046 99.9 17.2005 98.4 17.6005 98.4H17.8005L17.9005 98.5V98.8L17.8005 98.9H17.7005C17.3005 99.3 16.8005 99.3 16.4005 99.3ZM14.5005 60.2C14.6005 61.9 15.2005 63.6 16.0005 65.1C17.9005 67.9 20.1005 68.6 21.6005 68.6C22.7005 68.6 23.7005 68.4 24.6005 67.9C25.5005 67.4 26.4005 66.7 27.0005 65.9C27.5005 65.2 27.8005 64.5 27.9005 63.6C28.0005 62.8 27.9005 61.9 27.6005 61.2C26.9005 59.4 25.1005 58.2 22.6005 57.9C20.1005 57.5 17.3005 58.4 14.5005 60.2Z" fill="#0E2238"/>
<path fill-rule="evenodd" clip-rule="evenodd" d="M94.7998 90.8999C94.7998 90.8999 103.8 94.3999 104.6 95.9999C105.4 97.6999 99.5998 97.6999 99.5998 98.3999C99.5998 99.0999 109.8 104.6 111.1 106.6C111.1 106.6 98.8998 101.3 98.2998 98.5999C97.9998 97.1999 102.8 96.2999 102.8 96.2999C102.8 96.2999 103.9 95.9999 102.3 95.1999C100.5 94.3999 94.7998 90.9999 94.7998 90.8999Z" fill="white"/>
<path d="M95.2002 90.6001C95.2002 90.6001 104.2 94.1001 105 95.7001C105.8 97.4001 100 97.4001 100 98.1001C100 98.8001 110.2 104.3 111.5 106.3C111.5 106.3 99.3002 101 98.7002 98.3001C98.4002 96.9001 103.2 96.0001 103.2 96.0001C103.2 96.0001 104.3 95.7001 102.7 94.9001C101 94.1001 95.2002 90.8001 95.2002 90.6001Z" fill="white" stroke="#0E2238" stroke-miterlimit="10"/>
<path d="M81.0001 37.8C80.9001 37.7 80.9001 37.7 80.8001 37.7C80.7001 37.7 80.6001 37.7 80.6001 37.8C79.0001 39.6 74.4001 44.4 73.5001 45.3C72.4001 44.5 71.3001 43.7 70.2001 43C70.8001 42.2 71.2001 41.3 71.3001 40.4C71.6001 38.4 71.4001 38.1 70.5001 37.2C70.3001 37.1 70.2001 36.9 70.1001 36.7C70.0001 36.5 70.0001 36.3 70.0001 36.1C69.6001 34.1 68.0001 33.2 66.8001 33.3C66.6001 33.3 66.4001 33.4 66.2001 33.5C66.0001 33.6 65.9001 33.8 65.8001 34L65.2001 34.6C65.0001 34.7 64.7001 34.8 64.4001 34.8C63.1001 35 62.1001 35.1 61.6001 36.5C61.5001 36.8 61.5001 37.1 61.5001 37.4C61.5001 37.7 61.6001 38 61.8001 38.3C61.9001 38.5 62.1001 38.7 62.4001 38.8C62.6001 38.9 62.9001 39 63.1001 39C63.4001 39.8 63.9001 40.6 64.4001 41.3L63.0001 40.6C62.9001 40.4 62.4001 40.5 62.2001 40.8C62.0001 41.2 62.0001 41.6 62.1001 42.1C62.2001 42.5 62.4001 42.9 62.7001 43.2C63.0001 43.4 63.3001 43.6 63.7001 43.7C64.1001 43.8 64.5001 43.8 64.8001 43.6C64.6001 44.5 64.6001 45.4 64.6001 46.4C64.6001 47.3 64.6001 49.9 65.4001 49.4C65.8001 49.2 66.3001 49 66.7001 48.9C66.3001 49.5 65.9001 50.1 65.7001 50.8V51C65.7001 51.1 65.8001 51.1 65.8001 51.1C65.8001 51.1 69.3001 53.5 70.8001 56.2C71.5001 59.2 71.4001 62.3 70.5001 65.3C68.0001 65.8 64.7001 63.3 64.0001 62.8C64.2001 61.9 65.0001 58 64.4001 56.4C64.0001 55.5 63.6001 54.7 63.0001 53.9C63.4001 53.5 64.0001 53.2 64.5001 53C64.6001 53 64.7001 53 64.7001 52.9C64.8001 52.8 64.8001 52.8 64.8001 52.7C64.8001 52.6 64.8001 52.5 64.7001 52.5C64.6001 52.4 64.6001 52.4 64.5001 52.4C63.8001 52.5 63.2001 52.9 62.7001 53.4C61.6001 54.3 57.1001 60.1 54.3001 63.6C52.9001 62.7 51.2001 61.4 51.2001 61.4C51.2001 61.4 51.1001 61.4 51.1001 61.3H50.9001C50.9001 61.3 50.8001 61.3 50.8001 61.4C49.9001 62.6 50.1001 62.4 50.0001 62.5C49.5001 63 48.9001 63.5 48.3001 63.9C47.3001 64.5 47.3001 66.2 47.8001 66.7L48.1001 67.3C48.3001 67.5 48.5001 67.6 48.7001 67.6C48.9001 67.9 49.1001 68.1 49.4001 68.2C49.7001 68.4 50.0001 68.4 50.3001 68.5C51.3001 68.5 51.2001 67.2 51.6001 67.2C51.9001 67.2 52.1001 67.6 52.2001 67.7L52.3001 67.8H52.7001L52.8001 67.7C53.0001 67.4 53.1001 67.1 53.1001 66.7C53.1001 66.4 53.1001 66 53.0001 65.7C52.9001 65.4 52.8001 65.1 52.9001 64.8H53.0001L53.1001 64.7L53.7001 63.8C53.9001 63.9 54.2001 64.1 54.4001 64.2C54.5001 64.2 54.5001 64.3 54.6001 64.2C54.7001 64.2 54.7001 64.1 54.8001 64.1C57.5001 60.6 61.6001 55.5 62.7001 54.3C63.2001 55 63.7001 55.8 64.0001 56.6C64.7001 58.2 63.6001 62.8 63.6001 62.8V63C63.6001 63.1 63.7001 63.1 63.7001 63.1C63.7001 63.1 63.8001 63.2 64.0001 63.3C63.7001 64.3 63.8001 65.4 64.1001 66.3C64.6001 67.3 69.8001 71.1 73.1001 73.1C71.4001 73.6 66.8001 75 64.3001 75.7C64.2001 75.7 64.2001 75.8 64.1001 75.8C64.1001 75.8 64.0001 75.9 64.0001 76C64.0001 76.2 63.5001 79.7 65.6001 81.7L65.7001 81.8H65.9001C66.0001 81.8 71.0001 80.5 79.9001 76.5C80.2001 76.4 80.4001 76.2 80.5001 76C80.7001 75.8 80.8001 75.5 80.8001 75.2C81.5001 72.2 74.0001 64.1 73.0001 63C73.0001 62.9 73.0001 62.8 73.1001 62.8L75.2001 64.9C75.2001 64.9 75.3001 65 75.4001 65H75.6001C75.7001 65 75.7001 64.9 75.7001 64.9C75.7001 64.9 75.8001 64.8 75.8001 64.7C75.8001 64.6 76.3001 61.3 76.3001 59.9C76.3001 59.7 75.0001 56.3 74.9001 56.1C74.9001 52.8 74.4001 52.3 74.0001 51.4C72.9001 48.8 71.6001 46.3 70.1001 44L70.0001 43.7C71.1001 44.4 72.1001 45.1 73.1001 45.9C72.7001 46 72.2001 46.2 72.0001 46.5V46.7C72.0001 46.8 72.1001 46.8 72.1001 46.9C74.6001 48.3 74.5001 48.3 74.6001 48.3C74.7001 48.3 74.7001 48.3 74.8001 48.2C74.9001 48.2 74.9001 48.1 74.9001 48V47.8C74.9001 47.7 74.8001 47.7 74.8001 47.6L72.9001 46.5C73.2001 46.4 73.6001 46.3 73.9001 46.3C74.0001 46.3 74.0001 46.3 74.1001 46.2L74.2001 46.1V45.9C74.2001 45.8 74.2001 45.8 74.1001 45.7L74.0001 45.6C75.0001 44.6 79.5001 39.8 81.1001 38.1C81.1001 38.1 81.1001 38 81.2001 38V37.9C81.1001 38 81.1001 37.9 81.0001 37.8ZM52.5001 67C52.3001 66.8 52.0001 66.7 51.7001 66.7C51.1001 66.7 50.9001 67.2 50.8001 67.5C50.3001 68.7 50.0001 67.4 50.4001 66.6V66.4L50.2001 66.2H50.0001C49.9001 66.2 49.9001 66.3 49.8001 66.4C49.6001 66.8 49.5001 67.2 49.6001 67.6C49.2001 67.2 49.2001 67.1 49.2001 67C49.2001 66.6 49.3001 66.3 49.4001 66V65.8C49.4001 65.8 49.4001 65.7 49.3001 65.7C49.3001 65.7 49.2001 65.7 49.2001 65.6C49.2001 65.5 49.1001 65.6 49.1001 65.6H49.0001C49.0001 65.6 48.9001 65.6 48.9001 65.7C48.9001 65.7 48.9001 65.8 48.8001 65.8C48.7001 66.2 48.6001 66.5 48.6001 66.9C48.6001 66.8 48.5001 66.8 48.5001 66.7C48.5001 66.3 48.6001 65.9 48.8001 65.5C48.8001 65.4 48.9001 65.4 48.9001 65.3V65.1C48.9001 65 48.8001 65 48.8001 65H48.6001C48.9001 64.5 49.0001 64.8 50.6001 63.3L52.5001 64.8C52.4001 65.3 52.4001 65.8 52.6001 66.3C52.6001 66.3 52.6001 66.7 52.5001 67ZM52.8001 64.1L50.8001 62.6L51.2001 62.1C51.6001 62.4 52.4001 63 53.2001 63.5L52.8001 64.1ZM65.5001 48.7C65.3001 47.2 65.2001 45.7 65.5001 44.2L65.8001 45C65.8001 45 66.6001 46.3 67.5001 48.1C66.8001 48.2 66.2001 48.4 65.5001 48.7ZM68.7001 45.3C67.8001 45 67.0001 44.6 66.2001 44.1L65.9001 43.4C66.7001 43.7 67.5001 43.9 68.4001 43.9C68.6001 43.9 68.8001 43.9 69.1001 43.8C69.1001 43.9 69.2001 43.7 68.7001 45.3ZM70.0001 46.3L70.1001 47.6L69.5001 48L68.5001 46.9L69.0001 46C69.4001 46.1 69.7001 46.2 70.0001 46.3ZM68.4001 45.9L67.6001 47C67.1001 46.1 66.7001 45.4 66.5001 45C67.1001 45.4 67.7001 45.7 68.4001 45.9ZM66.5001 50.8C66.8001 50 67.3001 49.3 67.8001 48.7C68.7001 50.5 69.6001 52.3 70.3001 54.2C69.2001 52.9 67.9001 51.8 66.5001 50.8ZM68.0001 47.6L68.2001 47.3L69.2001 48.5C69.4001 48.9 71.8001 54.2 71.9001 57.1C71.2001 54.2 69.3001 50.2 68.0001 47.6ZM72.4001 63.3C74.6001 65.6 82.6001 74.7 79.6001 76C75.2001 78.1 70.6001 79.8 65.9001 81.3C64.4001 79.7 64.5001 77.2 64.6001 76.4C67.5001 75.5 72.9001 73.9 73.7001 73.7C74.0001 73.8 74.3001 74.1 74.4001 74.4C74.4001 74.5 74.5001 74.5 74.6001 74.6H74.8001C74.9001 74.6 74.9001 74.5 75.0001 74.4V74.2C74.8001 73.6 74.1001 73.2 73.5001 72.9C70.0001 70.8 64.9001 67 64.5001 66.3C64.2001 65.6 64.2001 64.7 64.4001 64C66.2001 65.3 68.8001 66.7 70.9001 66.1C70.9001 66.1 71.0001 66.1 71.0001 66L71.1001 65.9C71.5001 64.6 71.8001 63.2 71.9001 61.9L72.4001 62.4C72.3001 62.7 72.2001 62.9 72.2001 63.2C72.3001 63.2 72.4001 63.3 72.4001 63.3ZM70.9001 46.6C72.1001 48.8 73.1001 51 74.0001 53.3C74.0001 53.6 74.1001 53.9 74.1001 54.2C73.2001 51.9 72.1001 49.7 70.8001 47.6L70.7001 46.5C70.8001 46.6 70.9001 46.6 70.9001 46.6ZM75.6001 59.9L75.2001 63.9L72.5001 61.2V57.2C72.5001 54.5 70.4001 49.6 69.9001 48.4L70.5001 48.1C72.5001 51.3 75.3001 59.2 75.6001 59.9ZM70.4001 45.7C70.0001 45.6 69.7001 45.5 69.3001 45.4L69.6001 44.5C69.8001 44.8 70.1001 45.3 70.4001 45.7ZM69.4001 42.9C69.3001 43 69.1001 43.1 68.9001 43.2C68.7001 43.3 68.5001 43.3 68.4001 43.3C67.8001 43.3 67.1001 43.2 66.5001 43C66.0001 42.8 66.0001 42.8 65.8001 42.8C65.3001 42.9 64.8001 43 64.4001 43.1C64.2001 43.1 64.0001 43.1 63.8001 43L63.2001 42.7C63.0001 42.5 62.8001 42.2 62.8001 41.9C62.8001 41.7 62.8001 41.5 62.9001 41.3C64.3001 42.3 64.2001 42.2 64.4001 42.2H64.6001L64.7001 42.1L65.0001 41.7C65.0001 41.6 65.1001 41.6 65.1001 41.5C65.1001 41.4 65.1001 41.4 65.0001 41.3C64.4001 40.5 63.9001 39.6 63.6001 38.7C63.6001 38.6 63.5001 38.6 63.5001 38.6C63.5001 38.6 63.4001 38.5 63.3001 38.5C63.1001 38.5 62.9001 38.5 62.7001 38.4C62.5001 38.3 62.4001 38.2 62.2001 38C62.0001 37.6 62.0001 37.2 62.1001 36.7C62.4001 35.8 63.0001 35.7 64.4001 35.4C66.4001 35.1 66.0001 34 66.8001 33.8C67.2001 33.8 67.6001 33.9 67.9001 34.1C69.0001 35 69.1001 35.1 69.3001 36.1C69.3001 36.4 69.4001 36.6 69.5001 36.9C69.6001 37.1 69.8001 37.3 70.0001 37.5C70.7001 38.2 70.9001 38.4 70.6001 40.1C70.4001 41.2 70.0001 42.2 69.4001 42.9Z" fill="#0E2238"/>
</g>
<defs>
<clipPath id="clip0_1447_99">
<rect width="127" height="127" fill="white"/>
</clipPath>
</defs>
</svg>
