<svg width="1440" height="722" viewBox="0 0 1440 722" fill="none" xmlns="http://www.w3.org/2000/svg">
<mask id="mask0_387_6554" style="mask-type:alpha" maskUnits="userSpaceOnUse" x="0" y="0" width="1440" height="722">
<rect width="1440" height="722" fill="url(#paint0_linear_387_6554)"/>
</mask>
<g mask="url(#mask0_387_6554)">
<path opacity="0.6" d="M243.318 176.164C243.318 176.164 460.966 448.519 700.809 386.546C940.651 324.574 1118.1 -90.7201 1478.91 136.336M250.241 175.073C250.241 175.073 463.706 459.458 703.569 401.338C943.432 343.218 1124.19 -69.2018 1482.18 163.627M257.164 173.982C257.164 173.982 466.443 470.416 706.316 416.127C946.2 361.861 1130.27 -47.6835 1485.43 190.897M264.086 172.891C264.086 172.891 469.182 481.354 709.077 430.919C948.984 380.485 1136.36 -26.1652 1488.69 218.189M271.009 171.8C271.009 171.8 471.909 492.29 711.834 445.73C951.749 399.148 1142.44 -4.64696 1491.94 245.499M277.932 170.709C277.932 170.709 474.646 503.249 714.594 460.521C954.53 417.792 1148.54 16.8735 1495.2 272.771M284.854 169.618C284.854 169.618 477.386 514.187 717.342 475.311C957.298 436.435 1154.61 38.3897 1498.45 300.061M291.776 168.527C291.776 168.527 480.125 525.125 720.102 490.102C960.078 455.079 1160.71 59.9099 1501.71 327.353M298.699 167.436C298.699 167.436 482.862 536.083 722.862 504.894C962.859 473.724 1166.8 81.4083 1504.97 354.625M305.622 166.345C305.622 166.345 485.602 547.022 725.606 519.703C965.624 492.386 1172.87 102.945 1508.22 381.935M312.544 165.255C312.544 165.255 488.342 557.96 728.367 534.494C968.392 511.029 1178.97 124.465 1511.48 409.227M319.467 164.164C319.467 164.164 491.065 568.917 731.127 549.286C971.176 529.654 1185.05 145.983 1514.75 436.499M326.39 163.073C326.39 163.073 493.805 579.855 733.888 564.077C973.957 548.298 1191.14 167.502 1518.01 463.791M333.312 161.982C333.312 161.982 496.545 590.793 736.635 578.867C976.725 566.941 1197.22 189 1521.26 491.08M340.235 160.891C340.235 160.891 499.282 601.751 739.392 593.678C979.503 585.605 1203.31 210.538 1524.52 518.372M347.154 159.82C347.154 159.82 502.018 612.709 742.15 608.489C982.281 604.269 1209.39 232.076 1527.76 545.682M354.077 158.729C354.077 158.729 504.758 623.648 744.897 623.279C985.049 622.912 1215.47 253.595 1531.01 572.972" stroke="#1C5EE8" stroke-miterlimit="10"/>
</g>
<defs>
<linearGradient id="paint0_linear_387_6554" x1="1440" y1="115.876" x2="671" y2="115.876" gradientUnits="userSpaceOnUse">
<stop stop-color="#D9D9D9"/>
<stop offset="1" stop-color="#D9D9D9" stop-opacity="0"/>
</linearGradient>
</defs>
</svg>
